<?xml version="1.0" encoding="utf-8"?>
<!-- Generator: Adobe Illustrator 23.0.3, SVG Export Plug-In . SVG Version: 6.00 Build 0)  -->
<svg version="1.1" id="Layer_1" xmlns="http://www.w3.org/2000/svg" xmlns:xlink="http://www.w3.org/1999/xlink" x="0px" y="0px"
	 width="857.04px" height="228.58px" viewBox="0 0 857.04 228.58" style="enable-background:new 0 0 857.04 228.58;"
	 xml:space="preserve">
<style type="text/css">
	.st0{fill:#FFFFFF;}
</style>
<g>
	<path class="st0" d="M596.6,114.19h-5.54v22.27h6.08c2.71,0,3.91-1.63,3.91-4.67V119.3C601.05,116.04,599.42,114.19,596.6,114.19z"
		/>
	<path class="st0" d="M600.94,100.4V88.56c0-3.04-1.3-4.67-4.02-4.67h-5.87v21.51h5.43C599.31,105.39,600.94,103.76,600.94,100.4z"
		/>
	<path class="st0" d="M400.33,83.89h-5.97v22.92h5.54c2.82,0,4.34-1.63,4.34-5.1V88.56C404.24,85.52,403.05,83.89,400.33,83.89z"/>
	<path class="st0" d="M535.02,83.13c-3.58,0-5.65,2.39-5.65,5.87v42.36c0,3.48,2.06,5.86,5.65,5.86s5.65-2.39,5.65-5.86V88.99
		C540.66,85.52,538.6,83.13,535.02,83.13z"/>
	<path class="st0" d="M0,0v228.58h857.04V0H0z M129.23,99.75h-10.21V89.1c0-3.48-1.96-5.97-5.97-5.97c-4.02,0-5.97,2.5-5.97,5.87
		v42.36c0,3.37,1.96,5.86,5.97,5.86c4.02,0,5.97-2.5,5.97-5.97v-10.75h10.21v10.54c0,9.67-5.76,16.62-16.4,16.62
		c-10.54,0-17.49-7.39-17.49-17.27v-40.4c0-9.88,6.95-17.27,17.49-17.27c10.64,0,16.4,6.95,16.4,16.62V99.75z M166.6,146.34h-28.13
		V74h11.51v61.91h16.62V146.34z M186.04,146.34h-11.51V74h11.51V146.34z M230.03,99.75h-10.21V89.1c0-3.48-1.96-5.97-5.97-5.97
		c-4.02,0-5.97,2.5-5.97,5.87v42.36c0,3.37,1.96,5.86,5.97,5.86c4.02,0,5.97-2.5,5.97-5.97v-10.75h10.21v10.54
		c0,9.67-5.76,16.62-16.4,16.62c-10.54,0-17.49-7.39-17.49-17.27v-40.4c0-9.88,6.95-17.27,17.49-17.27c10.64,0,16.4,6.95,16.4,16.62
		V99.75z M262.72,146.34l-8.04-30.09l-3.91,10.43v19.66h-11.51V74h11.51v34l11.95-34h11.4l-11.62,30.74l12.06,41.6H262.72z
		 M334.3,146.34h-11.51v-30.41h-12.16v30.41H299.1V74h11.51v31.39h12.16V74h11.51V146.34z M373.94,84.21h-17.38v19.98h12.06v9.56
		h-12.06v22.05h17.38v10.54h-28.89V74h28.89V84.21z M417.93,146.67h-7.06c-4.45,0-6.19-4.34-6.19-9.99v-15.53
		c0-2.93-1.52-5.32-4.67-5.32h-5.65v30.52h-11.51V74h18.46c8.04,0,14.23,4.45,14.23,14.23v12.82c0,4.89-2.17,8.47-6.84,10.21
		c4.67,1.63,7.06,5.54,7.06,9.99v14.77c0,3.26,0.76,5.54,2.17,7.39V146.67z M454.86,84.21h-17.38v19.98h12.06v9.56h-12.06v22.05
		h17.38v10.54h-28.89V74h28.89V84.21z M511.34,84.54h-10.97v61.8h-11.51v-61.8h-11.19V74h33.67V84.54z M552.29,130.48
		c0,10.1-6.84,17.16-17.27,17.16c-10.43,0-17.27-7.06-17.27-17.16V89.86c0-9.99,6.84-17.16,17.27-17.16
		c10.43,0,17.27,7.17,17.27,17.16V130.48z M612.24,132.33c0,9.88-5.97,14.01-13.9,14.01h-18.9V74h18.68c8.04,0,13.9,4.24,13.9,14.01
		v10.54c0,5.43-2.06,9.34-7.17,10.86c5.32,1.74,7.39,5.54,7.39,10.86V132.33z M650.9,84.21h-17.38v19.98h12.05v9.56h-12.05v22.05
		h17.38v10.54h-28.89V74h28.89V84.21z M693.48,146.34h-6.19l-1.74-4.89c-1.96,4.13-6.19,6.19-11.08,6.19
		c-9.56,0-15.53-6.84-15.53-16.62V89.32c0-9.01,6.73-16.62,17.38-16.62c10.64,0,16.62,7.39,16.62,16.62v9.67h-10.86V88.67
		c0-3.04-1.85-5.54-5.76-5.54c-3.8,0-5.76,2.61-5.76,5.65v43.01c0,3.15,2.06,5.76,5.87,5.76c3.91,0,5.86-2.61,5.86-5.76v-12.92
		h-5.65v-8.69h16.83V146.34z M714.66,146.34h-11.51V74h11.51V146.34z M760.93,146.34h-8.91l-12.17-32.8l-4.02-11.08v43.88h-10.43V74
		h10.21l11.29,33.13l3.69,11.19V74h10.32V146.34z"/>
</g>
</svg>
