<?xml version="1.0" encoding="utf-8"?>
<!-- Generator: Adobe Illustrator 23.0.3, SVG Export Plug-In . SVG Version: 6.00 Build 0)  -->
<svg version="1.1" id="Layer_1" xmlns="http://www.w3.org/2000/svg" xmlns:xlink="http://www.w3.org/1999/xlink" x="0px" y="0px"
	 width="1381px" height="303.15px" viewBox="0 0 1381 303.15" style="enable-background:new 0 0 1381 303.15;" xml:space="preserve"
	>
<style type="text/css">
	.st0{opacity:0.5;fill:#FFFFFF;}
	.st1{fill:#FFFFFF;}
	.st2{opacity:0.65;}
	.st3{opacity:0.8;}
</style>
<g>
	<path class="st0" d="M223.01,220.44c0.48-0.39,0.98-0.76,1.44-1.18c-0.21,0.19-0.44,0.35-0.65,0.54c0.13-0.11,0.26-0.2,0.39-0.31
		c-15.26,13.88-35.54,22.35-57.79,22.35c-47.44,0-85.9-38.46-85.9-85.9c0-9.68,1.63-18.98,4.58-27.66
		c-20.37,8.28-34.75,28.23-34.75,51.58c0,15.42,6.27,29.37,16.39,39.45l-0.02,0.02c20.2,20.17,48.08,32.64,78.88,32.64
		c31.12,0,59.26-12.75,79.5-33.29C224.42,219.29,223.71,219.86,223.01,220.44z"/>
	<g>
		<path class="st1" d="M357.73,229.53l-3.87-10.87c-4.35,9.18-13.77,13.77-24.64,13.77c-21.26,0-34.55-15.22-34.55-36.96V102.7
			c0-20.05,14.98-36.96,38.65-36.96s36.96,16.43,36.96,36.96v21.5h-24.16v-22.95c0-6.76-4.11-12.32-12.8-12.32
			c-8.46,0-12.8,5.8-12.8,12.56v95.67c0,7.01,4.59,12.81,13.05,12.81c8.7,0,13.05-5.8,13.05-12.81v-28.75h-12.56v-19.33h37.44v80.45
			H357.73z"/>
		<path class="st1" d="M455.34,230.25c-9.91,0-13.77-9.66-13.77-22.22v-34.55c0-6.52-3.38-11.84-10.39-11.84h-12.56v67.88h-25.61
			V68.64h41.07c17.88,0,31.65,9.9,31.65,31.64v28.51c0,10.87-4.83,18.84-15.22,22.71c10.39,3.63,15.7,12.32,15.7,22.22v32.86
			c0,7.25,1.69,12.32,4.83,16.43v7.25H455.34z M440.6,101.01c0-6.76-2.66-10.39-8.7-10.39h-13.29v50.97h12.32
			c6.28,0,9.66-3.62,9.66-11.35V101.01z"/>
		<path class="st1" d="M525.88,232.43c-23.19,0-38.41-15.7-38.41-38.17v-90.35c0-22.22,15.22-38.17,38.41-38.17
			c23.19,0,38.41,15.94,38.41,38.17v90.35C564.29,216.73,549.07,232.43,525.88,232.43z M538.44,101.98
			c0-7.73-4.59-13.04-12.56-13.04s-12.56,5.31-12.56,13.04v94.22c0,7.73,4.59,13.05,12.56,13.05s12.56-5.32,12.56-13.05V101.98z"/>
		<path class="st1" d="M624.21,232.43c-21.74,0-37.93-14.49-37.93-36.24V68.64h25.85v128.03c0,8.21,4.35,12.81,12.08,12.81
			c8.21,0,12.56-4.59,12.56-12.81V68.64h24.88v127.55C661.65,217.94,645.95,232.43,624.21,232.43z"/>
		<path class="st1" d="M744.03,229.53l-27.06-72.96l-8.94-24.64v97.6h-23.19V68.64h22.71l25.12,73.68l8.21,24.88V68.64h22.95v160.89
			H744.03z"/>
		<path class="st1" d="M826.9,229.53h-39.14V68.64h39.14c23.19,0,36.72,14.49,36.72,38.41v85.04
			C863.62,216.24,850.09,229.53,826.9,229.53z M838.01,106.81c0-10.15-3.86-15.22-12.8-15.22h-11.84v115.23h11.84
			c8.94,0,12.8-5.31,12.8-15.22V106.81z"/>
		<path class="st1" d="M919.66,232.43c-23.19,0-37.69-14.26-37.69-36.96v-14.25h23.43v13.77c0,10.15,4.59,15.94,13.53,15.94
			c9.18,0,13.53-5.56,13.53-14.49c0-14.01-7.01-24.4-20.53-38.65c-13.29-13.29-28.75-32.13-28.75-52.66
			c0-21.74,12.56-39.38,37.44-39.38c21.5,0,35.51,14.98,35.51,36.96v14.49h-23.19V102.7c0-8.94-4.11-14.98-12.32-14.98
			c-7.49,0-12.56,4.83-12.56,13.04c0,15.7,7.01,23.43,21.98,39.38c15.7,16.19,27.3,32.37,27.3,52.67
			C957.35,218.42,940.68,232.43,919.66,232.43z"/>
		<path class="st1" d="M1065.82,229.53h-22.71l-13.29-95.67l-14.74,95.67h-22.47L969.2,68.64h25.37l11.59,107.5l15.22-107.5h19.81
			l13.53,107.5l13.04-107.5h23.67L1065.82,229.53z"/>
		<path class="st1" d="M1106.9,229.53V68.64h64.26v22.71h-38.65v44.45h26.81v21.26h-26.81v49.04h38.65v23.43H1106.9z"/>
		<path class="st1" d="M1190.97,229.53V68.64h25.61v137.7h36.96v23.19H1190.97z"/>
		<path class="st1" d="M1271.18,229.53V68.64h25.61v137.7h36.96v23.19H1271.18z"/>
	</g>
	<g class="st2">
		<path class="st1" d="M209.94,228.14c0.76-0.3,1.5-0.65,2.24-0.98C211.43,227.49,210.7,227.85,209.94,228.14z"/>
		<path class="st1" d="M205.87,229.51c0.76-0.22,1.49-0.49,2.23-0.75C207.36,229.01,206.63,229.29,205.87,229.51z"/>
		<path class="st1" d="M213.83,226.43c0.76-0.37,1.48-0.8,2.21-1.22C215.31,225.63,214.58,226.06,213.83,226.43z"/>
		<path class="st1" d="M221.01,222.04c0.69-0.51,1.33-1.06,1.99-1.6C222.35,220.98,221.7,221.54,221.01,222.04z"/>
		<path class="st1" d="M217.52,224.39c0.73-0.45,1.43-0.95,2.14-1.43C218.96,223.45,218.26,223.94,217.52,224.39z"/>
		<path class="st1" d="M197.3,231.12c0.55-0.05,1.08-0.16,1.63-0.23C198.38,230.96,197.85,231.07,197.3,231.12z"/>
		<path class="st1" d="M130.69,129.99c0.9,0.45,1.8,0.89,2.67,1.38C132.49,130.88,131.59,130.44,130.69,129.99z"/>
		<path class="st1" d="M180.28,236.33c-36.28,0-65.69-29.41-65.69-65.69c0-15.67,5.5-30.05,14.66-41.34
			c-7.08-3.26-14.93-5.13-23.24-5.13c-7.4,0-14.46,1.46-20.93,4.08c-2.96,8.69-4.59,18-4.59,27.69c0,47.44,38.46,85.9,85.9,85.9
			c22.25,0,42.53-8.46,57.79-22.35c-0.12,0.11-0.26,0.2-0.39,0.31C212.21,230.07,196.98,236.33,180.28,236.33z"/>
		<path class="st1" d="M135.34,132.59c0.8,0.49,1.6,0.97,2.37,1.51C136.94,133.56,136.13,133.08,135.34,132.59z"/>
		<path class="st1" d="M201.65,230.51c0.7-0.13,1.37-0.32,2.05-0.48C203.02,230.18,202.35,230.37,201.65,230.51z"/>
		<path class="st1" d="M140.01,135.83c0.59,0.46,1.2,0.89,1.77,1.37C141.21,136.72,140.6,136.29,140.01,135.83z"/>
	</g>
	<g>
		<path class="st1" d="M224.65,61.49c10.28,10.15,16.65,24.24,16.65,39.83c0,30.9-25.05,55.96-55.96,55.96
			c-15.55,0-29.63-6.35-39.77-16.59l0,0l0.01-0.01c-10.09-10.2-24.1-16.51-39.58-16.51c-30.75,0-55.68,24.93-55.68,55.68
			c0,15.42,6.27,29.37,16.39,39.45l-0.02,0.02c-20.24-20.21-32.76-48.14-32.76-79.01c0-61.66,49.99-111.65,111.65-111.65
			c30.83,0,58.74,12.5,78.95,32.7"/>
	</g>
	<g class="st3">
		<path class="st1" d="M145.3,183.81c0-12.92,5.17-24.64,13.54-33.2c-4.91-2.64-9.38-5.99-13.27-9.92h0l0.01-0.01
			c-4.68-4.72-10.2-8.6-16.32-11.42c-9.17,11.3-14.68,25.69-14.68,41.38c0,36.28,29.41,65.69,65.69,65.69
			c17.01,0,32.51-6.46,44.17-17.07c-8.4,7.5-19.48,12.07-31.63,12.07C166.58,231.33,145.3,210.06,145.3,183.81z"/>
	</g>
</g>
</svg>
