<!-- Generator: Adobe Illustrator 22.0.1, SVG Export Plug-In  -->
<svg version="1.1"
	 xmlns="http://www.w3.org/2000/svg" xmlns:xlink="http://www.w3.org/1999/xlink" xmlns:a="http://ns.adobe.com/AdobeSVGViewerExtensions/3.0/"
	 x="0px" y="0px" width="101.6px" height="101.6px" viewBox="0 0 101.6 101.6" style="enable-background:new 0 0 101.6 101.6;"
	 xml:space="preserve">
<style type="text/css">
	.st0{fill:#FFFFFF;}
</style>
<defs>
</defs>
<g>
	<path class="st0" d="M65.4,27.7H36.2c-0.7,0-1.2,0.6-1.1,1.3l4.8,41.6c0.1,0.7,0.8,1.3,1.5,1.3h18.8c0.7,0,1.4-0.6,1.5-1.3L66.5,29
		C66.6,28.3,66.1,27.7,65.4,27.7z M59.8,70H41.8l-4.6-40.3h27.3L59.8,70z"/>
	<g>
		<line class="st0" x1="64.1" y1="35.5" x2="37.5" y2="35.5"/>
		<rect x="37.5" y="34.6" class="st0" width="26.6" height="1.9"/>
	</g>
</g>
<path class="st0" d="M50.8,101.6C22.8,101.6,0,78.8,0,50.8S22.8,0,50.8,0c28,0,50.8,22.8,50.8,50.8S78.8,101.6,50.8,101.6z
	 M50.8,1.9C23.9,1.9,1.9,23.9,1.9,50.8c0,26.9,21.9,48.8,48.8,48.8s48.8-21.9,48.8-48.8C99.6,23.9,77.7,1.9,50.8,1.9z"/>
</svg>
