<!-- Generator: Adobe Illustrator 22.0.1, SVG Export Plug-In  -->
<svg version="1.1"
	 xmlns="http://www.w3.org/2000/svg" xmlns:xlink="http://www.w3.org/1999/xlink" xmlns:a="http://ns.adobe.com/AdobeSVGViewerExtensions/3.0/"
	 x="0px" y="0px" width="101.6px" height="101.6px" viewBox="0 0 101.6 101.6" style="enable-background:new 0 0 101.6 101.6;"
	 xml:space="preserve">
<style type="text/css">
	.st0{fill:#FFFFFF;}
</style>
<defs>
</defs>
<path class="st0" d="M59.7,45.4V28.8c0-0.6-0.5-1.1-1.1-1.1H43.1c-0.6,0-1.1,0.5-1.1,1.1v16.6c0,4.5,3.4,8.2,7.7,8.8v15.6h-4.4
	c-0.6,0-1.1,0.5-1.1,1.1c0,0.6,0.5,1.1,1.1,1.1h11.1c0.6,0,1.1-0.5,1.1-1.1c0-0.6-0.5-1.1-1.1-1.1h-4.4V54.2
	C56.3,53.6,59.7,49.9,59.7,45.4z M44.2,29.9h13.3v11.1H44.2V29.9z M50.8,52.1c-3.6,0-6.6-3-6.6-6.6v-2.3h13.3v2.3
	C57.5,49.1,54.5,52.1,50.8,52.1z"/>
<path class="st0" d="M50.8,101.6C22.8,101.6,0,78.8,0,50.8S22.8,0,50.8,0s50.8,22.8,50.8,50.8S78.8,101.6,50.8,101.6z M50.8,1.9
	C23.9,1.9,1.9,23.9,1.9,50.8c0,26.9,21.9,48.8,48.8,48.8s48.8-21.9,48.8-48.8C99.6,23.9,77.7,1.9,50.8,1.9z"/>
</svg>
