<?xml version="1.0" encoding="utf-8"?>
<!-- Generator: Adobe Illustrator 23.0.3, SVG Export Plug-In . SVG Version: 6.00 Build 0)  -->
<svg version="1.1" id="Layer_1" xmlns="http://www.w3.org/2000/svg" xmlns:xlink="http://www.w3.org/1999/xlink" x="0px" y="0px"
	 width="55.71px" height="56.53px" viewBox="0 0 55.71 56.53" style="enable-background:new 0 0 55.71 56.53;" xml:space="preserve"
	>
<style type="text/css">
	.st0{opacity:0;fill:#FFFFFF;}
	.st1{fill:#FFFFFF;}
</style>
<circle class="st0" cx="28.06" cy="27.71" r="21.43"/>
<path class="st1" d="M28.09,47.64c-10.88,0-19.74-8.85-19.74-19.74S17.2,8.16,28.09,8.16s19.74,8.85,19.74,19.74
	S38.97,47.64,28.09,47.64z M28.09,10.16c-9.78,0-17.74,7.96-17.74,17.74s7.96,17.74,17.74,17.74s17.74-7.96,17.74-17.74
	S37.87,10.16,28.09,10.16z"/>
<polygon class="st1" points="32.43,21.86 30.01,19.45 23.8,25.66 23.8,25.66 21.38,28.08 21.38,28.08 21.38,28.08 23.8,30.49 
	23.8,30.49 30.01,36.71 32.43,34.29 26.21,28.08 "/>
</svg>
