<!-- Generator: Adobe Illustrator 23.0.3, SVG Export Plug-In  -->
<svg version="1.1" xmlns="http://www.w3.org/2000/svg" xmlns:xlink="http://www.w3.org/1999/xlink" x="0px" y="0px"
	 width="3092.17px" height="442.84px" viewBox="0 0 3092.17 442.84" style="enable-background:new 0 0 3092.17 442.84;"
	 xml:space="preserve">
<style type="text/css">
	.st0{fill:#FFFFFF;}
</style>
<defs>
</defs>
<g>
	<path class="st0" d="M635.89,381.62H577.3V131.48h58.59c96.9,0,160.37,51.83,160.37,125.07S732.79,381.62,635.89,381.62z
		 M646.41,181.43h-12.77v150.23h12.77c49.2,0,91.27-21.78,91.27-75.12S695.61,181.43,646.41,181.43z"/>
	<path class="st0" d="M818.42,168.29v-46.2h54.08v46.2H818.42z M818.42,381.62V198.71h54.08v182.91H818.42z"/>
	<path class="st0" d="M976.54,384.62c-24.41,0-53.71-6.76-78.12-16.53l10.14-37.18c23.66,7.89,49.2,13.14,67.6,13.14
		c22.54,0,27.04-6.01,27.04-13.14c0-8.64-6.38-11.27-27.79-19.91c-50.7-21.03-69.86-29.29-69.86-61.97
		c0-35.68,25.54-53.71,76.99-53.71c17.65,0,47.32,3.38,66.85,10.14l-7.14,39.44c-14.65-4.13-40.94-9.01-58.97-9.01
		c-21.41,0-26.29,3.76-26.29,10.52c0,10.89,9.01,12.39,40.19,24.79c43.94,17.28,58.21,24.79,58.21,57.09
		C1055.41,362.46,1023.49,384.62,976.54,384.62z"/>
	<path class="st0" d="M1168.46,384.62c-61.6,0-103.28-41.31-103.28-94.65s41.69-94.65,103.28-94.65c18.03,0,31.17,2.25,48.45,9.39
		l-8.64,38.31c-13.15-3.76-22.91-5.26-35.3-5.26c-36.81,0-54.08,21.78-54.08,52.21s17.28,52.58,54.08,52.58
		c12.39,0,22.16-1.88,35.3-5.63l8.64,38.31C1201.14,381.62,1184.24,384.62,1168.46,384.62z"/>
	<path class="st0" d="M1323.95,384.62c-56.34,0-95.4-44.69-95.4-94.65s39.06-94.65,95.4-94.65s95.4,44.69,95.4,94.65
		S1380.29,384.62,1323.95,384.62z M1323.95,236.64c-25.92,0-41.31,21.41-41.31,53.33c0,31.92,15.4,53.33,41.31,53.33
		s41.31-21.41,41.31-53.33C1365.27,258.05,1349.87,236.64,1323.95,236.64z"/>
	<path class="st0" d="M1533.53,381.62h-53.71l-66.48-182.91h52.21l41.31,127.7l41.31-127.7h52.21L1533.53,381.62z"/>
	<path class="st0" d="M1646.57,305.75c0,21.78,17.28,37.56,54.08,37.56c17.28,0,34.93-2.63,51.45-7.14l9.39,38.31
		c-19.53,7.14-37.18,10.14-61.59,10.14c-67.98,0-105.54-37.56-105.54-94.65c0-49.95,34.18-94.65,90.51-94.65
		c52.96,0,86.76,37.56,86.76,96.15v14.27H1646.57z M1684.88,235.89c-19.53,0-34.55,12.02-37.93,36.43h73.99
		C1718.69,250.17,1706.67,235.89,1684.88,235.89z"/>
	<path class="st0" d="M1912.48,244.16c-4.88-0.38-10.14-0.75-13.9-0.75c-30.42,0-47.7,24.79-47.7,56.71v81.5h-54.08V198.71h52.58
		v31.17c6.76-15.02,24.04-34.55,51.45-34.55c2.25,0,7.14,0.38,12.02,1.13L1912.48,244.16z"/>
	<path class="st0" d="M2012.76,442.84h-52.21l22.16-61.6l-67.98-182.53h52.21L2009,323.4l40.56-124.69h52.21L2012.76,442.84z"/>
	<path class="st0" d="M2346.65,381.62h-44.69l-51.08-156.24l-50.7,156.24h-44.69l-60.84-250.14h55.59l34.18,146.1l47.32-146.1h38.68
		l47.32,146.1l34.18-146.1h55.59L2346.65,381.62z"/>
	<path class="st0" d="M2493.87,384.62c-56.34,0-95.4-44.69-95.4-94.65s39.06-94.65,95.4-94.65s95.4,44.69,95.4,94.65
		S2550.21,384.62,2493.87,384.62z M2493.87,236.64c-25.92,0-41.31,21.41-41.31,53.33c0,31.92,15.4,53.33,41.31,53.33
		s41.31-21.41,41.31-53.33C2535.19,258.05,2519.79,236.64,2493.87,236.64z"/>
	<path class="st0" d="M2727.86,244.16c-4.88-0.38-10.14-0.75-13.9-0.75c-30.42,0-47.7,24.79-47.7,56.71v81.5h-54.08V198.71h52.58
		v31.17c6.76-15.02,24.04-34.55,51.45-34.55c2.25,0,7.14,0.38,12.02,1.13L2727.86,244.16z"/>
	<path class="st0" d="M2869.45,381.62l-67.23-71.74v71.74h-53.71V131.48h53.71v135.96l64.22-68.73h62.72l-84.5,90.14l87.13,92.77
		H2869.45z"/>
	<path class="st0" d="M3013.3,384.62c-24.41,0-53.71-6.76-78.12-16.53l10.14-37.18c23.66,7.89,49.2,13.14,67.6,13.14
		c22.53,0,27.04-6.01,27.04-13.14c0-8.64-6.38-11.27-27.79-19.91c-50.7-21.03-69.86-29.29-69.86-61.97
		c0-35.68,25.54-53.71,76.99-53.71c17.65,0,47.32,3.38,66.85,10.14l-7.14,39.44c-14.65-4.13-40.94-9.01-58.97-9.01
		c-21.41,0-26.29,3.76-26.29,10.52c0,10.89,9.01,12.39,40.19,24.79c43.94,17.28,58.21,24.79,58.21,57.09
		C3092.17,362.46,3060.24,384.62,3013.3,384.62z"/>
</g>
<g>
	<path class="st0" d="M322.44,162.53H265c-12.03-27.08-39.14-45.98-70.68-45.98V90.55h30.76c8.86,0,16.04-7.18,16.04-16.04
		c0-8.86-7.18-16.04-16.04-16.04h-30.76h-6.01h-2c-10.25,0-18.55,8.31-18.55,18.55v44.22c-19.73,7.22-35.68,22.26-44.14,41.36
		c-28.09,1.07-52.01,18.34-62.71,42.74l-22.48-42.81H0v197.22h38.42l23.62-40.3c11.58,23.86,36.04,40.3,64.34,40.3h196.06
		c51.92,0,94.02-42.09,94.02-94.02v-4.59v-4.59C416.45,204.63,374.36,162.53,322.44,162.53z M125.82,286.74
		c-15.37,0-27.84-12.46-27.84-27.84c0-15.37,12.46-27.84,27.84-27.84c15.37,0,27.84,12.46,27.84,27.84
		C153.66,274.28,141.19,286.74,125.82,286.74z M231.09,286.74c-15.37,0-27.84-12.46-27.84-27.84c0-15.37,12.46-27.84,27.84-27.84
		c15.37,0,27.84,12.46,27.84,27.84C258.93,274.28,246.47,286.74,231.09,286.74z M336.36,286.74c-15.37,0-27.84-12.46-27.84-27.84
		c0-15.37,12.46-27.84,27.84-27.84c15.37,0,27.84,12.46,27.84,27.84C364.2,274.28,351.74,286.74,336.36,286.74z"/>
	<g>
		<circle class="st0" cx="447.58" cy="183.48" r="9.4"/>
		<circle class="st0" cx="415.54" cy="74.5" r="9.4"/>
		<circle class="st0" cx="426.42" cy="149.85" r="12.69"/>
		<circle class="st0" cx="468.42" cy="109.37" r="16.74"/>
		<circle class="st0" cx="447.58" cy="30.86" r="30.86"/>
	</g>
</g>
</svg>
