<!-- Generator: Adobe Illustrator 23.0.3, SVG Export Plug-In  -->
<svg version="1.1" xmlns="http://www.w3.org/2000/svg" xmlns:xlink="http://www.w3.org/1999/xlink" x="0px" y="0px" width="920px"
	 height="549.27px" viewBox="0 0 920 549.27" style="enable-background:new 0 0 920 549.27;" xml:space="preserve">
<style type="text/css">
	.st0{fill:#F2F2F2;}
	.st1{fill:#404040;}
	.st2{fill:#00B174;}
	.st3{opacity:0.49;clip-path:url(#SVGID_2_);}
	.st4{fill:none;stroke:#00B274;stroke-miterlimit:10;}
	.st5{fill:none;stroke:url(#SVGID_3_);stroke-miterlimit:10;}
	.st6{fill:none;stroke:#414042;stroke-miterlimit:10;}
	.st7{fill:#E9EAEB;stroke:#414042;stroke-miterlimit:10;}
	.st8{fill:#00B274;}
	.st9{fill:#414042;}
	.st10{opacity:0.49;clip-path:url(#SVGID_5_);}
	.st11{fill:none;stroke:url(#SVGID_6_);stroke-miterlimit:10;}
</style>
<defs>
</defs>
<rect class="st0" width="920" height="549.27"/>
<g>
	<path class="st1" d="M116.4,479.67v-20.85h3.12v20.85H116.4z"/>
	<path class="st1" d="M129.22,479.67l-3.3-9.46l-1.09-3.19v12.65H122v-20.85h2.77l3.07,9.55l1,3.23v-12.78h2.8v20.85H129.22z"/>
	<path class="st1" d="M139.95,479.67l-0.5-4.07h-2.86l-0.59,4.07h-2.86l3.27-20.85h3.45l3.27,20.85H139.95z M138.13,464.29
		l-1.15,8.52h2.12L138.13,464.29z"/>
	<path class="st1" d="M149.65,471.43h-1.89v8.23h-3.12v-20.85h5.01c2.24,0,3.83,1.32,3.83,4.23v4.2
		C153.48,470.12,151.89,471.43,149.65,471.43z M150.45,463.04c0-0.91-0.32-1.38-1.06-1.38h-1.62v7.11h1.62
		c0.74,0,1.06-0.47,1.06-1.38V463.04z"/>
	<path class="st1" d="M160.47,471.43h-1.89v8.23h-3.12v-20.85h5.01c2.24,0,3.83,1.32,3.83,4.23v4.2
		C164.3,470.12,162.71,471.43,160.47,471.43z M161.27,463.04c0-0.91-0.32-1.38-1.06-1.38h-1.62v7.11h1.62
		c0.74,0,1.06-0.47,1.06-1.38V463.04z"/>
	<path class="st1" d="M173.88,479.76c-1.21,0-1.68-1.25-1.68-2.88v-4.48c0-0.84-0.41-1.53-1.27-1.53h-1.53v8.8h-3.12v-20.85h5.01
		c2.18,0,3.86,1.28,3.86,4.1v3.69c0,1.41-0.59,2.44-1.86,2.94c1.27,0.47,1.92,1.6,1.92,2.88v4.26c0,0.94,0.21,1.6,0.59,2.13v0.94
		H173.88z M172.08,463.01c0-0.88-0.32-1.35-1.06-1.35h-1.62v6.61h1.5c0.77,0,1.18-0.47,1.18-1.47V463.01z"/>
	<path class="st1" d="M182.05,480.04c-2.83,0-4.69-2.04-4.69-4.95v-11.71c0-2.88,1.86-4.95,4.69-4.95s4.69,2.07,4.69,4.95v11.71
		C186.74,478.01,184.88,480.04,182.05,480.04z M183.58,463.14c0-1-0.56-1.69-1.53-1.69c-0.97,0-1.53,0.69-1.53,1.69v12.21
		c0,1,0.56,1.69,1.53,1.69c0.97,0,1.53-0.69,1.53-1.69V463.14z"/>
	<path class="st1" d="M194.05,471.43h-1.89v8.23h-3.12v-20.85h5.01c2.24,0,3.83,1.32,3.83,4.23v4.2
		C197.88,470.12,196.29,471.43,194.05,471.43z M194.84,463.04c0-0.91-0.32-1.38-1.06-1.38h-1.62v7.11h1.62
		c0.74,0,1.06-0.47,1.06-1.38V463.04z"/>
	<path class="st1" d="M207.46,479.76c-1.21,0-1.68-1.25-1.68-2.88v-4.48c0-0.84-0.41-1.53-1.27-1.53h-1.53v8.8h-3.12v-20.85h5.01
		c2.18,0,3.86,1.28,3.86,4.1v3.69c0,1.41-0.59,2.44-1.86,2.94c1.27,0.47,1.92,1.6,1.92,2.88v4.26c0,0.94,0.21,1.6,0.59,2.13v0.94
		H207.46z M205.66,463.01c0-0.88-0.32-1.35-1.06-1.35h-1.62v6.61h1.5c0.77,0,1.18-0.47,1.18-1.47V463.01z"/>
	<path class="st1" d="M211.11,479.67v-20.85h3.12v20.85H211.11z"/>
	<path class="st1" d="M222.58,479.67l-0.5-4.07h-2.86l-0.59,4.07h-2.86l3.27-20.85h3.45l3.27,20.85H222.58z M220.75,464.29
		l-1.15,8.52h2.12L220.75,464.29z"/>
	<path class="st1" d="M231.87,461.85v17.82h-3.12v-17.82h-3.04v-3.04h9.14v3.04H231.87z"/>
	<path class="st1" d="M236.49,479.67v-20.85h7.84v2.94h-4.72v5.76h3.27v2.75h-3.27v6.36h4.72v3.04H236.49z"/>
	<path class="st1" d="M253.5,479.67l-3.3-9.46l-1.09-3.19v12.65h-2.83v-20.85h2.77l3.07,9.55l1,3.23v-12.78h2.8v20.85H253.5z"/>
	<path class="st1" d="M258.4,479.67v-20.85h7.84v2.94h-4.72v5.76h3.27v2.75h-3.27v6.36h4.72v3.04H258.4z"/>
	<path class="st1" d="M272.25,480.04c-2.83,0-4.6-1.85-4.6-4.79v-1.85h2.86v1.79c0,1.32,0.56,2.07,1.65,2.07
		c1.12,0,1.65-0.72,1.65-1.88c0-1.82-0.85-3.16-2.51-5.01c-1.62-1.72-3.51-4.16-3.51-6.83c0-2.82,1.53-5.1,4.57-5.1
		c2.62,0,4.33,1.94,4.33,4.79v1.88h-2.83v-1.88c0-1.16-0.5-1.94-1.5-1.94c-0.91,0-1.53,0.63-1.53,1.69c0,2.04,0.85,3.04,2.68,5.1
		c1.92,2.1,3.33,4.2,3.33,6.83C276.85,478.23,274.82,480.04,272.25,480.04z"/>
	<path class="st1" d="M282.89,480.04c-2.83,0-4.6-1.85-4.6-4.79v-1.85h2.86v1.79c0,1.32,0.56,2.07,1.65,2.07
		c1.12,0,1.65-0.72,1.65-1.88c0-1.82-0.85-3.16-2.51-5.01c-1.62-1.72-3.51-4.16-3.51-6.83c0-2.82,1.53-5.1,4.57-5.1
		c2.62,0,4.33,1.94,4.33,4.79v1.88h-2.83v-1.88c0-1.16-0.5-1.94-1.5-1.94c-0.91,0-1.53,0.63-1.53,1.69c0,2.04,0.85,3.04,2.68,5.1
		c1.92,2.1,3.33,4.2,3.33,6.83C287.49,478.23,285.46,480.04,282.89,480.04z"/>
</g>
<g>
	<g>
		<rect x="135.39" y="34.85" class="st2" width="324.5" height="80.53"/>
		
			<rect x="459.89" y="34.85" transform="matrix(-1 -3.552815e-11 3.552815e-11 -1 1244.2742 150.219)" class="st2" width="324.5" height="80.53"/>
		<polygon class="st2" points="121.26,115.37 199.91,115.37 199.91,34.85 121.26,34.85 135.46,75.11 		"/>
		<polygon class="st2" points="798.74,115.37 720.09,115.37 720.09,34.85 798.74,34.85 784.54,75.11 		"/>
	</g>
	<g>
		<path class="st0" d="M189.16,94.78l-5.23-18.86l-1.5-5.85v24.71h-4.4V55.41h4.56l4.68,18.92l1.39,5.91V55.41H193v39.37H189.16z"/>
		<path class="st0" d="M197.57,94.78V55.41h11.86v4.85h-7.01v11.88h4.9v4.67h-4.9v13.06h7.01v4.91H197.57z"/>
		<path class="st0" d="M224.62,94.78l-0.78-2.19c-0.83,1.83-2.56,2.78-4.56,2.78c-3.67,0-6.4-2.96-6.4-7.92V62.74
			c0-4.43,2.95-7.92,7.18-7.92s6.85,3.43,6.85,7.92v6.33h-4.51v-6.8c0-1.36-0.78-2.42-2.34-2.42c-1.45,0-2.28,1.12-2.28,2.48v25.71
			c0,1.48,0.83,2.6,2.34,2.6c1.56,0,2.34-1.12,2.34-2.6v-8.45h-2.17v-4.26h6.96v19.45H224.62z"/>
		<path class="st0" d="M240.04,94.78l-0.67-7.63h-4.29l-0.83,7.63h-4.45l4.95-39.37h5.34l4.95,39.37H240.04z M237.42,65.46
			l-1.78,16.91h3.23L237.42,65.46z"/>
		<path class="st0" d="M255.06,60.44v34.34h-4.84V60.44h-4.62v-5.02h13.92v5.02H255.06z"/>
		<path class="st0" d="M262.86,94.78V55.41h4.9v39.37H262.86z"/>
		<path class="st0" d="M281,94.78h-4.84l-5.23-39.37h5.01l2.73,27.9l3.06-27.9h4.62L281,94.78z"/>
		<path class="st0" d="M289.52,94.78V55.41h11.86v4.85h-7.01v11.88h4.9v4.67h-4.9v13.06h7.01v4.91H289.52z"/>
		<path class="st0" d="M319.4,95.37c-4.17,0-7.24-3.37-7.24-8.1V62.92c0-4.67,3.06-8.1,7.24-8.1c4.29,0,6.74,3.31,6.74,7.92v6.56
			h-4.23v-6.86c0-1.48-0.78-2.6-2.39-2.6s-2.39,1.12-2.39,2.6v25.3c0,1.48,0.78,2.6,2.39,2.6s2.39-1.12,2.39-2.6v-6.92h4.23v6.62
			C326.14,92.12,323.69,95.37,319.4,95.37z"/>
		<path class="st0" d="M336.99,95.37c-4.17,0-7.18-3.31-7.18-8.04V62.86c0-4.67,3.01-8.04,7.18-8.04s7.18,3.37,7.18,8.04v24.47
			C344.17,92.06,341.17,95.37,336.99,95.37z M339.27,62.39c0-1.48-0.83-2.54-2.28-2.54s-2.23,1.06-2.23,2.54V87.8
			c0,1.54,0.78,2.54,2.23,2.54s2.28-1,2.28-2.54V62.39z"/>
		<path class="st0" d="M359.59,94.78l-5.23-18.86l-1.5-5.85v24.71h-4.4V55.41h4.56l4.68,18.92l1.39,5.91V55.41h4.34v39.37H359.59z"
			/>
		<path class="st0" d="M375.34,94.78h-7.35V55.41h7.35c4.17,0,6.79,2.72,6.79,8.22v23.05C382.13,92.24,379.52,94.78,375.34,94.78z
			 M377.23,63.45c0-2.13-0.61-3.13-2.17-3.13h-2.17v29.62h2.17c1.56,0,2.17-1,2.17-3.13V63.45z"/>
		<path class="st0" d="M393.38,95.37c-4.01,0-7.07-3.13-7.07-7.8V55.41h4.9V87.8c0,1.65,0.78,2.6,2.17,2.6c1.5,0,2.28-0.95,2.28-2.6
			V55.41h4.68v32.16C400.33,92.24,397.38,95.37,393.38,95.37z"/>
		<path class="st0" d="M411.69,95.37c-4.17,0-7.24-3.37-7.24-8.1V62.92c0-4.67,3.06-8.1,7.24-8.1c4.29,0,6.74,3.31,6.74,7.92v6.56
			h-4.23v-6.86c0-1.48-0.78-2.6-2.39-2.6s-2.39,1.12-2.39,2.6v25.3c0,1.48,0.78,2.6,2.39,2.6s2.39-1.12,2.39-2.6v-6.92h4.23v6.62
			C418.42,92.12,415.97,95.37,411.69,95.37z"/>
		<path class="st0" d="M430.5,60.44v34.34h-4.84V60.44h-4.62v-5.02h13.92v5.02H430.5z"/>
		<path class="st0" d="M461.39,95.37c-1.73,0-3.17-1.06-4.23-2.6c-1.39,1.77-3.23,2.6-5.29,2.6c-4.06,0-6.85-3.96-6.85-9.46
			c0-5.44,2.28-9.4,5.29-12.47c-0.95-2.9-1.73-6.15-1.73-9.28c0-5.79,2.45-9.34,6.46-9.34c3.84,0,5.51,3.49,5.51,8.1
			c0,4.55-2.06,8.28-5.4,11.88c0.61,2.84,1.61,7.57,2.39,9.69c1.17-2.66,1.95-6.8,1.95-9.69h3.73c-0.06,4.26-1.39,10.34-3.62,14.13
			c0.45,1.06,1.06,1.71,1.89,1.71s1.34-0.71,1.34-2.01v-2.36h2.5v2.96C465.34,93.3,463.9,95.37,461.39,95.37z M451.65,78.58
			c-1.22,1.6-2.06,4.02-2.06,6.68c0,3.43,1.17,5.26,3.12,5.26c0.89,0,1.56-0.41,2-1.18C453.54,86.86,452.32,82.13,451.65,78.58z
			 M454.88,59.73c-1.22,0-2,1.3-2,3.96c0,1.77,0.45,4.26,1,6.68c1.78-2.19,2.67-5.2,2.67-7.21
			C456.55,60.97,456.1,59.73,454.88,59.73z"/>
		<path class="st0" d="M476.08,94.78V55.41h4.9v39.37H476.08z"/>
		<path class="st0" d="M501.02,94.78V64.87l-0.83,7.92l-2.95,21.99h-3.73l-2.78-21.99l-0.78-7.92v29.91h-4.29V55.41h6.62l2.62,19.92
			l0.83,7.86l0.83-7.86l2.56-19.92h6.51v39.37H501.02z"/>
		<path class="st0" d="M517.77,78.82h-2.67v15.96h-4.84V55.41h7.51c3.17,0,6.07,1.83,6.07,7.09v9.22
			C523.84,76.93,520.95,78.82,517.77,78.82z M519.05,62.44c0-1.54-0.5-2.25-1.56-2.25h-2.39v14.13h2.39c1.06,0,1.56-0.77,1.56-2.25
			V62.44z"/>
		<path class="st0" d="M535.31,94.78l-0.67-7.63h-4.29l-0.83,7.63h-4.45l4.95-39.37h5.34l4.95,39.37H535.31z M532.69,65.46
			l-1.78,16.91h3.23L532.69,65.46z"/>
		<path class="st0" d="M550.17,95.37c-4.17,0-7.24-3.37-7.24-8.1V62.92c0-4.67,3.06-8.1,7.24-8.1c4.29,0,6.74,3.31,6.74,7.92v6.56
			h-4.23v-6.86c0-1.48-0.78-2.6-2.39-2.6s-2.39,1.12-2.39,2.6v25.3c0,1.48,0.78,2.6,2.39,2.6s2.39-1.12,2.39-2.6v-6.92h4.23v6.62
			C556.9,92.12,554.45,95.37,550.17,95.37z"/>
		<path class="st0" d="M568.98,60.44v34.34h-4.84V60.44h-4.62v-5.02h13.92v5.02H568.98z"/>
		<path class="st0" d="M590.97,95.37c-4.17,0-7.24-3.37-7.24-8.1V62.92c0-4.67,3.06-8.1,7.24-8.1c4.29,0,6.74,3.31,6.74,7.92v6.56
			h-4.23v-6.86c0-1.48-0.78-2.6-2.39-2.6s-2.39,1.12-2.39,2.6v25.3c0,1.48,0.78,2.6,2.39,2.6s2.39-1.12,2.39-2.6v-6.92h4.23v6.62
			C597.7,92.12,595.25,95.37,590.97,95.37z"/>
		<path class="st0" d="M608.55,95.37c-4.17,0-7.18-3.31-7.18-8.04V62.86c0-4.67,3.01-8.04,7.18-8.04s7.18,3.37,7.18,8.04v24.47
			C615.73,92.06,612.73,95.37,608.55,95.37z M610.84,62.39c0-1.48-0.83-2.54-2.28-2.54s-2.23,1.06-2.23,2.54V87.8
			c0,1.54,0.78,2.54,2.23,2.54s2.28-1,2.28-2.54V62.39z"/>
		<path class="st0" d="M631.15,94.78l-5.23-18.86l-1.5-5.85v24.71h-4.4V55.41h4.56l4.68,18.92l1.39,5.91V55.41h4.34v39.37H631.15z"
			/>
		<path class="st0" d="M647.63,60.44v34.34h-4.84V60.44h-4.62v-5.02h13.92v5.02H647.63z"/>
		<path class="st0" d="M655.42,94.78V55.41h4.9v39.37H655.42z"/>
		<path class="st0" d="M676.01,94.78l-5.23-18.86l-1.5-5.85v24.71h-4.4V55.41h4.56l4.68,18.92l1.39,5.91V55.41h4.34v39.37H676.01z"
			/>
		<path class="st0" d="M691.32,95.37c-4.01,0-7.07-3.13-7.07-7.8V55.41h4.9V87.8c0,1.65,0.78,2.6,2.17,2.6c1.5,0,2.28-0.95,2.28-2.6
			V55.41h4.68v32.16C698.28,92.24,695.33,95.37,691.32,95.37z"/>
		<path class="st0" d="M709.69,95.37c-4.01,0-7.07-3.13-7.07-7.8V55.41h4.9V87.8c0,1.65,0.78,2.6,2.17,2.6c1.5,0,2.28-0.95,2.28-2.6
			V55.41h4.68v32.16C716.64,92.24,713.69,95.37,709.69,95.37z"/>
		<path class="st0" d="M736.51,94.78V64.87l-0.83,7.92l-2.95,21.99H729l-2.78-21.99l-0.78-7.92v29.91h-4.29V55.41h6.62l2.62,19.92
			l0.83,7.86l0.83-7.86l2.56-19.92h6.51v39.37H736.51z"/>
	</g>
</g>
<g>
	<defs>
		<path id="SVGID_1_" d="M801.45,299.57h-17.29l6.65-73.08c0.22-2.42,3.76-2.42,3.98,0L801.45,299.57z M778.16,365.5l6-65.93h-15.99
			l6,65.93C774.39,367.92,777.93,367.92,778.16,365.5z M757.53,229.79l-6.65,69.78h17.29l-6.65-69.78
			C761.29,227.37,757.76,227.37,757.53,229.79z M744.88,362.68l6-63.11h-15.99l6,63.11C741.12,365.09,744.65,365.09,744.88,362.68z
			 M724.25,233l-6.66,66.57h17.29L728.23,233C727.99,230.6,724.49,230.6,724.25,233z M711.59,359.37l6-59.8h-15.99l6,59.8
			C707.86,361.77,711.35,361.77,711.59,359.37z M690.98,236.18l-6.66,63.39h17.29l-6.66-63.39
			C694.7,233.79,691.23,233.79,690.98,236.18z M678.32,356.41l6.01-56.84h-15.99l6.01,56.84
			C674.59,358.8,678.06,358.8,678.32,356.41z M657.69,239.65l-6.66,59.92h17.29l-6.66-59.92
			C661.4,237.28,657.96,237.28,657.69,239.65z M645.03,353.26l6.01-53.69h-15.99l6.01,53.69
			C641.32,355.63,644.76,355.63,645.03,353.26z M624.42,243.04l-6.66,56.54h17.29l-6.66-56.54
			C628.11,240.68,624.69,240.68,624.42,243.04z M611.75,350.53l6.01-50.96h-15.99l6.01,50.96
			C608.05,352.88,611.47,352.88,611.75,350.53z M591.14,246.01l-6.66,53.56h17.29l-6.66-53.56
			C594.81,243.67,591.43,243.67,591.14,246.01z M578.47,347.61l6.01-48.04h-15.99l6.01,48.04
			C574.79,349.94,578.17,349.94,578.47,347.61z M557.86,249.5l-6.66,50.07h17.29l-6.66-50.07
			C561.52,247.19,558.17,247.19,557.86,249.5z M545.19,344.34l6.01-44.77h-15.99l6.01,44.77
			C541.53,346.65,544.88,346.65,545.19,344.34z M524.58,252.91l-6.67,46.66h17.29l-6.67-46.66
			C528.21,250.62,524.9,250.62,524.58,252.91z M511.9,341.66l6.01-42.23h-15.99l6.01,42.23
			C508.27,343.95,511.57,343.95,511.9,341.66z M491.3,256.09l-6.67,43.48h17.29l-6.67-43.48
			C494.91,253.82,491.65,253.82,491.3,256.09z M478.61,338.67l6.02-39.1h-15.99l6.02,39.1
			C475.01,340.93,478.27,340.93,478.61,338.67z M458.02,259.27l-6.67,40.3h17.29l-6.67-40.3
			C461.6,257.04,458.39,257.04,458.02,259.27z M445.33,335.47l6.02-35.9h-15.99l6.02,35.9C441.76,337.7,444.96,337.7,445.33,335.47z
			 M424.75,262.75l-6.68,36.82h17.29l-6.68-36.82C428.29,260.56,425.15,260.56,424.75,262.75z M412.05,332.56l6.03-32.99h-15.99
			l6.03,32.99C408.51,334.75,411.65,334.75,412.05,332.56z M391.47,265.95l-6.68,33.62h17.29l-6.68-33.62
			C394.97,263.81,391.9,263.81,391.47,265.95z M378.75,329.41l6.03-29.84H368.8l6.03,29.84
			C375.27,331.55,378.32,331.55,378.75,329.41z M358.2,268.92l-6.69,30.65h17.29l-6.69-30.65
			C361.65,266.83,358.66,266.83,358.2,268.92z M345.47,326.54l6.04-26.97h-15.99l6.04,26.97C342.03,328.63,345,328.63,345.47,326.54
			z M324.93,272.28l-6.7,27.29h17.29l-6.7-27.29C328.32,270.25,325.43,270.25,324.93,272.28z M312.17,323.37l6.06-23.79h-15.99
			l6.06,23.79C308.81,325.37,311.66,325.37,312.17,323.37z M291.67,275.68l-6.72,23.89h17.29l-6.72-23.89
			C294.97,273.74,292.22,273.74,291.67,275.68z M278.88,320.44l6.07-20.87h-15.99l6.07,20.87
			C275.59,322.37,278.32,322.37,278.88,320.44z M258.42,279l-6.74,20.57h17.29L262.22,279C261.62,277.17,259.02,277.17,258.42,279z
			 M245.57,317.53l6.1-17.96h-15.99l6.1,17.96C242.4,319.34,244.96,319.34,245.57,317.53z M225.18,282.38l-6.78,17.19h17.29
			l-6.78-17.19C228.23,280.69,225.85,280.69,225.18,282.38z M212.25,314.69l6.14-15.12h-15.99l6.14,15.12
			C209.22,316.35,211.58,316.35,212.25,314.69z M191.96,285.54l-6.85,14.03h17.29l-6.85-14.03
			C194.83,284.04,192.69,284.04,191.96,285.54z M178.9,311.8l6.21-12.23h-15.99l6.21,12.23C176.08,313.26,178.16,313.26,178.9,311.8
			z M158.79,288.61l-6.96,10.96h17.29l-6.96-10.96C161.38,287.37,159.58,287.37,158.79,288.61z M125.74,291.93l-7.19,7.65h17.29
			l-7.19-7.65C127.86,291.09,126.53,291.09,125.74,291.93z M145.49,308.78l6.35-9.21h-15.99l6.35,9.21
			C142.99,309.93,144.69,309.93,145.49,308.78z"/>
	</defs>
	<clipPath id="SVGID_2_">
		<use xlink:href="#SVGID_1_"  style="overflow:visible;"/>
	</clipPath>
	<g class="st3">
		<line class="st4" x1="869.33" y1="224.17" x2="772.24" y2="374.98"/>
		<line class="st4" x1="167.71" y1="224.17" x2="70.63" y2="374.98"/>
		<line class="st4" x1="171.35" y1="224.17" x2="74.26" y2="374.98"/>
		<line class="st4" x1="174.98" y1="224.17" x2="77.9" y2="374.98"/>
		<line class="st4" x1="178.62" y1="224.17" x2="81.54" y2="374.98"/>
		<line class="st4" x1="182.25" y1="224.17" x2="85.17" y2="374.98"/>
		<line class="st4" x1="189.52" y1="224.17" x2="92.44" y2="374.98"/>
		<line class="st4" x1="196.79" y1="224.17" x2="99.71" y2="374.98"/>
		<line class="st4" x1="204.06" y1="224.17" x2="106.98" y2="374.98"/>
		<line class="st4" x1="211.34" y1="224.17" x2="114.25" y2="374.98"/>
		<line class="st4" x1="218.61" y1="224.17" x2="121.52" y2="374.98"/>
		<line class="st4" x1="229.51" y1="224.17" x2="132.43" y2="374.98"/>
		<line class="st4" x1="244.05" y1="224.17" x2="146.97" y2="374.98"/>
		<line class="st4" x1="258.59" y1="224.17" x2="161.51" y2="374.98"/>
		<line class="st4" x1="273.14" y1="224.17" x2="176.05" y2="374.98"/>
		<line class="st4" x1="185.89" y1="224.17" x2="88.81" y2="374.98"/>
		<line class="st4" x1="193.16" y1="224.17" x2="96.08" y2="374.98"/>
		<line class="st4" x1="200.43" y1="224.17" x2="103.35" y2="374.98"/>
		<line class="st4" x1="207.7" y1="224.17" x2="110.62" y2="374.98"/>
		<line class="st4" x1="214.97" y1="224.17" x2="117.89" y2="374.98"/>
		<line class="st4" x1="222.24" y1="224.17" x2="125.16" y2="374.98"/>
		<line class="st4" x1="236.78" y1="224.17" x2="139.7" y2="374.98"/>
		<line class="st4" x1="251.32" y1="224.17" x2="154.24" y2="374.98"/>
		<line class="st4" x1="265.86" y1="224.17" x2="168.78" y2="374.98"/>
		<line class="st4" x1="280.41" y1="224.17" x2="183.32" y2="374.98"/>
		<line class="st4" x1="287.68" y1="224.17" x2="190.59" y2="374.98"/>
		<line class="st4" x1="302.22" y1="224.17" x2="205.14" y2="374.98"/>
		<line class="st4" x1="316.76" y1="224.17" x2="219.68" y2="374.98"/>
		<line class="st4" x1="331.3" y1="224.17" x2="234.22" y2="374.98"/>
		<line class="st4" x1="345.84" y1="224.17" x2="248.76" y2="374.98"/>
		<line class="st4" x1="360.38" y1="224.17" x2="263.3" y2="374.98"/>
		<line class="st4" x1="225.88" y1="224.17" x2="128.79" y2="374.98"/>
		<line class="st4" x1="240.42" y1="224.17" x2="143.34" y2="374.98"/>
		<line class="st4" x1="254.96" y1="224.17" x2="157.88" y2="374.98"/>
		<line class="st4" x1="269.5" y1="224.17" x2="172.42" y2="374.98"/>
		<line class="st4" x1="233.15" y1="224.17" x2="136.06" y2="374.98"/>
		<line class="st4" x1="247.69" y1="224.17" x2="150.61" y2="374.98"/>
		<line class="st4" x1="262.23" y1="224.17" x2="165.15" y2="374.98"/>
		<line class="st4" x1="276.77" y1="224.17" x2="179.69" y2="374.98"/>
		<line class="st4" x1="284.04" y1="224.17" x2="186.96" y2="374.98"/>
		<line class="st4" x1="294.95" y1="224.17" x2="197.86" y2="374.98"/>
		<line class="st4" x1="309.49" y1="224.17" x2="212.41" y2="374.98"/>
		<line class="st4" x1="324.03" y1="224.17" x2="226.95" y2="374.98"/>
		<line class="st4" x1="338.57" y1="224.17" x2="241.49" y2="374.98"/>
		<line class="st4" x1="353.11" y1="224.17" x2="256.03" y2="374.98"/>
		<line class="st4" x1="374.92" y1="224.17" x2="277.84" y2="374.98"/>
		<line class="st4" x1="389.47" y1="224.17" x2="292.38" y2="374.98"/>
		<line class="st4" x1="404.01" y1="224.17" x2="306.92" y2="374.98"/>
		<line class="st4" x1="422.18" y1="224.17" x2="325.1" y2="374.98"/>
		<line class="st4" x1="436.72" y1="224.17" x2="339.64" y2="374.98"/>
		<line class="st4" x1="476.71" y1="224.17" x2="379.63" y2="374.98"/>
		<line class="st4" x1="567.59" y1="224.17" x2="470.51" y2="374.98"/>
		<line class="st4" x1="625.76" y1="224.17" x2="528.68" y2="374.98"/>
		<line class="st4" x1="654.84" y1="224.17" x2="557.76" y2="374.98"/>
		<line class="st4" x1="367.65" y1="224.17" x2="270.57" y2="374.98"/>
		<line class="st4" x1="382.19" y1="224.17" x2="285.11" y2="374.98"/>
		<line class="st4" x1="396.74" y1="224.17" x2="299.65" y2="374.98"/>
		<line class="st4" x1="411.28" y1="224.17" x2="314.19" y2="374.98"/>
		<line class="st4" x1="429.45" y1="224.17" x2="332.37" y2="374.98"/>
		<line class="st4" x1="447.63" y1="224.17" x2="350.55" y2="374.98"/>
		<line class="st4" x1="534.88" y1="224.17" x2="437.79" y2="374.98"/>
		<line class="st4" x1="596.68" y1="224.17" x2="499.59" y2="374.98"/>
		<line class="st4" x1="640.3" y1="224.17" x2="543.22" y2="374.98"/>
		<line class="st4" x1="669.38" y1="224.17" x2="572.3" y2="374.98"/>
		<line class="st4" x1="683.92" y1="224.17" x2="586.84" y2="374.98"/>
		<line class="st4" x1="698.47" y1="224.17" x2="601.38" y2="374.98"/>
		<line class="st4" x1="713.01" y1="224.17" x2="615.92" y2="374.98"/>
		<line class="st4" x1="727.55" y1="224.17" x2="630.47" y2="374.98"/>
		<line class="st4" x1="742.09" y1="224.17" x2="645.01" y2="374.98"/>
		<line class="st4" x1="418.55" y1="224.17" x2="321.47" y2="374.98"/>
		<line class="st4" x1="298.58" y1="224.17" x2="201.5" y2="374.98"/>
		<line class="st4" x1="313.12" y1="224.17" x2="216.04" y2="374.98"/>
		<line class="st4" x1="327.66" y1="224.17" x2="230.58" y2="374.98"/>
		<line class="st4" x1="342.21" y1="224.17" x2="245.12" y2="374.98"/>
		<line class="st4" x1="356.75" y1="224.17" x2="259.66" y2="374.98"/>
		<line class="st4" x1="291.31" y1="224.17" x2="194.23" y2="374.98"/>
		<line class="st4" x1="305.85" y1="224.17" x2="208.77" y2="374.98"/>
		<line class="st4" x1="320.39" y1="224.17" x2="223.31" y2="374.98"/>
		<line class="st4" x1="334.94" y1="224.17" x2="237.85" y2="374.98"/>
		<line class="st4" x1="349.48" y1="224.17" x2="252.39" y2="374.98"/>
		<line class="st4" x1="371.29" y1="224.17" x2="274.21" y2="374.98"/>
		<line class="st4" x1="385.83" y1="224.17" x2="288.75" y2="374.98"/>
		<line class="st4" x1="400.37" y1="224.17" x2="303.29" y2="374.98"/>
		<line class="st4" x1="364.02" y1="224.17" x2="266.94" y2="374.98"/>
		<line class="st4" x1="378.56" y1="224.17" x2="281.48" y2="374.98"/>
		<line class="st4" x1="393.1" y1="224.17" x2="296.02" y2="374.98"/>
		<line class="st4" x1="407.64" y1="224.17" x2="310.56" y2="374.98"/>
		<line class="st4" x1="414.91" y1="224.17" x2="317.83" y2="374.98"/>
		<line class="st4" x1="433.09" y1="224.17" x2="336.01" y2="374.98"/>
		<line class="st4" x1="462.17" y1="224.17" x2="365.09" y2="374.98"/>
		<line class="st4" x1="553.05" y1="224.17" x2="455.97" y2="374.98"/>
		<line class="st4" x1="611.22" y1="224.17" x2="514.14" y2="374.98"/>
		<line class="st4" x1="647.57" y1="224.17" x2="550.49" y2="374.98"/>
		<line class="st4" x1="425.82" y1="224.17" x2="328.74" y2="374.98"/>
		<line class="st4" x1="440.36" y1="224.17" x2="343.28" y2="374.98"/>
		<line class="st4" x1="505.79" y1="224.17" x2="408.71" y2="374.98"/>
		<line class="st4" x1="582.14" y1="224.17" x2="485.05" y2="374.98"/>
		<line class="st4" x1="633.03" y1="224.17" x2="535.95" y2="374.98"/>
		<line class="st4" x1="662.11" y1="224.17" x2="565.03" y2="374.98"/>
		<line class="st4" x1="676.65" y1="224.17" x2="579.57" y2="374.98"/>
		<line class="st4" x1="691.2" y1="224.17" x2="594.11" y2="374.98"/>
		<line class="st4" x1="705.74" y1="224.17" x2="608.65" y2="374.98"/>
		<line class="st4" x1="720.28" y1="224.17" x2="623.2" y2="374.98"/>
		<line class="st4" x1="734.82" y1="224.17" x2="637.74" y2="374.98"/>
		<line class="st4" x1="749.36" y1="224.17" x2="652.28" y2="374.98"/>
		<line class="st4" x1="756.63" y1="224.17" x2="659.55" y2="374.98"/>
		<line class="st4" x1="763.9" y1="224.17" x2="666.82" y2="374.98"/>
		<line class="st4" x1="771.17" y1="224.17" x2="674.09" y2="374.98"/>
		<line class="st4" x1="560.32" y1="224.17" x2="463.24" y2="374.98"/>
		<line class="st4" x1="618.49" y1="224.17" x2="521.41" y2="374.98"/>
		<line class="st4" x1="651.21" y1="224.17" x2="554.12" y2="374.98"/>
		<line class="st4" x1="520.34" y1="224.17" x2="423.25" y2="374.98"/>
		<line class="st4" x1="589.41" y1="224.17" x2="492.32" y2="374.98"/>
		<line class="st4" x1="636.67" y1="224.17" x2="539.58" y2="374.98"/>
		<line class="st4" x1="665.75" y1="224.17" x2="568.67" y2="374.98"/>
		<line class="st4" x1="680.29" y1="224.17" x2="583.21" y2="374.98"/>
		<line class="st4" x1="694.83" y1="224.17" x2="597.75" y2="374.98"/>
		<line class="st4" x1="709.37" y1="224.17" x2="612.29" y2="374.98"/>
		<line class="st4" x1="723.91" y1="224.17" x2="626.83" y2="374.98"/>
		<line class="st4" x1="738.45" y1="224.17" x2="641.37" y2="374.98"/>
		<line class="st4" x1="545.78" y1="224.17" x2="448.7" y2="374.98"/>
		<line class="st4" x1="603.95" y1="224.17" x2="506.87" y2="374.98"/>
		<line class="st4" x1="643.94" y1="224.17" x2="546.85" y2="374.98"/>
		<line class="st4" x1="491.25" y1="224.17" x2="394.17" y2="374.98"/>
		<line class="st4" x1="574.87" y1="224.17" x2="477.78" y2="374.98"/>
		<line class="st4" x1="469.44" y1="224.17" x2="372.36" y2="374.98"/>
		<line class="st4" x1="563.96" y1="224.17" x2="466.88" y2="374.98"/>
		<line class="st4" x1="622.12" y1="224.17" x2="525.04" y2="374.98"/>
		<line class="st4" x1="443.99" y1="224.17" x2="346.91" y2="374.98"/>
		<line class="st4" x1="527.61" y1="224.17" x2="430.52" y2="374.98"/>
		<line class="st4" x1="593.04" y1="224.17" x2="495.96" y2="374.98"/>
		<line class="st4" x1="454.9" y1="224.17" x2="357.82" y2="374.98"/>
		<line class="st4" x1="549.42" y1="224.17" x2="452.34" y2="374.98"/>
		<line class="st4" x1="607.58" y1="224.17" x2="510.5" y2="374.98"/>
		<line class="st4" x1="498.52" y1="224.17" x2="401.44" y2="374.98"/>
		<line class="st4" x1="578.5" y1="224.17" x2="481.42" y2="374.98"/>
		<line class="st4" x1="556.69" y1="224.17" x2="459.61" y2="374.98"/>
		<line class="st4" x1="614.85" y1="224.17" x2="517.77" y2="374.98"/>
		<line class="st4" x1="513.07" y1="224.17" x2="415.98" y2="374.98"/>
		<line class="st4" x1="585.77" y1="224.17" x2="488.69" y2="374.98"/>
		<line class="st4" x1="542.15" y1="224.17" x2="445.07" y2="374.98"/>
		<line class="st4" x1="600.31" y1="224.17" x2="503.23" y2="374.98"/>
		<line class="st4" x1="483.98" y1="224.17" x2="386.9" y2="374.98"/>
		<line class="st4" x1="473.08" y1="224.17" x2="375.99" y2="374.98"/>
		<line class="st4" x1="531.24" y1="224.17" x2="434.16" y2="374.98"/>
		<line class="st4" x1="458.54" y1="224.17" x2="361.45" y2="374.98"/>
		<line class="st4" x1="502.16" y1="224.17" x2="405.08" y2="374.98"/>
		<line class="st4" x1="516.7" y1="224.17" x2="419.62" y2="374.98"/>
		<line class="st4" x1="487.62" y1="224.17" x2="390.54" y2="374.98"/>
		<line class="st4" x1="465.81" y1="224.17" x2="368.72" y2="374.98"/>
		<line class="st4" x1="523.97" y1="224.17" x2="426.89" y2="374.98"/>
		<line class="st4" x1="451.27" y1="224.17" x2="354.18" y2="374.98"/>
		<line class="st4" x1="494.89" y1="224.17" x2="397.81" y2="374.98"/>
		<line class="st4" x1="509.43" y1="224.17" x2="412.35" y2="374.98"/>
		<line class="st4" x1="538.51" y1="224.17" x2="441.43" y2="374.98"/>
		<line class="st4" x1="480.35" y1="224.17" x2="383.27" y2="374.98"/>
		<line class="st4" x1="571.23" y1="224.17" x2="474.15" y2="374.98"/>
		<line class="st4" x1="629.4" y1="224.17" x2="532.31" y2="374.98"/>
		<line class="st4" x1="658.48" y1="224.17" x2="561.4" y2="374.98"/>
		<line class="st4" x1="673.02" y1="224.17" x2="575.94" y2="374.98"/>
		<line class="st4" x1="687.56" y1="224.17" x2="590.48" y2="374.98"/>
		<line class="st4" x1="702.1" y1="224.17" x2="605.02" y2="374.98"/>
		<line class="st4" x1="716.64" y1="224.17" x2="619.56" y2="374.98"/>
		<line class="st4" x1="731.18" y1="224.17" x2="634.1" y2="374.98"/>
		<line class="st4" x1="745.72" y1="224.17" x2="648.64" y2="374.98"/>
		<line class="st4" x1="753" y1="224.17" x2="655.91" y2="374.98"/>
		<line class="st4" x1="760.27" y1="224.17" x2="663.18" y2="374.98"/>
		<line class="st4" x1="767.54" y1="224.17" x2="670.45" y2="374.98"/>
		<line class="st4" x1="774.81" y1="224.17" x2="677.72" y2="374.98"/>
		<line class="st4" x1="778.44" y1="224.17" x2="681.36" y2="374.98"/>
		<line class="st4" x1="782.08" y1="224.17" x2="685" y2="374.98"/>
		<line class="st4" x1="785.71" y1="224.17" x2="688.63" y2="374.98"/>
		<line class="st4" x1="789.35" y1="224.17" x2="692.27" y2="374.98"/>
		<line class="st4" x1="792.98" y1="224.17" x2="695.9" y2="374.98"/>
		<line class="st4" x1="796.62" y1="224.17" x2="699.54" y2="374.98"/>
		<line class="st4" x1="800.25" y1="224.17" x2="703.17" y2="374.98"/>
		<line class="st4" x1="803.89" y1="224.17" x2="706.81" y2="374.98"/>
		<line class="st4" x1="807.52" y1="224.17" x2="710.44" y2="374.98"/>
		<line class="st4" x1="811.16" y1="224.17" x2="714.08" y2="374.98"/>
		<line class="st4" x1="814.8" y1="224.17" x2="717.71" y2="374.98"/>
		<line class="st4" x1="818.43" y1="224.17" x2="721.35" y2="374.98"/>
		<line class="st4" x1="822.07" y1="224.17" x2="724.98" y2="374.98"/>
		<line class="st4" x1="825.7" y1="224.17" x2="728.62" y2="374.98"/>
		<line class="st4" x1="829.34" y1="224.17" x2="732.25" y2="374.98"/>
		<line class="st4" x1="832.97" y1="224.17" x2="735.89" y2="374.98"/>
		<line class="st4" x1="836.61" y1="224.17" x2="739.52" y2="374.98"/>
		<line class="st4" x1="840.24" y1="224.17" x2="743.16" y2="374.98"/>
		<line class="st4" x1="843.88" y1="224.17" x2="746.8" y2="374.98"/>
		<line class="st4" x1="847.51" y1="224.17" x2="750.43" y2="374.98"/>
		<line class="st4" x1="851.15" y1="224.17" x2="754.07" y2="374.98"/>
		<line class="st4" x1="854.78" y1="224.17" x2="757.7" y2="374.98"/>
		<line class="st4" x1="858.42" y1="224.17" x2="761.34" y2="374.98"/>
		<line class="st4" x1="862.05" y1="224.17" x2="764.97" y2="374.98"/>
		<line class="st4" x1="865.69" y1="224.17" x2="768.61" y2="374.98"/>
	</g>
</g>
<linearGradient id="SVGID_3_" gradientUnits="userSpaceOnUse" x1="117.3953" y1="295.4334" x2="801.9959" y2="295.4334">
	<stop  offset="0" style="stop-color:#00B274"/>
	<stop  offset="1" style="stop-color:#00B274"/>
</linearGradient>
<path class="st5" d="M801.45,299.01h-17.29l6.65-73.08c0.22-2.42,3.76-2.42,3.98,0L801.45,299.01z M778.16,364.94l6-65.93h-15.99
	l6,65.93C774.39,367.36,777.93,367.36,778.16,364.94z M757.53,229.22l-6.65,69.78h17.29l-6.65-69.78
	C761.29,226.81,757.76,226.81,757.53,229.22z M744.88,362.11l6-63.11h-15.99l6,63.11C741.12,364.53,744.65,364.53,744.88,362.11z
	 M724.25,232.44l-6.66,66.57h17.29l-6.66-66.57C727.99,230.04,724.49,230.04,724.25,232.44z M711.59,358.8l6-59.8h-15.99l6,59.8
	C707.86,361.2,711.35,361.2,711.59,358.8z M690.98,235.62l-6.66,63.39h17.29l-6.66-63.39C694.7,233.23,691.23,233.23,690.98,235.62z
	 M678.32,355.84l6.01-56.84h-15.99l6.01,56.84C674.59,358.23,678.06,358.23,678.32,355.84z M657.69,239.09l-6.66,59.92h17.29
	l-6.66-59.92C661.4,236.72,657.96,236.72,657.69,239.09z M645.03,352.7l6.01-53.69h-15.99l6.01,53.69
	C641.32,355.07,644.76,355.07,645.03,352.7z M624.42,242.47l-6.66,56.54h17.29l-6.66-56.54
	C628.11,240.12,624.69,240.12,624.42,242.47z M611.75,349.96l6.01-50.96h-15.99l6.01,50.96
	C608.05,352.32,611.47,352.32,611.75,349.96z M591.14,245.44l-6.66,53.56h17.29l-6.66-53.56
	C594.81,243.11,591.43,243.11,591.14,245.44z M578.47,347.04l6.01-48.04h-15.99l6.01,48.04
	C574.79,349.38,578.17,349.38,578.47,347.04z M557.86,248.94l-6.66,50.07h17.29l-6.66-50.07
	C561.52,246.62,558.17,246.62,557.86,248.94z M545.19,343.78l6.01-44.77h-15.99l6.01,44.77
	C541.53,346.09,544.88,346.09,545.19,343.78z M524.58,252.34l-6.67,46.66h17.29l-6.67-46.66
	C528.21,250.05,524.9,250.05,524.58,252.34z M511.9,341.09l6.01-42.23h-15.99l6.01,42.23C508.27,343.39,511.57,343.39,511.9,341.09z
	 M491.3,255.52l-6.67,43.48h17.29l-6.67-43.48C494.91,253.26,491.65,253.26,491.3,255.52z M478.61,338.11l6.02-39.1h-15.99
	l6.02,39.1C475.01,340.37,478.27,340.37,478.61,338.11z M458.02,258.7l-6.67,40.3h17.29l-6.67-40.3
	C461.6,256.47,458.39,256.47,458.02,258.7z M445.33,334.91l6.02-35.9h-15.99l6.02,35.9C441.76,337.13,444.96,337.13,445.33,334.91z
	 M424.75,262.19l-6.68,36.82h17.29l-6.68-36.82C428.29,260,425.15,260,424.75,262.19z M412.05,332l6.03-32.99h-15.99l6.03,32.99
	C408.51,334.18,411.65,334.18,412.05,332z M391.47,265.39l-6.68,33.62h17.29l-6.68-33.62C394.97,263.24,391.9,263.24,391.47,265.39z
	 M378.75,328.85l6.03-29.84H368.8l6.03,29.84C375.27,330.99,378.32,330.99,378.75,328.85z M358.2,268.36l-6.69,30.65h17.29
	l-6.69-30.65C361.65,266.26,358.66,266.26,358.2,268.36z M345.47,325.98l6.04-26.97h-15.99l6.04,26.97
	C342.03,328.06,345,328.06,345.47,325.98z M324.93,271.72l-6.7,27.29h17.29l-6.7-27.29C328.32,269.69,325.43,269.69,324.93,271.72z
	 M312.17,322.8l6.06-23.79h-15.99l6.06,23.79C308.81,324.81,311.66,324.81,312.17,322.8z M291.67,275.12l-6.72,23.89h17.29
	l-6.72-23.89C294.97,273.17,292.22,273.17,291.67,275.12z M278.88,319.88l6.07-20.87h-15.99l6.07,20.87
	C275.59,321.8,278.32,321.8,278.88,319.88z M258.42,278.44l-6.74,20.57h17.29l-6.74-20.57C261.62,276.6,259.02,276.6,258.42,278.44z
	 M245.57,316.97l6.1-17.96h-15.99l6.1,17.96C242.4,318.77,244.96,318.77,245.57,316.97z M225.18,281.82l-6.78,17.19h17.29
	l-6.78-17.19C228.23,280.13,225.85,280.13,225.18,281.82z M212.25,314.13l6.14-15.12h-15.99l6.14,15.12
	C209.22,315.79,211.58,315.79,212.25,314.13z M191.96,284.97l-6.85,14.03h17.29l-6.85-14.03
	C194.83,283.48,192.69,283.48,191.96,284.97z M178.9,311.24l6.21-12.23h-15.99l6.21,12.23C176.08,312.7,178.16,312.7,178.9,311.24z
	 M158.79,288.05l-6.96,10.96h17.29l-6.96-10.96C161.38,286.81,159.58,286.81,158.79,288.05z M125.74,291.36l-7.19,7.65h17.29
	l-7.19-7.65C127.86,290.52,126.53,290.52,125.74,291.36z M145.49,308.21l6.35-9.21h-15.99l6.35,9.21
	C142.99,309.36,144.69,309.36,145.49,308.21z"/>
<line class="st6" x1="126.14" y1="324.27" x2="126.14" y2="443.31"/>
<g>
	<path class="st1" d="M149.82,394.38v-20.85h3.12v20.85H149.82z"/>
	<path class="st1" d="M162.64,394.38l-3.3-9.46l-1.09-3.19v12.65h-2.83v-20.85h2.77l3.07,9.55l1,3.23v-12.78h2.8v20.85H162.64z"/>
	<path class="st1" d="M172.07,394.75c-2.86,0-4.75-2.13-4.75-4.98v-11.65c0-2.85,1.89-4.98,4.75-4.98c2.89,0,4.45,2,4.45,4.79v3.01
		h-2.77v-3.07c0-1-0.53-1.72-1.62-1.72c-1.09,0-1.62,0.72-1.62,1.69v12.21c0,0.97,0.53,1.69,1.62,1.69c1.09,0,1.62-0.72,1.62-1.72
		v-3.1h2.77v3.04C176.52,392.75,174.96,394.75,172.07,394.75z"/>
	<path class="st1" d="M178.59,394.38v-20.85h3.12v20.85H178.59z"/>
	<path class="st1" d="M189.85,394.38h-3.04l-3.54-20.85h3.21l1.92,14.59l2.03-14.59h3.01L189.85,394.38z"/>
	<path class="st1" d="M194.95,394.38v-20.85h3.12v20.85H194.95z"/>
	<path class="st1" d="M200.58,394.38v-20.85h3.12v17.85h4.51v3.01H200.58z"/>
	<path class="st1" d="M209.92,394.38v-20.85h3.12v20.85H209.92z"/>
	<path class="st1" d="M220.86,376.56v17.82h-3.12v-17.82h-3.04v-3.04h9.14v3.04H220.86z"/>
	<path class="st1" d="M231.18,385.99v8.39h-3.12v-8.39l-3.54-12.46h3.18l2.09,8.74l2.03-8.74h3.1L231.18,385.99z"/>
</g>
<line class="st6" x1="160.48" y1="327.58" x2="160.48" y2="360.02"/>
<g>
	<path class="st1" d="M262.85,402.31h-4.78v-20.85h4.78c2.83,0,4.48,1.88,4.48,4.98v11.02
		C267.33,400.59,265.68,402.31,262.85,402.31z M264.21,386.41c0-1.31-0.47-1.97-1.56-1.97h-1.44v14.94h1.44
		c1.09,0,1.56-0.69,1.56-1.97V386.41z"/>
	<path class="st1" d="M269.63,402.31v-20.85h3.12v20.85H269.63z"/>
	<path class="st1" d="M279.36,402.69c-2.83,0-4.6-1.85-4.6-4.79v-1.85h2.86v1.79c0,1.32,0.56,2.07,1.65,2.07
		c1.12,0,1.65-0.72,1.65-1.88c0-1.82-0.85-3.16-2.51-5.01c-1.62-1.72-3.51-4.16-3.51-6.83c0-2.82,1.53-5.1,4.57-5.1
		c2.62,0,4.33,1.94,4.33,4.79v1.88h-2.83v-1.88c0-1.16-0.5-1.94-1.5-1.94c-0.91,0-1.53,0.63-1.53,1.69c0,2.04,0.85,3.04,2.68,5.1
		c1.92,2.1,3.33,4.2,3.33,6.83C283.96,400.87,281.92,402.69,279.36,402.69z"/>
	<path class="st1" d="M293.57,402.41c-1.21,0-1.68-1.25-1.68-2.88v-4.48c0-0.84-0.41-1.53-1.27-1.53h-1.53v8.8h-3.12v-20.85h5.01
		c2.18,0,3.86,1.28,3.86,4.1v3.69c0,1.41-0.59,2.44-1.86,2.94c1.27,0.47,1.92,1.6,1.92,2.88v4.26c0,0.94,0.21,1.6,0.59,2.13v0.94
		H293.57z M291.77,385.66c0-0.88-0.32-1.35-1.06-1.35h-1.62v6.61h1.5c0.77,0,1.18-0.47,1.18-1.47V385.66z"/>
	<path class="st1" d="M297.22,402.31v-20.85h7.84v2.94h-4.72v5.76h3.27v2.75h-3.27v6.36h4.72v3.04H297.22z"/>
	<path class="st1" d="M311.08,402.69c-2.83,0-4.6-1.85-4.6-4.79v-1.85h2.86v1.79c0,1.32,0.56,2.07,1.65,2.07
		c1.12,0,1.65-0.72,1.65-1.88c0-1.82-0.85-3.16-2.51-5.01c-1.62-1.72-3.51-4.16-3.51-6.83c0-2.82,1.53-5.1,4.57-5.1
		c2.62,0,4.33,1.94,4.33,4.79v1.88h-2.83v-1.88c0-1.16-0.5-1.94-1.5-1.94c-0.91,0-1.53,0.63-1.53,1.69c0,2.04,0.85,3.04,2.68,5.1
		c1.92,2.1,3.33,4.2,3.33,6.83C315.68,400.87,313.64,402.69,311.08,402.69z"/>
	<path class="st1" d="M322.69,394.08h-1.89v8.23h-3.12v-20.85h5.01c2.24,0,3.83,1.32,3.83,4.23v4.2
		C326.52,392.76,324.93,394.08,322.69,394.08z M323.49,385.69c0-0.91-0.32-1.38-1.06-1.38h-1.62v7.11h1.62
		c0.74,0,1.06-0.47,1.06-1.38V385.69z"/>
	<path class="st1" d="M328.5,402.31v-20.85h7.84v2.94h-4.72v5.76h3.27v2.75h-3.27v6.36h4.72v3.04H328.5z"/>
	<path class="st1" d="M342.83,402.69c-2.86,0-4.75-2.13-4.75-4.98v-11.65c0-2.85,1.89-4.98,4.75-4.98c2.89,0,4.45,2,4.45,4.79v3.01
		h-2.77v-3.07c0-1-0.53-1.72-1.62-1.72s-1.62,0.72-1.62,1.69v12.21c0,0.97,0.53,1.69,1.62,1.69s1.62-0.72,1.62-1.72v-3.1h2.77v3.04
		C347.28,400.69,345.72,402.69,342.83,402.69z"/>
	<path class="st1" d="M354.65,384.5v17.82h-3.12V384.5h-3.04v-3.04h9.14v3.04H354.65z"/>
</g>
<g>
	<path class="st1" d="M303.42,183.03c-1.89,0-3.13-1.36-3.13-3.31v-7.83c0-1.93,1.24-3.31,3.13-3.31s3.13,1.38,3.13,3.31v7.83
		C306.56,181.67,305.32,183.03,303.42,183.03z M304.45,171.72c0-0.67-0.37-1.13-1.02-1.13c-0.65,0-1.02,0.46-1.02,1.13v8.16
		c0,0.67,0.37,1.13,1.02,1.13c0.65,0,1.02-0.46,1.02-1.13V171.72z"/>
	<path class="st1" d="M312.9,182.78l-2.21-6.32l-0.73-2.14v8.46h-1.89v-13.94h1.85l2.05,6.39l0.67,2.16v-8.54h1.87v13.94H312.9z"/>
	<path class="st1" d="M318.91,183.03c-1.89,0-3.07-1.23-3.07-3.2v-1.24h1.91v1.19c0,0.88,0.37,1.38,1.1,1.38
		c0.75,0,1.1-0.48,1.1-1.26c0-1.21-0.57-2.11-1.67-3.35c-1.08-1.15-2.34-2.78-2.34-4.56c0-1.88,1.02-3.41,3.05-3.41
		c1.75,0,2.9,1.3,2.9,3.2v1.26H320v-1.26c0-0.77-0.33-1.3-1-1.3c-0.61,0-1.02,0.42-1.02,1.13c0,1.36,0.57,2.03,1.79,3.41
		c1.28,1.4,2.23,2.81,2.23,4.56C321.99,181.81,320.63,183.03,318.91,183.03z"/>
	<path class="st1" d="M323.33,182.78v-13.94h5.24v1.97h-3.15v3.85h2.19v1.84h-2.19v4.25h3.15v2.03H323.33z"/>
	<path class="st1" d="M333.44,170.86v11.91h-2.09v-11.91h-2.03v-2.03h6.11v2.03H333.44z"/>
	<path class="st1" d="M342.34,183.03c-1.89,0-3.13-1.36-3.13-3.31v-7.83c0-1.93,1.24-3.31,3.13-3.31s3.13,1.38,3.13,3.31v7.83
		C345.47,181.67,344.23,183.03,342.34,183.03z M343.37,171.72c0-0.67-0.37-1.13-1.02-1.13c-0.65,0-1.02,0.46-1.02,1.13v8.16
		c0,0.67,0.37,1.13,1.02,1.13c0.65,0,1.02-0.46,1.02-1.13V171.72z"/>
	<path class="st1" d="M349.1,170.76v4.02h2.27v1.9h-2.27v6.09h-2.09v-13.94h5.1v1.93H349.1z"/>
	<path class="st1" d="M358.81,183.03c-1.89,0-3.07-1.23-3.07-3.2v-1.24h1.91v1.19c0,0.88,0.37,1.38,1.1,1.38
		c0.75,0,1.1-0.48,1.1-1.26c0-1.21-0.57-2.11-1.67-3.35c-1.08-1.15-2.34-2.78-2.34-4.56c0-1.88,1.02-3.41,3.05-3.41
		c1.75,0,2.9,1.3,2.9,3.2v1.26h-1.89v-1.26c0-0.77-0.33-1.3-1-1.3c-0.61,0-1.02,0.42-1.02,1.13c0,1.36,0.57,2.03,1.79,3.41
		c1.28,1.4,2.23,2.81,2.23,4.56C361.89,181.81,360.53,183.03,358.81,183.03z"/>
	<path class="st1" d="M366.68,170.86v11.91h-2.09v-11.91h-2.03v-2.03h6.11v2.03H366.68z"/>
	<path class="st1" d="M374.85,182.84c-0.81,0-1.12-0.84-1.12-1.93v-2.99c0-0.57-0.28-1.03-0.85-1.03h-1.02v5.88h-2.09v-13.94h3.35
		c1.46,0,2.58,0.86,2.58,2.74v2.47c0,0.94-0.39,1.63-1.24,1.97c0.85,0.31,1.28,1.07,1.28,1.93v2.85c0,0.63,0.14,1.07,0.39,1.42v0.63
		H374.85z M373.65,171.64c0-0.59-0.22-0.9-0.71-0.9h-1.08v4.42h1c0.51,0,0.79-0.31,0.79-0.98V171.64z"/>
	<path class="st1" d="M377.3,182.78v-13.94h5.24v1.97h-3.15v3.85h2.19v1.84h-2.19v4.25h3.15v2.03H377.3z"/>
	<path class="st1" d="M386.56,183.03c-1.89,0-3.07-1.23-3.07-3.2v-1.24h1.91v1.19c0,0.88,0.37,1.38,1.1,1.38
		c0.75,0,1.1-0.48,1.1-1.26c0-1.21-0.57-2.11-1.67-3.35c-1.08-1.15-2.34-2.78-2.34-4.56c0-1.88,1.02-3.41,3.05-3.41
		c1.75,0,2.9,1.3,2.9,3.2v1.26h-1.89v-1.26c0-0.77-0.33-1.3-1-1.3c-0.61,0-1.02,0.42-1.02,1.13c0,1.36,0.57,2.03,1.79,3.41
		c1.28,1.4,2.23,2.81,2.23,4.56C389.63,181.81,388.27,183.03,386.56,183.03z"/>
	<path class="st1" d="M393.67,183.03c-1.89,0-3.07-1.23-3.07-3.2v-1.24h1.91v1.19c0,0.88,0.37,1.38,1.1,1.38
		c0.75,0,1.1-0.48,1.1-1.26c0-1.21-0.57-2.11-1.67-3.35c-1.08-1.15-2.34-2.78-2.34-4.56c0-1.88,1.02-3.41,3.05-3.41
		c1.75,0,2.9,1.3,2.9,3.2v1.26h-1.89v-1.26c0-0.77-0.33-1.3-1-1.3c-0.61,0-1.02,0.42-1.02,1.13c0,1.36,0.57,2.03,1.79,3.41
		c1.28,1.4,2.23,2.81,2.23,4.56C396.75,181.81,395.39,183.03,393.67,183.03z"/>
	<path class="st1" d="M397.87,184.58v-0.54c0.53,0,0.89-0.4,0.89-1.26h-0.77v-2.47h1.64v2.24
		C399.62,183.7,399.03,184.58,397.87,184.58z"/>
	<path class="st1" d="M304.71,203.78v-5.86h-2.21v5.86h-2.09v-13.94h2.09v6.05h2.21v-6.05h2.09v13.94H304.71z"/>
	<path class="st1" d="M308.45,203.78v-13.94h5.24v1.97h-3.15v3.85h2.19v1.84h-2.19v4.25h3.15v2.03H308.45z"/>
	<path class="st1" d="M318.91,203.78l-0.33-2.72h-1.91l-0.39,2.72h-1.91l2.19-13.94h2.3l2.19,13.94H318.91z M317.69,193.5
		l-0.77,5.69h1.42L317.69,193.5z"/>
	<path class="st1" d="M322.05,203.78v-13.94h2.09v11.93h3.01v2.01H322.05z"/>
	<path class="st1" d="M331.17,191.86v11.91h-2.09v-11.91h-2.03v-2.03h6.11v2.03H331.17z"/>
	<path class="st1" d="M338.56,203.78v-5.86h-2.21v5.86h-2.09v-13.94h2.09v6.05h2.21v-6.05h2.09v13.94H338.56z"/>
	<path class="st1" d="M345.1,203.78v-13.94h2.09v13.94H345.1z"/>
	<path class="st1" d="M355.48,203.78v-10.36l-0.41,2.93l-1.22,7.43h-1.58l-1.16-7.43l-0.39-2.93v10.36h-1.85v-13.94h2.82l1.14,7.06
		l0.35,2.7l0.37-2.7l1.12-7.06h2.78v13.94H355.48z"/>
	<path class="st1" d="M362.46,198.27h-1.26v5.51h-2.09v-13.94h3.35c1.5,0,2.56,0.88,2.56,2.83v2.81
		C365.02,197.39,363.96,198.27,362.46,198.27z M362.99,192.66c0-0.61-0.22-0.92-0.71-0.92h-1.08v4.75h1.08
		c0.49,0,0.71-0.31,0.71-0.92V192.66z"/>
	<path class="st1" d="M369.79,203.78l-0.33-2.72h-1.91l-0.39,2.72h-1.91l2.19-13.94h2.3l2.19,13.94H369.79z M368.57,193.5
		l-0.77,5.69h1.42L368.57,193.5z"/>
	<path class="st1" d="M375.86,204.03c-1.91,0-3.17-1.42-3.17-3.33v-7.79c0-1.91,1.26-3.33,3.17-3.33c1.93,0,2.97,1.34,2.97,3.2v2.01
		h-1.85v-2.05c0-0.67-0.35-1.15-1.08-1.15c-0.73,0-1.08,0.48-1.08,1.13v8.16c0,0.65,0.35,1.13,1.08,1.13c0.73,0,1.08-0.48,1.08-1.15
		v-2.07h1.85v2.03C378.83,202.69,377.79,204.03,375.86,204.03z"/>
	<path class="st1" d="M383.76,191.86v11.91h-2.09v-11.91h-2.03v-2.03h6.11v2.03H383.76z"/>
</g>
<line class="st6" x1="270.76" y1="337.18" x2="270.76" y2="368.55"/>
<g>
	<path class="st1" d="M388.86,413.41v-15.5l-0.62,4.38l-1.83,11.12h-2.36l-1.74-11.12l-0.59-4.38v15.5h-2.77v-20.85h4.22l1.71,10.55
		l0.53,4.04l0.56-4.04l1.68-10.55h4.16v20.85H388.86z"/>
	<path class="st1" d="M394.28,413.41v-20.85h3.12v20.85H394.28z"/>
	<path class="st1" d="M399.91,413.41v-20.85h3.12v17.85h4.51v3.01H399.91z"/>
	<path class="st1" d="M414.03,413.41h-4.78v-20.85h4.78c2.83,0,4.48,1.88,4.48,4.98v11.02
		C418.51,411.69,416.86,413.41,414.03,413.41z M415.39,397.51c0-1.31-0.47-1.97-1.56-1.97h-1.44v14.94h1.44
		c1.09,0,1.56-0.69,1.56-1.97V397.51z"/>
	<path class="st1" d="M384.08,442.41h-5.13v-20.85h5.07c2.18,0,3.77,1.22,3.77,4.04v3.04c0,1.57-0.56,2.69-1.95,3.13
		c1.44,0.5,2,1.6,2,3.13v3.48C387.85,441.22,386.23,442.41,384.08,442.41z M384.79,425.75c0-0.88-0.35-1.35-1.09-1.35h-1.59v6.2
		h1.47c0.77,0,1.21-0.47,1.21-1.44V425.75z M384.82,434.62c0-0.94-0.44-1.47-1.21-1.47h-1.5v6.42h1.65c0.74,0,1.06-0.47,1.06-1.35
		V434.62z"/>
	<path class="st1" d="M394.63,442.79c-2.65,0-4.63-1.88-4.63-4.7v-16.53h3.15v16.59c0,1.07,0.53,1.66,1.47,1.66
		c1,0,1.53-0.59,1.53-1.66v-16.59h3.04v16.53C399.2,440.91,397.29,442.79,394.63,442.79z"/>
	<path class="st1" d="M401.62,442.41v-20.85h3.12v17.85h4.51v3.01H401.62z"/>
	<path class="st1" d="M410.96,442.41v-20.85h3.12v17.85h4.51v3.01H410.96z"/>
	<path class="st1" d="M424.7,434.02v8.39h-3.12v-8.39l-3.54-12.46h3.18l2.09,8.74l2.03-8.74h3.1L424.7,434.02z"/>
	<path class="st1" d="M429.74,442.41v-20.85h3.12v20.85H429.74z"/>
	<path class="st1" d="M442.57,442.41l-3.3-9.46l-1.09-3.19v12.65h-2.83v-20.85h2.77l3.07,9.55l1,3.23v-12.78h2.8v20.85H442.57z"/>
	<path class="st1" d="M454.95,442.41l-0.47-1.41c-0.53,1.19-1.68,1.79-3.01,1.79c-2.59,0-4.22-1.97-4.22-4.79v-12.02
		c0-2.6,1.83-4.79,4.72-4.79c2.89,0,4.51,2.13,4.51,4.79v2.79h-2.95v-2.97c0-0.88-0.5-1.6-1.56-1.6c-1.03,0-1.56,0.75-1.56,1.63
		v12.4c0,0.91,0.56,1.66,1.59,1.66c1.06,0,1.59-0.75,1.59-1.66v-3.73h-1.53v-2.5h4.57v10.43H454.95z"/>
</g>
<line class="st6" x1="395.33" y1="348.07" x2="395.33" y2="379.63"/>
<g>
	<path class="st1" d="M714.59,436.8h-5.13v-20.85h5.07c2.18,0,3.77,1.22,3.77,4.04v3.04c0,1.57-0.56,2.69-1.95,3.13
		c1.44,0.5,2,1.6,2,3.13v3.48C718.36,435.61,716.74,436.8,714.59,436.8z M715.3,420.14c0-0.88-0.35-1.35-1.09-1.35h-1.59v6.2h1.47
		c0.77,0,1.21-0.47,1.21-1.44V420.14z M715.33,429c0-0.94-0.44-1.47-1.21-1.47h-1.5v6.42h1.65c0.74,0,1.06-0.47,1.06-1.35V429z"/>
	<path class="st1" d="M726.41,436.8l-0.5-4.07h-2.86l-0.59,4.07h-2.86l3.27-20.85h3.45l3.27,20.85H726.41z M724.58,421.43
		l-1.15,8.52h2.12L724.58,421.43z"/>
	<path class="st1" d="M735.7,418.98v17.82h-3.12v-17.82h-3.04v-3.04h9.14v3.04H735.7z"/>
	<path class="st1" d="M745.75,418.98v17.82h-3.12v-17.82h-3.04v-3.04h9.14v3.04H745.75z"/>
	<path class="st1" d="M750.38,436.8v-20.85h7.84v2.94h-4.72v5.76h3.27v2.75h-3.27v6.36h4.72v3.04H750.38z"/>
	<path class="st1" d="M767.8,436.89c-1.21,0-1.68-1.25-1.68-2.88v-4.48c0-0.84-0.41-1.53-1.27-1.53h-1.53v8.8h-3.12v-20.85h5.01
		c2.18,0,3.86,1.28,3.86,4.1v3.69c0,1.41-0.59,2.44-1.86,2.94c1.27,0.47,1.92,1.6,1.92,2.88v4.26c0,0.94,0.21,1.6,0.59,2.13v0.94
		H767.8z M766,420.14c0-0.88-0.32-1.35-1.06-1.35h-1.62v6.61h1.5c0.77,0,1.18-0.47,1.18-1.47V420.14z"/>
	<path class="st1" d="M776.94,428.41v8.39h-3.12v-8.39l-3.54-12.46h3.18l2.09,8.74l2.03-8.74h3.09L776.94,428.41z"/>
</g>
<line class="st6" x1="776.16" y1="382.29" x2="776.16" y2="402.77"/>
<g>
	<path class="st1" d="M734.34,479.67v-8.77h-3.3v8.77h-3.12v-20.85h3.12v9.05h3.3v-9.05h3.12v20.85H734.34z"/>
	<path class="st1" d="M744.45,480.04c-2.83,0-4.69-2.04-4.69-4.95v-11.71c0-2.88,1.86-4.95,4.69-4.95s4.69,2.07,4.69,4.95v11.71
		C749.14,478.01,747.28,480.04,744.45,480.04z M745.99,463.14c0-1-0.56-1.69-1.53-1.69s-1.53,0.69-1.53,1.69v12.21
		c0,1,0.56,1.69,1.53,1.69s1.53-0.69,1.53-1.69V463.14z"/>
	<path class="st1" d="M761.34,479.67v-15.5l-0.62,4.38l-1.83,11.12h-2.36l-1.74-11.12l-0.59-4.38v15.5h-2.77v-20.85h4.22l1.71,10.55
		l0.53,4.04l0.56-4.04l1.68-10.55h4.16v20.85H761.34z"/>
	<path class="st1" d="M766.77,479.67v-20.85h3.12v20.85H766.77z"/>
	<path class="st1" d="M776.94,480.04c-2.86,0-4.75-2.13-4.75-4.98v-11.65c0-2.85,1.89-4.98,4.75-4.98c2.89,0,4.45,2,4.45,4.79v3.01
		h-2.77v-3.07c0-1-0.53-1.72-1.62-1.72s-1.62,0.72-1.62,1.69v12.21c0,0.97,0.53,1.69,1.62,1.69s1.62-0.72,1.62-1.72v-3.1h2.77v3.04
		C781.39,478.04,779.83,480.04,776.94,480.04z"/>
	<path class="st1" d="M783.45,479.67v-20.85h3.12v20.85H783.45z"/>
	<path class="st1" d="M793.86,479.67h-4.78v-20.85h4.78c2.83,0,4.48,1.88,4.48,4.98v11.02
		C798.34,477.95,796.69,479.67,793.86,479.67z M795.21,463.76c0-1.31-0.47-1.97-1.56-1.97h-1.44v14.94h1.44
		c1.09,0,1.56-0.69,1.56-1.97V463.76z"/>
	<path class="st1" d="M800.64,479.67v-20.85h7.84v2.94h-4.72v5.76h3.27v2.75h-3.27v6.36h4.72v3.04H800.64z"/>
</g>
<line class="st6" x1="792.88" y1="383.78" x2="792.88" y2="443.05"/>
<g>
	<g>
		<path class="st1" d="M533.31,450.4v-15.5l-0.62,4.38l-1.83,11.12h-2.36l-1.74-11.12l-0.59-4.38v15.5h-2.77v-20.85h4.22l1.71,10.55
			l0.53,4.04l0.56-4.04l1.68-10.55h4.16v20.85H533.31z"/>
		<path class="st1" d="M543.25,450.77c-2.83,0-4.69-2.04-4.69-4.95v-11.71c0-2.88,1.86-4.95,4.69-4.95s4.69,2.07,4.69,4.95v11.71
			C547.93,448.74,546.08,450.77,543.25,450.77z M544.78,433.86c0-1-0.56-1.69-1.53-1.69s-1.53,0.69-1.53,1.69v12.21
			c0,1,0.56,1.69,1.53,1.69s1.53-0.69,1.53-1.69V433.86z"/>
		<path class="st1" d="M555.01,450.4h-4.78v-20.85h4.78c2.83,0,4.48,1.88,4.48,4.98v11.02C559.49,448.67,557.84,450.4,555.01,450.4z
			 M556.36,434.49c0-1.31-0.47-1.97-1.56-1.97h-1.44v14.94h1.44c1.09,0,1.56-0.69,1.56-1.97V434.49z"/>
		<path class="st1" d="M561.79,450.4v-20.85h7.84v2.94h-4.72v5.76h3.27V441h-3.27v6.36h4.72v3.04H561.79z"/>
		<path class="st1" d="M579.21,450.49c-1.21,0-1.68-1.25-1.68-2.88v-4.48c0-0.84-0.41-1.53-1.27-1.53h-1.53v8.8h-3.12v-20.85h5.01
			c2.18,0,3.86,1.28,3.86,4.1v3.69c0,1.41-0.59,2.44-1.86,2.94c1.27,0.47,1.92,1.6,1.92,2.88v4.26c0,0.94,0.21,1.6,0.59,2.13v0.94
			H579.21z M577.41,433.74c0-0.88-0.32-1.35-1.06-1.35h-1.62V439h1.5c0.77,0,1.18-0.47,1.18-1.47V433.74z"/>
		<path class="st1" d="M588.7,450.4l-0.5-4.07h-2.86l-0.59,4.07h-2.86l3.27-20.85h3.45l3.27,20.85H588.7z M586.87,435.02l-1.15,8.52
			h2.12L586.87,435.02z"/>
		<path class="st1" d="M597.99,432.58v17.82h-3.12v-17.82h-3.04v-3.04h9.14v3.04H597.99z"/>
		<path class="st1" d="M602.62,450.4v-20.85h7.84v2.94h-4.72v5.76h3.27V441h-3.27v6.36h4.72v3.04H602.62z"/>
		<path class="st1" d="M621.92,432.58v17.82h-3.12v-17.82h-3.04v-3.04h9.14v3.04H621.92z"/>
		<path class="st1" d="M630.88,450.77c-2.83,0-4.69-2.04-4.69-4.95v-11.71c0-2.88,1.86-4.95,4.69-4.95s4.69,2.07,4.69,4.95v11.71
			C635.57,448.74,633.71,450.77,630.88,450.77z M632.42,433.86c0-1-0.56-1.69-1.53-1.69s-1.53,0.69-1.53,1.69v12.21
			c0,1,0.56,1.69,1.53,1.69s1.53-0.69,1.53-1.69V433.86z"/>
		<path class="st1" d="M527.5,479.77c-2.83,0-4.6-1.85-4.6-4.79v-1.85h2.86v1.79c0,1.32,0.56,2.07,1.65,2.07
			c1.12,0,1.65-0.72,1.65-1.88c0-1.82-0.86-3.16-2.51-5.01c-1.62-1.72-3.51-4.16-3.51-6.83c0-2.82,1.53-5.1,4.57-5.1
			c2.62,0,4.33,1.94,4.33,4.79v1.88h-2.83v-1.88c0-1.16-0.5-1.94-1.5-1.94c-0.91,0-1.53,0.63-1.53,1.69c0,2.04,0.85,3.04,2.68,5.1
			c1.92,2.1,3.33,4.2,3.33,6.83C532.1,477.96,530.07,479.77,527.5,479.77z"/>
		<path class="st1" d="M534.11,479.4v-20.85h7.84v2.94h-4.72v5.76h3.27V470h-3.27v6.36h4.72v3.04H534.11z"/>
		<path class="st1" d="M549.55,479.4h-3.04l-3.54-20.85h3.21l1.92,14.59l2.03-14.59h3.01L549.55,479.4z"/>
		<path class="st1" d="M554.65,479.4v-20.85h7.84v2.94h-4.72v5.76h3.27V470h-3.27v6.36h4.72v3.04H554.65z"/>
		<path class="st1" d="M572.08,479.49c-1.21,0-1.68-1.25-1.68-2.88v-4.48c0-0.84-0.41-1.53-1.27-1.53h-1.53v8.8h-3.12v-20.85h5.01
			c2.18,0,3.86,1.28,3.86,4.1v3.69c0,1.41-0.59,2.44-1.86,2.94c1.27,0.47,1.92,1.6,1.92,2.88v4.26c0,0.94,0.21,1.6,0.59,2.13v0.94
			H572.08z M570.28,462.74c0-0.88-0.32-1.35-1.06-1.35h-1.62V468h1.5c0.77,0,1.18-0.47,1.18-1.47V462.74z"/>
		<path class="st1" d="M575.73,479.4v-20.85h7.84v2.94h-4.72v5.76h3.27V470h-3.27v6.36h4.72v3.04H575.73z"/>
		<path class="st1" d="M594.86,479.4h-5.13v-20.85h5.07c2.18,0,3.77,1.22,3.77,4.04v3.04c0,1.57-0.56,2.69-1.95,3.13
			c1.44,0.5,2,1.6,2,3.13v3.48C598.64,478.21,597.01,479.4,594.86,479.4z M595.57,462.74c0-0.88-0.35-1.35-1.09-1.35h-1.59v6.2h1.47
			c0.77,0,1.21-0.47,1.21-1.44V462.74z M595.6,471.6c0-0.94-0.44-1.47-1.21-1.47h-1.5v6.42h1.65c0.74,0,1.06-0.47,1.06-1.35V471.6z"
			/>
		<path class="st1" d="M605.42,479.77c-2.65,0-4.63-1.88-4.63-4.7v-16.53h3.15v16.59c0,1.07,0.53,1.66,1.47,1.66
			c1,0,1.53-0.59,1.53-1.66v-16.59h3.04v16.53C609.98,477.89,608.07,479.77,605.42,479.77z"/>
		<path class="st1" d="M612.4,479.4v-20.85h3.12v17.85h4.51v3.01H612.4z"/>
		<path class="st1" d="M621.75,479.4v-20.85h3.12v17.85h4.51v3.01H621.75z"/>
		<path class="st1" d="M635.48,471v8.39h-3.12V471l-3.54-12.46H632l2.09,8.74l2.03-8.74h3.1L635.48,471z"/>
		<path class="st1" d="M640.52,479.4v-20.85h3.12v20.85H640.52z"/>
		<path class="st1" d="M653.35,479.4l-3.3-9.46l-1.09-3.19v12.65h-2.83v-20.85h2.77l3.07,9.55l1,3.23v-12.78h2.8v20.85H653.35z"/>
		<path class="st1" d="M665.73,479.4l-0.47-1.41c-0.53,1.19-1.68,1.79-3.01,1.79c-2.59,0-4.22-1.97-4.22-4.79v-12.02
			c0-2.6,1.83-4.79,4.72-4.79s4.51,2.13,4.51,4.79v2.79h-2.95v-2.97c0-0.88-0.5-1.6-1.56-1.6c-1.03,0-1.56,0.75-1.56,1.63v12.4
			c0,0.91,0.56,1.66,1.59,1.66c1.06,0,1.59-0.75,1.59-1.66v-3.73h-1.53v-2.5h4.57v10.43H665.73z"/>
	</g>
</g>
<polyline class="st7" points="708.14,374.37 575.75,417.2 443.36,352.64 "/>
<g>
	<path class="st1" d="M536.57,182.78l-0.33-2.72h-1.91l-0.39,2.72h-1.91l2.19-13.94h2.3l2.19,13.94H536.57z M535.34,172.5
		l-0.77,5.69h1.42L535.34,172.5z"/>
	<path class="st1" d="M543.13,182.78h-3.43v-13.94h3.39c1.46,0,2.52,0.82,2.52,2.7v2.03c0,1.05-0.37,1.8-1.3,2.09
		c0.96,0.33,1.34,1.07,1.34,2.09v2.32C545.65,181.98,544.57,182.78,543.13,182.78z M543.6,171.64c0-0.59-0.24-0.9-0.73-0.9h-1.06
		v4.15h0.99c0.51,0,0.81-0.31,0.81-0.96V171.64z M543.62,177.56c0-0.63-0.3-0.98-0.81-0.98h-1v4.29h1.1c0.49,0,0.71-0.31,0.71-0.9
		V177.56z"/>
	<path class="st1" d="M550.18,183.03c-1.77,0-3.09-1.26-3.09-3.14v-11.05h2.11v11.1c0,0.71,0.35,1.11,0.98,1.11
		c0.67,0,1.02-0.4,1.02-1.11v-11.1h2.03v11.05C553.24,181.77,551.96,183.03,550.18,183.03z"/>
	<path class="st1" d="M557.59,183.03c-1.89,0-3.07-1.23-3.07-3.2v-1.24h1.91v1.19c0,0.88,0.37,1.38,1.1,1.38
		c0.75,0,1.1-0.48,1.1-1.26c0-1.21-0.57-2.11-1.67-3.35c-1.08-1.15-2.34-2.78-2.34-4.56c0-1.88,1.02-3.41,3.05-3.41
		c1.75,0,2.9,1.3,2.9,3.2v1.26h-1.89v-1.26c0-0.77-0.33-1.3-1-1.3c-0.61,0-1.02,0.42-1.02,1.13c0,1.36,0.57,2.03,1.79,3.41
		c1.28,1.4,2.23,2.81,2.23,4.56C560.66,181.81,559.3,183.03,557.59,183.03z"/>
	<path class="st1" d="M562.01,182.78v-13.94h2.09v13.94H562.01z"/>
	<path class="st1" d="M569.53,182.78h-2.03l-2.36-13.94h2.15l1.28,9.76l1.36-9.76h2.01L569.53,182.78z"/>
	<path class="st1" d="M572.94,182.78v-13.94h5.24v1.97h-3.15v3.85h2.19v1.84h-2.19v4.25h3.15v2.03H572.94z"/>
	<path class="st1" d="M585.33,183.03c-1.91,0-3.17-1.42-3.17-3.33v-7.79c0-1.91,1.26-3.33,3.17-3.33c1.93,0,2.97,1.34,2.97,3.2v2.01
		h-1.85v-2.05c0-0.67-0.35-1.15-1.08-1.15c-0.73,0-1.08,0.48-1.08,1.13v8.16c0,0.65,0.35,1.13,1.08,1.13c0.73,0,1.08-0.48,1.08-1.15
		v-2.07h1.85v2.03C588.31,181.69,587.27,183.03,585.33,183.03z"/>
	<path class="st1" d="M592.7,183.03c-1.89,0-3.13-1.36-3.13-3.31v-7.83c0-1.93,1.24-3.31,3.13-3.31c1.89,0,3.13,1.38,3.13,3.31v7.83
		C595.84,181.67,594.6,183.03,592.7,183.03z M593.73,171.72c0-0.67-0.37-1.13-1.02-1.13c-0.65,0-1.02,0.46-1.02,1.13v8.16
		c0,0.67,0.38,1.13,1.02,1.13c0.65,0,1.02-0.46,1.02-1.13V171.72z"/>
	<path class="st1" d="M602.18,182.78l-2.21-6.32l-0.73-2.14v8.46h-1.89v-13.94h1.85l2.05,6.39l0.67,2.16v-8.54h1.87v13.94H602.18z"
		/>
	<path class="st1" d="M608.65,182.78h-3.19v-13.94h3.19c1.89,0,3,1.26,3,3.33v7.37C611.64,181.63,610.54,182.78,608.65,182.78z
		 M609.55,172.14c0-0.88-0.31-1.32-1.04-1.32h-0.96v9.99h0.96c0.73,0,1.04-0.46,1.04-1.32V172.14z"/>
	<path class="st1" d="M616.23,183.03c-1.77,0-3.09-1.26-3.09-3.14v-11.05h2.11v11.1c0,0.71,0.35,1.11,0.99,1.11
		c0.67,0,1.02-0.4,1.02-1.11v-11.1h2.03v11.05C619.29,181.77,618,183.03,616.23,183.03z"/>
	<path class="st1" d="M623.94,183.03c-1.91,0-3.17-1.42-3.17-3.33v-7.79c0-1.91,1.26-3.33,3.17-3.33c1.93,0,2.97,1.34,2.97,3.2v2.01
		h-1.85v-2.05c0-0.67-0.35-1.15-1.08-1.15c-0.73,0-1.08,0.48-1.08,1.13v8.16c0,0.65,0.35,1.13,1.08,1.13c0.73,0,1.08-0.48,1.08-1.15
		v-2.07h1.85v2.03C626.91,181.69,625.87,183.03,623.94,183.03z"/>
	<path class="st1" d="M631.84,170.86v11.91h-2.09v-11.91h-2.03v-2.03h6.11v2.03H631.84z"/>
	<path class="st1" d="M634.11,184.58v-0.54c0.53,0,0.89-0.4,0.89-1.26h-0.77v-2.47h1.63v2.24
		C635.86,183.7,635.27,184.58,634.11,184.58z"/>
	<path class="st1" d="M532.67,203.78v-13.94h2.09v13.94H532.67z"/>
	<path class="st1" d="M539.62,203.78h-3.19v-13.94h3.19c1.89,0,2.99,1.26,2.99,3.33v7.37C542.61,202.63,541.51,203.78,539.62,203.78
		z M540.53,193.14c0-0.88-0.32-1.32-1.04-1.32h-0.97v9.99h0.97c0.73,0,1.04-0.46,1.04-1.32V193.14z"/>
	<path class="st1" d="M544.15,203.78v-13.94h5.24v1.97h-3.15v3.85h2.19v1.84h-2.19v4.25h3.15v2.03H544.15z"/>
	<path class="st1" d="M555.52,203.78l-2.21-6.32l-0.73-2.14v8.46h-1.89v-13.94h1.85l2.05,6.39l0.67,2.16v-8.54h1.87v13.94H555.52z"
		/>
	<path class="st1" d="M562.34,191.86v11.91h-2.09v-11.91h-2.03v-2.03h6.11v2.03H562.34z"/>
	<path class="st1" d="M565.43,203.78v-13.94h2.09v13.94H565.43z"/>
	<path class="st1" d="M572.74,191.86v11.91h-2.09v-11.91h-2.03v-2.03h6.11v2.03H572.74z"/>
	<path class="st1" d="M579.64,198.17v5.61h-2.09v-5.61l-2.36-8.33h2.13l1.4,5.84l1.36-5.84h2.07L579.64,198.17z"/>
	<path class="st1" d="M589.36,191.86v11.91h-2.09v-11.91h-2.03v-2.03h6.11v2.03H589.36z"/>
	<path class="st1" d="M596.74,203.78v-5.86h-2.21v5.86h-2.09v-13.94h2.09v6.05h2.21v-6.05h2.09v13.94H596.74z"/>
	<path class="st1" d="M605.57,203.84c-0.81,0-1.12-0.84-1.12-1.93v-2.99c0-0.57-0.28-1.03-0.85-1.03h-1.02v5.88h-2.09v-13.94h3.35
		c1.46,0,2.58,0.86,2.58,2.74v2.47c0,0.94-0.39,1.63-1.24,1.97c0.85,0.31,1.28,1.07,1.28,1.93v2.85c0,0.63,0.14,1.07,0.39,1.42v0.63
		H605.57z M604.37,192.64c0-0.59-0.22-0.9-0.71-0.9h-1.08v4.42h1c0.51,0,0.79-0.31,0.79-0.98V192.64z"/>
	<path class="st1" d="M608.02,203.78v-13.94h5.24v1.97h-3.15v3.85h2.19v1.84h-2.19v4.25h3.15v2.03H608.02z"/>
	<path class="st1" d="M618.48,203.78l-0.33-2.72h-1.91l-0.39,2.72h-1.91l2.19-13.94h2.3l2.19,13.94H618.48z M617.26,193.5
		l-0.77,5.69h1.42L617.26,193.5z"/>
	<path class="st1" d="M624.69,191.86v11.91h-2.09v-11.91h-2.03v-2.03h6.11v2.03H624.69z"/>
</g>
<g>
	<path class="st1" d="M786.94,177.27h-1.26v5.51h-2.09v-13.94h3.35c1.5,0,2.56,0.88,2.56,2.83v2.81
		C789.5,176.39,788.43,177.27,786.94,177.27z M787.47,171.66c0-0.61-0.22-0.92-0.71-0.92h-1.08v4.75h1.08
		c0.49,0,0.71-0.31,0.71-0.92V171.66z"/>
	<path class="st1" d="M795.11,182.78v-5.86h-2.21v5.86h-2.09v-13.94h2.09v6.05h2.21v-6.05h2.09v13.94H795.11z"/>
	<path class="st1" d="M802.56,177.17v5.61h-2.09v-5.61l-2.36-8.33h2.13l1.4,5.84l1.36-5.84h2.07L802.56,177.17z"/>
	<path class="st1" d="M808.53,183.03c-1.89,0-3.07-1.23-3.07-3.2v-1.24h1.91v1.19c0,0.88,0.38,1.38,1.1,1.38
		c0.75,0,1.1-0.48,1.1-1.26c0-1.21-0.57-2.11-1.67-3.35c-1.08-1.15-2.34-2.78-2.34-4.56c0-1.88,1.02-3.41,3.05-3.41
		c1.75,0,2.9,1.3,2.9,3.2v1.26h-1.89v-1.26c0-0.77-0.33-1.3-1-1.3c-0.61,0-1.02,0.42-1.02,1.13c0,1.36,0.57,2.03,1.79,3.41
		c1.28,1.4,2.23,2.81,2.23,4.56C811.61,181.81,810.25,183.03,808.53,183.03z"/>
	<path class="st1" d="M812.95,182.78v-13.94h2.09v13.94H812.95z"/>
	<path class="st1" d="M819.75,183.03c-1.91,0-3.17-1.42-3.17-3.33v-7.79c0-1.91,1.26-3.33,3.17-3.33c1.93,0,2.97,1.34,2.97,3.2v2.01
		h-1.85v-2.05c0-0.67-0.35-1.15-1.08-1.15s-1.08,0.48-1.08,1.13v8.16c0,0.65,0.36,1.13,1.08,1.13s1.08-0.48,1.08-1.15v-2.07h1.85
		v2.03C822.72,181.69,821.68,183.03,819.75,183.03z"/>
	<path class="st1" d="M827.94,182.78l-0.33-2.72h-1.91l-0.39,2.72h-1.91l2.19-13.94h2.3l2.19,13.94H827.94z M826.72,172.5
		l-0.77,5.69h1.42L826.72,172.5z"/>
	<path class="st1" d="M831.08,182.78v-13.94h2.09v11.93h3.01v2.01H831.08z"/>
	<path class="st1" d="M843.88,182.78h-2.03l-2.36-13.94h2.15l1.28,9.76l1.36-9.76h2.01L843.88,182.78z"/>
	<path class="st1" d="M847.29,182.78v-13.94h2.09v13.94H847.29z"/>
	<path class="st1" d="M854.07,183.03c-1.89,0-3.13-1.36-3.13-3.31v-7.83c0-1.93,1.24-3.31,3.13-3.31c1.89,0,3.13,1.38,3.13,3.31
		v7.83C857.2,181.67,855.96,183.03,854.07,183.03z M855.1,171.72c0-0.67-0.37-1.13-1.02-1.13s-1.02,0.46-1.02,1.13v8.16
		c0,0.67,0.37,1.13,1.02,1.13s1.02-0.46,1.02-1.13V171.72z"/>
	<path class="st1" d="M858.74,182.78v-13.94h2.09v11.93h3.01v2.01H858.74z"/>
	<path class="st1" d="M864.99,182.78v-13.94h5.24v1.97h-3.15v3.85h2.19v1.84h-2.19v4.25h3.15v2.03H864.99z"/>
	<path class="st1" d="M876.36,182.78l-2.21-6.32l-0.73-2.14v8.46h-1.89v-13.94h1.85l2.05,6.39l0.67,2.16v-8.54h1.87v13.94H876.36z"
		/>
	<path class="st1" d="M882.66,183.03c-1.91,0-3.17-1.42-3.17-3.33v-7.79c0-1.91,1.26-3.33,3.17-3.33c1.93,0,2.97,1.34,2.97,3.2v2.01
		h-1.85v-2.05c0-0.67-0.35-1.15-1.08-1.15c-0.73,0-1.08,0.48-1.08,1.13v8.16c0,0.65,0.35,1.13,1.08,1.13c0.73,0,1.08-0.48,1.08-1.15
		v-2.07h1.85v2.03C885.64,181.69,884.59,183.03,882.66,183.03z"/>
	<path class="st1" d="M887.02,182.78v-13.94h5.24v1.97h-3.15v3.85h2.19v1.84h-2.19v4.25h3.15v2.03H887.02z"/>
	<path class="st1" d="M783.59,203.78v-13.94h2.09v13.94H783.59z"/>
	<path class="st1" d="M792.16,203.78l-2.21-6.32l-0.73-2.14v8.46h-1.89v-13.94h1.85l2.05,6.39l0.67,2.16v-8.54h1.87v13.94H792.16z"
		/>
	<path class="st1" d="M797.97,204.03c-1.81,0-2.96-1.23-2.96-3.14v-2.66h1.99v2.7c0,0.71,0.33,1.09,0.93,1.09
		c0.59,0,0.91-0.38,0.91-1.09v-11.1h2.09v10.97C800.93,202.73,799.82,204.03,797.97,204.03z"/>
	<path class="st1" d="M805.58,204.03c-1.77,0-3.09-1.26-3.09-3.14v-11.05h2.11v11.1c0,0.71,0.35,1.11,0.98,1.11
		c0.67,0,1.02-0.4,1.02-1.11v-11.1h2.03v11.05C808.63,202.77,807.35,204.03,805.58,204.03z"/>
	<path class="st1" d="M815.33,203.84c-0.81,0-1.12-0.84-1.12-1.93v-2.99c0-0.57-0.28-1.03-0.85-1.03h-1.02v5.88h-2.09v-13.94h3.35
		c1.46,0,2.58,0.86,2.58,2.74v2.47c0,0.94-0.39,1.63-1.24,1.97c0.85,0.31,1.28,1.07,1.28,1.93v2.85c0,0.63,0.14,1.07,0.39,1.42v0.63
		H815.33z M814.13,192.64c0-0.59-0.22-0.9-0.71-0.9h-1.08v4.42h1c0.51,0,0.79-0.31,0.79-0.98V192.64z"/>
	<path class="st1" d="M821.44,198.17v5.61h-2.09v-5.61l-2.36-8.33h2.13l1.4,5.84l1.36-5.84h2.07L821.44,198.17z"/>
	<path class="st1" d="M823.81,205.58v-0.54c0.53,0,0.89-0.4,0.89-1.26h-0.77v-2.47h1.63v2.24
		C825.56,204.7,824.97,205.58,823.81,205.58z"/>
	<path class="st1" d="M833.12,203.78h-3.19v-13.94h3.19c1.89,0,3,1.26,3,3.33v7.37C836.12,202.63,835.02,203.78,833.12,203.78z
		 M834.03,193.14c0-0.88-0.31-1.32-1.04-1.32h-0.96v9.99h0.96c0.73,0,1.04-0.46,1.04-1.32V193.14z"/>
	<path class="st1" d="M837.66,203.78v-13.94h5.24v1.97h-3.15v3.85h2.19v1.84h-2.19v4.25h3.15v2.03H837.66z"/>
	<path class="st1" d="M848.12,203.78l-0.33-2.72h-1.91l-0.39,2.72h-1.91l2.19-13.94h2.3l2.19,13.94H848.12z M846.9,193.5l-0.77,5.69
		h1.42L846.9,193.5z"/>
	<path class="st1" d="M854.33,191.86v11.91h-2.09v-11.91h-2.03v-2.03h6.11v2.03H854.33z"/>
	<path class="st1" d="M861.72,203.78v-5.86h-2.21v5.86h-2.09v-13.94h2.09v6.05h2.21v-6.05h2.09v13.94H861.72z"/>
</g>
<line class="st4" x1="104.32" y1="299.01" x2="71.74" y2="299.01"/>
<g>
	<g>
		<line class="st4" x1="850.03" y1="299.01" x2="818.19" y2="299.01"/>
		<g>
			<polygon class="st8" points="848.86,295.02 855.77,299.01 848.86,303 			"/>
		</g>
	</g>
</g>
<polyline class="st6" points="276.96,260.54 276.96,176.51 291.58,176.51 "/>
<circle class="st6" cx="276.96" cy="262.83" r="2.28"/>
<circle class="st9" cx="126.14" cy="322.11" r="2.28"/>
<circle class="st9" cx="160.48" cy="325.3" r="2.28"/>
<circle class="st9" cx="270.76" cy="334.9" r="2.28"/>
<circle class="st9" cx="395.33" cy="345.78" r="2.28"/>
<circle class="st9" cx="441.45" cy="351.68" r="2.28"/>
<polyline class="st6" points="509.55,235.59 509.55,176.51 524.18,176.51 "/>
<circle class="st6" cx="509.55" cy="237.87" r="2.28"/>
<g>
	<polyline class="st6" points="759.53,210.7 759.53,176.51 774.15,176.51 	"/>
	<circle class="st6" cx="759.53" cy="212.98" r="2.28"/>
</g>
<circle class="st9" cx="709.6" cy="373.68" r="2.28"/>
<circle class="st9" cx="776.16" cy="380.26" r="2.28"/>
<circle class="st9" cx="792.88" cy="382.29" r="2.28"/>
</svg>
