<!-- Generator: Adobe Illustrator 22.0.1, SVG Export Plug-In  -->
<svg version="1.1"
	 xmlns="http://www.w3.org/2000/svg" xmlns:xlink="http://www.w3.org/1999/xlink" xmlns:a="http://ns.adobe.com/AdobeSVGViewerExtensions/3.0/"
	 x="0px" y="0px" width="156.4px" height="156.4px" viewBox="0 0 156.4 156.4" style="enable-background:new 0 0 156.4 156.4;"
	 xml:space="preserve">
<style type="text/css">
	.st0{fill:#404040;}
	.st1{fill:none;stroke:#404040;stroke-width:3;stroke-miterlimit:10;}
</style>
<defs>
</defs>
<path class="st0" d="M91.8,69.9V44.3c0-1-0.7-1.7-1.7-1.7H66.3c-1,0-1.7,0.7-1.7,1.7v25.6c0,6.9,5.2,12.7,11.9,13.5v23.9h-6.8
	c-1,0-1.7,0.7-1.7,1.7c0,1,0.7,1.7,1.7,1.7h17.1c1,0,1.7-0.7,1.7-1.7c0-1-0.7-1.7-1.7-1.7h-6.8V83.4C86.6,82.5,91.8,76.8,91.8,69.9z
	 M68,46.1h20.5v17.1H68V46.1z M78.2,80.2C72.6,80.2,68,75.6,68,70v-3.5h20.5V70C88.5,75.6,83.9,80.2,78.2,80.2z"/>
<circle class="st1" cx="78.2" cy="78.2" r="76.7"/>
</svg>
