<!-- Generator: Adobe Illustrator 22.0.1, SVG Export Plug-In  -->
<svg version="1.1"
	 xmlns="http://www.w3.org/2000/svg" xmlns:xlink="http://www.w3.org/1999/xlink" xmlns:a="http://ns.adobe.com/AdobeSVGViewerExtensions/3.0/"
	 x="0px" y="0px" width="101.6px" height="101.6px" viewBox="0 0 101.6 101.6" style="enable-background:new 0 0 101.6 101.6;"
	 xml:space="preserve">
<style type="text/css">
	.st0{fill:#FFFFFF;}
</style>
<defs>
</defs>
<g>
	<path class="st0" d="M61.5,47.9H40.1c-0.7,0-1.2,0.6-1.1,1.3l4.8,21.5c0.1,0.7,0.8,1.3,1.5,1.3h11c0.7,0,1.4-0.6,1.5-1.3l4.8-21.5
		C62.7,48.5,62.2,47.9,61.5,47.9z M55.9,70H45.7L41,49.8h19.5L55.9,70z"/>
	<g>
		<line class="st0" x1="60.2" y1="55" x2="41.7" y2="55"/>
		<rect x="41.7" y="54.1" class="st0" width="18.5" height="1.9"/>
	</g>
</g>
<path class="st0" d="M50.8,101.6C22.8,101.6,0,78.8,0,50.8S22.8,0,50.8,0s50.8,22.8,50.8,50.8S78.8,101.6,50.8,101.6z M50.8,1.9
	C23.9,1.9,1.9,23.9,1.9,50.8c0,26.9,21.9,48.8,48.8,48.8c26.9,0,48.8-21.9,48.8-48.8C99.6,23.9,77.7,1.9,50.8,1.9z"/>
</svg>
