<!-- Generator: Adobe Illustrator 22.0.1, SVG Export Plug-In  -->
<svg version="1.1"
	 xmlns="http://www.w3.org/2000/svg" xmlns:xlink="http://www.w3.org/1999/xlink" xmlns:a="http://ns.adobe.com/AdobeSVGViewerExtensions/3.0/"
	 x="0px" y="0px" width="250.5px" height="396.7px" viewBox="0 0 250.5 396.7" style="enable-background:new 0 0 250.5 396.7;"
	 xml:space="preserve">
<style type="text/css">
	.st0{opacity:0.85;fill:#FFFFFF;}
	.st1{fill:#404040;}
	.st2{fill:none;stroke:#404040;stroke-width:3;stroke-miterlimit:10;}
</style>
<defs>
</defs>
<rect class="st0" width="250.5" height="396.7"/>
<path class="st1" d="M138.9,112.6V87.1c0-1-0.7-1.7-1.7-1.7h-23.8c-1,0-1.7,0.7-1.7,1.7v25.6c0,6.9,5.2,12.7,11.9,13.5v23.9h-6.8
	c-1,0-1.7,0.7-1.7,1.7s0.7,1.7,1.7,1.7h17.1c1,0,1.7-0.7,1.7-1.7s-0.7-1.7-1.7-1.7H127v-23.9C133.7,125.3,138.9,119.6,138.9,112.6z
	 M115.1,88.8h20.5v17.1h-20.5V88.8z M125.2,122.9c-5.6,0-10.2-4.6-10.2-10.2v-3.5h20.5v3.5C135.5,118.3,130.9,122.9,125.2,122.9z"/>
<circle class="st2" cx="125.2" cy="120.9" r="76.7"/>
</svg>
