<!-- Generator: Adobe Illustrator 22.0.1, SVG Export Plug-In  -->
<svg version="1.1"
	 xmlns="http://www.w3.org/2000/svg" xmlns:xlink="http://www.w3.org/1999/xlink" xmlns:a="http://ns.adobe.com/AdobeSVGViewerExtensions/3.0/"
	 x="0px" y="0px" width="250.5px" height="396.7px" viewBox="0 0 250.5 396.7" style="enable-background:new 0 0 250.5 396.7;"
	 xml:space="preserve">
<style type="text/css">
	.st0{opacity:0.8;fill:#F15D5E;}
	.st1{fill:#FFFFFF;}
</style>
<defs>
</defs>
<rect class="st0" width="250.5" height="396.7"/>
<path class="st1" d="M134.1,77.5V60.9c0-0.6-0.5-1.1-1.1-1.1h-15.5c-0.6,0-1.1,0.5-1.1,1.1v16.6c0,4.5,3.4,8.2,7.7,8.8v15.6h-4.4
	c-0.6,0-1.1,0.5-1.1,1.1c0,0.6,0.5,1.1,1.1,1.1h11.1c0.6,0,1.1-0.5,1.1-1.1c0-0.6-0.5-1.1-1.1-1.1h-4.4V86.3
	C130.7,85.7,134.1,82,134.1,77.5z M118.6,62h13.3v11.1h-13.3V62z M125.2,84.2c-3.6,0-6.6-3-6.6-6.6v-2.3h13.3v2.3
	C131.9,81.2,128.9,84.2,125.2,84.2z"/>
<path class="st1" d="M125.2,133.7c-28,0-50.8-22.8-50.8-50.8s22.8-50.8,50.8-50.8S176,54.9,176,82.9S153.2,133.7,125.2,133.7z
	 M125.2,34.1c-26.9,0-48.8,21.9-48.8,48.8c0,26.9,21.9,48.8,48.8,48.8s48.8-21.9,48.8-48.8C174.1,56,152.2,34.1,125.2,34.1z"/>
</svg>
