<!-- Generator: Adobe Illustrator 22.0.1, SVG Export Plug-In  -->
<svg version="1.1"
	 xmlns="http://www.w3.org/2000/svg" xmlns:xlink="http://www.w3.org/1999/xlink" xmlns:a="http://ns.adobe.com/AdobeSVGViewerExtensions/3.0/"
	 x="0px" y="0px" width="285px" height="124px" viewBox="0 0 285 124" style="enable-background:new 0 0 285 124;"
	 xml:space="preserve">
<style type="text/css">
	.st0{fill:#F8F8F8;}
	.st1{fill:#E2E2E2;}
</style>
<defs>
</defs>
<g>
	<path class="st0" d="M277.9,122.5H7.1c-3.1,0-5.6-2.5-5.6-5.6V7.1C1.5,4,4,1.5,7.1,1.5h270.9c3.1,0,5.6,2.5,5.6,5.6v109.9
		C283.5,120,281,122.5,277.9,122.5z"/>
	<path class="st1" d="M277.9,124H7.1c-3.9,0-7.1-3.2-7.1-7.1V7.1C0,3.2,3.2,0,7.1,0h270.9h7.1v124H277.9z M7.1,3C4.8,3,3,4.8,3,7.1
		v109.9c0,2.2,1.8,4.1,4.1,4.1H282v-4.1V3h-4.1H7.1z"/>
</g>
</svg>
