<svg xmlns="http://www.w3.org/2000/svg" viewBox="0 0 114 26.12"><defs><style>.cls-1{opacity:0.5;}.cls-2{fill:#fff;}</style></defs><title>Ресурс 2</title><g id="Слой_2" data-name="Слой 2"><g id="Layer_1" data-name="Layer 1"><g class="cls-1"><path class="cls-2" d="M31.83,18.39V17.31a4.81,4.81,0,0,1-3.61,1.37c-3,0-5.35-2.24-5.35-5.75a5.27,5.27,0,0,1,5.29-5.61,3.86,3.86,0,0,1,3.42,1.47l0-1.19a.17.17,0,0,1,.19-.19h.86c.12,0,.18.06.18.19v3.2a.17.17,0,0,1-.18.19h-.95a.18.18,0,0,1-.2-.19v-.19c0-.82-1.29-2.06-3.22-2.06a4.14,4.14,0,0,0-4,4.43,4.22,4.22,0,0,0,7.45,3V14.59H28.81c-.11,0-.18-.07-.18-.2v-.73c0-.12.06-.2.18-.2h4a.18.18,0,0,1,.19.2v4.73c0,.12-.06.18-.19.18H32c-.13,0-.19-.06-.19-.18"/><path class="cls-2" d="M38.08,11.9A2.29,2.29,0,0,0,35.72,14h4.52a2,2,0,0,0-2.16-2.1m.18,5.69a3.12,3.12,0,0,0,2.49-1.19.17.17,0,0,1,.27,0l.43.42a.2.2,0,0,1,0,.28,3.91,3.91,0,0,1-3.31,1.63,3.71,3.71,0,0,1-3.81-4A3.66,3.66,0,0,1,38,10.82c2.29,0,3.47,1.49,3.47,4a.18.18,0,0,1-.2.2H35.68a2.51,2.51,0,0,0,2.58,2.55"/><path class="cls-2" d="M43.35,16V12h-.89a.21.21,0,0,1-.22-.21v-.63a.21.21,0,0,1,.22-.21h.89V9.35a.2.2,0,0,1,.2-.21h.87a.21.21,0,0,1,.22.21v1.57h2a.21.21,0,0,1,.22.21v.63a.21.21,0,0,1-.22.21h-2v4c0,1,.48,1.58,1.32,1.58a1.15,1.15,0,0,0,.82-.31.18.18,0,0,1,.28,0l.38.48c.09.09.06.2,0,.3a2.46,2.46,0,0,1-4.06-2"/><path class="cls-2" d="M50.7,18.39v-.76a.17.17,0,0,1,.19-.19h1.2V8.55h-1.2a.18.18,0,0,1-.19-.19V7.6a.17.17,0,0,1,.19-.19H54.6c.14,0,.21.06.21.19v.76a.18.18,0,0,1-.21.19H53.41v8.89H54.6c.14,0,.21.06.21.19v.76c0,.12-.08.18-.21.18H50.89a.17.17,0,0,1-.19-.18"/><path class="cls-2" d="M62.24,17.92V13.83c0-1.16-.55-1.93-1.7-1.93a2.19,2.19,0,0,0-2.07,1.36v4.27h.83c.12,0,.18.06.18.19v.67a.16.16,0,0,1-.18.18h-3a.16.16,0,0,1-.18-.18v-.67c0-.13.06-.19.18-.19h.87V12h-.87a.17.17,0,0,1-.18-.19v-.67a.16.16,0,0,1,.18-.18h1.84a.16.16,0,0,1,.18.18v1.06h0a2.69,2.69,0,0,1,2.5-1.35,2.48,2.48,0,0,1,2.66,2.7v4h.87a.18.18,0,0,1,.2.19v.67c0,.12-.08.18-.2.18H62.92c-.47,0-.68-.17-.68-.65"/><path class="cls-2" d="M72.12,17.05a3.94,3.94,0,0,1-3.32,1.63,3.71,3.71,0,0,1-3.81-4,3.66,3.66,0,0,1,3.68-3.9A2.83,2.83,0,0,1,71.14,12h0v-.86c0-.12.06-.2.19-.2h.59c.12,0,.18.08.18.2v2.64c0,.13-.06.19-.18.19h-.7c-.13,0-.2-.06-.2-.19v-.26a2,2,0,0,0-2.21-1.59,2.66,2.66,0,0,0-2.55,2.83,2.67,2.67,0,0,0,2.59,2.86,3.12,3.12,0,0,0,2.48-1.21.17.17,0,0,1,.28,0l.43.43c.11.09.13.19.06.28"/><path class="cls-2" d="M73.4,18.39v-.67a.18.18,0,0,1,.2-.19h.87V8.45H73.6c-.12,0-.2-.06-.2-.18V7.6a.18.18,0,0,1,.2-.19h1.73c.31,0,.42.13.42.39v9.73h.82a.18.18,0,0,1,.2.19v.67c0,.12-.08.18-.2.18h-3c-.12,0-.2-.06-.2-.18"/><path class="cls-2" d="M83.58,17.92v-.57h0a2.46,2.46,0,0,1-2.42,1.33A2.52,2.52,0,0,1,78.4,16V12h-.88a.17.17,0,0,1-.19-.19v-.67a.17.17,0,0,1,.19-.18H79c.45,0,.67.17.67.65v4.09c0,1.16.56,1.92,1.71,1.92a2.2,2.2,0,0,0,2.07-1.35V12h-.84a.17.17,0,0,1-.19-.19v-.67a.17.17,0,0,1,.19-.18h1.93a.16.16,0,0,1,.18.18v6.42h.87c.13,0,.2.06.2.19v.67c0,.12-.07.18-.2.18H84.25c-.45,0-.67-.17-.67-.65"/><path class="cls-2" d="M87.93,17.56h0l0,.81a.18.18,0,0,1-.2.2h-.6a.19.19,0,0,1-.22-.2V16a.19.19,0,0,1,.21-.2h.68a.19.19,0,0,1,.2.2v.31a2.21,2.21,0,0,0,2.21,1.24c1.1,0,1.68-.4,1.68-1.12,0-1.61-4.7-.74-4.7-3.45,0-1.38,1.14-2.2,2.62-2.2a2.59,2.59,0,0,1,2.2.9h0l0-.58a.2.2,0,0,1,.22-.2h.55a.19.19,0,0,1,.21.2V13.3a.21.21,0,0,1-.22.21H92.1a.19.19,0,0,1-.2-.21v-.21c0-.41-.51-1.19-1.93-1.19-.78,0-1.49.36-1.49,1.11,0,1.72,4.77.82,4.77,3.48,0,1.14-.79,2.19-2.86,2.19a2.7,2.7,0,0,1-2.46-1.12"/><path class="cls-2" d="M96,9.49a.9.9,0,0,1-.91-.9A.92.92,0,0,1,96,7.66a.93.93,0,0,1,.92.93.91.91,0,0,1-.92.9m-1.49,8.9v-.67a.17.17,0,0,1,.19-.19h.87V12H94.7a.17.17,0,0,1-.19-.19v-.67a.17.17,0,0,1,.19-.19h2a.18.18,0,0,1,.2.19v6.42h.82a.17.17,0,0,1,.19.19v.67a.17.17,0,0,1-.19.18h-3c-.13,0-.19-.06-.19-.18"/><path class="cls-2" d="M101.58,18.29,99.11,12h-.82a.17.17,0,0,1-.19-.19v-.67c0-.12.06-.18.19-.18h2.89a.17.17,0,0,1,.19.18v.67a.18.18,0,0,1-.19.19h-.65l1.94,5.24h0l2-5.24h-.7a.17.17,0,0,1-.19-.19v-.67c0-.12.06-.18.19-.18h2.89a.17.17,0,0,1,.19.18v.67a.17.17,0,0,1-.19.19h-.87l-2.49,6.32c-.08.22-.14.28-.36.28h-1.08c-.21,0-.27-.06-.35-.28"/><path class="cls-2" d="M110.54,11.9a2.29,2.29,0,0,0-2.36,2.1h4.52a2,2,0,0,0-2.16-2.1m.18,5.69a3.12,3.12,0,0,0,2.49-1.19.17.17,0,0,1,.27,0l.43.42a.2.2,0,0,1,0,.28,3.91,3.91,0,0,1-3.31,1.63,3.71,3.71,0,0,1-3.81-4,3.66,3.66,0,0,1,3.65-3.9c2.29,0,3.47,1.49,3.47,4a.18.18,0,0,1-.2.2h-5.62a2.51,2.51,0,0,0,2.58,2.55"/><path class="cls-2" d="M16,13a2.14,2.14,0,0,0-1.53.63,2.18,2.18,0,0,0-.63,1.53V18.3a3.68,3.68,0,0,1-.67,2.81c-.85.85-2.08.83-3.65-.06l-.26-.15a7.71,7.71,0,0,0,2.12-2.29,4.22,4.22,0,0,0,.58-2.14,3.51,3.51,0,1,0-7,0A4.91,4.91,0,0,0,5.69,19,7.74,7.74,0,0,0,7.62,20.9c-.29.16-.54.3-.79.42s-.61.26-.94.38-.66.26-1,.41a5.62,5.62,0,0,0-2.63,2.62,4,4,0,0,1-1.37-3,.35.35,0,0,0,0-.14v-15A1.3,1.3,0,0,1,2.16,5.27,1.28,1.28,0,0,1,3.45,6.55v4.86a.44.44,0,0,0,.84.16.33.33,0,0,0,0-.17V3.19A1.28,1.28,0,0,1,5.61,1.91a1.29,1.29,0,0,1,1.3,1.28v8.22a.44.44,0,0,0,.43.44.44.44,0,0,0,.44-.44V2.17a1.29,1.29,0,1,1,2.57,0v9.22a.45.45,0,0,0,.45.44.44.44,0,0,0,.43-.44V4.66a1.29,1.29,0,0,1,2.58,0v6.75a.44.44,0,0,0,.43.44.44.44,0,0,0,.44-.44V4.66A2.16,2.16,0,0,0,12.52,2.5a2.13,2.13,0,0,0-1.29.43V2.17A2.16,2.16,0,0,0,7,1.53,2.19,2.19,0,0,0,5.61,1,2.16,2.16,0,0,0,3.45,3.19V4.82A2.16,2.16,0,0,0,.63,5,2.16,2.16,0,0,0,0,6.55V21.82A.55.55,0,0,0,0,22a4.79,4.79,0,0,0,2.19,3.79h0l.06,0h0l.07,0h.19l0,0h0l.06,0,0,0,0,0,0,0a.1.1,0,0,1,0-.05l0-.07v0h0A4.69,4.69,0,0,1,5.28,22.9c.3-.14.61-.25.93-.38s.66-.25,1-.41.77-.4,1.22-.67c.22.14.44.26.63.37,1.94,1.09,3.56,1.06,4.71-.09a4.4,4.4,0,0,0,.93-3.43v-.12c0-.55,0-1.11,0-1.65s0-.87,0-1.3v-.09A1.3,1.3,0,0,1,16,13.84a1.29,1.29,0,0,1,1.29,1.29v5.28a5,5,0,0,1-1.46,3.38,5,5,0,0,1-3.3,1.45.45.45,0,0,0-.42.47.45.45,0,0,0,.44.41h0a5.85,5.85,0,0,0,5.59-5.69v-5.3A2.16,2.16,0,0,0,16,13ZM8.42,20.39a7,7,0,0,1-2-1.91,3.89,3.89,0,0,1-.63-2,2.63,2.63,0,0,1,5.26,0,3.49,3.49,0,0,1-.46,1.7A7.16,7.16,0,0,1,8.42,20.39Z"/></g></g></g></svg>