<svg xmlns="http://www.w3.org/2000/svg" viewBox="0 0 33.63 36.57"><defs><style>.cls-1{fill:none;stroke:#414141;stroke-miterlimit:10;stroke-width:0.75px;}</style></defs><title>Ресурс 3</title><g id="Слой_2" data-name="Слой 2"><g id="Layer_1" data-name="Layer 1"><polygon class="cls-1" points="16.81 20.57 16.83 11.08 8.63 6.31 0.4 11.04 0.38 20.53 8.58 25.29 16.81 20.57"/><polygon class="cls-1" points="23.08 14.69 23.1 5.2 14.89 0.43 6.66 5.16 6.64 14.65 14.85 19.41 23.08 14.69"/><polygon class="cls-1" points="31.29 17.19 31.31 7.7 23.1 2.93 14.87 7.66 14.85 17.15 23.06 21.91 31.29 17.19"/><polygon class="cls-1" points="33.26 25.57 33.26 16.08 25.04 11.34 16.82 16.08 16.82 25.57 25.04 30.32 33.26 25.57"/><polygon class="cls-1" points="26.98 31.41 27 21.92 18.79 17.16 10.56 21.88 10.54 31.37 18.75 36.14 26.98 31.41"/><polygon class="cls-1" points="18.76 28.92 18.78 19.43 10.57 14.67 2.35 19.4 2.33 28.89 10.53 33.65 18.76 28.92"/></g></g></svg>