<svg xmlns="http://www.w3.org/2000/svg" viewBox="0 0 18.24 22.26"><defs><style>.cls-1{fill:#fff;}</style></defs><title>Ресурс 2</title><g id="Слой_2" data-name="Слой 2"><g id="Слой_1-2" data-name="Слой 1"><path class="cls-1" d="M4.69,8.5A8.65,8.65,0,0,1,7,6.85L7.49,8.9l6.26-6.26L5.3,0l.6,2.45A9.46,9.46,0,0,0,2.74,17.86a8.72,8.72,0,0,1,2-9.36"/><path class="cls-1" d="M13.55,13.76a8.65,8.65,0,0,1-2.29,1.65l-.51-2.05L4.49,19.62l8.45,2.64-.6-2.45A9.45,9.45,0,0,0,15.51,4.4a8.71,8.71,0,0,1-2,9.36"/></g></g></svg>