<svg xmlns="http://www.w3.org/2000/svg" xmlns:xlink="http://www.w3.org/1999/xlink" width="935" height="687" viewBox="0 0 935 687">
  <defs>
    <clipPath id="clip-path">
      <rect id="Rectangle_535" data-name="Rectangle 535" width="935" height="687" transform="translate(117 3868)" fill="#fff" stroke="#707070" stroke-width="1"/>
    </clipPath>
  </defs>
  <g id="Mask_Group_1" data-name="Mask Group 1" transform="translate(-117 -3868)" clip-path="url(#clip-path)">
    <g id="Group_393" data-name="Group 393">
      <rect id="Rectangle_278" data-name="Rectangle 278" width="935" height="686.803" transform="translate(117.487 3868.012)" fill="#fff"/>
      <rect id="Rectangle_279" data-name="Rectangle 279" width="631.065" height="53.167" transform="translate(117.487 4177.185)" fill="#9b4e5a"/>
      <rect id="Rectangle_280" data-name="Rectangle 280" width="631.065" height="7.9" transform="translate(117.487 4230.352)" fill="#80404a"/>
      <g id="Group_378" data-name="Group 378">
        <rect id="Rectangle_281" data-name="Rectangle 281" width="231.924" height="213.806" transform="translate(145.826 3909.772)" fill="#fafafa"/>
        <rect id="Rectangle_282" data-name="Rectangle 282" width="170.854" height="160.569" transform="translate(174.7 3936.391)" fill="#e6dada"/>
        <path id="Path_1032" data-name="Path 1032" d="M347.453,3936.391h-77.71c-21.674,35.148-38.467,85.577-38.467,108.733a67.693,67.693,0,0,0,24.079,51.836h92.1Z" fill="#fff"/>
        <path id="Path_1033" data-name="Path 1033" d="M174.7,4021.737a67.872,67.872,0,0,0,96.289-85.346H174.7Z" fill="#f5f5f5"/>
        <path id="Path_1034" data-name="Path 1034" d="M234.554,3987.972c-16.571-4.561-38.54,6.164-59.854,23.137v85.851h90.838C268.735,4053.588,257.3,3994.232,234.554,3987.972Z" fill="#ededed"/>
      </g>
      <g id="Group_379" data-name="Group 379">
        <rect id="Rectangle_283" data-name="Rectangle 283" width="222.865" height="213.806" transform="translate(461.243 4132.637) rotate(-90)" fill="#fafafa"/>
        <rect id="Rectangle_284" data-name="Rectangle 284" width="164.181" height="160.569" transform="translate(487.862 4104.891) rotate(-90)" fill="#e6dada"/>
        <path id="Path_1035" data-name="Path 1035" d="M487.862,3938.885h0v74.675c35.148,20.827,85.577,36.964,108.734,36.964a68.829,68.829,0,0,0,51.835-23.138v-88.5Z" fill="#fff"/>
        <path id="Path_1036" data-name="Path 1036" d="M539.443,4047.374c-3.876,16.1,6.165,37.035,23.137,57.517h85.851V3998.332C584.987,3998.332,549.427,4005.892,539.443,4047.374Z" fill="#f5f5f5"/>
        <path id="Path_1037" data-name="Path 1037" d="M573.209,4104.891c5.738-9.569,15.225-22,15.225-33.839,0-36.006,7.6-81.067-60.247-93.237-9.264-1.662-32.177,2.27-40.325,5.6v121.477Z" fill="#ededed"/>
      </g>
      <rect id="Rectangle_285" data-name="Rectangle 285" width="513.702" height="108.246" transform="translate(161.347 4335.899)" fill="#f5f5f5"/>
      <rect id="Rectangle_286" data-name="Rectangle 286" width="303.935" height="576.134" transform="translate(748.552 3868.012)" fill="#fafafa"/>
      <g id="Group_384" data-name="Group 384">
        <path id="Path_1038" data-name="Path 1038" d="M783.738,4117.1l7.826,45.781,35.48-19.435-26.4-55.071Z" fill="#e0886d"/>
        <path id="Path_1039" data-name="Path 1039" d="M783.738,4117.1l3.049,17.838,13.6-25.907-2.7-16.233Z" fill="#9d505b"/>
        <path id="Path_1040" data-name="Path 1040" d="M756.827,4075.522c3.965,15.9,10.437,41.834,16.529,43.4s23.734-5.133,26.692-9.355,2.176-14.659,2.176-14.659L794.8,4064.18l-20.36-5.709Z" fill="#e0886d"/>
        <path id="Path_1041" data-name="Path 1041" d="M806.491,4100.57s7.717-4.527,17.334-21.094c7.425-12.79-1.7-12.072-5.351-17.776s7.138-13.322-11.127-19.7-24.022-3.677-25.175-8.276c-1.777-7.089-30.293,7.564-34.3,19.157-2.853,8.248,1.141,16.982,8.957,22.637,0,0,11.338-2.377,19.633-7.774,10.933-7.112,19.12,11.33,20.193,4.1l3.992,16.525Z" fill="#6b4a48"/>
        <path id="Path_1042" data-name="Path 1042" d="M800.645,4088.374c7.95,1.035,9.6-16.075,5.423-19.358s-7.95-2.512-9.415,2.833Z" fill="#e0886d"/>
        <path id="Path_1043" data-name="Path 1043" d="M787.035,4136.391s-28.271,7.933-40.566,23.3-29.858,42.153-29.858,42.153l-45.227-28.98s-6.571-23.791-7.861-26.908c-1.08-2.61-21.558-13.928-21.558-13.928s.811,9.178,2.195,11.856c.884,1.709,3.459,4.406,5.94,6.785a1.206,1.206,0,0,1-1.268,2c-2.6-1-4.827-1.6-4.233-.439,2.9,5.7,19.76,28.1,19.76,28.1s36.884,54.886,56.643,52.252,53.021-42.7,53.021-42.7Z" fill="#e0886d"/>
        <path id="Path_1044" data-name="Path 1044" d="M747.706,4216.843c3.333-2.891,6.563-5.926,9.554-8.876,1.317-4.179,2.263-7.53,2.263-7.53l-16.32-15.12-12.945-3.589q-1.107,1.586-2.168,3.121C731.824,4190.126,743.266,4206.629,747.706,4216.843Z" fill="#9d505b"/>
        <path id="Path_1045" data-name="Path 1045" d="M782.335,4282.409c-5.348,20.428-3.995,125.152-4.342,138.325s28.378,127.777,28.378,127.777l27.663-3.294-12.918-116.959s10.318-127.811,8.782-139.13Z" fill="#4572bf"/>
        <path id="Path_1046" data-name="Path 1046" d="M821.115,4428.258l5.53-77.578h0c-12.282.837-18.763-17.162-17.385-30.483s-18.655-16.92-29.329-17.84c-2.485,37.447-1.658,107.742-1.938,118.377-.348,13.173,28.378,127.777,28.378,127.777l27.663-3.294Z" fill="#3a60a1"/>
        <path id="Path_1047" data-name="Path 1047" d="M829.9,4289.128l39.3-10s9.764,35.823,10.538,70.475c.8,35.855-2.953,195.772-2.953,195.772l-28.212,2.634L826.645,4350.68Z" fill="#4572bf"/>
        <path id="Path_1048" data-name="Path 1048" d="M874.361,4302.358c-2.6-13.824-5.164-23.232-5.164-23.232l-39.3,10-33.423-4.722-14.894,1.7C798.523,4302.2,852.28,4311.517,874.361,4302.358Z" fill="#3a60a1"/>
        <g id="Group_380" data-name="Group 380">
          <path id="Path_1049" data-name="Path 1049" d="M817.808,4547.149s.564-8.957-9.169-7.64-5.781,9-5.781,9-51.765,10.141-41.951,20.808c.864.939,69.414-1.269,75.661-4.781s-2.534-19.321-2.534-19.321Z" fill="#fdb349"/>
          <path id="Path_1050" data-name="Path 1050" d="M801.927,4561.71l3.537-1.869-5.741-10.894c-1.12.222-2.454.593-4.028.939Z" fill="#fff"/>
          <path id="Path_1051" data-name="Path 1051" d="M790.99,4563.138l3.537-1.869-5.189-9.823c-1.284.327-2.612.679-3.966,1.058Z" fill="#fff"/>
        </g>
        <g id="Group_381" data-name="Group 381">
          <path id="Path_1052" data-name="Path 1052" d="M873.456,4545.683c-1.284-6.589-4-6.9-6.668-6.9-3.694,0-7.894,3.239-6.774,8.153l-6.952.649s15.51,39.56,32.282,36.206C900.164,4580.83,873.456,4545.683,873.456,4545.683Z" fill="#fdb349"/>
          <rect id="Rectangle_287" data-name="Rectangle 287" width="10.788" height="4" transform="translate(864.006 4554.561) rotate(-19.479)" fill="#fff"/>
          <rect id="Rectangle_288" data-name="Rectangle 288" width="10.788" height="4.001" transform="translate(869.659 4564.687) rotate(-19.505)" fill="#fff"/>
        </g>
        <path id="Path_1053" data-name="Path 1053" d="M786.787,4134.938s6.622,18.01,9.623,17.739c21.487-1.939,24.7-20.648,24.7-20.648s23.713-.878,43.911,11.856l6,142.63s-53.607,21.8-89.449-.406c-9.7-22.792-16.807-142.762-16.807-142.762Z" fill="#e96d61"/>
        <path id="Path_1054" data-name="Path 1054" d="M871.029,4286.515l-3.045-72.331,3.045-1.973c-9.146-16.934-18.971-22.264-23.238-38.139-17.893,28.765-62.476,37.151-58.29,61.316,5.354,30.907,14.945,47.021-7.921,50.721C817.422,4308.317,871.029,4286.515,871.029,4286.515Z" fill="#bf4e48"/>
        <g id="Group_382" data-name="Group 382">
          <path id="Path_1055" data-name="Path 1055" d="M769.741,4226.434c4.963-9.372,19.44-22.184,31.842-26.675a58.48,58.48,0,0,0,7.677,0v12.206l-18.442,24.02Z" fill="#fff"/>
          <path id="Path_1056" data-name="Path 1056" d="M810.577,4292.3l-40.836-65.865s29.639-17.783,39.519-26.675l35.9,73.11Z" fill="#9b4e5a"/>
        </g>
        <g id="Group_383" data-name="Group 383">
          <path id="Path_1057" data-name="Path 1057" d="M794.77,4227.422c5.269-13.5,35.128-27.663,35.128-27.663l10.177-.351-28.839,33.266Z" fill="#fff"/>
          <path id="Path_1058" data-name="Path 1058" d="M794.77,4227.422l32.932,68.829,37.323-14.82-22.833-83.647S807.943,4224.459,794.77,4227.422Z" fill="#80404a"/>
        </g>
        <path id="Path_1059" data-name="Path 1059" d="M865.025,4143.885c13.612,10.1,46.764,88.789,42.153,99.894-8.174,19.689-86.1,38.63-86.1,38.63l-11.819,7.765-12.85-12.8,8.24-5.709,10.433,3.656s40.959-39.332,60.7-41.637c0,0-23.492-26.035-25.687-51.329S865.025,4143.885,865.025,4143.885Z" fill="#e0886d"/>
        <path id="Path_1060" data-name="Path 1060" d="M895.93,4200.759c-.456-1.13-1.3-3.224-1.848-4.552-.077-.187-.153-.373-.23-.559l-.036-.088-16.3.437-18.034,14.235a132.738,132.738,0,0,0,8.393,13.362c7.275-5.342,23.169-15.731,28.161-22.583Z" fill="#9d505b"/>
        <path id="Path_1061" data-name="Path 1061" d="M865.025,4143.885c18.991,15.7,28.058,39.752,31.835,51.593-6.731,13.786-30.914,17.191-34.909,22.614,0,0-12.372-20.308-15.927-39.293C842.083,4157.748,865.025,4143.885,865.025,4143.885Z" fill="#e96d61"/>
        <path id="Path_1062" data-name="Path 1062" d="M764.773,4143.347c-14.868,7.02-31.257,28.749-37.185,37.641l27.663,33.262,20.927-13.093S784.582,4155.1,764.773,4143.347Z" fill="#e96d61"/>
        <path id="Path_1063" data-name="Path 1063" d="M769.466,4205.357l-.5-5.6-15.727,12.076,2.008,2.415Z" fill="#bf4e48"/>
      </g>
      <g id="Group_385" data-name="Group 385">
        <rect id="Rectangle_289" data-name="Rectangle 289" width="131.373" height="83.34" rx="6.085" transform="translate(849 4036)" fill="#404040"/>
        <rect id="Rectangle_290" data-name="Rectangle 290" width="20.222" height="20.222" transform="translate(853.713 4081.336) rotate(45)" fill="#404040"/>
        <path id="Path_1847" data-name="Path 1847" d="M16.882-22H13.644L11.86-7.3,10.01-22H7.3L5.22-7.3,3.634-22H.165L3.37,0H6.442L8.457-13.082,10.274,0H13.38ZM29.2,0V-22H25.7v9.548H22V-22H18.5V0H22V-9.25h3.7V0ZM42.088,0,38.421-22H34.556L30.889,0h3.2l.661-4.295h3.2L38.52,0ZM37.562-7.235H35.184l1.288-8.986ZM52.264-18.8V-22H42.022v3.2h3.4V0h3.5V-18.8Zm15.824,0V-22H57.847v3.2h3.4V0h3.5V-18.8ZM73.44,0V-22h-3.5V0ZM90.652,0V-22H85.994L84.111-10.869l-.628,4.262-.595-4.262L80.972-22H76.248V0h3.105V-16.353l.661,4.625L81.963,0h2.643l2.048-11.728.694-4.625V0Zm11.563,0V-3.2H96.929V-9.911H100.6v-2.907H96.929V-18.9h5.286V-22H93.427V0ZM4.724,31V9h-3.5V31Zm12.554-5.022c0-2.775-1.586-4.989-3.733-7.2-2.048-2.18-3.006-3.238-3.006-5.385a1.632,1.632,0,0,1,1.718-1.784c1.123,0,1.685.826,1.685,2.048v1.982h3.171V13.656A4.684,4.684,0,0,0,12.257,8.6c-3.4,0-5.121,2.412-5.121,5.385,0,2.808,2.114,5.385,3.931,7.2,1.85,1.949,2.808,3.37,2.808,5.286,0,1.222-.595,1.982-1.85,1.982-1.222,0-1.85-.793-1.85-2.18V24.393h-3.2v1.949c0,3.105,1.982,5.055,5.154,5.055C15,31.4,17.278,29.48,17.278,25.978ZM27.718,31V9h-3.5V31ZM39.809,12.2V9H29.568v3.2h3.4V31h3.5V12.2Zm10.473,1.487c0-2.808-1.321-5.088-4.724-5.088-3.039,0-4.46,2.081-4.46,4.79V16h2.874V13.656c0-1.255.5-2.015,1.586-2.015s1.586.628,1.586,2.346a8.985,8.985,0,0,1-1.057,3.865c-1.718,3.171-2.246,4.559-2.246,7.037h2.28a6.418,6.418,0,0,1,1.421-4.295A11.236,11.236,0,0,0,50.281,13.689ZM46.284,31V27.4H43.608V31Z" transform="translate(863 4073)" fill="#fafafa"/>
      </g>
      <g id="Group_389" data-name="Group 389">
        <path id="Path_1064" data-name="Path 1064" d="M425.583,4314.255c13.92,71.04-28.306,240.56-28.306,240.56H370.624l8.614-145.863-11.561-77.9" fill="#c6cbe4"/>
        <path id="Path_1065" data-name="Path 1065" d="M310.982,4321.352c-9.359,61.063,11,233.463,11,233.463H352.5l10.408-214.56L352.5,4335.5S312.643,4310.514,310.982,4321.352Z" fill="#c6cbe4"/>
        <g id="Group_386" data-name="Group 386">
          <path id="Path_1066" data-name="Path 1066" d="M352.5,4335.5l10.408,4.758-1.36,28.046c-17.738,6.464-36.377,11.775-52.834,13.422-.524-24-.009-45.491,2.272-60.371C312.643,4310.514,352.5,4335.5,352.5,4335.5Z" fill="#9ea5cf"/>
          <path id="Path_1067" data-name="Path 1067" d="M425.583,4314.255a161.3,161.3,0,0,1,2.586,23.941,565.357,565.357,0,0,1-55.588,25.9l-4.9-33.041Z" fill="#9ea5cf"/>
        </g>
        <path id="Path_1068" data-name="Path 1068" d="M406.56,4032.264c-9.128,1.715-24.709,28.66-34.017,50.151-1.329,3.07-8.1.12-8.64-3.84,0,0-33.84-18.24-16.08-50.856,5.826-10.7,23.906-20.676,40.278-17.436s19.5,19.632,20.286,26.9" fill="#422333"/>
        <path id="Path_1069" data-name="Path 1069" d="M469.983,4046.415c-12.96,3.406-27.6,31.92-27.6,31.92l20.88,2.88Z" fill="#422333"/>
        <path id="Path_1070" data-name="Path 1070" d="M423.423,4024.815c-8.16-5.28-32.332-16.8-32.332-16.8l-15.188,11.52-9.12,12.72,3.12,1.44,27.12-10.32,11.76,5.76s50.88,68.71,86.88,69.395C495.663,4098.53,485.823,4047.135,423.423,4024.815Z" fill="#e98f70"/>
        <path id="Path_1071" data-name="Path 1071" d="M288.893,4239.855c2.53-12.96,26.77-71.04,26.77-71.04l4.08,2.5-23.76,72.157Z" fill="#331b27"/>
        <path id="Path_1072" data-name="Path 1072" d="M469.983,4046.415s-16.32,25.44-27.6,31.92l5.76,13.585-26.64,42.833,33.3,40.549,59.576-71.021Z" fill="#625e99"/>
        <path id="Path_1073" data-name="Path 1073" d="M445.561,4096.072l-27.282-8.224-77.416,22.508-26.64,101.459s-12.6,94.04-12.6,126.44,132.457,7.817,135.9-17.383,14.225-137.037,18.545-151.925S445.561,4096.072,445.561,4096.072Z" fill="#625e99"/>
        <path id="Path_1074" data-name="Path 1074" d="M347.39,4237.935c-1.945.526-18.291-76.234-20.123-75.795l13.6-51.784,66.5-19.334,18.859,2.433c5.338,20.837,10.429,39.426-62.033,63.729-5.363,1.8,1.16,43.126-5.085,44.991C353.036,4203.987,354.348,4236.055,347.39,4237.935Z" fill="#4c4981"/>
        <path id="Path_1075" data-name="Path 1075" d="M406.56,4032.264c4.679,12.031,8.355,25.734,8.021,29.744s-1.838,29.911-12.2,31.415c-5.091.739-23.895-11.363-29.576-19.05s-7.018-20.052-7.018-20.052S392.858,4014.552,406.56,4032.264Z" fill="#e98f70"/>
        <path id="Path_1076" data-name="Path 1076" d="M302.223,4116.975c17.76-13.92,49.988-24.351,49.988-24.351l3.645-25.437,13.235,6.925c.7,1.356,2.828-.939,3.715.261,6.12,8.28,25.072,19.45,29.576,19.05,4.361-.388,7.483-5.767,9.706-14.157.048.036,19.253,12.77,17.335,26.429-1.92,13.68-36.48,29.52-59.52,30.48s-56.64,0-56.64,0l-38.4,24.96S284.463,4130.9,302.223,4116.975Z" fill="#422333"/>
        <g id="Group_387" data-name="Group 387">
          <path id="Path_1077" data-name="Path 1077" d="M347.017,4151.775c-5.522-11.8-36.394-10.44-36.394-10.44l2.88,26.908,21.182-2.068Z" fill="#422333"/>
          <path id="Path_1078" data-name="Path 1078" d="M355.263,4052.175l-17.28,21.48-1.2,22.68s-33.36,58.8-29.76,94.8c0,0,39.84-25.68,39.6-88.32l10.08-16.08,2.4-31.68Z" fill="#e98f70"/>
          <path id="Path_1079" data-name="Path 1079" d="M347.017,4151.775c-13.714.72-36.394-10.44-36.394-10.44s-23.4,43.2-9,56.88c3.89,3.7,11.752,10.175,16.44,7.928C330.733,4200.071,341.26,4170.169,347.017,4151.775Z" fill="#625e99"/>
        </g>
        <path id="Path_1080" data-name="Path 1080" d="M315.594,4206.6c3.184,2.413,10.7-3.279,19.89-23.778l19.21,63.637s-.1,28.5-2.842,35.309c-11.729,29.065-48.822,29.693-48.822,29.693l11.193-99.642Z" fill="#4c4981"/>
        <g id="Group_388" data-name="Group 388">
          <path id="Path_1081" data-name="Path 1081" d="M353.439,4254.316a7.515,7.515,0,0,1-10.713-3.751c-7.66-3.011-15.071-7.712-27.063-10.71-17.28-4.32-26.77,0-26.77,0s-12.85,41.28,0,52.32,34.45,15.36,52.21,4.32S353.439,4254.316,353.439,4254.316Z" fill="#422333"/>
          <path id="Path_1082" data-name="Path 1082" d="M366.783,4136.29c2.64,19.085-.522,86.325-10.122,107.18l-9.644-3.409s14.938-83.5,10.512-103.771Z" fill="#422333"/>
          <path id="Path_1083" data-name="Path 1083" d="M349.863,4242.524a4.831,4.831,0,1,1-4.831,4.831,4.836,4.836,0,0,1,4.831-4.831m0-3a7.831,7.831,0,1,0,7.831,7.831,7.831,7.831,0,0,0-7.831-7.831Z" fill="#fdb349"/>
        </g>
      </g>
      <g id="Group_392" data-name="Group 392">
        <path id="Path_1084" data-name="Path 1084" d="M565.267,4088.955c9.6,3.7,27.189,5.8,27.189,5.8v26.692l27.614-4.6-11.348-54.472Z" fill="#e0886d"/>
        <path id="Path_1085" data-name="Path 1085" d="M568.147,4090.578c9.6,3.7,24.309,4.18,24.309,4.18v26.692l16.266-59.075Z" fill="#9d505b"/>
        <path id="Path_1086" data-name="Path 1086" d="M569.445,4047.3c-1.3-24.054,23.948-28.533,32-27.827,34.92,3.06,41.122,52.373,61.577,58.509,0,0-17.045,29.148-45.724,25.568l-7.392-35.486Z" fill="#6b4a48"/>
        <path id="Path_1087" data-name="Path 1087" d="M569.445,4047.3s-6.878,36.073-4.178,41.653c1.451,3,23.707,5.8,28.794-3.491l6.306-14.149s7.619,1.62,6.3-11.34c-1.3-12.759-7.02-5.58-7.02-5.58-7.159-.511,1.473-13.836-10.8-14.22S574.047,4038.609,569.445,4047.3Z" fill="#e0886d"/>
        <path id="Path_1088" data-name="Path 1088" d="M621.987,4426.365l9.035-4.413,4.605-2.249,6.44,28.352,24.767,106.76H651.274l-24.659-58.685-18.147-68.115Z" fill="#d17f65"/>
        <path id="Path_1089" data-name="Path 1089" d="M587.4,4432.5l.181,5.45,23.876,116.864H625.9s1.637-82.3.567-91.64c-.614-5.365-5.95-20.739-5.95-20.739l1.47-13" fill="#e0886d"/>
        <path id="Path_1090" data-name="Path 1090" d="M620.517,4442.436l1.47-13L587.4,4432.5C609.841,4433.169,610.047,4433.942,620.517,4442.436Z" fill="#9d505b"/>
        <path id="Path_1091" data-name="Path 1091" d="M573.664,4267.332,587.4,4432.5l34.584-3.068h0l21.989-13.807-5.114-63.408s15.968-35.382,15.852-49.511c-.13-15.817-25.568-57.874-25.568-57.874" fill="#2c519c"/>
        <path id="Path_1092" data-name="Path 1092" d="M638.862,4352.218s15.968-35.382,15.852-49.511c-.13-15.817-25.568-57.874-25.568-57.874l-10.595,4.3C621.31,4285.335,657.907,4277.055,638.862,4352.218Z" fill="#325db3"/>
        <path id="Path_1093" data-name="Path 1093" d="M574.627,4306.035l12.06,2.7s11.355-1.23,11.635-4.32c4.243-46.835,20.229-55.286,20.229-55.286l-20.677,11.665Z" fill="#213974"/>
        <path id="Path_1094" data-name="Path 1094" d="M638.862,4352.218l-16.875,77.215,21.988-13.807Z" fill="#213974"/>
        <g id="Group_390" data-name="Group 390">
          <path id="Path_1095" data-name="Path 1095" d="M537.155,4195.584c-31.593-14.19-61.008-48.046-69.678-56.283s-10.883-15.762,4.724-7.9,89.516,51.731,89.516,51.731Z" fill="#e0886d"/>
          <path id="Path_1096" data-name="Path 1096" d="M534.847,4172.655c4.187-9.474,33.3-35.026,49.505-52.953,10.934-12.1,8.069,3.282,17.449,10.1,19.074,13.872-42.484,57.223-58.957,64.593S534.847,4172.655,534.847,4172.655Z" fill="#fdb959"/>
          <path id="Path_1097" data-name="Path 1097" d="M537.155,4195.584c-31.593-14.19-61.008-48.046-69.678-56.283s-10.883-15.762,4.724-7.9,89.516,51.731,89.516,51.731Z" fill="#fdb959"/>
          <path id="Path_1098" data-name="Path 1098" d="M472.2,4131.4l-23.886-13.412-21.661,5.183-2.168,12.844,4.335,4.769,17.612-4.9,21.044,3.419" fill="#e0886d"/>
        </g>
        <path id="Path_1099" data-name="Path 1099" d="M560.688,4162.838l-15.255,30.3a207.45,207.45,0,0,0,26.122-17.074Z" fill="#f2ab46"/>
        <path id="Path_1100" data-name="Path 1100" d="M591.689,4111.734c-15.085,12.784-31,51.1-31,51.1l16.459,33.578-3.483,70.917,55.482-22.5,3.58-16.364s13.341-108.482-14.2-119.036Z" fill="#fdb349"/>
        <path id="Path_1101" data-name="Path 1101" d="M632.988,4135.508l-.475-2.321c-.02-.09-.039-.182-.058-.273L613.071,4127c-20.9,28.4,17.716,71.868,1.118,93.939-9.415,12.52-6.96,28.668-7.522,33.015l22.479-9.116,3.58-16.364S639.809,4170.846,632.988,4135.508Z" fill="#f2ab46"/>
        <g id="Group_391" data-name="Group 391">
          <path id="Path_1102" data-name="Path 1102" d="M645.095,4199.083c-16.823-11.5-49.147-55.868-32.024-72.088s48.5,52.221,52.738,69.763S645.095,4199.083,645.095,4199.083Z" fill="#fdb959"/>
          <path id="Path_1103" data-name="Path 1103" d="M665.936,4202.568c-19.722,28.469-58.381,51.206-68.062,58.226s-17.485,7.821-6.909-6.088,67.21-78.563,67.21-78.563Z" fill="#fdb959"/>
          <path id="Path_1104" data-name="Path 1104" d="M590.965,4254.706,571.027,4283.9l3.6,22.14,12.06,2.7,5.505-7.081-3.166-14.7,8.846-26.162" fill="#e0886d"/>
        </g>
        <path id="Path_1105" data-name="Path 1105" d="M591.277,4108.215l24.933-9.894,8.457,13.413-27.54,9.716Z" fill="#fdb959"/>
        <path id="Path_1106" data-name="Path 1106" d="M591.277,4108.215l-2.843,6.643,7.469,3.821Z" fill="#f2ab46"/>
      </g>
    </g>
  </g>
</svg>
