<svg xmlns="http://www.w3.org/2000/svg" xmlns:xlink="http://www.w3.org/1999/xlink" width="935" height="687" viewBox="0 0 935 687">
  <defs>
    <clipPath id="clip-path">
      <rect id="Rectangle_536" data-name="Rectangle 536" width="935" height="687" transform="translate(118 4738)" fill="#fff" stroke="#707070" stroke-width="1"/>
    </clipPath>
  </defs>
  <g id="Mask_Group_2" data-name="Mask Group 2" transform="translate(-118 -4738)" clip-path="url(#clip-path)">
    <g id="Group_407" data-name="Group 407">
      <rect id="Rectangle_292" data-name="Rectangle 292" width="935" height="686.671" transform="translate(117.883 4738.475)" fill="#fafafa"/>
      <g id="Group_394" data-name="Group 394">
        <rect id="Rectangle_293" data-name="Rectangle 293" width="197.878" height="182.421" transform="translate(205.87 4996.054)" fill="#fcfcfc"/>
        <rect id="Rectangle_294" data-name="Rectangle 294" width="145.774" height="136.998" transform="translate(230.505 5018.766)" fill="#e6dada"/>
        <path id="Path_1107" data-name="Path 1107" d="M376.279,5023.491c2.263-1.607,1.677-3.183,1.074-4.726H311.6c-18.492,29.989-32.819,73.015-32.819,92.773a57.756,57.756,0,0,0,20.543,44.226H374c1.8-1.522,3.506-3.151,2.275-4.879Z" fill="#fcfcfc"/>
        <path id="Path_1108" data-name="Path 1108" d="M281.573,5062.775c-14.138-3.892-32.882,5.259-51.068,19.74v73.249h77.5C310.736,5118.759,300.981,5068.116,281.573,5062.775Z" fill="#e6dada"/>
        <path id="Path_1109" data-name="Path 1109" d="M230.505,5091.584a57.908,57.908,0,0,0,82.154-72.819H230.505Z" fill="#f2ecec"/>
      </g>
      <g id="Group_395" data-name="Group 395">
        <rect id="Rectangle_295" data-name="Rectangle 295" width="735.562" height="313.632" transform="translate(203.173 4915)" fill="#e6dada"/>
        <rect id="Rectangle_296" data-name="Rectangle 296" width="17.42" height="62.572" transform="translate(232.678 4935.24)" fill="#fafafa"/>
        <rect id="Rectangle_297" data-name="Rectangle 297" width="17.42" height="62.572" transform="translate(261.168 4935.24)" fill="#fafafa"/>
        <rect id="Rectangle_298" data-name="Rectangle 298" width="17.42" height="62.572" transform="translate(279.583 4940.035) rotate(-19.785)" fill="#fafafa"/>
        <rect id="Rectangle_299" data-name="Rectangle 299" width="17.42" height="62.572" transform="translate(318.148 4935.24)" fill="#fafafa"/>
        <rect id="Rectangle_300" data-name="Rectangle 300" width="17.42" height="62.572" transform="translate(678.033 4935.24)" fill="#fafafa"/>
        <rect id="Rectangle_301" data-name="Rectangle 301" width="17.42" height="62.572" transform="translate(711.523 4935.24)" fill="#fafafa"/>
        <rect id="Rectangle_302" data-name="Rectangle 302" width="17.42" height="62.572" transform="translate(729.937 4940.035) rotate(-19.785)" fill="#fafafa"/>
        <rect id="Rectangle_303" data-name="Rectangle 303" width="17.42" height="62.572" transform="translate(768.503 4935.24)" fill="#fafafa"/>
        <rect id="Rectangle_304" data-name="Rectangle 304" width="17.42" height="62.572" transform="translate(519.722 5132.189)" fill="#fafafa"/>
        <rect id="Rectangle_305" data-name="Rectangle 305" width="17.42" height="62.572" transform="translate(548.212 5132.189)" fill="#fafafa"/>
        <rect id="Rectangle_306" data-name="Rectangle 306" width="17.42" height="62.572" transform="translate(566.627 5136.984) rotate(-19.785)" fill="#fafafa"/>
        <rect id="Rectangle_307" data-name="Rectangle 307" width="17.42" height="62.572" transform="translate(605.192 5132.189)" fill="#fafafa"/>
        <rect id="Rectangle_308" data-name="Rectangle 308" width="17.42" height="62.572" transform="translate(375.128 4935.24)" fill="#fafafa"/>
        <rect id="Rectangle_309" data-name="Rectangle 309" width="17.42" height="62.572" transform="translate(415.183 4933.125) rotate(10.385)" fill="#fafafa"/>
        <rect id="Rectangle_310" data-name="Rectangle 310" width="17.42" height="62.572" transform="translate(432.108 4935.24)" fill="#fafafa"/>
        <rect id="Rectangle_311" data-name="Rectangle 311" width="17.42" height="62.572" transform="translate(460.598 4935.24)" fill="#fafafa"/>
        <rect id="Rectangle_312" data-name="Rectangle 312" width="17.42" height="62.572" transform="translate(685.494 5133.247)" fill="#fafafa"/>
        <rect id="Rectangle_313" data-name="Rectangle 313" width="17.42" height="62.572" transform="translate(725.548 5131.131) rotate(10.385)" fill="#fafafa"/>
        <rect id="Rectangle_314" data-name="Rectangle 314" width="17.42" height="62.572" transform="translate(742.474 5133.247)" fill="#fafafa"/>
        <rect id="Rectangle_315" data-name="Rectangle 315" width="17.42" height="62.572" transform="translate(770.964 5133.247)" fill="#fafafa"/>
        <rect id="Rectangle_316" data-name="Rectangle 316" width="17.42" height="62.572" transform="translate(554.2 4933.129) rotate(10.348)" fill="#fafafa"/>
        <rect id="Rectangle_317" data-name="Rectangle 317" width="17.42" height="62.572" transform="matrix(0.929, 0.37, -0.37, 0.929, 537.09, 4933.235)" fill="#fafafa"/>
        <rect id="Rectangle_318" data-name="Rectangle 318" width="17.42" height="62.572" transform="translate(571.167 4935.24)" fill="#fafafa"/>
        <rect id="Rectangle_319" data-name="Rectangle 319" width="17.42" height="62.572" transform="translate(599.657 4935.24)" fill="#fafafa"/>
        <rect id="Rectangle_320" data-name="Rectangle 320" width="17.42" height="62.572" transform="translate(412.934 5138.805) rotate(10.348)" fill="#fafafa"/>
        <rect id="Rectangle_321" data-name="Rectangle 321" width="17.42" height="62.572" transform="matrix(0.929, 0.37, -0.37, 0.929, 395.823, 5138.912)" fill="#fafafa"/>
        <rect id="Rectangle_322" data-name="Rectangle 322" width="17.42" height="62.572" transform="translate(429.901 5140.917)" fill="#fafafa"/>
        <rect id="Rectangle_323" data-name="Rectangle 323" width="17.42" height="62.572" transform="translate(458.391 5140.917)" fill="#fafafa"/>
        <rect id="Rectangle_324" data-name="Rectangle 324" width="17.42" height="62.572" transform="translate(845.446 5029.742) rotate(10.348)" fill="#fafafa"/>
        <rect id="Rectangle_325" data-name="Rectangle 325" width="17.42" height="62.572" transform="matrix(0.929, 0.37, -0.37, 0.929, 828.335, 5029.848)" fill="#fafafa"/>
        <rect id="Rectangle_326" data-name="Rectangle 326" width="17.42" height="62.572" transform="translate(862.413 5031.853)" fill="#fafafa"/>
        <rect id="Rectangle_327" data-name="Rectangle 327" width="17.42" height="62.572" transform="translate(890.903 5031.853)" fill="#fafafa"/>
        <rect id="Rectangle_328" data-name="Rectangle 328" width="17.42" height="62.572" transform="translate(785.923 5095.968) rotate(-180)" fill="#fafafa"/>
        <rect id="Rectangle_329" data-name="Rectangle 329" width="17.42" height="62.572" transform="translate(757.433 5095.968) rotate(-180)" fill="#fafafa"/>
        <rect id="Rectangle_330" data-name="Rectangle 330" width="17.42" height="62.572" transform="translate(717.839 5097.069) rotate(-160.215)" fill="#fafafa"/>
        <rect id="Rectangle_331" data-name="Rectangle 331" width="17.42" height="62.572" transform="translate(695.453 5095.968) rotate(-180)" fill="#fafafa"/>
        <rect id="Rectangle_332" data-name="Rectangle 332" width="17.42" height="62.572" transform="translate(335.568 5095.968) rotate(-180)" fill="#fafafa"/>
        <rect id="Rectangle_333" data-name="Rectangle 333" width="17.42" height="62.572" transform="translate(307.078 5095.968) rotate(-180)" fill="#fafafa"/>
        <rect id="Rectangle_334" data-name="Rectangle 334" width="17.42" height="62.572" transform="translate(267.485 5097.069) rotate(-160.215)" fill="#fafafa"/>
        <rect id="Rectangle_335" data-name="Rectangle 335" width="17.42" height="62.572" transform="translate(250.099 5095.968) rotate(-180)" fill="#fafafa"/>
        <rect id="Rectangle_336" data-name="Rectangle 336" width="17.42" height="62.572" transform="translate(908.198 5187.05) rotate(-180)" fill="#fafafa"/>
        <rect id="Rectangle_337" data-name="Rectangle 337" width="17.42" height="62.572" transform="translate(879.708 5187.05) rotate(-180)" fill="#fafafa"/>
        <rect id="Rectangle_338" data-name="Rectangle 338" width="17.42" height="62.572" transform="translate(840.114 5188.151) rotate(-160.215)" fill="#fafafa"/>
        <rect id="Rectangle_339" data-name="Rectangle 339" width="17.42" height="62.572" transform="translate(822.728 5187.05) rotate(-180)" fill="#fafafa"/>
        <rect id="Rectangle_340" data-name="Rectangle 340" width="17.42" height="62.572" transform="translate(622.958 5095.968) rotate(-180)" fill="#fafafa"/>
        <rect id="Rectangle_341" data-name="Rectangle 341" width="17.42" height="62.572" transform="translate(594.183 5092.828) rotate(169.615)" fill="#fafafa"/>
        <rect id="Rectangle_342" data-name="Rectangle 342" width="17.42" height="62.572" transform="translate(565.978 5095.968) rotate(-180)" fill="#fafafa"/>
        <rect id="Rectangle_343" data-name="Rectangle 343" width="17.42" height="62.572" transform="translate(537.488 5095.968) rotate(-180)" fill="#fafafa"/>
        <rect id="Rectangle_344" data-name="Rectangle 344" width="17.42" height="62.572" transform="translate(332.164 5203.491) rotate(-180)" fill="#fafafa"/>
        <rect id="Rectangle_345" data-name="Rectangle 345" width="17.42" height="62.572" transform="translate(303.389 5200.351) rotate(169.615)" fill="#fafafa"/>
        <rect id="Rectangle_346" data-name="Rectangle 346" width="17.42" height="62.572" transform="translate(275.185 5203.491) rotate(-180)" fill="#fafafa"/>
        <rect id="Rectangle_347" data-name="Rectangle 347" width="17.42" height="62.572" transform="translate(246.695 5203.491) rotate(-180)" fill="#fafafa"/>
        <rect id="Rectangle_348" data-name="Rectangle 348" width="17.42" height="62.572" transform="translate(922.443 4997.762) rotate(-180)" fill="#fafafa"/>
        <rect id="Rectangle_349" data-name="Rectangle 349" width="17.42" height="62.572" transform="translate(893.667 4994.622) rotate(169.615)" fill="#fafafa"/>
        <rect id="Rectangle_350" data-name="Rectangle 350" width="17.42" height="62.572" transform="translate(865.463 4997.762) rotate(-180)" fill="#fafafa"/>
        <rect id="Rectangle_351" data-name="Rectangle 351" width="17.42" height="62.572" transform="translate(836.973 4997.762) rotate(-180)" fill="#fafafa"/>
        <rect id="Rectangle_352" data-name="Rectangle 352" width="17.42" height="62.572" transform="translate(455.126 5092.838) rotate(169.652)" fill="#fafafa"/>
        <rect id="Rectangle_353" data-name="Rectangle 353" width="17.42" height="62.572" transform="matrix(-0.929, 0.37, -0.37, -0.929, 484.15, 5089.522)" fill="#fafafa"/>
        <rect id="Rectangle_354" data-name="Rectangle 354" width="17.42" height="62.572" transform="translate(426.919 5095.968) rotate(-180)" fill="#fafafa"/>
        <rect id="Rectangle_355" data-name="Rectangle 355" width="17.42" height="62.572" transform="translate(398.429 5095.968) rotate(-180)" fill="#fafafa"/>
      </g>
      <g id="Group_396" data-name="Group 396">
        <path id="Path_1110" data-name="Path 1110" d="M398.688,5085.706c15.3-.624,21.144-1.793,19.2-27.124s-8.488-88.456-18.663-92.356-26.352-7.84-29.175,1.339S398.688,5085.706,398.688,5085.706Z" fill="#2f283b"/>
        <path id="Path_1111" data-name="Path 1111" d="M369.366,4924.134c7.51-12.031,4.83-19.831-8.81-18.391-10.152-4.68-23.133-4.26-26.64,10.08-17.52,9.48-2.171,27.692.961,31.693a60.468,60.468,0,0,0,9.193,8.838Z" fill="#6b4a48"/>
        <path id="Path_1112" data-name="Path 1112" d="M345.009,4947.906l-3.507,31.566,25.72-2.728-7.4-31.371Z" fill="#fa7b4e"/>
        <path id="Path_1113" data-name="Path 1113" d="M342.324,4972.072l13.207-12.28-10.522-11.886Z" fill="#c85760"/>
        <path id="Path_1114" data-name="Path 1114" d="M338.774,4939.722c.584,3.313,7.794,21.824,16.757,20.07s16.93-21.938,13.835-35.658c-6.53,1.169-30.65-7.471-27.669,4.287a4.267,4.267,0,0,0-5.456-2.338C332.344,4927.447,330.59,4939.527,338.774,4939.722Z" fill="#fa7b4e"/>
        <path id="Path_1115" data-name="Path 1115" d="M325.076,4982.079c-12.2,10.217-17.8,46.424-16.546,71.384-10.175,20.318-16.78,51.234-16.78,51.234s12.47,6.755,12.73,5.716S328.9,5061.83,328.9,5061.83,342.613,4999.615,325.076,4982.079Z" fill="#fa7b4e"/>
        <path id="Path_1116" data-name="Path 1116" d="M325.076,4982.079c-9.039,7.57-17.217,27.847-18.907,48.806,7.245,2.727,19.3,7.885,26.119,10.542C334.782,5021.651,336.075,4993.078,325.076,4982.079Z" fill="#e03c4a"/>
        <path id="Path_1117" data-name="Path 1117" d="M387.877,4970.314c17.666,11.765,24.62,68.515,22.282,102.289,0,0-9.95-5.94-16.1-20.46-3.88-9.156-4.069-21.941-6.179-38.117C386.308,5002,382.681,4994.151,387.877,4970.314Z" fill="#fa7b4e"/>
        <path id="Path_1118" data-name="Path 1118" d="M387.877,4970.314c-5.2,23.837-1.569,31.683,0,43.712.817,6.266.5,11.777,1.719,16.643l21.3-9.186C407.961,4998.193,398.8,4977.587,387.877,4970.314Z" fill="#e03c4a"/>
        <path id="Path_1119" data-name="Path 1119" d="M291.75,5104.7c-1.3,8.444-9.873,18.966-6.366,22.083s16.132,12.363,16.132,12.363l4.653-2.645-5.2-17.252,3.507-8.833-10.723-4.648" fill="#fa7b4e"/>
        <path id="Path_1120" data-name="Path 1120" d="M354.461,5299.043l-1.744,7.772s-17.061,8.668-16.8,14.341,43.127-16.185,42.608-16.947-5.594-12.673-5.594-12.673Z" fill="#333"/>
        <path id="Path_1121" data-name="Path 1121" d="M327.083,5095.907c-5.456,19.962-18.4,95.175-18.553,101.02s36.479,105.958,36.479,105.958l29.618-12.039-26.111-93.529s8.964-46.765,8.964-48.324,1.948-53.173.779-53.086S327.083,5095.907,327.083,5095.907Z" fill="#754748"/>
        <path id="Path_1122" data-name="Path 1122" d="M398.942,5304.209s3.743,19.5,3.354,23.659c0,0-45.6,11.431-51.052,10.132s3.9-11.345,21.564-16.844l7.291-11.113Z" fill="#333"/>
        <path id="Path_1123" data-name="Path 1123" d="M394.5,5091.317c6.235,18.316.779,59.625-2.339,100.544L402.3,5302.885s-26.36,10.857-28.3,6.445c-.8-1.818-15.733-103.921-15.733-103.921s-12.47-56.589,0-109.5Z" fill="#804e4f"/>
        <path id="Path_1124" data-name="Path 1124" d="M364.74,4966.226c-2.715,4.873-17.564,8.277-22.416,5.846-1.212.385-14.407,6.127-17.248,10.007-.08,4.519-3.254,111.771-2.28,118.786s75.6,8.573,76.382-1.169c.382-4.774-6.024-36.027-8.622-66.393-2.7-31.608-1.633-62.292-2.679-62.989C385.538,4968.755,364.74,4966.226,364.74,4966.226Z" fill="#e03c4a"/>
        <path id="Path_1125" data-name="Path 1125" d="M374.627,4967.565c-6.755,18.922-12.862,44.448-13.711,52.956s3.117,52.17,37.772,65.185l-.584-9.056s-26.222-15.884-28.544-45.737c-1.818-23.382,12.6-62.11,12.6-62.11Z" fill="#2f283b"/>
        <path id="Path_1126" data-name="Path 1126" d="M410.159,5072.6c0-10.132-4.663-30.42-29.557-45.327l-10.132-14.549-11.691-5.2-4.417,19.105,8.314,2.458,8.833,5.2S385.178,5078.075,410.159,5072.6Z" fill="#fa7b4e"/>
      </g>
      <g id="Group_401" data-name="Group 401">
        <g id="Group_399" data-name="Group 399">
          <g id="Group_397" data-name="Group 397">
            <path id="Path_1127" data-name="Path 1127" d="M277.3,5323.958c.538,1.632-10.667-.136-23.864-8.561,2.344-1.51,6.967-4.407,12.623-7.55C270.5,5311.949,275.008,5317.018,277.3,5323.958Z" fill="#333"/>
            <path id="Path_1128" data-name="Path 1128" d="M254.088,5293.872c-.336,4.391,5.748,8.234,11.967,13.975-5.656,3.143-10.279,6.04-12.623,7.55a82.8,82.8,0,0,1-13.951-11.209l-.51-12.689Z" fill="#a65348"/>
          </g>
          <g id="Group_398" data-name="Group 398">
            <path id="Path_1129" data-name="Path 1129" d="M221.606,5323.2a27.194,27.194,0,0,1,4.613-17.543l6.762-1.206c1.91,5.2,3.97,11.934,3.775,18.458C231.4,5324.156,225.219,5323.679,221.606,5323.2Z" fill="#a65348"/>
            <path id="Path_1130" data-name="Path 1130" d="M236.756,5322.907c-.168,5.664-2.035,11.167-7.182,15.36-4.306-1.42-7.466-7.726-7.968-15.069C225.219,5323.679,231.4,5324.156,236.756,5322.907Z" fill="#333"/>
          </g>
          <path id="Path_1131" data-name="Path 1131" d="M207.65,5094.692c-6.644,43.768,12.193,86.77,6.829,113.041s8.465,99.979,8.465,99.979l13.9-.558L247.684,5134.5Z" fill="#4d4d4d"/>
          <path id="Path_1132" data-name="Path 1132" d="M273.2,5108.972c2.729,54.614-5.962,83.209-5.415,88.906s-4.735,80.952-7.525,90.6-22.564,5.24-22.564,5.24l9.992-159.213Z" fill="#333"/>
        </g>
        <path id="Path_1133" data-name="Path 1133" d="M209.916,5153.642c3.087,19.375,6.727,36.781,5.136,50.366,17.91-4.254,39.815-10.181,53.891-15.762a345.608,345.608,0,0,0,4.127-36.141Z" fill="#e2e1f2" style="mix-blend-mode: multiply;isolation: isolate"/>
        <path id="Path_1134" data-name="Path 1134" d="M249.862,4931.643c8.887,11.392,4.963,48.046,4.963,48.046H231.413Z" fill="#1d1924"/>
        <path id="Path_1135" data-name="Path 1135" d="M274.519,5088.228c-.011-1.039-.531-51.334-5.325-78.3-.791-4.452-12.291-26.469-26.511-39.061-6.623-5.866-13.313-6.648-23.02-1.456-7,3.745-21.037,2.915-21.037,2.915l-1.922,68.8q-.1,3.669-.2,7.275l-1.635,58.5.221-.052c-.56,34.346.039,68.1,2.856,81.447,6.388,2.387,77.445-9.107,76.99-16.25C273.941,5156.466,275.828,5131.689,274.519,5088.228Z" fill="#c6cbe4"/>
        <path id="Path_1136" data-name="Path 1136" d="M273.6,5057.7l-63.9,1.653L196.8,5037.794l-.093,3.331q-.1,3.669-.2,7.275l-1.121,40.11c5.167,2.936,66.1-12.26,78.4-26.626l-.178-4.024Z" fill="#e6e6e6" style="mix-blend-mode: multiply;isolation: isolate"/>
        <path id="Path_1137" data-name="Path 1137" d="M255.2,5015.072c3.081-6.736,16.36-12.5,16.36-12.5l-.5,20.721H259.923Z" fill="#a7abbf"/>
        <path id="Path_1138" data-name="Path 1138" d="M253.585,4942.516c.984-6.157-4.078-16.225-18.652-17.744s-34.778,18.723-40.067,33.36c-3.808,10.541-9.766,14.456,3.346,23.524,0,0,14.625.632,23.325-9.328l.271-11.964,31.307-11.462Z" fill="#2f283b"/>
        <path id="Path_1139" data-name="Path 1139" d="M221.537,4972.328c4.205,3.372,8.455,11.325,12.406,11.484,3.235.131,4.315-9.691,7.556-13.378,7.2-8.191-3.51-15.994-3.51-15.994l-16.181,5.924Z" fill="#fa6834"/>
        <g id="Group_400" data-name="Group 400">
          <path id="Path_1140" data-name="Path 1140" d="M246.487,4948.1c-3.3-.206-15.626-.629-23.2-5.431-.765,2.273-1.325,4.926-1.325,4.926l-.424,10.617c.942,10.228,6.8,20.536,15.428,19.175,7.315-1.154,15.148-18.474,16.448-30.71C252.166,4947.75,249.9,4948.319,246.487,4948.1Z" fill="#ff895f"/>
        </g>
        <path id="Path_1141" data-name="Path 1141" d="M256.2,4978.292c3.182,5.218,27.379,42.872,26.663,71.371-.141,5.618-17.156,14.044-21.81-1.745s1.643-39.9-8.027-58.849c-.74-1.45-3.072-5.207-4.208-5.017-10.025,1.682-11.032-5.7-19.512-3.411-3.69.994-3.54-9.862,1.6-11.8S252.664,4974.564,256.2,4978.292Z" fill="#fa7b4e"/>
        <path id="Path_1142" data-name="Path 1142" d="M271.562,5002.573s-6.142,11.959-16.36,12.5c0,0-1.857,51.5,20.725,41.93C296.283,5048.372,271.562,5002.573,271.562,5002.573Z" fill="#babfd6"/>
        <path id="Path_1143" data-name="Path 1143" d="M211.935,5051.7c17.568-4.051,39.383.19,39.383.19l-.048,16.819c-23.752,9.72-50.119,7.593-54.4-5.474-12.726-38.828-3.644-80.461,7.14-90.91,20.875,21.878,14.011,65.466,12.461,77.855" fill="#babfd6"/>
        <path id="Path_1144" data-name="Path 1144" d="M251.27,5052.527c3.133-.65,16.9-6.4,16.9-6.4-1.767-9.46,13.028-13.864,13.4-18.891,3.972,3.185,3.454,18.282,3.493,22.873s-12.245,7.726-20.894,10.9a98.486,98.486,0,0,1-12.784,4Z" fill="#fa7b4e"/>
        <path id="Path_1145" data-name="Path 1145" d="M194.866,4958.132c-3.808,10.541-9.766,14.456,3.346,23.524,0,0,20.022,16.57,23.325-9.328.647-5.075,4.636-31.956,4.636-31.956C220.873,4935.139,199.527,4945.235,194.866,4958.132Z" fill="#2f283b"/>
        <path id="Path_1146" data-name="Path 1146" d="M223.286,4942.674c6.333,6.8,28.356,22.269,28.534,21.749,4.384-12.779,2.766-20.038,2.766-20.038Z" fill="#2f283b"/>
      </g>
      <g id="Group_403" data-name="Group 403">
        <g id="Group_402" data-name="Group 402">
          <path id="Path_1147" data-name="Path 1147" d="M815.55,4955.967l42.186,6.408,10.1,47.069-43.819-1.986S815.7,4956.517,815.55,4955.967Z" fill="#ff895f"/>
          <path id="Path_1148" data-name="Path 1148" d="M857.736,4962.375l5.4,25.192-40.608-6.186,3.364-27.67,15.459-3.385Z" fill="#c85760"/>
          <path id="Path_1149" data-name="Path 1149" d="M835.185,4952.839c.2,1.164,5.355,17.182,3.482,20.878-1.969,3.887-24.631,11.437-30.784,9.679s-22-46.354-13.646-61.735,33-13.814,28.868,11.592c0,0,7.631-11.56,15.3,1.973C842.307,4942.12,841.337,4954.157,835.185,4952.839Z" fill="#ff895f"/>
          <path id="Path_1150" data-name="Path 1150" d="M795.054,4920.27c-7.117-2.4-6.974-24.62-3.716-28.766,2.989-3.8,3.316-6.051,20.181-1.929,13.647,3.335,29.7-9.4,41.779,8.046,1.365,1.972,15.305,9.006,16.778,24.4.97,10.135-5.155,32.916-12.34,40.354l-5.491,3.08-17.06-12.616c8.9-.7,1.735-32.356-12.08-19.586-3.617-3.421-.076-10.1-4.417-10.909C815.016,4921.656,795.054,4920.27,795.054,4920.27Z" fill="#2f283b"/>
        </g>
        <path id="Path_1151" data-name="Path 1151" d="M789.81,5215.688c-9.41,30.112-6.931,137.566,6.781,253.891h52.427l-9.907-253.891Z" fill="#f2ab46"/>
        <path id="Path_1152" data-name="Path 1152" d="M894.186,5215.688c7.26,35.489,16.938,157.73,4.033,253.891H839.328s-12.087-133.711-13.7-193.4l-1.076-60.493Z" fill="#fdb349"/>
        <path id="Path_1153" data-name="Path 1153" d="M788.26,5221.867c-.365,1.781-.705,3.717-1.02,5.8,16.867,10.413,69.892,24.257,110.971,15.112-.768-6.631-1.559-12.535-2.344-17.572l-92.42-5.988Z" fill="#fcc" opacity="0.5" style="mix-blend-mode: multiply;isolation: isolate"/>
        <path id="Path_1154" data-name="Path 1154" d="M819.982,5001.409c-19.358,40.06-45.975,195.728-37.909,221.538,0,0,34.527,19.358,116.335,2.42l-35.835-237.435S863.537,5017,819.982,5001.409Z" fill="#fff"/>
        <path id="Path_1155" data-name="Path 1155" d="M852.245,5017.809c-11.83,46.244-17.207,158.088,2.754,213.8,0,0,43.884-3.1,43.409-6.242S852.245,5017.809,852.245,5017.809Z" fill="#cce1ff" opacity="0.5" style="mix-blend-mode: multiply;isolation: isolate"/>
        <path id="Path_1156" data-name="Path 1156" d="M819.982,5017.809s-32.8,158.626-37.1,197.879H763.522v-18.282c-12.9-38.178,6.452-155.937,56.46-196Z" fill="#2c519c"/>
        <path id="Path_1157" data-name="Path 1157" d="M852.245,5017.809c-8.6,30.112-16.65,108.619,12.108,197.879l33.06-4.839,12.9-206.651L875.9,4990.924Z" fill="#2c519c"/>
        <path id="Path_1158" data-name="Path 1158" d="M910.318,5004.2c11.994,12.086,35.489,46.412,37.484,127.542,13.061,52.761,11.908,94.842,5.533,112.985l3.206,20.971-25.79,3.764-3.764-18.82c-26.348-22.584-41.942-160.239-41.942-160.239S875.9,5040.057,910.318,5004.2Z" fill="#2c519c"/>
        <path id="Path_1159" data-name="Path 1159" d="M819.982,5001.409c-49.47,25-86.329,66.811-86.329,66.811s-76.3,19.467-89.749,42.185h0l-18.291,3.361,2.606,24.92,22.356-1.8s62.107,23.281,100.823-16.241c0,0,23.953,2.644,46-35.31S819.982,5001.409,819.982,5001.409Z" fill="#2c519c"/>
        <path id="Path_1160" data-name="Path 1160" d="M852.245,5017.809l15.056-43.555s11.829,8.6,8.6,16.67S852.245,5017.809,852.245,5017.809Z" fill="#213974"/>
        <path id="Path_1161" data-name="Path 1161" d="M811.815,4996.032l8.8-9.382,4.686,21.374-5.318,9.785S813.428,5010.819,811.815,4996.032Z" fill="#213974"/>
        <path id="Path_1162" data-name="Path 1162" d="M952.458,5266.292s9.749,16.073,10.825,19.3-12.637,31.457-15.863,34.952-1.075-30.65-3.495-33.876-3.226,7.259-5.915,4.3-3.76-22.019-3.76-22.019Z" fill="#ff895f"/>
        <path id="Path_1163" data-name="Path 1163" d="M626.22,5117.051c-10.485-1.146-32.532-8.4-31.456-5.044s5.646,9.475,5.646,9.475-17.321,4.07-19.821,1.988-25.432-16.1-24.087-9.878,19.626,32.731,26.079,32.462,45.252-11.06,45.252-11.06Z" fill="#ff895f"/>
        <path id="Path_1164" data-name="Path 1164" d="M763.522,5215.688v-18.282h21.947l-2.59,18.282Z" fill="#213974"/>
        <path id="Path_1165" data-name="Path 1165" d="M864.353,5215.688l33.06-4.839,1-15.943-38.6,5.688Z" fill="#213974"/>
        <path id="Path_1166" data-name="Path 1166" d="M926.987,5250.64l26.348-5.915,3.206,20.971-25.79,3.764Z" fill="#213974"/>
        <path id="Path_1167" data-name="Path 1167" d="M625.613,5113.766l18.291-3.361,6.671,26.482-22.356,1.8Z" fill="#213974"/>
        <path id="Path_1168" data-name="Path 1168" d="M867.3,4974.254c-2.756-1.142-7.176-.742-7.176-.742l2.846,13.266Z" fill="#213974"/>
      </g>
      <g id="Group_405" data-name="Group 405">
        <path id="Path_1169" data-name="Path 1169" d="M649.647,4955.393c3.668-8.167,11.108-41.047-23.212-44.167-23.52-3.84-75.84,13.855-59.04,62.248,0,0-43.2,9.992-27.6,40.712s63.12,3.969,66.477-20.2Z" fill="#6b4a48"/>
        <path id="Path_1170" data-name="Path 1170" d="M625.422,4996.211l-7.9,42.532,4.231,32.2-36.363-33.96,19.92-58.32Z" fill="#ff895f"/>
        <path id="Path_1171" data-name="Path 1171" d="M625.422,4996.211l-5.348,8.075-29.24,16.774,14.48-42.394Z" fill="#c85760"/>
        <path id="Path_1172" data-name="Path 1172" d="M648.035,4948.186c5.04,11.52.48,58.636-11.28,66.158s-38.16-30.4-38.16-30.4-13.2-.545-10.8-10.472,11.04-3.928,11.04-3.928S617.795,4933.306,648.035,4948.186Z" fill="#ff895f"/>
        <path id="Path_1173" data-name="Path 1173" d="M641.315,5230.1c3.12,18.322,18.72,195.042,18.72,195.042h-43.2l-16.56-93.44V5230.69Z" fill="#4c4981"/>
        <path id="Path_1174" data-name="Path 1174" d="M546.272,5233.786c-7.917,19.463-16.557,18.72-4.317,133.92l-10.08,57.44h42.48s47.4-103.52,45.269-194.963C613.7,5229.471,546.272,5233.786,546.272,5233.786Z" fill="#625e99"/>
        <path id="Path_1175" data-name="Path 1175" d="M642.083,5235.674c-6.679-.707-25.474-2.7-45.23-4.818-21.629,1.077-50.581,2.93-50.581,2.93-4.956,12.184-10.195,16.452-10.418,46.2,27.415-1.471,86.618-6.31,108.749-21.162C643.6,5249.02,642.738,5240.991,642.083,5235.674Z" fill="#e2e1f2" style="mix-blend-mode: multiply;isolation: isolate"/>
        <g id="Group_404" data-name="Group 404">
          <path id="Path_1176" data-name="Path 1176" d="M592.355,5027.721c5.461,20.865,15.12,36.385,26.429,20.594,4.241-5.922,24.531,198.191,24.531,198.191-25.488,22.91-93.44,4.92-93.44,4.92Z" fill="#fff"/>
          <path id="Path_1177" data-name="Path 1177" d="M560.675,5262.863l-65.52-17.557s41.04-116.64,44.64-144,18-83.151,18-83.151l36.86-8.282S597.4,5196.9,560.675,5262.863Z" fill="#e96d61"/>
          <path id="Path_1178" data-name="Path 1178" d="M510.275,5178.586c.72.96,11.856,23.712,11.856,23.712s22.887-1.994,43.371,8.249c2.4,1.2.093-17.094-10.227-21.894a44.864,44.864,0,0,0-20.76-3.827s-11.194-11.32-12.677-18.86S510.275,5178.586,510.275,5178.586Z" fill="#ff895f"/>
          <path id="Path_1179" data-name="Path 1179" d="M557.795,5018.155c-33.36,22.431-79.509,64.305-92.4,85.791-4.32,7.2,47.537,93.59,47.537,93.59s18.463-24.23,17.983-27.11-10.8-54-9.84-55.44,48.48-32.84,48.48-32.84" fill="#e96d61"/>
          <path id="Path_1180" data-name="Path 1180" d="M583.132,5185.942l-25.1-123.318h13.44s-5.28-23.478-1.92-46.747l25.1-6C596.815,5021.033,595.169,5150.873,583.132,5185.942Z" fill="#ff8f85"/>
          <path id="Path_1181" data-name="Path 1181" d="M629.555,5045.173l19.031,20.318,29.449,151.777-33.387,18.678-.213-158.88Z" fill="#e96d61"/>
          <path id="Path_1182" data-name="Path 1182" d="M619.146,5029.3l10.409,15.872,14.88,31.893,4.448,156.511v21.8l-23.46-11.769-7.9-204.862Z" fill="#bf4e48"/>
          <path id="Path_1183" data-name="Path 1183" d="M669.507,5222.039l6.128,13.907s30.12-2.588,39.336,7.732c2.445,2.738-40.776,10.028-45.576,9.548s-13.111-23.789-13.111-23.789Z" fill="#ff895f"/>
        </g>
        <path id="Path_1184" data-name="Path 1184" d="M567.4,4973.474s-43.2,9.992-27.6,40.712,52.56-1.71,62.156-25.673C601.951,4988.513,578.435,4985.386,567.4,4973.474Z" fill="#6b4a48"/>
      </g>
      <g id="Group_406" data-name="Group 406">
        <rect id="Rectangle_356" data-name="Rectangle 356" width="138.765" height="83.34" rx="6.085" transform="translate(166 4815.245)" fill="#404040"/>
        <rect id="Rectangle_357" data-name="Rectangle 357" width="20.222" height="20.222" transform="translate(220.634 4891.711) rotate(-45)" fill="#404040"/>
        <path id="Path_1848" data-name="Path 1848" d="M9.779,0V-3.171H4.724V-22h-3.5V0Zm10.7,0V-3.2H15.2V-9.911h3.667v-2.907H15.2V-18.9h5.286V-22H11.695V0Zm11.5-18.8V-22H21.738v3.2h3.4V0h3.5V-18.8Zm4.112-1.5H34.107v-5.178h5.178v4q0,6.34-5.178,6.34v-1.791q1.984,0,1.984-2.871ZM52.068-5.022c0-2.775-1.586-4.989-3.733-7.2-2.048-2.18-3.006-3.238-3.006-5.385a1.632,1.632,0,0,1,1.718-1.784c1.123,0,1.685.826,1.685,2.048v1.982H51.9v-1.982A4.684,4.684,0,0,0,47.046-22.4c-3.4,0-5.121,2.412-5.121,5.385,0,2.808,2.114,5.385,3.931,7.2,1.85,1.949,2.808,3.37,2.808,5.286,0,1.222-.595,1.982-1.85,1.982-1.222,0-1.85-.793-1.85-2.18V-6.607h-3.2v1.949C41.76-1.553,43.743.4,46.914.4,49.788.4,52.068-1.52,52.068-5.022Zm16.683,0c0-2.775-1.586-4.989-3.733-7.2-2.048-2.18-3.006-3.238-3.006-5.385a1.632,1.632,0,0,1,1.718-1.784c1.123,0,1.685.826,1.685,2.048v1.982h3.172v-1.982A4.684,4.684,0,0,0,63.73-22.4c-3.4,0-5.121,2.412-5.121,5.385,0,2.808,2.114,5.385,3.931,7.2,1.85,1.949,2.808,3.37,2.808,5.286,0,1.222-.595,1.982-1.85,1.982-1.222,0-1.85-.793-1.85-2.18V-6.607h-3.2v1.949C58.444-1.553,60.426.4,63.6.4,66.472.4,68.751-1.52,68.751-5.022ZM81.008,0,77.341-22H73.475L69.808,0h3.2l.661-4.295h3.2L77.44,0ZM76.482-7.235H74.1l1.288-8.986ZM92.372-22H88.9l-2.28,9.217L84.278-22H80.71L84.675-8.854V0h3.5V-8.854Zm-81.4,47.981c0-2.775-1.586-4.989-3.733-7.2-2.048-2.18-3.006-3.238-3.006-5.385a1.632,1.632,0,0,1,1.718-1.784c1.123,0,1.685.826,1.685,2.048v1.982H10.8V13.656A4.684,4.684,0,0,0,5.947,8.6c-3.4,0-5.121,2.412-5.121,5.385,0,2.808,2.114,5.385,3.931,7.2,1.85,1.949,2.808,3.37,2.808,5.286,0,1.222-.595,1.982-1.85,1.982-1.222,0-1.85-.793-1.85-2.18V24.393H.661v1.949c0,3.105,1.982,5.055,5.154,5.055C8.689,31.4,10.968,29.48,10.968,25.978Zm12.554.2V13.821A4.986,4.986,0,0,0,18.269,8.6a4.986,4.986,0,0,0-5.253,5.22V26.177a4.968,4.968,0,0,0,5.253,5.22A4.968,4.968,0,0,0,23.522,26.177Zm-3.535.264a1.631,1.631,0,0,1-1.718,1.784,1.631,1.631,0,0,1-1.718-1.784V13.557a1.631,1.631,0,0,1,1.718-1.784,1.631,1.631,0,0,1,1.718,1.784ZM40.5,31V9H35.845L33.961,20.131l-.628,4.262-.595-4.262L30.823,9H26.1V31H29.2V14.647l.661,4.625L31.814,31h2.643l2.048-11.728.694-4.625V31Zm11.563,0V27.8H46.78V21.089h3.667V18.182H46.78V12.1h5.286V9H43.278V31Zm11.5-18.8V9H53.321v3.2h3.4V31h3.5V12.2ZM76.116,31V9h-3.5v9.548h-3.7V9h-3.5V31h3.5V21.75h3.7V31Zm6.277,0V9h-3.5V31Zm13.578,0V9H92.832V22.477l-1.123-3.4L88.273,9H85.168V31h3.172V17.653l1.222,3.37L93.262,31Zm13.049,0V20H103.9v2.643h1.718v3.931a1.655,1.655,0,0,1-1.784,1.751,1.672,1.672,0,0,1-1.784-1.751V13.491a1.637,1.637,0,0,1,1.751-1.718,1.6,1.6,0,0,1,1.751,1.685V16.6h3.3v-2.94A4.783,4.783,0,0,0,103.8,8.6a5.011,5.011,0,0,0-5.286,5.055V26.342c0,2.973,1.817,5.055,4.724,5.055a3.528,3.528,0,0,0,3.37-1.883L107.137,31Zm5.022,0V27.1H111.3V31Z" transform="translate(177 4852.196)" fill="#fafafa"/>
      </g>
    </g>
  </g>
</svg>
