<svg width="935" height="687" viewBox="0 0 935 687" fill="none" xmlns="http://www.w3.org/2000/svg">
<g clip-path="url(#clip0)">
<path d="M631.065 309.173H0V362.34H631.065V309.173Z" fill="#9B4E5A"/>
<path d="M631.065 362.34H0V370.24H631.065V362.34Z" fill="#80404A"/>
<path d="M260.263 41.76H28.339V255.566H260.263V41.76Z" fill="#FAFAFA"/>
<path d="M228.067 68.3792H57.213V228.948H228.067V68.3792Z" fill="#E6DADA"/>
<path d="M229.966 68.3792H152.256C130.582 103.527 113.789 153.956 113.789 177.112C113.779 186.986 115.93 196.742 120.089 205.696C124.249 214.651 130.317 222.587 137.868 228.948H229.968L229.966 68.3792Z" fill="white"/>
<path d="M57.213 153.725C69.5406 160.804 83.7797 163.834 97.9215 162.387C112.063 160.94 125.394 155.089 136.032 145.659C146.67 136.23 154.079 123.699 157.214 109.833C160.348 95.9673 159.05 81.4675 153.502 68.3792H57.213V153.725Z" fill="#F5F5F5"/>
<path d="M117.067 119.96C100.496 115.399 78.527 126.124 57.213 143.097V228.948H148.051C151.248 185.576 139.813 126.22 117.067 119.96Z" fill="#EDEDED"/>
<path d="M343.756 41.7602V264.625H557.562V41.7602H343.756Z" fill="#FAFAFA"/>
<path d="M370.375 72.6982V236.879H530.944V72.6982H370.375Z" fill="#E6DADA"/>
<path d="M370.375 70.873V145.548C405.523 166.375 455.952 182.512 479.109 182.512C488.898 182.563 498.584 180.525 507.523 176.535C516.461 172.545 524.446 166.695 530.944 159.374V70.874L370.375 70.873Z" fill="white"/>
<path d="M421.956 179.362C418.08 195.462 428.121 216.397 445.093 236.879H530.944V130.32C467.5 130.32 431.94 137.88 421.956 179.362Z" fill="#F5F5F5"/>
<path d="M455.722 236.879C461.46 227.31 470.947 214.879 470.947 203.04C470.947 167.034 478.547 121.973 410.7 109.803C401.436 108.141 378.523 112.073 370.375 115.403V236.88L455.722 236.879Z" fill="#EDEDED"/>
<path d="M557.562 467.887H43.86V576.133H557.562V467.887Z" fill="#F5F5F5"/>
<path d="M935 0H631.065V576.134H935V0Z" fill="#FAFAFA"/>
<path d="M666.251 249.088L674.077 294.869L709.557 275.434L683.157 220.363L666.251 249.088Z" fill="#E0886D"/>
<path d="M666.251 249.088L669.3 266.926L682.9 241.019L680.2 224.786L666.251 249.088Z" fill="#9D505B"/>
<path d="M639.34 207.51C643.305 223.41 649.777 249.344 655.869 250.91C661.961 252.476 679.603 245.777 682.561 241.555C685.519 237.333 684.737 226.896 684.737 226.896L677.313 196.168L656.953 190.459L639.34 207.51Z" fill="#E0886D"/>
<path d="M689.004 232.558C689.004 232.558 696.721 228.031 706.338 211.464C713.763 198.674 704.638 199.392 700.987 193.688C697.336 187.984 708.125 180.366 689.86 173.988C671.595 167.61 665.838 170.311 664.685 165.712C662.908 158.623 634.392 173.276 630.385 184.869C627.532 193.117 631.526 201.851 639.342 207.506C639.342 207.506 650.68 205.129 658.975 199.732C669.908 192.62 678.095 211.062 679.168 203.832L683.16 220.357L689.004 232.558Z" fill="#6B4A48"/>
<path d="M683.158 220.362C691.108 221.397 692.758 204.287 688.581 201.004C684.404 197.721 680.631 198.492 679.166 203.837L683.158 220.362Z" fill="#E0886D"/>
<path d="M669.548 268.379C669.548 268.379 641.277 276.312 628.982 291.679C616.687 307.046 599.124 333.832 599.124 333.832L553.897 304.852C553.897 304.852 547.326 281.061 546.036 277.944C544.956 275.334 524.478 264.016 524.478 264.016C524.478 264.016 525.289 273.194 526.673 275.872C527.557 277.581 530.132 280.278 532.613 282.657C532.817 282.849 532.947 283.106 532.982 283.384C533.017 283.662 532.954 283.943 532.804 284.18C532.654 284.416 532.426 284.594 532.16 284.681C531.894 284.768 531.606 284.759 531.345 284.657C528.745 283.657 526.518 283.057 527.112 284.218C530.012 289.918 546.872 312.318 546.872 312.318C546.872 312.318 583.756 367.204 603.515 364.57C623.274 361.936 656.536 321.87 656.536 321.87L669.548 268.379Z" fill="#E0886D"/>
<path d="M630.219 348.831C633.552 345.94 636.782 342.905 639.773 339.955C641.09 335.776 642.036 332.425 642.036 332.425L625.716 317.305L612.771 313.716C612.033 314.773 611.31 315.814 610.603 316.837C614.337 322.114 625.779 338.617 630.219 348.831Z" fill="#9D505B"/>
<path d="M664.848 414.397C659.5 434.825 660.853 539.549 660.506 552.722C660.159 565.895 688.884 680.499 688.884 680.499L716.547 677.205L703.629 560.246C703.629 560.246 713.947 432.435 712.411 421.116L664.848 414.397Z" fill="#4572BF"/>
<path d="M703.628 560.246L709.158 482.668C696.876 483.505 690.395 465.506 691.773 452.185C693.151 438.864 673.118 435.265 662.444 434.345C659.959 471.792 660.786 542.087 660.506 552.722C660.158 565.895 688.884 680.499 688.884 680.499L716.547 677.205L703.628 560.246Z" fill="#3A60A1"/>
<path d="M712.413 421.116L751.713 411.116C751.713 411.116 761.477 446.939 762.251 481.591C763.051 517.446 759.298 677.363 759.298 677.363L731.086 679.997L709.158 482.668L712.413 421.116Z" fill="#4572BF"/>
<path d="M756.874 434.346C754.274 420.522 751.71 411.114 751.71 411.114L712.41 421.114L678.987 416.392L664.093 418.092C681.036 434.188 734.793 443.505 756.874 434.346Z" fill="#3A60A1"/>
<path d="M700.321 679.137C700.321 679.137 700.885 670.18 691.152 671.497C681.419 672.814 685.371 680.497 685.371 680.497C685.371 680.497 633.606 690.638 643.42 701.305C644.284 702.244 712.834 700.036 719.081 696.524C725.328 693.012 716.547 677.203 716.547 677.203L700.321 679.137Z" fill="#FDB349"/>
<path d="M684.44 693.698L687.977 691.829L682.236 680.935C681.116 681.157 679.782 681.528 678.208 681.874L684.44 693.698Z" fill="white"/>
<path d="M673.503 695.126L677.04 693.257L671.851 683.434C670.567 683.761 669.239 684.113 667.885 684.492L673.503 695.126Z" fill="white"/>
<path d="M755.969 677.671C754.685 671.082 751.969 670.771 749.301 670.771C745.607 670.771 741.407 674.01 742.527 678.924L735.575 679.573C735.575 679.573 751.085 719.133 767.857 715.779C782.677 712.818 755.969 677.671 755.969 677.671Z" fill="#FDB349"/>
<path d="M756.69 682.952L746.519 686.549L747.853 690.32L758.023 686.723L756.69 682.952Z" fill="white"/>
<path d="M669.3 266.926C669.3 266.926 675.922 284.936 678.923 284.665C700.41 282.726 703.623 264.017 703.623 264.017C703.623 264.017 727.336 263.139 747.534 275.873L753.534 418.503C753.534 418.503 699.927 440.303 664.085 418.097C654.385 395.305 647.278 275.335 647.278 275.335L669.3 266.926Z" fill="#E96D61"/>
<path d="M753.542 418.503L750.497 346.172L753.542 344.199C744.396 327.265 734.571 321.935 730.304 306.06C712.411 334.825 667.828 343.211 672.014 367.376C677.368 398.283 686.959 414.397 664.093 418.097C699.935 440.305 753.542 418.503 753.542 418.503Z" fill="#BF4E48"/>
<path d="M652.254 358.422C657.217 349.05 671.694 336.238 684.096 331.747C686.652 331.915 689.217 331.915 691.773 331.747V343.953L673.331 367.973L652.254 358.422Z" fill="white"/>
<path d="M693.09 424.288L652.254 358.423C652.254 358.423 681.893 340.64 691.773 331.748L727.673 404.858L693.09 424.288Z" fill="#9B4E5A"/>
<path d="M677.283 359.41C682.552 345.91 712.411 331.747 712.411 331.747L722.588 331.396L693.749 364.662L677.283 359.41Z" fill="white"/>
<path d="M677.283 359.41L710.215 428.239L747.538 413.419L724.705 329.772C724.705 329.772 690.456 356.447 677.283 359.41Z" fill="#80404A"/>
<path d="M747.538 275.873C761.15 285.973 794.302 364.662 789.691 375.767C781.517 395.456 703.591 414.397 703.591 414.397L691.772 422.162L678.922 409.362L687.162 403.653L697.595 407.309C697.595 407.309 738.554 367.977 758.295 365.672C758.295 365.672 734.803 339.637 732.608 314.343C730.413 289.049 747.538 275.873 747.538 275.873Z" fill="#E0886D"/>
<path d="M778.443 332.747C777.987 331.617 777.143 329.523 776.595 328.195C776.518 328.008 776.442 327.822 776.365 327.636L776.329 327.548L760.029 327.985L741.995 342.22C744.525 346.836 747.328 351.299 750.388 355.582C757.663 350.24 773.557 339.851 778.549 332.999L778.443 332.747Z" fill="#9D505B"/>
<path d="M747.538 275.873C766.529 291.573 775.596 315.625 779.373 327.466C772.642 341.252 748.459 344.657 744.464 350.08C744.464 350.08 732.092 329.772 728.537 310.787C724.596 289.736 747.538 275.873 747.538 275.873Z" fill="#E96D61"/>
<path d="M647.286 275.335C632.418 282.355 616.029 304.084 610.101 312.976L637.764 346.238L658.691 333.145C658.691 333.145 667.095 287.088 647.286 275.335Z" fill="#E96D61"/>
<path d="M651.979 337.345L651.479 331.745L635.752 343.821L637.76 346.236L651.979 337.345Z" fill="#BF4E48"/>
<path d="M856.967 168.055H737.764C734.403 168.055 731.679 170.779 731.679 174.14V245.31C731.679 248.671 734.403 251.395 737.764 251.395H856.967C860.328 251.395 863.052 248.671 863.052 245.31V174.14C863.052 170.779 860.328 168.055 856.967 168.055Z" fill="#404040"/>
<path d="M750.525 227.623L736.226 213.324L721.927 227.623L736.226 241.922L750.525 227.623Z" fill="#404040"/>
<path d="M762.46 175.969H759.223L757.439 190.67L755.589 175.969H752.88L750.799 190.67L749.213 175.969H745.744L748.949 197.971H752.021L754.036 184.889L755.853 197.971H758.959L762.46 175.969ZM774.442 197.971V175.969H770.941V185.516H767.241V175.969H763.739V197.971H767.241V188.721H770.941V197.971H774.442ZM787.01 197.971L783.343 175.969H779.478L775.811 197.971H779.016L779.676 193.676H782.881L783.443 197.971H787.01ZM782.485 190.736H780.106L781.394 181.75L782.485 190.736ZM796.831 179.173V175.969H786.59V179.173H789.993V197.971H793.494V179.173H796.831ZM811.994 179.173V175.969H801.753V179.173H805.156V197.971H808.657V179.173H811.994ZM817.02 197.971V175.969H813.519V197.971H817.02ZM833.891 197.971V175.969H829.233L827.35 187.102L826.722 191.364L826.127 187.102L824.211 175.969H819.487V197.971H822.592V181.618L823.253 186.243L825.202 197.971H827.845L829.893 186.243L830.587 181.618V197.971H833.891ZM845.115 197.971V194.766H839.829V188.06H843.496V185.153H839.829V179.074H845.115V175.969H836.328V197.971H845.115ZM750.303 231.971V209.969H746.801V231.971H750.303ZM762.515 226.949C762.515 224.174 760.93 221.961 758.782 219.748C756.734 217.567 755.776 216.51 755.776 214.363C755.776 213.24 756.47 212.579 757.494 212.579C758.617 212.579 759.179 213.405 759.179 214.627V216.609H762.35V214.627C762.35 211.621 760.434 209.573 757.494 209.573C754.091 209.573 752.373 211.984 752.373 214.957C752.373 217.765 754.488 220.342 756.305 222.159C758.155 224.108 759.113 225.529 759.113 227.445C759.113 228.667 758.518 229.427 757.263 229.427C756.04 229.427 755.413 228.634 755.413 227.247V225.364H752.208V227.313C752.208 230.418 754.19 232.367 757.362 232.367C760.236 232.367 762.515 230.451 762.515 226.949ZM772.273 231.971V209.969H768.772V231.971H772.273ZM784.023 213.173V209.969H773.782V213.173H777.185V231.971H780.686V213.173H784.023ZM794.167 214.66C794.167 211.852 792.845 209.573 789.443 209.573C786.403 209.573 784.983 211.654 784.983 214.363V216.973H787.857V214.627C787.857 213.372 788.353 212.612 789.443 212.612C790.533 212.612 791.028 213.24 791.028 214.957C791.028 215.948 790.698 217.435 789.971 218.823C788.253 221.994 787.725 223.382 787.725 225.859H790.004C790.004 224.274 790.335 222.952 791.425 221.565C793.242 219.285 794.167 216.907 794.167 214.66ZM790.17 231.971V228.37H787.494V231.971H790.17Z" fill="#FAFAFA"/>
<path d="M308.096 446.243C322.016 517.283 279.79 686.803 279.79 686.803H253.137L261.751 540.94L250.19 463.04" fill="#C6CBE4"/>
<path d="M193.495 453.34C184.136 514.403 204.495 686.803 204.495 686.803H235.013L245.421 472.243L235.013 467.488C235.013 467.488 195.156 442.502 193.495 453.34Z" fill="#C6CBE4"/>
<path d="M235.013 467.488L245.421 472.246L244.061 500.292C226.323 506.756 207.684 512.067 191.227 513.714C190.703 489.714 191.218 468.223 193.499 453.343C195.156 442.502 235.013 467.488 235.013 467.488Z" fill="#9EA5CF"/>
<path d="M308.096 446.243C309.553 454.148 310.418 462.15 310.682 470.184C292.635 479.817 274.078 488.463 255.094 496.084L250.194 463.043L308.096 446.243Z" fill="#9EA5CF"/>
<path d="M289.073 164.252C279.945 165.967 264.364 192.912 255.056 214.403C253.727 217.473 246.956 214.523 246.416 210.563C246.416 210.563 212.576 192.323 230.336 159.707C236.162 149.007 254.242 139.031 270.614 142.271C286.986 145.511 290.114 161.903 290.9 169.171" fill="#422333"/>
<path d="M352.496 178.403C339.536 181.809 324.896 210.323 324.896 210.323L345.776 213.203L352.496 178.403Z" fill="#422333"/>
<path d="M305.936 156.803C297.776 151.523 273.604 140.003 273.604 140.003L258.416 151.523L249.296 164.243L252.416 165.683L279.536 155.363L291.296 161.123C291.296 161.123 342.176 229.833 378.176 230.518C378.176 230.518 368.336 179.123 305.936 156.803Z" fill="#E98F70"/>
<path d="M171.406 371.843C173.936 358.883 198.176 300.803 198.176 300.803L202.256 303.303L178.496 375.46L171.406 371.843Z" fill="#331B27"/>
<path d="M352.496 178.403C352.496 178.403 336.176 203.843 324.896 210.323L330.656 223.908L304.016 266.741L337.316 307.29L396.892 236.269L352.496 178.403Z" fill="#625E99"/>
<path d="M328.074 228.06L300.792 219.836L223.376 242.344L196.736 343.803C196.736 343.803 184.136 437.843 184.136 470.243C184.136 502.643 316.593 478.06 320.036 452.86C323.479 427.66 334.261 315.823 338.581 300.935C342.901 286.047 328.074 228.06 328.074 228.06Z" fill="#625E99"/>
<path d="M229.903 369.923C227.958 370.449 211.612 293.689 209.78 294.128L223.38 242.344L289.88 223.01L308.739 225.443C314.077 246.28 319.168 264.869 246.706 289.172C241.343 290.972 247.866 332.298 241.621 334.163C235.549 335.975 236.861 368.043 229.903 369.923Z" fill="#4C4981"/>
<path d="M289.073 164.252C293.752 176.283 297.428 189.986 297.094 193.996C296.76 198.006 295.256 223.907 284.894 225.411C279.803 226.15 260.999 214.048 255.318 206.361C249.637 198.674 248.3 186.309 248.3 186.309C248.3 186.309 275.371 146.54 289.073 164.252Z" fill="#E98F70"/>
<path d="M184.736 248.963C202.496 235.043 234.724 224.612 234.724 224.612L238.369 199.175L251.604 206.1C252.304 207.456 254.432 205.161 255.319 206.361C261.439 214.641 280.391 225.811 284.895 225.411C289.256 225.023 292.378 219.644 294.601 211.254C294.649 211.29 313.854 224.024 311.936 237.683C310.016 251.363 275.456 267.203 252.416 268.163C229.376 269.123 195.776 268.163 195.776 268.163L157.376 293.123C157.376 293.123 166.976 262.888 184.736 248.963Z" fill="#422333"/>
<path d="M229.53 283.763C224.008 271.963 193.136 273.323 193.136 273.323L196.016 300.231L217.198 298.163L229.53 283.763Z" fill="#422333"/>
<path d="M237.776 184.163L220.496 205.643L219.296 228.323C219.296 228.323 185.936 287.123 189.536 323.123C189.536 323.123 229.376 297.443 229.136 234.803L239.216 218.723L241.616 187.043L237.776 184.163Z" fill="#E98F70"/>
<path d="M229.53 283.763C215.816 284.483 193.136 273.323 193.136 273.323C193.136 273.323 169.736 316.523 184.136 330.203C188.026 333.903 195.888 340.378 200.576 338.131C213.246 332.059 223.773 302.157 229.53 283.763Z" fill="#625E99"/>
<path d="M198.107 338.588C201.291 341.001 208.807 335.309 217.997 314.81L237.207 378.447C237.207 378.447 237.107 406.947 234.365 413.756C222.636 442.821 185.543 443.449 185.543 443.449L196.736 343.807L198.107 338.588Z" fill="#4C4981"/>
<path d="M235.952 386.304C235.018 386.838 233.979 387.165 232.908 387.263C231.836 387.361 230.756 387.228 229.74 386.872C228.724 386.516 227.797 385.947 227.02 385.201C226.244 384.456 225.636 383.553 225.239 382.553C217.579 379.542 210.168 374.841 198.176 371.843C180.896 367.523 171.406 371.843 171.406 371.843C171.406 371.843 158.556 413.123 171.406 424.163C184.256 435.203 205.856 439.523 223.616 428.483C241.376 417.443 235.952 386.304 235.952 386.304Z" fill="#422333"/>
<path d="M249.296 268.278C251.936 287.363 248.774 354.603 239.174 375.458L229.53 372.049C229.53 372.049 244.468 288.549 240.042 268.278H249.296Z" fill="#422333"/>
<path d="M232.376 374.512C233.331 374.512 234.265 374.796 235.06 375.326C235.854 375.857 236.474 376.612 236.839 377.494C237.205 378.377 237.3 379.348 237.114 380.285C236.928 381.223 236.468 382.083 235.792 382.759C235.116 383.435 234.256 383.895 233.318 384.081C232.381 384.268 231.41 384.172 230.527 383.806C229.644 383.441 228.89 382.822 228.359 382.027C227.828 381.233 227.545 380.298 227.545 379.343C227.546 378.062 228.056 376.834 228.961 375.928C229.867 375.023 231.095 374.513 232.376 374.512ZM232.376 371.512C230.827 371.512 229.313 371.971 228.025 372.832C226.737 373.692 225.734 374.916 225.141 376.346C224.548 377.777 224.393 379.352 224.695 380.871C224.998 382.39 225.743 383.785 226.839 384.881C227.934 385.976 229.329 386.722 230.848 387.024C232.367 387.326 233.942 387.171 235.373 386.578C236.804 385.985 238.027 384.981 238.887 383.694C239.748 382.406 240.207 380.892 240.207 379.343C240.207 377.266 239.382 375.275 237.913 373.806C236.445 372.337 234.453 371.512 232.376 371.512V371.512Z" fill="#FDB349"/>
<path d="M447.78 220.943C457.38 224.643 474.969 226.743 474.969 226.743V253.435L502.583 248.835L491.235 194.363L447.78 220.943Z" fill="#E0886D"/>
<path d="M450.66 222.566C460.26 226.266 474.969 226.746 474.969 226.746V253.438L491.235 194.363L450.66 222.566Z" fill="#9D505B"/>
<path d="M451.958 179.288C450.658 155.234 475.906 150.755 483.958 151.461C518.878 154.521 525.08 203.834 545.535 209.97C545.535 209.97 528.49 239.118 499.811 235.538L492.419 200.052L451.958 179.288Z" fill="#6B4A48"/>
<path d="M451.958 179.288C451.958 179.288 445.08 215.361 447.78 220.941C449.231 223.941 471.487 226.741 476.574 217.45L482.88 203.301C482.88 203.301 490.499 204.921 489.18 191.961C487.88 179.202 482.16 186.381 482.16 186.381C475.001 185.87 483.633 172.545 471.36 172.161C459.087 171.777 456.56 170.597 451.958 179.288Z" fill="#E0886D"/>
<path d="M504.5 558.353L513.535 553.94L518.14 551.691L524.58 580.043L549.347 686.803H533.787L509.128 628.118L490.981 560.003L504.5 558.353Z" fill="#D17F65"/>
<path d="M469.913 564.488L470.094 569.938L493.97 686.802H508.413C508.413 686.802 510.05 604.502 508.98 595.162C508.366 589.797 503.03 574.423 503.03 574.423L504.5 561.423" fill="#E0886D"/>
<path d="M503.03 574.424L504.5 561.424L469.913 564.488C492.354 565.157 492.56 565.93 503.03 574.424Z" fill="#9D505B"/>
<path d="M456.177 399.32L469.913 564.488L504.497 561.42L526.486 547.613L521.372 484.205C521.372 484.205 537.34 448.823 537.224 434.694C537.094 418.877 511.656 376.82 511.656 376.82" fill="#2C519C"/>
<path d="M521.375 484.206C521.375 484.206 537.343 448.824 537.227 434.695C537.097 418.878 511.659 376.821 511.659 376.821L501.064 381.121C503.823 417.323 540.42 409.043 521.375 484.206Z" fill="#325DB3"/>
<path d="M457.14 438.023L469.2 440.723C469.2 440.723 480.555 439.493 480.835 436.403C485.078 389.568 501.064 381.117 501.064 381.117L480.387 392.782L457.14 438.023Z" fill="#213974"/>
<path d="M521.375 484.206L504.5 561.421L526.488 547.614L521.375 484.206Z" fill="#213974"/>
<path d="M419.668 327.572C388.075 313.382 358.66 279.526 349.99 271.289C341.32 263.052 339.107 255.527 354.714 263.389C370.321 271.251 444.23 315.12 444.23 315.12L419.668 327.572Z" fill="#E0886D"/>
<path d="M417.36 304.643C421.547 295.169 450.66 269.617 466.865 251.69C477.799 239.59 474.934 254.972 484.314 261.79C503.388 275.662 441.83 319.013 425.357 326.383C408.884 333.753 417.36 304.643 417.36 304.643Z" fill="#FDB959"/>
<path d="M419.668 327.572C388.075 313.382 358.66 279.526 349.99 271.289C341.32 263.052 339.107 255.527 354.714 263.389C370.321 271.251 444.23 315.12 444.23 315.12L419.668 327.572Z" fill="#FDB959"/>
<path d="M354.713 263.388L330.827 249.976L309.166 255.159L306.998 268.003L311.333 272.772L328.945 267.872L349.989 271.291" fill="#E0886D"/>
<path d="M443.201 294.826L427.946 325.126C437.07 320.099 445.802 314.391 454.068 308.052L443.201 294.826Z" fill="#F2AB46"/>
<path d="M474.202 243.722C459.117 256.506 443.202 294.822 443.202 294.822L459.661 328.4L456.178 399.317L511.66 376.817L515.24 360.453C515.24 360.453 528.581 251.971 501.04 241.417L474.202 243.722Z" fill="#FDB349"/>
<path d="M515.501 267.496L515.026 265.175C515.006 265.085 514.987 264.993 514.968 264.902L495.584 258.988C474.684 287.388 513.3 330.856 496.702 352.927C487.287 365.447 489.742 381.595 489.18 385.942L511.659 376.826L515.239 360.462C515.239 360.462 522.322 302.834 515.501 267.496Z" fill="#F2AB46"/>
<path d="M527.608 331.071C510.785 319.571 478.461 275.203 495.584 258.983C512.707 242.763 544.084 311.204 548.322 328.746C552.56 346.288 527.608 331.071 527.608 331.071Z" fill="#FDB959"/>
<path d="M548.449 334.556C528.727 363.025 490.068 385.762 480.387 392.782C470.706 399.802 462.902 400.603 473.478 386.694C484.054 372.785 540.688 308.131 540.688 308.131L548.449 334.556Z" fill="#FDB959"/>
<path d="M473.478 386.694L453.54 415.888L457.14 438.028L469.2 440.728L474.705 433.647L471.539 418.947L480.385 392.785" fill="#E0886D"/>
<path d="M473.79 240.203L498.723 230.309L507.18 243.722L479.64 253.438L473.79 240.203Z" fill="#FDB959"/>
<path d="M473.79 240.203L470.947 246.846L478.416 250.667L473.79 240.203Z" fill="#F2AB46"/>
</g>
<defs>
<clipPath id="clip0">
<rect width="935" height="715.984" fill="white"/>
</clipPath>
</defs>
</svg>
