<svg xmlns="http://www.w3.org/2000/svg" width="935" height="686.803" viewBox="0 0 935 686.803">
  <g id="Group_417" data-name="Group 417" transform="translate(-117.487 -5608.674)">
    <rect id="Rectangle_359" data-name="Rectangle 359" width="935" height="686" transform="translate(117.487 5608.674)" fill="#fff"/>
    <g id="Group_408" data-name="Group 408">
      <path id="Path_1185" data-name="Path 1185" d="M895.766,6183.554c14.215-11.046,109.482-9.857,128.523,0l-51.457,56.257-49.474-15.885-27.592-38.612" fill="#594c54"/>
      <path id="Path_1186" data-name="Path 1186" d="M787.357,5949.428c47.2-33.908,22.505,62.584,72.295,81.382s105.337,51.1,86.229,169.725c-.411,2.553,19.169,45.112,19.169,45.112l-19.24,4.332c-13.168-106.314-3.634-107.093-77.753-153.154C789.05,6047.728,736.918,5985.664,787.357,5949.428Z" fill="#61b489"/>
      <path id="Path_1187" data-name="Path 1187" d="M1000.274,5980.411c-32.744,60.4,12.477,84.362,12.181,114.167s-63.285,73.527-70.6,121.368c23.24-160.885-34.216-221.1,2.4-279.2C981.666,5877.383,1023.106,5938.3,1000.274,5980.411Z" fill="#61b489"/>
      <path id="Path_1188" data-name="Path 1188" d="M1052.487,5972.532v148.71c-18.87,14.97-45.459,11.87-61.189,32.45-14.351,18.76-23.581,87.18-22.081,93.77-12.75-41.02,4.841-88.65,25.5-108.19,37.581-35.53,41.791-61.17,21.99-107.84C1002.467,5997.862,1028.6,5978.922,1052.487,5972.532Z" fill="#61b489"/>
      <path id="Path_1189" data-name="Path 1189" d="M1024.289,6183.554c-75.014,14.872-128.523,0-128.523,0s-17.384,91.067,5.859,111.923h115.082C1024.289,6283.141,1024.289,6183.554,1024.289,6183.554Z" fill="#6f5e68"/>
    </g>
    <g id="Group_409" data-name="Group 409">
      <path id="Path_1190" data-name="Path 1190" d="M186.747,6208.4l-48.63,53.16-20.63-6.62v-53.93C145.947,6200.687,176.967,6203.337,186.747,6208.4Z" fill="#594c54"/>
      <path id="Path_1191" data-name="Path 1191" d="M118.9,6230.547q.375-3.72.931-7.36C119.977,6223.957,119.737,6226.147,118.9,6230.547Z" fill="#61b489"/>
      <path id="Path_1192" data-name="Path 1192" d="M180.548,5918.427c-30.941,85.63-4.711,110.48-4.99,152.73-.27,40.72-46.2,87.96-55.73,152.03-.2-1.11-1.181.66-2.341,3.07v-23.29c13.021-94.18,5.44-163.12,0-217.63v-99.03a113.983,113.983,0,0,1,20.63-43.56C193.288,5770.017,202.127,5858.717,180.548,5918.427Z" fill="#61b489"/>
      <path id="Path_1193" data-name="Path 1193" d="M269.126,5933.185c20.379-30.865-95.952-14.974-67.263,63.363,21.658,59.137,2.489,90.046-38.623,135.066-22.661,24.815-41.93,85.387-27.794,137.45-2.093-5.656,8.083-95,24.048-119.176,24.9-37.722,74.662-12.671,87.745-84.992S241,5975.78,269.126,5933.185Z" fill="#61b489"/>
      <path id="Path_1194" data-name="Path 1194" d="M185.888,6295.477h-68.4v-80.9a323.209,323.209,0,0,0,69.26-6.18S191.6,6259.737,185.888,6295.477Z" fill="#6f5e68"/>
    </g>
    <path id="Path_1195" data-name="Path 1195" d="M126.787,6295.477l453.891-273.745,436.029,273.745Z" fill="#c49b9c"/>
    <path id="Path_1196" data-name="Path 1196" d="M516.5,6143.762c-23.605-20.581-30.712-28.25-25.635-33.3s21.32,24.37,28.935,30.727,10.709,15.5,16.523,17.018,4.163-2.729,22.939,10.772c-2.4,2.426-12.05-2.65-12.05-2.65l3.554,7.615-9.391-5.528,5.33,8.484c-3.046,1.612-14.314-4.292-14.235-12.61S516.5,6143.762,516.5,6143.762Z" fill="#c4b8a5"/>
    <g id="Group_410" data-name="Group 410">
      <path id="Path_1197" data-name="Path 1197" d="M766.867,6171.332c0,18.127-18.257,32.821-40.778,32.821s-62.381-11.2-59.515-54.252c1.2-18.087,13.628-30.33,36.15-30.33S766.867,6153.206,766.867,6171.332Z" fill="#804e4f"/>
      <path id="Path_1198" data-name="Path 1198" d="M672.074,6147.594c3.263,2.641,33.233,30.6,35.753,29.52s14.58-12.579,12.96-14.559-37.073-25.761-38.933-25.4S670.3,6146.16,672.074,6147.594Z" fill="#ff8f85"/>
      <path id="Path_1199" data-name="Path 1199" d="M699.677,6138.684c3.264,2.641,33.234,30.6,35.754,29.52s14.58-12.58,12.96-14.56-37.074-25.76-38.934-25.4S697.906,6137.25,699.677,6138.684Z" fill="#ff8f85"/>
      <path id="Path_1200" data-name="Path 1200" d="M710.707,6168.234c6.627,2.326,5.76-12.454,14.4-11.087s7.92,15.767,13.68,15.047,16.32.48,14.88,8.4-7.68,7.2-11.52,12.72-17.64,5.04-25.5,0-21.78.24-24.42-5.76S699.427,6164.274,710.707,6168.234Z" fill="#8cc63f"/>
      <path id="Path_1201" data-name="Path 1201" d="M714.018,6172.02c-5.951-.666-15.121,6.774-14.556,9.654s5.415,2.94,8.125-1.68A37.812,37.812,0,0,1,714.018,6172.02Z" fill="#fff"/>
      <path id="Path_1202" data-name="Path 1202" d="M734.947,6175.554c-6.6,2.28-11.4,11.16-13.32,10.2s4.56-12,9.36-12.12S734.947,6175.554,734.947,6175.554Z" fill="#fff"/>
    </g>
    <path id="Path_1203" data-name="Path 1203" d="M643.845,6170.566c-16.978.321-48.24-6.84-49.32,0s41.76,3.659,49.32,3.089,24.84-6.323,36,1.234l2.16-1.234-7.92-4.817,9.72,3.756,1.44-1.559s-5.467-13.136-13.174-10.4S662.925,6170.206,643.845,6170.566Z" fill="#c4b8a5"/>
    <g id="Group_411" data-name="Group 411">
      <path id="Path_1204" data-name="Path 1204" d="M876.667,5861.754l12.6,56.16s33.48,24.12,33.12,25.2-52.2,47.88-52.2,47.88l-60.48-11.52s-39.6-64.8-37.8-65.52,42.12-11.857,42.12-11.857l-3-10.158s10.558-70.5,11.638-71.585,45-4.68,45-4.68Z" fill="#ff895f"/>
      <path id="Path_1205" data-name="Path 1205" d="M864.067,5822.874l1.8,62.64-37.184,48.554-19.7-7.694s-3.6-10.62-3.6-12.06,8.64-12.217,8.64-12.217l-3-10.158Z" fill="#c85760"/>
      <path id="Path_1206" data-name="Path 1206" d="M776.587,5782.194c5.4,9.84,27.72,19.92,28.8,18.48s.36-36.96,0-36.48-21.96,10.08-21.96,10.08Z" fill="#6b4a48"/>
      <path id="Path_1207" data-name="Path 1207" d="M787.387,5779.314a78.968,78.968,0,0,1-10.8,2.88s.829-50.88,65.269-48.72,54.371,49.92,54.371,49.92c16.92,2.88,16.8,69.12-19.56,78.36l-8.262-41.381Z" fill="#6b4a48"/>
      <path id="Path_1208" data-name="Path 1208" d="M787.387,5779.314c-3.96,19.44-2.88,100.8,12.24,110.16s49.32-10.44,53.64-17.64,10.8-48.96,10.8-48.96c11.88-3.6,19.8-31.68-7.2-27.72C856.867,5795.154,856.507,5768.874,787.387,5779.314Z" fill="#ff895f"/>
      <path id="Path_1209" data-name="Path 1209" d="M814.027,5902.1c-25.8,5.857-77.4,15.37-90.36,43.853s-20.3,152.309-20.3,152.309l219.021,137.5V5943.114l-33.12-25.2S830.237,5965.794,814.027,5902.1Z" fill="#e03c4a"/>
      <path id="Path_1210" data-name="Path 1210" d="M876.307,6022.674c-12.96,18-67.036,142.074-67.036,142.074,0,2.5,74.543,46.8,74.543,46.8l30.653-31.192Z" fill="#c93643"/>
      <path id="Path_1211" data-name="Path 1211" d="M741.741,6226.567c-3.642,10,12.468,43.959,12.468,43.959l17.338-27.172-11.222-11.88Z" fill="#c93643"/>
      <path id="Path_1212" data-name="Path 1212" d="M750.727,6230.133c-.208-.62-34.08,7.821-34.08,7.821s-58.856-6.511-61.736-2.191,29.156,39.151,29.156,39.151l46.8,4.08,29.458-20.26Z" fill="#ff895f"/>
      <path id="Path_1213" data-name="Path 1213" d="M922.387,5943.114c14.4,10.44,35.28,30.9,36,58.472s-5.76,199.064-18,207.636-186.178,61.3-186.178,61.3,4.452-16.6-12.468-43.959l135.453-64.012c-13.1-64.3-.887-139.881-.887-139.881l45.269-75.619" fill="#e03c4a"/>
      <path id="Path_1214" data-name="Path 1214" d="M733.793,6062.005l-.431,55.085-30-18.832Z" fill="#c93643"/>
      <path id="Path_1215" data-name="Path 1215" d="M589.387,6024.7c-6.36,6.373-15.48,44.8-15.48,44.8l35.76-18.749s2.88-16.56,1.2-16.8S589.387,6024.7,589.387,6024.7Z" fill="#c93643"/>
      <path id="Path_1216" data-name="Path 1216" d="M597.427,6033.234c-5.963-3.114-31.92-24.374-30.72-12.96.4,3.774,5.52,11.04-5.04,10.08s-19.141-5.611-25.89-11.326-24.27-9.554-22.11-2.354,3.62,38.16,33.13,41.52,39.35,6.72,39.35,6.72Z" fill="#ff895f"/>
      <path id="Path_1217" data-name="Path 1217" d="M758.947,6032.034l-55.581,66.225L573.907,6069.5c2.88-3.431,18.96-36.269,15.48-44.8l90.36,8.773,46.572-92.31C725.852,5941.727,758.947,6032.034,758.947,6032.034Z" fill="#e03c4a"/>
    </g>
    <g id="Group_412" data-name="Group 412">
      <ellipse id="Ellipse_66" data-name="Ellipse 66" cx="40.57" cy="10.317" rx="40.57" ry="10.317" transform="translate(573.771 6115.077)" fill="#fff"/>
      <path id="Path_1218" data-name="Path 1218" d="M581.509,6074.113c-2.125,30.5,14.109,48.853,17.447,51.432s20.272,4.482,24.427,0,21.848-24.256,19.42-51.432Z" fill="#fdedd5"/>
      <path id="Path_1219" data-name="Path 1219" d="M640.779,6115.8a13.492,13.492,0,0,0,7.562-2.216c7.131-4.685,9.2-15.731,9.294-20.918a7.043,7.043,0,0,0-3.518-6.3c-3.791-2.34-9.907-2.155-14.872.451l1.958,3.733c3.6-1.887,8.2-2.145,10.7-.6a2.867,2.867,0,0,1,1.519,2.637c-.066,3.553-1.524,13.617-7.394,17.474-3.034,1.993-6.985,2.011-11.746.057l-1.6,3.9A21.434,21.434,0,0,0,640.779,6115.8Z" fill="#fdedd5"/>
      <path id="Path_1220" data-name="Path 1220" d="M581.509,6074.113c0,4.441,13.721,6.09,30.647,6.09s30.647-1.649,30.647-6.09-13.721-8.041-30.647-8.041S581.509,6069.672,581.509,6074.113Z" fill="#c4b8a5"/>
      <path id="Path_1221" data-name="Path 1221" d="M640.57,6076.842c-4.546,2.407-15.551,3.361-28.414,3.361s-23.869-.954-28.414-3.361c4.545-2.947,15.55-5.028,28.414-5.028S636.024,6073.9,640.57,6076.842Z" fill="#804e4f"/>
    </g>
    <g id="Group_413" data-name="Group 413">
      <path id="Path_1222" data-name="Path 1222" d="M385.627,6198.714c-10.233-26.5,2.4-70.2,67.979-65.88s64.771,26.64,51.676,48.96S399.667,6235.074,385.627,6198.714Z" fill="#804e4f"/>
      <path id="Path_1223" data-name="Path 1223" d="M412.087,6162.714c-2.238-7.674-10.134-12.435,6.12-20.823,9.18-4.737,22.5,7.143,32.04,6.063,6.1-.69,18.18,5.22,16.2,9.72s-10.62,6.48-13.86,11.34-7.8,16.334-13.184,15.254-9.5-4.094-13.276-3.734-18.612,7.055-22.32-.72C398.227,6168.114,413.347,6167.034,412.087,6162.714Z" fill="#fdedd5"/>
      <ellipse id="Ellipse_67" data-name="Ellipse 67" cx="14.58" cy="8.733" rx="14.58" ry="8.733" transform="translate(418.773 6156.069) rotate(-7.138)" fill="#fdb349"/>
      <path id="Path_1224" data-name="Path 1224" d="M465.007,6147.594c3.264,2.641,16.2,18.18,18.72,17.1s21.06-13.14,19.44-15.12-26.52-12.78-28.38-12.42S463.236,6146.16,465.007,6147.594Z" fill="#ff8f85"/>
    </g>
    <g id="Group_414" data-name="Group 414">
      <ellipse id="Ellipse_68" data-name="Ellipse 68" cx="48.132" cy="12.24" rx="48.132" ry="12.24" transform="translate(448.122 6225.714)" fill="#fff"/>
      <path id="Path_1225" data-name="Path 1225" d="M535.207,6177.114c2.52,36.18-16.74,57.96-20.7,61.02s-24.05,5.317-28.98,0-25.92-28.778-23.04-61.02Z" fill="#fdedd5"/>
      <path id="Path_1226" data-name="Path 1226" d="M464.889,6226.567a16.006,16.006,0,0,1-8.972-2.629c-8.46-5.558-10.912-18.663-11.027-24.817a8.354,8.354,0,0,1,4.175-7.476c4.5-2.777,11.753-2.557,17.644.535l-2.323,4.428c-4.266-2.239-9.724-2.544-12.695-.709a3.4,3.4,0,0,0-1.8,3.128c.079,4.215,1.808,16.156,8.773,20.732,3.6,2.364,8.287,2.386,13.935.067l1.9,4.625A25.437,25.437,0,0,1,464.889,6226.567Z" fill="#fdedd5"/>
      <path id="Path_1227" data-name="Path 1227" d="M535.207,6177.114c0,5.269-16.278,7.225-36.36,7.225s-36.36-1.956-36.36-7.225,16.279-9.54,36.36-9.54S535.207,6171.845,535.207,6177.114Z" fill="#c4b8a5"/>
      <path id="Path_1228" data-name="Path 1228" d="M465.137,6180.352c5.393,2.855,18.449,3.987,33.71,3.987s28.318-1.132,33.711-3.987c-5.393-3.5-18.449-5.965-33.711-5.965S470.53,6176.855,465.137,6180.352Z" fill="#804e4f"/>
    </g>
    <g id="Group_416" data-name="Group 416">
      <path id="Path_1229" data-name="Path 1229" d="M402.307,5962.914l-22.56-12.977-26.078,26.947h44.976Z" fill="#ff895f"/>
      <path id="Path_1230" data-name="Path 1230" d="M384.547,5920.074l5.206,61.2-100.606-12.24s40.32-34.92,30.96-60.84,36.656-68.76,36.656-68.76Z" fill="#ff895f"/>
      <path id="Path_1231" data-name="Path 1231" d="M384.547,5920.074l5.206,61.2s-48.406-50.4-57.766-76.32,24.776-65.52,24.776-65.52Z" fill="#c85760"/>
      <path id="Path_1232" data-name="Path 1232" d="M417.605,5824.253c-6.764-21.531-34.265-62.037-87.682-36.776s-47.2,58.793-18.313,130.124c1.967,4.858,25.728,8.038,27.84-2.687s9.173-43.047,15.474-45.169,35.316,11.21,35.316,11.21Z" fill="#6b4a48"/>
      <path id="Path_1233" data-name="Path 1233" d="M417.605,5824.253c13.494,24.625,14.973,89.231,0,110.821-9.545,13.764-56.279-13.013-56.865-25.26S363.1,5877.7,363.1,5877.7s-18.731-12.48-8.492-25.16,20.721-9.456,23.864-.379,3.422,18.461,7.564,16.57S378.787,5824.614,417.605,5824.253Z" fill="#ff895f"/>
      <path id="Path_1234" data-name="Path 1234" d="M306.915,5949.937c9.472,9.617,55.59,19.8,80.55,4.44l33.919,14.376,26.835,137.807L257.774,6215.98s-1.867-242.506,1.493-242.986S306.915,5949.937,306.915,5949.937Z" fill="#2c519c"/>
      <path id="Path_1235" data-name="Path 1235" d="M259.267,5972.994c-27.84,22.56-102.151,163.845-84,226.08,3.36,11.52,118.08,50.88,175.2,49.44l20.16-59.52s-73.92-36-101.76-27.84c0,0,20.4-86.88,20.28-112.8" fill="#2c519c"/>
      <path id="Path_1236" data-name="Path 1236" d="M421.384,5968.753s6.868,2.394,8.283,4.241c20.64,26.933,56.16,106.08,56.16,106.08l-37.608,27.486Z" fill="#2c519c"/>
      <path id="Path_1237" data-name="Path 1237" d="M483.286,6074.274c9.981,5.28,20.316,16.32,20.316,16.32L471.427,6117.1l-24.156-15.41S472.546,6068.593,483.286,6074.274Z" fill="#2c519c"/>
      <g id="Group_415" data-name="Group 415">
        <path id="Path_1238" data-name="Path 1238" d="M409.984,6006.471c-14.937,7.614-108.253-5.129-118.056-8.277l4.539-7.2c9.8,3.148,94.633,13.922,109.57,6.309Z" fill="#fff"/>
        <path id="Path_1239" data-name="Path 1239" d="M424.012,6041.473c-15,7.486-122.308,12.177-132.084,8.946v-11.272c9.776,3.232,112.262-.731,127.263-8.217Z" fill="#fff"/>
        <path id="Path_1240" data-name="Path 1240" d="M441.187,6086.274c-14,9.222-150.456,22.329-160.547,20.286l2.725-14.27c10.091,2.042,137.249-8.821,151.25-18.043Z" fill="#fff"/>
        <path id="Path_1241" data-name="Path 1241" d="M402.567,6128.654c-10.573,3.666-57.98,25.531-98.345,31.994l-21.915-15.38c61.227,2.341,135.906-25.273,149.908-34.5Z" fill="#fff"/>
        <path id="Path_1242" data-name="Path 1242" d="M208.627,6042.791c10.08-4.32,78.381,27.771,78.381,27.771l1.666-13.437s-71.647-25.666-74.527-25.606" fill="#fff"/>
        <path id="Path_1243" data-name="Path 1243" d="M180.547,6110.773c24.96,19.115,68.1,19.115,92.722,30.92l3.126-14.448c-4.4-3.143-28.648-6.411-40.168-7.647s-31.92-24.151-46.8-27.308" fill="#fff"/>
        <path id="Path_1244" data-name="Path 1244" d="M232.627,6227.394c14.88-11.435,65.04-52.944,69.36-64.1l-17.346-3.049c-5.648,7.454-53.694,46.459-79.134,57.553" fill="#fff"/>
        <path id="Path_1245" data-name="Path 1245" d="M308.467,6248.552s35.28-51.164,37.68-70.364l-9.6-3.8c-1.92,14.76-40.08,70.287-40.08,70.287" fill="#fff"/>
        <path id="Path_1246" data-name="Path 1246" d="M432.607,6062.005l29.618-32.41-2.477-4.9-30.021,27.853Z" fill="#fff"/>
        <path id="Path_1247" data-name="Path 1247" d="M481.257,6069.089l-31.429,26.272-1.609-3.071,28.053-33.851Z" fill="#fff"/>
      </g>
      <path id="Path_1248" data-name="Path 1248" d="M368,6196.759c7.429-.565,67.429-7.285,75.109-3.445s-16.32,8.64-16.32,8.64,54.72,12.48,66.72,6.24-17.883,48.48-39.9,46.56-48.419-18.24-57.539-18.24-44.3,8.16-44.3,8.16Z" fill="#ff895f"/>
      <path id="Path_1249" data-name="Path 1249" d="M501.544,6092.29c10.56,6.728,46.213,45.083,45.253,49.4-3.6,16.2-45.262-16.419-50.542-19.3s7.851,31.453-5.457,11.36a103.719,103.719,0,0,0-16.455-19.053Z" fill="#ff895f"/>
    </g>
  </g>
</svg>
