<svg xmlns="http://www.w3.org/2000/svg" xmlns:xlink="http://www.w3.org/1999/xlink" width="935.025" height="686.803" viewBox="0 0 935.025 686.803">
  <defs>
    <clipPath id="clip-path">
      <rect id="Rectangle_276" data-name="Rectangle 276" width="935.025" height="686.803" transform="translate(117.488 2997.681)" fill="none"/>
    </clipPath>
  </defs>
  <g id="Group_377" data-name="Group 377" transform="translate(-117.487 -2997.681)">
    <rect id="Rectangle_265" data-name="Rectangle 265" width="935.025" height="686.803" transform="translate(117.487 2997.681)" fill="#fafafa"/>
    <g id="Group_376" data-name="Group 376">
      <g id="Group_375" data-name="Group 375" clip-path="url(#clip-path)">
        <rect id="Rectangle_266" data-name="Rectangle 266" width="845.448" height="95.06" transform="translate(207.04 3608.767)" fill="#f5f5f5"/>
        <g id="Group_374" data-name="Group 374">
          <path id="Path_933" data-name="Path 933" d="M319.029,3323.558v288.621l-83.087,139.258-8-235.418Z" fill="#ded5c5"/>
          <path id="Path_934" data-name="Path 934" d="M203.975,3317.873C173.753,3349.1,83.367,3516.018,83.367,3516.018H228.554s93.581-164.1,90.475-195.992C316.553,3294.61,222.974,3298.244,203.975,3317.873Z" fill="#f2e9d8"/>
          <g id="Group_343" data-name="Group 343">
            <path id="Rectangle_267" data-name="Rectangle 267" d="M8.1,0h2.981a8.1,8.1,0,0,1,8.1,8.1V165.091a0,0,0,0,1,0,0H0a0,0,0,0,1,0,0V8.1A8.1,8.1,0,0,1,8.1,0Z" transform="translate(564.189 3433.473)" fill="#d0b49f"/>
            <rect id="Rectangle_268" data-name="Rectangle 268" width="127.867" height="11.508" transform="translate(564.189 3598.564)" fill="#d0b49f"/>
            <path id="Path_935" data-name="Path 935" d="M564.189,3610.072v121.474l9.594-1.7V3610.072Z" fill="#d0b49f"/>
          </g>
          <path id="Path_936" data-name="Path 936" d="M83.367,3516.018v235.418H235.942l-8-235.418" fill="#e5dccc"/>
          <g id="Group_344" data-name="Group 344">
            <path id="Path_937" data-name="Path 937" d="M110.286,3426.866l36.8-51.147h61.935l-30.968,51.147Z" fill="#e3e0d7"/>
            <path id="Path_938" data-name="Path 938" d="M178.055,3491.226l30.968-56.688v-58.819l-30.968,51.147Z" fill="#fff"/>
            <path id="Path_939" data-name="Path 939" d="M183.975,3428.519l19.128-31.592v36.1l-19.128,35.015Z" fill="#edebe3"/>
            <rect id="Rectangle_269" data-name="Rectangle 269" width="67.77" height="64.36" transform="translate(110.286 3426.866)" fill="#edebe3"/>
          </g>
          <ellipse id="Ellipse_59" data-name="Ellipse 59" cx="41.77" cy="20.885" rx="41.77" ry="20.885" transform="translate(215.301 3314.888)" fill="#fff"/>
          <path id="Path_940" data-name="Path 940" d="M298.256,3339.267c-5.733-7.33-18.7-12.444-33.784-12.444-20.394,0-36.927,9.35-36.927,20.885a12.127,12.127,0,0,0,.388,3.027c7.526,3.665,17.8,5.923,29.138,5.923C277.759,3356.658,294.931,3349.138,298.256,3339.267Z" fill="#e3e0d7"/>
          <g id="Group_345" data-name="Group 345">
            <rect id="Rectangle_270" data-name="Rectangle 270" width="3.552" height="42.299" transform="translate(176.81 3289.609) rotate(-32.72)" fill="#d9d0c1"/>
            <path id="Path_941" data-name="Path 941" d="M262.809,3282.045H198.068V3328.6a1.805,1.805,0,0,0,1.8,1.8h9.492a1.805,1.805,0,0,0,1.8-1.8V3291h51.649Z" fill="#d9d0c1"/>
            <rect id="Rectangle_271" data-name="Rectangle 271" width="9.59" height="2.77" transform="translate(251.438 3290.996)" fill="#d9d0c1"/>
          </g>
          <path id="Path_942" data-name="Path 942" d="M162.2,3253.743,83.367,3367.261v-19.085l78.838-114.8Z" fill="#e3e0d7"/>
          <g id="Group_347" data-name="Group 347">
            <rect id="Rectangle_272" data-name="Rectangle 272" width="17.617" height="21.366" rx="7.44" transform="translate(270.354 3161.074)" fill="#d9d0c1"/>
            <g id="Group_346" data-name="Group 346">
              <path id="Path_943" data-name="Path 943" d="M275.752,3171.757s-28.983,73.788-29.551,79.75,1.847,5.963,10.513,5.963a3.84,3.84,0,0,1,2.672.761l17.709-86.474Z" fill="#7cc7a5"/>
              <path id="Path_944" data-name="Path 944" d="M305.588,3237.843c-4.546-9.938-23.016-66.086-23.016-66.086h-2.009l10.939,77.454C295.5,3245.469,309.262,3245.872,305.588,3237.843Z" fill="#7cc7a5"/>
              <path id="Path_945" data-name="Path 945" d="M277.1,3171.757l-17.709,86.474c2.908,2.665-4.378,11.322,3.58,9.425,9.377-2.236,30.4-6.956,27.7-14.907a3.085,3.085,0,0,1,.832-3.538l-10.939-77.454Z" fill="#82d1ad"/>
            </g>
          </g>
          <g id="Group_354" data-name="Group 354">
            <rect id="Rectangle_273" data-name="Rectangle 273" width="301.936" height="7.117" transform="translate(530.133 3222.452)" fill="#e3e0d7"/>
            <path id="Path_946" data-name="Path 946" d="M708.912,3242.841h-2.273v-1.184h2.273a5.1,5.1,0,0,0,5.091-5.091V3226.01h1.184v10.556A6.282,6.282,0,0,1,708.912,3242.841Z" fill="#e3e0d7"/>
            <path id="Path_947" data-name="Path 947" d="M743.32,3242.841h-2.273v-1.184h2.273a5.1,5.1,0,0,0,5.091-5.091V3226.01h1.184v10.556A6.283,6.283,0,0,1,743.32,3242.841Z" fill="#e3e0d7"/>
            <path id="Path_948" data-name="Path 948" d="M777.727,3242.841h-2.274v-1.184h2.274a5.1,5.1,0,0,0,5.091-5.091V3226.01H784v10.556A6.282,6.282,0,0,1,777.727,3242.841Z" fill="#e3e0d7"/>
            <path id="Path_949" data-name="Path 949" d="M812.134,3242.841h-2.273v-1.184h2.273a5.1,5.1,0,0,0,5.091-5.091V3226.01h1.184v10.556A6.283,6.283,0,0,1,812.134,3242.841Z" fill="#e3e0d7"/>
            <g id="Group_348" data-name="Group 348">
              <path id="Path_950" data-name="Path 950" d="M674.506,3242.841h-2.274v-1.184h2.274a5.1,5.1,0,0,0,5.091-5.091V3226.01h1.184v10.556A6.283,6.283,0,0,1,674.506,3242.841Z" fill="#e3e0d7"/>
              <path id="Path_951" data-name="Path 951" d="M702.372,3287.025l-2.822-33.592a17.712,17.712,0,0,0-17.649-16.228H670.52a17.711,17.711,0,0,0-17.649,16.228l-2.823,33.592a14.6,14.6,0,0,0,14.545,15.819h23.234A14.6,14.6,0,0,0,702.372,3287.025Zm-26.162-42.574a2.463,2.463,0,1,1,2.463-2.463A2.462,2.462,0,0,1,676.21,3244.451Z" fill="#edebe3"/>
              <circle id="Ellipse_60" data-name="Ellipse 60" cx="2.462" cy="2.462" r="2.462" transform="translate(673.748 3239.526)" fill="#fff"/>
              <path id="Path_952" data-name="Path 952" d="M674.506,3242.841h-2.274v-1.184h2.274a5.079,5.079,0,0,0,3.432-1.331l.8.874A6.255,6.255,0,0,1,674.506,3242.841Z" fill="#e3e0d7"/>
            </g>
            <path id="Path_953" data-name="Path 953" d="M755.093,3297.176l-1.011-12.035a6.342,6.342,0,0,0-6.124-5.8v-40.712h-4.475v40.712a6.264,6.264,0,0,0-6.124,5.8l-1.012,12.035a5.23,5.23,0,0,0,5.211,5.668h8.324A5.23,5.23,0,0,0,755.093,3297.176Z" fill="#edebe3"/>
            <path id="Path_954" data-name="Path 954" d="M789.127,3293.029l-.663-7.888a6.341,6.341,0,0,0-6.124-5.8v-40.889h-4.475v40.889a6.264,6.264,0,0,0-6.124,5.8l-.663,7.888a9.057,9.057,0,0,0,9.024,9.815h0A9.057,9.057,0,0,0,789.127,3293.029Z" fill="#edebe3"/>
            <path id="Path_955" data-name="Path 955" d="M823.559,3293.029l-.663-7.888a6.341,6.341,0,0,0-6.124-5.8v-40.889H812.3v40.889a6.265,6.265,0,0,0-6.124,5.8l-.663,7.888a9.057,9.057,0,0,0,9.025,9.815h0A9.057,9.057,0,0,0,823.559,3293.029Z" fill="#edebe3"/>
            <g id="Group_349" data-name="Group 349">
              <path id="Path_956" data-name="Path 956" d="M743.32,3242.841h-2.273v-1.184h2.273a5.06,5.06,0,0,0,1.9-.367l.441,1.1A6.243,6.243,0,0,1,743.32,3242.841Z" fill="#e3e0d7"/>
            </g>
            <g id="Group_350" data-name="Group 350">
              <path id="Path_957" data-name="Path 957" d="M777.727,3242.841h-2.274v-1.184h2.274a5.063,5.063,0,0,0,2.129-.465l.495,1.075A6.23,6.23,0,0,1,777.727,3242.841Z" fill="#e3e0d7"/>
            </g>
            <path id="Path_958" data-name="Path 958" d="M588.992,3242.841h-2.273v-1.184h2.273a5.1,5.1,0,0,0,5.091-5.091V3226.01h1.184v10.556A6.282,6.282,0,0,1,588.992,3242.841Z" fill="#e3e0d7"/>
            <path id="Path_959" data-name="Path 959" d="M623.4,3242.841h-2.274v-1.184H623.4a5.1,5.1,0,0,0,5.091-5.091V3226.01h1.184v10.556A6.283,6.283,0,0,1,623.4,3242.841Z" fill="#e3e0d7"/>
            <path id="Path_960" data-name="Path 960" d="M634.8,3293.029l-.662-7.888a6.343,6.343,0,0,0-6.124-5.8v-40.889h-4.476v40.889a6.265,6.265,0,0,0-6.124,5.8l-.663,7.888a9.057,9.057,0,0,0,9.025,9.815h0A9.056,9.056,0,0,0,634.8,3293.029Z" fill="#edebe3"/>
            <path id="Path_961" data-name="Path 961" d="M554.185,3242.841h-2.273v-1.184h2.273a5.1,5.1,0,0,0,5.091-5.091V3226.01h1.184v10.556A6.282,6.282,0,0,1,554.185,3242.841Z" fill="#e3e0d7"/>
            <path id="Path_962" data-name="Path 962" d="M565.959,3297.176l-1.012-12.035a6.341,6.341,0,0,0-6.124-5.8v-40.712h-4.475v40.712a6.265,6.265,0,0,0-6.124,5.8l-1.011,12.035a5.229,5.229,0,0,0,5.211,5.668h8.324A5.231,5.231,0,0,0,565.959,3297.176Z" fill="#edebe3"/>
            <g id="Group_351" data-name="Group 351">
              <path id="Path_963" data-name="Path 963" d="M554.185,3242.841h-2.273v-1.184h2.273a5.057,5.057,0,0,0,1.9-.367l.442,1.1A6.248,6.248,0,0,1,554.185,3242.841Z" fill="#e3e0d7"/>
            </g>
            <g id="Group_352" data-name="Group 352">
              <path id="Path_964" data-name="Path 964" d="M623.4,3242.841h-2.274v-1.184H623.4a5.066,5.066,0,0,0,2.129-.465l.494,1.075A6.225,6.225,0,0,1,623.4,3242.841Z" fill="#e3e0d7"/>
            </g>
            <g id="Group_353" data-name="Group 353">
              <path id="Path_965" data-name="Path 965" d="M812.134,3242.841h-2.273v-1.184h2.273a5.046,5.046,0,0,0,2.15-.475l.5,1.073A6.221,6.221,0,0,1,812.134,3242.841Z" fill="#e3e0d7"/>
            </g>
          </g>
          <ellipse id="Ellipse_61" data-name="Ellipse 61" cx="2.841" cy="5.683" rx="2.841" ry="5.683" transform="translate(273.955 3546.28)" fill="#f2e9d8"/>
          <ellipse id="Ellipse_62" data-name="Ellipse 62" cx="2.841" cy="5.683" rx="2.841" ry="5.683" transform="translate(286.259 3534.914)" fill="#f2e9d8"/>
          <path id="Path_966" data-name="Path 966" d="M83.367,3348.177h34.195l77.225-114.8H162.2Z" fill="#edebe3"/>
          <g id="Group_355" data-name="Group 355">
            <path id="Path_967" data-name="Path 967" d="M114.478,3335.961c-2.142,2.284-10.383,2.284-12.524,0-5.735-6.118,2.163-33.473,2.163-33.473h8.2S120.213,3329.843,114.478,3335.961Z" fill="#fdb349"/>
            <circle id="Ellipse_63" data-name="Ellipse 63" cx="5.465" cy="5.465" r="5.465" transform="translate(102.751 3293.766)" fill="#d0b49f"/>
          </g>
          <g id="Group_356" data-name="Group 356">
            <path id="Path_968" data-name="Path 968" d="M142.862,3293.913c-2.141,2.284-10.382,2.284-12.523,0-5.736-6.118,2.163-33.473,2.163-33.473h8.2S148.6,3287.795,142.862,3293.913Z" fill="#fdb349"/>
            <circle id="Ellipse_64" data-name="Ellipse 64" cx="5.465" cy="5.465" r="5.465" transform="translate(131.136 3251.718)" fill="#d0b49f"/>
          </g>
          <g id="Group_357" data-name="Group 357">
            <path id="Path_969" data-name="Path 969" d="M170.786,3253.621c-2.142,2.284-10.383,2.284-12.524,0-5.735-6.118,2.163-33.473,2.163-33.473h8.2S176.521,3247.5,170.786,3253.621Z" fill="#fdb349"/>
            <circle id="Ellipse_65" data-name="Ellipse 65" cx="5.465" cy="5.465" r="5.465" transform="translate(159.059 3211.426)" fill="#d0b49f"/>
          </g>
          <g id="Group_362" data-name="Group 362">
            <g id="Group_358" data-name="Group 358">
              <path id="Path_970" data-name="Path 970" d="M633.98,3689.251l-3.615,9.834s25.352,23.656,26.631,28.984,26.9,5.979,32.1,4.161c0,0-20.376-11.407-25.7-18.227s-19.606-18.217-19.606-18.217" fill="#593e3c"/>
              <path id="Path_971" data-name="Path 971" d="M666.7,3708.972l-9.708,19.1a208.414,208.414,0,0,1,24.721,2.557c12.36,2.131,26.852,3.455,37.508-4.879s-24.721-.662-41.344-11.744" fill="#6b4a48"/>
              <path id="Path_972" data-name="Path 972" d="M659.66,3605.865c-8.521,16.567-9.5,36.6-25.68,83.386l9.8,6.535,32.18-48.607,40.973-52.022Z" fill="#f28d67"/>
              <path id="Path_973" data-name="Path 973" d="M713.368,3561.482c11.934,4.689,23.868,9.282,23.868,19.559S677.881,3714,677.881,3714l-11.177-5.031s2.249-60.405,24.456-103.947" fill="#fb926b"/>
              <path id="Path_974" data-name="Path 974" d="M589.211,3535.027c-5.416,18.783-14.609,55.438,2.014,63.537s83.349,12.243,105.52,5.541c9.164-2.771,12.125-1.672,12.125-1.672s16.107-30.475,4.5-40.951c-3.937-3.552-67.37-26.436-67.37-26.436Z" fill="#014c69"/>
              <path id="Path_975" data-name="Path 975" d="M650.19,3573.978c-43.661,9.227-60.623-22.015-60.666-38.951h0c-5.728,18.784-14.921,55.439,1.7,63.537s83.349,12.243,105.52,5.541c9.164-2.771,12.125-1.672,12.125-1.672s8.668-16.417,8.692-29.3C705.6,3570.45,680.952,3567.476,650.19,3573.978Z" fill="#014159"/>
            </g>
            <g id="Group_359" data-name="Group 359">
              <path id="Path_976" data-name="Path 976" d="M785.826,3553.384,808.2,3731.546h-8.951l-35.59-169.175Z" fill="#d0b49f"/>
              <path id="Path_977" data-name="Path 977" d="M652.864,3553.384l-27.512,178.162H634.3l40.724-169.175Z" fill="#d0b49f"/>
              <path id="Path_978" data-name="Path 978" d="M806.924,3444.107l16.2,104.283h-8.1l-21.737-94.622" fill="#d0b49f"/>
              <path id="Path_979" data-name="Path 979" d="M790.082,3570.717c-20.458,17.333-142.359,10.265-152.541-2.522-3.765-4.724-.225-20.849,7.258-40.882.864-2.32,1.788-4.676,2.747-7.092.544-1.361,1.1-2.735,1.681-4.12,0-.012.012-.012.012-.024,9.069-21.843,21.666-46.387,34.157-65.449l.012-.012c5.991-9.187,11.97-17.084,17.511-22.8,19-19.629,97.179-18.114,109.113,4.452S810.541,3553.384,790.082,3570.717Z" fill="#e5dccc"/>
              <path id="Path_980" data-name="Path 980" d="M717.577,3493.263,702.9,3509.637s-49.123,14.776-58.1,17.676c.864-2.32,1.788-4.676,2.747-7.092,1.054-2.048,1.847-3.8,1.681-4.12,0-.012.012-.012.012-.024,9.069-21.843,21.666-46.387,34.157-65.449l.012-.012c7.044-.958,26.023,5.222,22.282,8.087C676.375,3481.234,712.071,3491.06,717.577,3493.263Z" fill="#e6e6e6" style="mix-blend-mode: multiply;isolation: isolate"/>
            </g>
            <g id="Group_361" data-name="Group 361">
              <path id="Path_981" data-name="Path 981" d="M674.368,3398.878c-1.066-6.181-7.053-18.147-7.053-18.147l1.2-38.026c11.4,8.782,5.262,25.866,10.546,35.949.738,1.407,3.808,5.844,7.653,12.243" fill="#fb926b"/>
              <g id="Group_360" data-name="Group 360">
                <path id="Path_982" data-name="Path 982" d="M661.371,3335.424c-1.252-4.705-4.923-12.463-15.56-13.054-15.338-.852-17.473,11.5-16,20.325-6.527,7.479-4.412,18.69-2.6,26.9l25.453,1.2-4.048-8.471,21.867,5.23C677.47,3353.272,668.827,3340.485,661.371,3335.424Z" fill="#6b4a48"/>
                <path id="Path_983" data-name="Path 983" d="M635.653,3386.3s-6.252,11.934-8.17,20.885-30.048,3.41-22.376-8.951,21.95-27.7,26-33.745l7.672-1.631,10.443-6.181Z" fill="#fb926b"/>
                <path id="Path_984" data-name="Path 984" d="M635.653,3374.512a22.105,22.105,0,0,0,0,11.792c1.847,5.825,14.775,17.049,20.885,15.486s12.786-26.852,13.947-34.24c.4-2.7-6.986-17.759-20.625-12.644,0,0,0-6.11-5.4-5.826s-7.53,8.667-5.683,13.782l-1.42,3.41" fill="#fb926b"/>
                <path id="Path_985" data-name="Path 985" d="M635.653,3386.3a22.105,22.105,0,0,1,0-11.792l-2.023-3.215-2.022,23.668Z" fill="#f07164"/>
              </g>
              <path id="Path_986" data-name="Path 986" d="M686.709,3390.9c9.492,15.8,23.707,43.562,19.2,67.226-.853,4.475-13.64-.853-20.672-9.59s-12.177-43.475-13.243-49.655Z" fill="#7cc7a5"/>
              <path id="Path_987" data-name="Path 987" d="M702.91,3459.722c-22.711,4.439-49.214-5.222-49.214-5.222s-30.929-24.3-21.339-48.591c12.147,13.426,38.388,22.378,47.182,27.267" fill="#7cc7a5"/>
              <path id="Path_988" data-name="Path 988" d="M645.811,3427.435l-6.856,11.194A82.8,82.8,0,0,0,653.7,3454.5a124.242,124.242,0,0,0,27.009,5.9Z" fill="#6fb394"/>
              <path id="Path_989" data-name="Path 989" d="M605.107,3398.238c-4.911,7.2-20.246,35.8-20.885,70.754a360.752,360.752,0,0,0,5.3,66.035l52.51.018,4.652-12.646c2.745-11.841,11.842-46.375,13.76-54.26s-9.519-33.245-14.634-40.7-9.053-15.329-16.615-26.212C627.839,3413.156,605.107,3398.238,605.107,3398.238Z" fill="#7cc7a5"/>
              <path id="Path_990" data-name="Path 990" d="M647.587,3518.469c.256-1.1-.356-3.042,0-4.428l-26.492-12.214-23.376-55.852c-7.583,24.721-8.2,89.052-8.2,89.052l52.509.017Z" fill="#6fb394"/>
              <path id="Path_991" data-name="Path 991" d="M717.573,3493.265c-2.565-1.112-13.734-3.106-19.729-1.6-5.427,1.362-15.62,9.081-15.62,9.081a14.855,14.855,0,0,1-7.008.464l1.176,11.323c1.46-.408,2.867-.795,4.2-1.151l4.262-1.137s12.616.786,18.038-.612c6.265-1.616,17.58-9.327,18.087-10.4C721.717,3497.678,719.15,3493.947,717.573,3493.265Z" fill="#fb926b"/>
              <path id="Path_992" data-name="Path 992" d="M627.839,3449.385c6.064,14.957,1.581,45.748,1.581,45.748,8.61-3.69,39.911,3.017,45.8,5.079l4.983,13.32c-22.933,6.115-65.241,18.592-70.072,12.34-13.516-17.491-15.6-66.05-12.408-79.9C600.176,3435.32,618.42,3426.156,627.839,3449.385Z" fill="#87d9b4"/>
            </g>
          </g>
          <g id="Group_366" data-name="Group 366">
            <path id="Path_993" data-name="Path 993" d="M844.308,3258.159c-7.7,15.906-10.261,18.748-7.7,34.092s34.268,152.389,34.268,152.389l22.53-4.154Z" fill="#4d4d4d"/>
            <g id="Group_363" data-name="Group 363">
              <path id="Path_994" data-name="Path 994" d="M918.076,3684.622c-.209,8.365,1.549,28.16,1.549,28.16L901.7,3714.59l-1.092-3.275s-21.1,9.8-42.2,5.967-39.683-7.144-36.486-11.193c3.644-4.616,34.857-7.1,47-10.726a77.567,77.567,0,0,0,21.662-10.741Z" fill="#593e3c"/>
              <path id="Path_995" data-name="Path 995" d="M926.3,3702.3c-.208,8.365,1.867,27.78,1.867,27.78l-19.386,2.409.049-3.5s-17.311,7.688-42.245,6.857c-21.432-.714-32.819-5.492-29.622-9.115,6.623-7.507,29.671-7.546,41.818-11.168s20.033-13.267,20.033-13.267Z" fill="#6b4a48"/>
              <path id="Path_996" data-name="Path 996" d="M926.3,3702.3H898.813s-.787.96-2.24,2.385c6.087,3.1,19.841,6.331,30.113,8.457C926.412,3709.05,926.23,3705.066,926.3,3702.3Z" fill="#e6e6e6" style="mix-blend-mode: multiply;isolation: isolate"/>
              <path id="Path_997" data-name="Path 997" d="M886.66,3687.237s9.994-1.705,16.245,0,19.715-3.32,19.715-3.32c-15.049-86.46-2.358-242.718-1.165-267.9l-45.561,8.454Z" fill="#6574a6"/>
              <path id="Path_998" data-name="Path 998" d="M947.8,3408.468c15.571,32.166,5.639,78.228-.612,90.162s-13.872,67.7-12.735,72.609c4.941,21.346-3.248,130.329-3.248,130.329-8.525,2.273-37.486,1.01-37.486,1.01,1.137-93.769-5.066-122.965-5.066-122.965a32.957,32.957,0,0,0-1.421-6.252c-.852-1.989,1.421-7.388,1.421-7.388-11.186-41.77-6.82-127.014-5.683-141.506l19.067-6.548Z" fill="#6d7db3"/>
            </g>
            <path id="Path_999" data-name="Path 999" d="M905.178,3423.386l-29.1,5.545s-21.051-96.9-25.6-119.631-9.044-45.464-4.7-56.341l8.287,21.271,16.8-44.2Z" fill="#fff"/>
            <path id="Path_1000" data-name="Path 1000" d="M947.8,3408.468l-43.67,9.018-17.267-97.322-18.055-2.958c4.118,59.153,32.391,142.056,36.369,147.239,2.1,2.735,34.24-3.556,55.836-18.691C961.729,3429.909,954.874,3423.079,947.8,3408.468Z" fill="#e6e6e6" style="mix-blend-mode: multiply;isolation: isolate"/>
            <g id="Group_364" data-name="Group 364">
              <path id="Path_1001" data-name="Path 1001" d="M798.232,3192.885c-5.484-4.589-9.343-13.908-9.058-18.414s5.28.916,8.169-1.7,2.006-5.921,5.754-7.672,5.952.8,9.47-1.492,13.9-10.924,26.31-.825c0,0,17.541,2.821,20.482,17.765,4.255,21.621-7.38,29.775-7.38,29.775" fill="#6b4a48"/>
              <path id="Path_1002" data-name="Path 1002" d="M837.139,3239.674l7.283,9.8,9.646,24.76,16.8-44.2-23.494-24.51" fill="#fb926b"/>
              <path id="Path_1003" data-name="Path 1003" d="M846.01,3214.944l1.2,41.688-2.79-7.162-7.283-9.8Z" fill="#f07164"/>
              <path id="Path_1004" data-name="Path 1004" d="M847.378,3205.517c2.643-.568,2.679-.789,2.69-4.316s-4.216-9.253-7.743-9.264-3.451,4.51-3.451,4.51-2.194-3.821-3.2-5.171-3.325,1.252-6.767.869-5.423-10.5-7.194-11.222c-6.864-2.806-23.811,10.792-23.479,11.962,1.479,5.223,6.029,14.286,6.029,14.286s2.459,21.643,4.733,22.856c.762.407,2.734-3.823,4.532-3.189.632.223,6.358,17.075,8.965,18.528s8.743-.5,12.149-3.492,9.676-8.313,9.622-10.894-.689-7.047-.246-8.772,1.994-7.264,1.994-7.264" fill="#fb926b"/>
            </g>
            <g id="Group_365" data-name="Group 365">
              <path id="Path_1005" data-name="Path 1005" d="M870.642,3229.167c-5.5,20.833-12.055,116.467,34.536,215.473,3.41,7.245,78.074-23.122,77.147-25.517-13.924-35.945-59.388-155.856-72.694-166.653C880.475,3228.812,870.642,3229.167,870.642,3229.167Z" fill="#4d4d4d"/>
              <path id="Path_1006" data-name="Path 1006" d="M870.642,3229.167c-3.692,13.981-8.561,59.309,2.717,117.537l.461.884c4.328-8.518,11.326-73.358,11.326-73.358s-7.428-1.649-9.7-3.5,2.735.02,5.576-1.827,4.457-24.251,2.342-34.962h0C874.24,3228.966,870.642,3229.167,870.642,3229.167Z" fill="#666"/>
              <path id="Path_1007" data-name="Path 1007" d="M901.342,3313.42c11.934,22.5,46.741,131.22,46.741,131.22l27.422-6.337s-25.28-119.857-41.051-157.276c-3.841-9.112-20.349-35.048-28.683-31.638C880.814,3268.961,901.342,3313.42,901.342,3313.42Z" fill="#666"/>
              <path id="Path_1008" data-name="Path 1008" d="M952.627,3443.59c-1.034,4.6.413,25.014.413,25.014l3.489,4.3,23.711-9.5-6.677-14.6-.964-9.828Z" fill="#fb926b"/>
            </g>
          </g>
          <g id="Group_373" data-name="Group 373">
            <g id="Group_367" data-name="Group 367">
              <path id="Path_1009" data-name="Path 1009" d="M513.781,3729.753c-14.634.047-32.452-.947-37.626-1.456-1.539-8.927-10.206-13.19-15.984-14.267.214-4.463.6-8.572,1.315-10.49l25.952.3a18.551,18.551,0,0,0,1.575,8.312c1.456,3.279,16.078,3.658,27.124,5.86C511.863,3722.8,513.781,3729.753,513.781,3729.753Z" fill="#758fe8"/>
              <path id="Path_1010" data-name="Path 1010" d="M461.486,3703.54c-.632,1.707-1.01,5.149-1.237,9.031,8.05-1.38,22.68-4.236,27.382-5.206a16.447,16.447,0,0,1-.193-3.529Z" fill="#f2f2f2" style="mix-blend-mode: multiply;isolation: isolate"/>
              <path id="Path_1011" data-name="Path 1011" d="M476.38,3731.588c-9.495-.4-16.4-.746-16.4-.746s-.178-8.95.189-16.812c5.778,1.077,14.445,5.34,15.984,14.267A16.486,16.486,0,0,1,476.38,3731.588Z" fill="#5a6eb3"/>
              <path id="Path_1012" data-name="Path 1012" d="M529.457,3732.583c-6.382.829-34.631-.2-53.077-1a16.486,16.486,0,0,0-.225-3.291c5.174.509,22.992,1.5,37.626,1.456,9.8-.036,18.174-.556,20.364-1.989C535.708,3730.1,534.642,3731.908,529.457,3732.583Z" fill="#5a6eb3"/>
              <path id="Path_1013" data-name="Path 1013" d="M534.145,3727.764c-2.19,1.433-10.561,1.953-20.364,1.989,0,0-1.918-6.95,2.356-11.745a31.951,31.951,0,0,1,9.164,2.936C529.54,3723.348,532.807,3725.751,534.145,3727.764Z" fill="#f2f2f2"/>
            </g>
            <g id="Group_368" data-name="Group 368">
              <path id="Path_1014" data-name="Path 1014" d="M468.768,3734.2c-14.633.047-32.452-.948-37.626-1.457-1.539-8.927-10.2-13.189-15.983-14.266.213-4.464.6-8.572,1.314-10.49l25.952.3a18.547,18.547,0,0,0,1.575,8.311c1.456,3.28,16.078,3.659,27.124,5.861C466.85,3727.248,468.768,3734.2,468.768,3734.2Z" fill="#758fe8"/>
              <path id="Path_1015" data-name="Path 1015" d="M442.425,3708.281l-25.952-.3c-.71,1.918-1.1,6.026-1.314,10.49.2.037.407.087.612.131a187.123,187.123,0,0,0,26.859-6.719A16.457,16.457,0,0,1,442.425,3708.281Z" fill="#f2f2f2" style="mix-blend-mode: multiply;isolation: isolate"/>
              <path id="Path_1016" data-name="Path 1016" d="M431.367,3736.033c-9.495-.4-16.4-.746-16.4-.746s-.178-8.951.189-16.812c5.778,1.077,14.444,5.339,15.983,14.266A16.351,16.351,0,0,1,431.367,3736.033Z" fill="#5a6eb3"/>
              <path id="Path_1017" data-name="Path 1017" d="M484.444,3737.027c-6.381.829-34.631-.2-53.077-.994a16.351,16.351,0,0,0-.225-3.292c5.174.509,22.993,1.5,37.626,1.457,9.8-.036,18.174-.557,20.364-1.989C490.7,3734.541,489.63,3736.353,484.444,3737.027Z" fill="#5a6eb3"/>
              <path id="Path_1018" data-name="Path 1018" d="M489.132,3732.209c-2.19,1.432-10.56,1.953-20.364,1.989,0,0-1.918-6.95,2.356-11.745a31.927,31.927,0,0,1,9.164,2.936C484.527,3727.793,487.8,3730.2,489.132,3732.209Z" fill="#f2f2f2"/>
            </g>
            <g id="Group_369" data-name="Group 369">
              <path id="Path_1019" data-name="Path 1019" d="M489.972,3442.281c3.132,20.743,6.327,93.256,0,113.234-2.835,8.951-.55,150.159-.55,150.159H457.013s-7.384-59.8-12.5-92.192,5.541-43.9,4.263-54.983-5.661-115.851-5.661-115.851Z" fill="#b39a88"/>
              <path id="Path_1020" data-name="Path 1020" d="M397.759,3442.648c-4.249,24.07-2.385,65.114,8.821,95.676,3.126,8.524-2.609,18.839-4.03,42.708s8.763,131.177,8.763,131.177l39.781-3.126s9.182-140.438,5.213-153.142c-1.421-4.546,5.4-52.567,4.546-71.89s3.694-24.721,3.694-24.721l3.818-24.169Z" fill="#d0b49f"/>
            </g>
            <path id="Path_1021" data-name="Path 1021" d="M489.972,3442.281l-22.76.179,1.153-7.3-70.606,7.487a170.193,170.193,0,0,0-2.046,31.931c25.9-.8,75.763-16.128,95.4-22.477C490.744,3448.175,490.357,3444.835,489.972,3442.281Z" fill="#fcebde" style="mix-blend-mode: multiply;isolation: isolate"/>
            <g id="Group_370" data-name="Group 370">
              <path id="Path_1022" data-name="Path 1022" d="M484.8,3199.332c4.463-8.239,5.881-14.772,5.031-17.147-4.974-13.9-18.754-19.791-32.109-18.086s-24.437,22.732-26.994,30.688,5.848,23.3,7.755,26.142a4.122,4.122,0,0,0,5,1.515" fill="#6b4a48"/>
              <path id="Path_1023" data-name="Path 1023" d="M467.935,3244.68l-1.683,38.193-40.065-13.639,20.175-54.557Z" fill="#fb926b"/>
              <path id="Path_1024" data-name="Path 1024" d="M467.935,3244.68l-.644,14.6L448.333,3231.9l-1.972-17.227Z" fill="#f07164"/>
              <path id="Path_1025" data-name="Path 1025" d="M483.869,3186.263c1.5,10.651,1.137,28.131,0,35.234s-3.694,26.142-9.093,25.29-23.016-8.241-26.71-15.344-1.705-16.765-1.705-16.765-10.8,1.421-7.1-9.377,9.661-6.251,9.661-6.251,5.683-12.219,8.524-14.208S482.9,3179.384,483.869,3186.263Z" fill="#fb926b"/>
            </g>
            <g id="Group_371" data-name="Group 371">
              <path id="Path_1026" data-name="Path 1026" d="M492.678,3282.874c16.2,16.907,32.819,63.791,32.819,63.791s35.945-25.147,42.764-29.835,12.929-32.536,18.044-44.044,10.087,1.137,11.792,10.088-5.234,17.047-4.688,18.611c.955,2.737,4.827.143,4.684,2.842-.265,5.016-.987,1.743-10.651,11.224-5.731,5.621-31.683,61.8-59.388,63.081s-52.106-53.7-52.106-53.7S471.793,3301.77,492.678,3282.874Z" fill="#fb926b"/>
              <path id="Path_1027" data-name="Path 1027" d="M467.009,3265.685c-3.457,8.1-23.234,11.637-37.143-6.4,0,0-20.41,9.968-30.016,28.136-6.972,13.187-3.873,27.243-4.351,61.66-1.137,81.836,0,93.2,0,93.2s65.384,11.243,94.473,0c4.411-1.7,6.684-151.735,2.706-159.407S467.009,3265.685,467.009,3265.685Z" fill="#fdb349"/>
              <path id="Path_1028" data-name="Path 1028" d="M430.532,3346.061l-35.205,16.252c-.84,69.843.172,79.968.172,79.968s16.719,2.874,37.008,4.263C427.318,3403.921,431.051,3358.124,430.532,3346.061Z" fill="#fcebde" style="mix-blend-mode: multiply;isolation: isolate"/>
            </g>
            <path id="Path_1029" data-name="Path 1029" d="M492.678,3282.874c-20.885,18.9-16.73,42.054-16.73,42.054a109.167,109.167,0,0,0,4.534,14.2c2.731,6.982,6.791,15.392,12.427,22.459l25.969-31.86C512.548,3314.553,502.534,3293.162,492.678,3282.874Z" fill="#fdb349"/>
            <g id="Group_372" data-name="Group 372">
              <path id="Path_1030" data-name="Path 1030" d="M433.433,3301.059c1.954,28.059-11.935,82.688-14.918,85.245s6.7,56.249,11.392,78.413c0,0,13.213,10.229,15.77,16.2a12.86,12.86,0,0,1,0,10.655,121.261,121.261,0,0,0,1.137,14.492c.994,5.967-5.977,15.344-14.426,1.705s-15.268-36.656-15.268-36.656-20.769-34.511-27.162-69.462-2.267-95.946,9.892-114.228S432.828,3292.387,433.433,3301.059Z" fill="#fb926b"/>
              <path id="Path_1031" data-name="Path 1031" d="M433.432,3301.059c-.6-8.672-21.422-31.921-33.582-13.639-8.016,12.053-15.733,40.988-16.054,70.469l42.391,10.334C430.98,3349.142,434.711,3319.416,433.432,3301.059Z" fill="#fdb349"/>
            </g>
          </g>
          <rect id="Rectangle_274" data-name="Rectangle 274" width="155.539" height="98.67" rx="6.085" transform="translate(528.285 3156.181)" fill="#404040"/>
          <rect id="Rectangle_275" data-name="Rectangle 275" width="23.942" height="23.942" transform="translate(533.668 3209.778) rotate(45)" fill="#404040"/>
          <text id="THAT_S_NOT_OKAY_" data-name="THAT’S NOT
OKAY!" transform="translate(544.742 3198.747)" fill="#fafafa" font-size="39.114" font-family="Knockout-HTF48-Featherweight, Knockout HTF48-Featherweight" letter-spacing="0.01em"><tspan x="0" y="0">THAT</tspan><tspan y="0" font-family="SegoeUI-Semibold, Segoe UI" font-weight="600">’</tspan><tspan y="0">S NOT</tspan><tspan x="0" y="36.703">OKAY!</tspan></text>
        </g>
      </g>
    </g>
  </g>
</svg>
