<svg width="935" height="687" viewBox="0 0 935 687" fill="none" xmlns="http://www.w3.org/2000/svg">
<g clip-path="url(#clip0)">
<path d="M935 0H0V686.671H935V0Z" fill="#FAFAFA"/>
<path d="M285.865 257.579H87.9869V440H285.865V257.579Z" fill="#FCFCFC"/>
<path d="M258.396 280.291H112.622V417.289H258.396V280.291Z" fill="#E6DADA"/>
<path d="M258.396 285.016C260.659 283.409 260.073 281.833 259.47 280.29H193.717C175.225 310.279 160.898 353.305 160.898 373.063C160.89 381.487 162.724 389.81 166.273 397.45C169.822 405.09 174.999 411.861 181.441 417.289H256.117C257.917 415.767 259.623 414.138 258.392 412.41L258.396 285.016Z" fill="#FCFCFC"/>
<path d="M163.69 324.3C149.552 320.408 130.808 329.559 112.622 344.04V417.289H190.122C192.853 380.284 183.098 329.641 163.69 324.3Z" fill="#E6DADA"/>
<path d="M112.622 353.109C123.14 359.15 135.289 361.735 147.355 360.5C159.422 359.266 170.796 354.274 179.873 346.229C188.949 338.183 195.271 327.49 197.945 315.66C200.619 303.829 199.51 291.457 194.776 280.29H112.622V353.109Z" fill="#F2ECEC"/>
<path d="M820.852 176.525H85.29V490.157H820.852V176.525Z" fill="#E6DADA"/>
<path d="M132.215 196.765H114.795V259.337H132.215V196.765Z" fill="#FAFAFA"/>
<path d="M160.705 196.765H143.285V259.337H160.705V196.765Z" fill="#FAFAFA"/>
<path d="M178.092 195.664L161.7 201.56L182.88 260.438L199.272 254.542L178.092 195.664Z" fill="#FAFAFA"/>
<path d="M217.685 196.765H200.265V259.337H217.685V196.765Z" fill="#FAFAFA"/>
<path d="M577.57 196.765H560.15V259.337H577.57V196.765Z" fill="#FAFAFA"/>
<path d="M611.06 196.765H593.64V259.337H611.06V196.765Z" fill="#FAFAFA"/>
<path d="M628.446 195.664L612.054 201.56L633.234 260.438L649.626 254.542L628.446 195.664Z" fill="#FAFAFA"/>
<path d="M668.04 196.765H650.62V259.337H668.04V196.765Z" fill="#FAFAFA"/>
<path d="M419.259 393.714H401.839V456.286H419.259V393.714Z" fill="#FAFAFA"/>
<path d="M447.749 393.714H430.329V456.286H447.749V393.714Z" fill="#FAFAFA"/>
<path d="M465.136 392.612L448.744 398.509L469.924 457.387L486.316 451.491L465.136 392.612Z" fill="#FAFAFA"/>
<path d="M504.729 393.714H487.309V456.286H504.729V393.714Z" fill="#FAFAFA"/>
<path d="M274.665 196.765H257.245V259.337H274.665V196.765Z" fill="#FAFAFA"/>
<path d="M314.435 197.79L297.3 194.65L286.021 256.197L303.155 259.337L314.435 197.79Z" fill="#FAFAFA"/>
<path d="M331.645 196.765H314.225V259.337H331.645V196.765Z" fill="#FAFAFA"/>
<path d="M360.135 196.765H342.715V259.337H360.135V196.765Z" fill="#FAFAFA"/>
<path d="M585.031 394.772H567.611V457.344H585.031V394.772Z" fill="#FAFAFA"/>
<path d="M624.8 395.796L607.665 392.656L596.386 454.203L613.52 457.343L624.8 395.796Z" fill="#FAFAFA"/>
<path d="M642.011 394.772H624.591V457.344H642.011V394.772Z" fill="#FAFAFA"/>
<path d="M670.501 394.772H653.081V457.344H670.501V394.772Z" fill="#FAFAFA"/>
<path d="M453.454 197.783L436.317 194.654L425.077 256.208L442.214 259.337L453.454 197.783Z" fill="#FAFAFA"/>
<path d="M435.39 201.205L419.207 194.76L396.055 252.889L412.239 259.335L435.39 201.205Z" fill="#FAFAFA"/>
<path d="M470.704 196.765H453.284V259.337H470.704V196.765Z" fill="#FAFAFA"/>
<path d="M499.194 196.765H481.774V259.337H499.194V196.765Z" fill="#FAFAFA"/>
<path d="M312.188 403.459L295.051 400.33L283.811 461.884L300.948 465.013L312.188 403.459Z" fill="#FAFAFA"/>
<path d="M294.123 406.882L277.94 400.437L254.788 458.566L270.972 465.012L294.123 406.882Z" fill="#FAFAFA"/>
<path d="M329.438 402.442H312.018V465.014H329.438V402.442Z" fill="#FAFAFA"/>
<path d="M357.928 402.442H340.508V465.014H357.928V402.442Z" fill="#FAFAFA"/>
<path d="M744.7 294.396L727.563 291.267L716.323 352.821L733.46 355.95L744.7 294.396Z" fill="#FAFAFA"/>
<path d="M726.635 297.818L710.452 291.373L687.3 349.502L703.484 355.948L726.635 297.818Z" fill="#FAFAFA"/>
<path d="M761.95 293.378H744.53V355.95H761.95V293.378Z" fill="#FAFAFA"/>
<path d="M790.44 293.378H773.02V355.95H790.44V293.378Z" fill="#FAFAFA"/>
<path d="M650.62 357.493H668.04V294.921H650.62V357.493Z" fill="#FAFAFA"/>
<path d="M622.13 357.493H639.55V294.921H622.13V357.493Z" fill="#FAFAFA"/>
<path d="M583.564 352.697L599.956 358.594L621.136 299.715L604.744 293.819L583.564 352.697Z" fill="#FAFAFA"/>
<path d="M560.15 357.493H577.57V294.921H560.15V357.493Z" fill="#FAFAFA"/>
<path d="M200.265 357.493H217.685V294.921H200.265V357.493Z" fill="#FAFAFA"/>
<path d="M171.775 357.493H189.195V294.921H171.775V357.493Z" fill="#FAFAFA"/>
<path d="M133.21 352.697L149.602 358.594L170.782 299.715L154.39 293.819L133.21 352.697Z" fill="#FAFAFA"/>
<path d="M114.796 357.493H132.216V294.921H114.796V357.493Z" fill="#FAFAFA"/>
<path d="M772.895 448.575H790.315V386.003H772.895V448.575Z" fill="#FAFAFA"/>
<path d="M744.405 448.575H761.825V386.003H744.405V448.575Z" fill="#FAFAFA"/>
<path d="M705.839 443.779L722.231 449.676L743.411 390.797L727.019 384.901L705.839 443.779Z" fill="#FAFAFA"/>
<path d="M687.425 448.575H704.845V386.003H687.425V448.575Z" fill="#FAFAFA"/>
<path d="M487.655 357.493H505.075V294.921H487.655V357.493Z" fill="#FAFAFA"/>
<path d="M459.165 357.493L476.3 354.353L465.021 292.806L447.886 295.946L459.165 357.493Z" fill="#FAFAFA"/>
<path d="M430.675 357.493H448.095V294.921H430.675V357.493Z" fill="#FAFAFA"/>
<path d="M402.185 357.493H419.605V294.921H402.185V357.493Z" fill="#FAFAFA"/>
<path d="M196.861 465.016H214.281V402.444H196.861V465.016Z" fill="#FAFAFA"/>
<path d="M168.371 465.016L185.506 461.876L174.227 400.329L157.092 403.469L168.371 465.016Z" fill="#FAFAFA"/>
<path d="M139.882 465.016H157.302V402.444H139.882V465.016Z" fill="#FAFAFA"/>
<path d="M111.392 465.016H128.812V402.444H111.392V465.016Z" fill="#FAFAFA"/>
<path d="M787.14 259.287H804.56V196.715H787.14V259.287Z" fill="#FAFAFA"/>
<path d="M758.649 259.287L775.784 256.147L764.505 194.6L747.37 197.74L758.649 259.287Z" fill="#FAFAFA"/>
<path d="M730.16 259.287H747.58V196.715H730.16V259.287Z" fill="#FAFAFA"/>
<path d="M701.67 259.287H719.09V196.715H701.67V259.287Z" fill="#FAFAFA"/>
<path d="M320.106 357.492L337.243 354.363L326.003 292.809L308.867 295.938L320.106 357.492Z" fill="#FAFAFA"/>
<path d="M350.084 357.492L366.267 351.047L343.115 292.917L326.932 299.363L350.084 357.492Z" fill="#FAFAFA"/>
<path d="M291.616 357.493H309.036V294.921H291.616V357.493Z" fill="#FAFAFA"/>
<path d="M263.126 357.493H280.546V294.921H263.126V357.493Z" fill="#FAFAFA"/>
<path d="M280.805 347.231C296.105 346.607 301.949 345.438 300.005 320.107C298.061 294.776 291.517 231.651 281.342 227.751C271.167 223.851 254.99 219.911 252.167 229.09C249.344 238.269 280.805 347.231 280.805 347.231Z" fill="#2F283B"/>
<path d="M251.483 185.659C258.993 173.628 256.313 165.828 242.673 167.268C232.521 162.588 219.54 163.008 216.033 177.348C198.513 186.828 213.862 205.04 216.994 209.041C219.738 212.303 222.82 215.265 226.187 217.879L251.483 185.659Z" fill="#6B4A48"/>
<path d="M227.126 209.431L223.619 240.997L249.339 238.269L241.939 206.898L227.126 209.431Z" fill="#FA7B4E"/>
<path d="M224.441 233.597L237.648 221.317L227.126 209.431L224.441 233.597Z" fill="#C85760"/>
<path d="M220.891 201.247C221.475 204.56 228.685 223.071 237.648 221.317C246.611 219.563 254.578 199.379 251.483 185.659C244.953 186.828 220.833 178.188 223.814 189.946C223.386 188.924 222.577 188.109 221.559 187.673C220.541 187.236 219.393 187.213 218.358 187.608C214.461 188.972 212.707 201.052 220.891 201.247Z" fill="#FA7B4E"/>
<path d="M207.193 243.604C194.993 253.821 189.393 290.028 190.647 314.988C180.472 335.306 173.867 366.222 173.867 366.222C173.867 366.222 186.337 372.977 186.597 371.938C186.857 370.899 211.017 323.355 211.017 323.355C211.017 323.355 224.73 261.14 207.193 243.604Z" fill="#FA7B4E"/>
<path d="M207.193 243.604C198.154 251.174 189.976 271.451 188.286 292.41C195.531 295.137 207.586 300.295 214.405 302.952C216.899 283.176 218.192 254.603 207.193 243.604Z" fill="#E03C4A"/>
<path d="M269.994 231.839C287.66 243.604 294.614 300.354 292.276 334.128C292.276 334.128 282.326 328.188 276.176 313.668C272.296 304.512 272.107 291.727 269.997 275.551C268.425 263.525 264.798 255.676 269.994 231.839Z" fill="#FA7B4E"/>
<path d="M269.994 231.839C264.794 255.676 268.425 263.522 269.994 275.551C270.811 281.817 270.494 287.328 271.713 292.194L293.013 283.008C290.078 259.718 280.917 239.112 269.994 231.839Z" fill="#E03C4A"/>
<path d="M173.867 366.225C172.567 374.669 163.994 385.191 167.501 388.308C171.008 391.425 183.633 400.671 183.633 400.671L188.286 398.026L183.086 380.774L186.593 371.941L175.87 367.293" fill="#FA7B4E"/>
<path d="M236.578 560.568L234.834 568.34C234.834 568.34 217.773 577.008 218.034 582.681C218.295 588.354 261.161 566.496 260.642 565.734C260.123 564.972 255.048 553.061 255.048 553.061L236.578 560.568Z" fill="#333333"/>
<path d="M209.2 357.432C203.744 377.394 190.8 452.607 190.647 458.452C190.494 464.297 227.126 564.41 227.126 564.41L256.744 552.371L230.633 458.842C230.633 458.842 239.597 412.077 239.597 410.518C239.597 408.959 241.545 357.345 240.376 357.432C239.207 357.519 209.2 357.432 209.2 357.432Z" fill="#754748"/>
<path d="M281.059 565.734C281.059 565.734 284.802 585.234 284.413 589.393C284.413 589.393 238.813 600.824 233.361 599.525C227.909 598.226 237.261 588.18 254.925 582.681L262.216 571.568L281.059 565.734Z" fill="#333333"/>
<path d="M276.617 352.842C282.852 371.158 277.396 412.467 274.278 453.386L284.417 564.41C284.417 564.41 258.057 575.267 256.117 570.855C255.317 569.037 240.384 466.934 240.384 466.934C240.384 466.934 227.914 410.345 240.384 357.434L276.617 352.842Z" fill="#804E4F"/>
<path d="M246.857 227.751C244.142 232.624 229.293 236.028 224.441 233.597C223.229 233.982 210.034 239.724 207.193 243.604C207.113 248.123 203.939 355.375 204.913 362.39C205.887 369.405 280.513 370.963 281.295 361.221C281.677 356.447 275.271 325.194 272.673 294.828C269.973 263.22 271.04 232.536 269.994 231.839C267.655 230.28 246.857 227.751 246.857 227.751Z" fill="#E03C4A"/>
<path d="M256.744 229.09C249.989 248.012 243.882 273.538 243.033 282.046C242.184 290.554 246.15 334.216 280.805 347.231L280.221 338.175C280.221 338.175 253.999 322.291 251.677 292.438C249.859 269.056 264.277 230.328 264.277 230.328L256.744 229.09Z" fill="#2F283B"/>
<path d="M292.276 334.125C292.276 323.993 287.613 303.705 262.719 288.798L252.587 274.249L240.896 269.049L236.479 288.154L244.793 290.612L253.626 295.812C253.626 295.812 267.295 339.6 292.276 334.125Z" fill="#FA7B4E"/>
<path d="M159.417 585.483C159.955 587.115 148.75 585.347 135.553 576.922C137.897 575.412 142.52 572.515 148.176 569.372C152.617 573.474 157.125 578.543 159.417 585.483Z" fill="#333333"/>
<path d="M136.205 555.397C135.869 559.788 141.953 563.631 148.172 569.372C142.516 572.515 137.893 575.412 135.549 576.922C130.507 573.701 125.83 569.942 121.598 565.713L121.088 553.024L136.205 555.397Z" fill="#A65348"/>
<path d="M103.723 584.725C103.208 578.522 104.836 572.33 108.336 567.182L115.098 565.976C117.008 571.176 119.068 577.91 118.873 584.434C113.517 585.681 107.336 585.204 103.723 584.725Z" fill="#A65348"/>
<path d="M118.873 584.432C118.705 590.096 116.838 595.599 111.691 599.792C107.385 598.372 104.225 592.066 103.723 584.723C107.336 585.204 113.517 585.681 118.873 584.432Z" fill="#333333"/>
<path d="M89.7669 356.217C83.1229 399.985 101.96 442.987 96.596 469.258C91.232 495.529 105.061 569.237 105.061 569.237L118.961 568.679L129.801 396.025L89.7669 356.217Z" fill="#4D4D4D"/>
<path d="M155.317 370.497C158.046 425.111 149.355 453.706 149.902 459.403C150.449 465.1 145.167 540.355 142.377 550.003C139.587 559.651 119.813 555.243 119.813 555.243L129.805 396.03L155.317 370.497Z" fill="#333333"/>
<g style="mix-blend-mode:multiply">
<path d="M92.033 415.167C95.12 434.542 98.76 451.948 97.169 465.533C115.079 461.279 136.984 455.352 151.06 449.771C153.069 437.805 154.447 425.741 155.187 413.63L92.033 415.167Z" fill="#E2E1F2"/>
</g>
<path d="M131.979 193.168C140.866 204.56 136.942 241.214 136.942 241.214H113.53L131.979 193.168Z" fill="#1D1924"/>
<path d="M156.636 349.753C156.625 348.714 156.105 298.419 151.311 271.453C150.52 267.001 139.02 244.984 124.8 232.392C118.177 226.526 111.487 225.744 101.78 230.936C94.78 234.681 80.743 233.851 80.743 233.851L78.821 302.651C78.7543 305.097 78.6876 307.522 78.621 309.926L76.986 368.426L77.207 368.374C76.647 402.72 77.246 436.474 80.063 449.821C86.451 452.208 157.508 440.714 157.053 433.571C156.058 417.991 157.945 393.214 156.636 349.753Z" fill="#C6CBE4"/>
<g style="mix-blend-mode:multiply">
<path d="M155.717 319.225L91.8169 320.878L78.9169 299.319L78.8239 302.65C78.7573 305.096 78.6906 307.521 78.6239 309.925L77.5029 350.035C82.6699 352.971 143.603 337.775 155.903 323.409L155.725 319.385L155.717 319.225Z" fill="#E6E6E6"/>
</g>
<path d="M137.317 276.597C140.398 269.861 153.677 264.097 153.677 264.097L153.177 284.818H142.04L137.317 276.597Z" fill="#A7ABBF"/>
<path d="M135.702 204.041C136.686 197.884 131.624 187.816 117.05 186.297C102.476 184.778 82.272 205.02 76.983 219.657C73.175 230.198 67.217 234.113 80.329 243.181C80.329 243.181 94.954 243.813 103.654 233.853L103.925 221.889L135.232 210.427L135.702 204.041Z" fill="#2F283B"/>
<path d="M103.654 233.853C107.859 237.225 112.109 245.178 116.06 245.337C119.295 245.468 120.375 235.646 123.616 231.959C130.816 223.768 120.106 215.965 120.106 215.965L103.925 221.889L103.654 233.853Z" fill="#FA6834"/>
<path d="M128.604 209.625C125.304 209.419 112.978 208.996 105.404 204.194C104.639 206.467 104.079 209.12 104.079 209.12L103.655 219.737C104.597 229.965 110.455 240.273 119.083 238.912C126.398 237.758 134.231 220.438 135.531 208.202C134.283 209.275 132.017 209.844 128.604 209.625Z" fill="#FF895F"/>
<path d="M138.317 239.817C141.499 245.035 165.696 282.689 164.98 311.188C164.839 316.806 147.824 325.232 143.17 309.443C138.516 293.654 144.813 269.543 135.143 250.594C134.403 249.144 132.071 245.387 130.935 245.577C120.91 247.259 119.903 239.877 111.423 242.166C107.733 243.16 107.883 232.304 113.023 230.366C118.163 228.428 134.781 236.089 138.317 239.817Z" fill="#FA7B4E"/>
<path d="M153.679 264.098C153.679 264.098 147.537 276.057 137.319 276.598C137.319 276.598 135.462 328.098 158.044 318.528C178.4 309.897 153.679 264.098 153.679 264.098Z" fill="#BABFD6"/>
<path d="M94.0519 313.225C111.62 309.174 133.435 313.415 133.435 313.415L133.387 330.234C109.635 339.954 83.2679 337.827 78.9869 324.76C66.2609 285.932 75.3429 244.299 86.1269 233.85C107.002 255.728 100.138 299.316 98.5879 311.705" fill="#BABFD6"/>
<path d="M133.387 314.052C136.52 313.402 150.287 307.652 150.287 307.652C148.52 298.192 163.315 293.788 163.687 288.761C167.659 291.946 167.141 307.043 167.18 311.634C167.219 316.225 154.935 319.36 146.286 322.534C142.12 324.156 137.849 325.492 133.502 326.534L133.387 314.052Z" fill="#FA7B4E"/>
<path d="M76.983 219.657C73.175 230.198 67.217 234.113 80.329 243.181C80.329 243.181 100.351 259.751 103.654 233.853C104.301 228.778 108.29 201.897 108.29 201.897C102.99 196.664 81.644 206.76 76.983 219.657Z" fill="#2F283B"/>
<path d="M105.403 204.199C111.736 210.999 133.759 226.468 133.937 225.948C138.321 213.169 136.703 205.91 136.703 205.91L105.403 204.199Z" fill="#2F283B"/>
<path d="M697.667 217.492L739.853 223.9L749.953 270.969L706.134 268.983C706.134 268.983 697.817 218.042 697.667 217.492Z" fill="#FF895F"/>
<path d="M739.853 223.9L745.253 249.092L704.645 242.906L708.009 215.236L723.468 211.851L739.853 223.9Z" fill="#C85760"/>
<path d="M717.302 214.364C717.502 215.528 722.657 231.546 720.784 235.242C718.815 239.129 696.153 246.679 690 244.921C683.847 243.163 668 198.567 676.354 183.186C684.708 167.805 709.354 169.372 705.222 194.778C705.222 194.778 712.853 183.218 720.522 196.751C724.424 203.645 723.454 215.682 717.302 214.364Z" fill="#FF895F"/>
<path d="M677.171 181.795C670.054 179.395 670.197 157.175 673.455 153.029C676.444 149.229 676.771 146.978 693.636 151.1C707.283 154.435 723.336 141.7 735.415 159.146C736.78 161.118 750.72 168.152 752.193 183.546C753.163 193.681 747.038 216.462 739.853 223.9L734.362 226.98L717.302 214.364C726.202 213.664 719.037 182.008 705.222 194.778C701.605 191.357 705.146 184.678 700.805 183.869C697.133 183.181 677.171 181.795 677.171 181.795Z" fill="#2F283B"/>
<path d="M671.927 477.213C662.517 507.325 664.996 614.779 678.708 731.104H731.135L721.228 477.213H671.927Z" fill="#F2AB46"/>
<path d="M776.303 477.213C783.563 512.702 793.241 634.943 780.336 731.104H721.445C721.445 731.104 709.358 597.393 707.745 537.704L706.669 477.211L776.303 477.213Z" fill="#FDB349"/>
<g style="mix-blend-mode:multiply" opacity="0.5">
<path d="M670.377 483.392C670.012 485.173 669.672 487.109 669.357 489.192C686.224 499.605 739.249 513.449 780.328 504.304C779.56 497.673 778.769 491.769 777.984 486.732L685.564 480.744L670.377 483.392Z" fill="#FFCCCC"/>
</g>
<path d="M702.099 262.934C682.741 302.994 656.124 458.662 664.19 484.472C664.19 484.472 698.717 503.83 780.525 486.892L744.69 249.457C744.69 249.457 745.654 278.525 702.099 262.934Z" fill="white"/>
<g style="mix-blend-mode:multiply" opacity="0.5">
<path d="M734.362 279.334C722.532 325.578 717.155 437.422 737.116 493.134C737.116 493.134 781 490.034 780.525 486.892C780.05 483.75 734.362 279.334 734.362 279.334Z" fill="#CCE1FF"/>
</g>
<path d="M702.099 279.334C702.099 279.334 669.299 437.96 664.999 477.213H645.639V458.931C632.739 420.753 652.091 302.994 702.099 262.931V279.334Z" fill="#2C519C"/>
<path d="M734.362 279.334C725.762 309.446 717.712 387.953 746.47 477.213L779.53 472.374L792.43 265.723L758.017 252.449L734.362 279.334Z" fill="#2C519C"/>
<path d="M792.435 265.725C804.429 277.811 827.924 312.137 829.919 393.267C842.98 446.028 841.827 488.109 835.452 506.252L838.658 527.223L812.868 530.987L809.104 512.167C782.756 489.583 767.162 351.928 767.162 351.928C767.162 351.928 758.017 301.582 792.435 265.725Z" fill="#2C519C"/>
<path d="M702.099 262.934C652.629 287.934 615.77 329.745 615.77 329.745C615.77 329.745 539.47 349.212 526.021 371.93L507.73 375.291L510.336 400.211L532.692 398.411C532.692 398.411 594.799 421.692 633.515 382.17C633.515 382.17 657.468 384.814 679.515 346.86C701.562 308.906 702.099 262.934 702.099 262.934Z" fill="#2C519C"/>
<path d="M734.362 279.334L749.418 235.779C749.418 235.779 761.247 244.379 758.018 252.449C754.789 260.519 734.362 279.334 734.362 279.334Z" fill="#213974"/>
<path d="M693.932 257.557L702.732 248.175L707.418 269.549L702.1 279.334C702.1 279.334 695.545 272.344 693.932 257.557Z" fill="#213974"/>
<path d="M834.575 527.817C834.575 527.817 844.324 543.89 845.4 547.117C846.476 550.344 832.763 578.574 829.537 582.069C826.311 585.564 828.462 551.419 826.042 548.193C823.622 544.967 822.816 555.452 820.127 552.493C817.438 549.534 816.367 530.474 816.367 530.474L834.575 527.817Z" fill="#FF895F"/>
<path d="M508.337 378.576C497.852 377.43 475.805 370.176 476.881 373.532C477.957 376.888 482.527 383.007 482.527 383.007C482.527 383.007 465.206 387.077 462.706 384.995C460.206 382.913 437.274 368.895 438.619 375.117C439.964 381.339 458.245 407.848 464.698 407.579C471.151 407.31 509.95 396.519 509.95 396.519L508.337 378.576Z" fill="#FF895F"/>
<path d="M645.639 477.213V458.931H667.586L664.996 477.213H645.639Z" fill="#213974"/>
<path d="M746.47 477.213L779.53 472.374L780.53 456.431L741.93 462.119L746.47 477.213Z" fill="#213974"/>
<path d="M809.104 512.165L835.452 506.25L838.658 527.221L812.868 530.985L809.104 512.165Z" fill="#213974"/>
<path d="M507.73 375.291L526.021 371.93L532.692 398.412L510.336 400.212L507.73 375.291Z" fill="#213974"/>
<path d="M749.417 235.779C746.661 234.637 742.241 235.037 742.241 235.037L745.087 248.303L749.417 235.779Z" fill="#213974"/>
<path d="M531.764 216.918C535.432 208.751 542.872 175.871 508.552 172.751C485.032 168.911 432.712 186.606 449.512 234.999C449.512 234.999 406.312 244.991 421.912 275.711C437.512 306.431 485.032 279.68 488.389 255.511L531.764 216.918Z" fill="#6B4A48"/>
<path d="M507.539 257.736L499.639 300.268L503.87 332.468L467.507 298.508L487.427 240.188L507.539 257.736Z" fill="#FF895F"/>
<path d="M507.539 257.736L502.191 265.811L472.951 282.585L487.431 240.191L507.539 257.736Z" fill="#C85760"/>
<path d="M530.152 209.711C535.192 221.231 530.632 268.347 518.872 275.869C507.112 283.391 480.712 245.469 480.712 245.469C480.712 245.469 467.512 244.924 469.912 234.997C472.312 225.07 480.952 231.069 480.952 231.069C480.952 231.069 499.912 194.831 530.152 209.711Z" fill="#FF895F"/>
<path d="M523.432 491.625C526.552 509.947 542.152 686.667 542.152 686.667H498.952L482.392 593.227V492.215L523.432 491.625Z" fill="#4C4981"/>
<path d="M428.389 495.311C420.472 514.774 411.832 514.031 424.072 629.231L413.992 686.671H456.472C456.472 686.671 503.872 583.151 501.741 491.708C495.817 490.996 428.389 495.311 428.389 495.311Z" fill="#625E99"/>
<g style="mix-blend-mode:multiply">
<path d="M524.2 497.199C517.521 496.492 498.726 494.499 478.97 492.381C457.341 493.458 428.389 495.311 428.389 495.311C423.433 507.495 418.194 511.763 417.971 541.511C445.386 540.04 504.589 535.201 526.72 520.349C525.717 510.545 524.855 502.516 524.2 497.199Z" fill="#E2E1F2"/>
</g>
<path d="M474.472 289.246C479.933 310.111 489.592 325.631 500.901 309.84C505.142 303.918 525.432 508.031 525.432 508.031C499.944 530.941 431.992 512.951 431.992 512.951L474.472 289.246Z" fill="white"/>
<path d="M442.792 524.388L377.272 506.831C377.272 506.831 418.312 390.191 421.912 362.831C425.512 335.471 439.912 279.68 439.912 279.68L476.772 271.398C476.772 271.398 479.517 458.425 442.792 524.388Z" fill="#E96D61"/>
<path d="M392.392 440.111C393.112 441.071 404.248 463.823 404.248 463.823C404.248 463.823 427.135 461.829 447.619 472.072C450.019 473.272 447.712 454.978 437.392 450.178C430.875 447.269 423.758 445.958 416.632 446.351C416.632 446.351 405.438 435.031 403.955 427.491C402.472 419.951 392.392 440.111 392.392 440.111Z" fill="#FF895F"/>
<path d="M439.912 279.68C406.552 302.111 360.403 343.985 347.512 365.471C343.192 372.671 395.049 459.061 395.049 459.061C395.049 459.061 413.512 434.831 413.032 431.951C412.552 429.071 402.232 377.951 403.192 376.511C404.152 375.071 451.672 343.671 451.672 343.671" fill="#E96D61"/>
<path d="M465.249 447.467L440.149 324.149H453.589C453.589 324.149 448.309 300.671 451.669 277.402L476.769 271.402C478.932 282.558 477.286 412.398 465.249 447.467Z" fill="#FF8F85"/>
<path d="M511.672 306.698L530.703 327.016L560.152 478.793L526.765 497.471L526.552 338.591L511.672 306.698Z" fill="#E96D61"/>
<path d="M501.263 290.825L511.672 306.697L526.552 338.59L531 495.101V516.901L507.54 505.132L499.64 300.27L501.263 290.825Z" fill="#BF4E48"/>
<path d="M551.624 483.564L557.752 497.471C557.752 497.471 587.872 494.883 597.088 505.203C599.533 507.941 556.312 515.231 551.512 514.751C546.712 514.271 538.401 490.962 538.401 490.962L551.624 483.564Z" fill="#FF895F"/>
<path d="M449.517 234.999C449.517 234.999 406.317 244.991 421.917 275.711C437.517 306.431 474.477 274.001 484.073 250.038C484.068 250.038 460.552 246.911 449.517 234.999Z" fill="#6B4A48"/>
<path d="M180.348 76.77H53.753C50.3923 76.77 47.668 79.4944 47.668 82.855V154.025C47.668 157.386 50.3923 160.11 53.753 160.11H180.348C183.709 160.11 186.433 157.386 186.433 154.025V82.855C186.433 79.4944 183.709 76.77 180.348 76.77Z" fill="#404040"/>
<path d="M117.05 138.937L102.751 153.236L117.05 167.535L131.349 153.236L117.05 138.937Z" fill="#404040"/>
<path d="M71.3466 106.685V103.514H66.2921V84.6831H62.7903V106.685H71.3466ZM81.7081 106.685V103.481H76.4223V96.7743H80.0893V93.8671H76.4223V87.7885H81.7081V84.6831H72.9205V106.685H81.7081ZM92.8822 87.8876V84.6831H82.6411V87.8876H86.0438V106.685H89.5456V87.8876H92.8822ZM98.3381 83.0974L98.5693 83.4608C98.283 84.606 97.8646 85.8944 97.314 87.326C96.7854 88.7355 96.2568 90.0239 95.7282 91.1912H93.5809C93.8011 90.3543 94.0104 89.4623 94.2086 88.5153C94.4288 87.5462 94.627 86.5992 94.8032 85.6742C94.9794 84.7271 95.1226 83.8682 95.2327 83.0974H98.3381ZM109.927 101.664C109.927 98.8886 108.342 96.6752 106.194 94.4617C104.146 92.2814 103.188 91.2242 103.188 89.0769C103.188 87.9536 103.882 87.2929 104.906 87.2929C106.029 87.2929 106.591 88.1188 106.591 89.3412V91.3233H109.762V89.3412C109.762 86.3349 107.846 84.2866 104.906 84.2866C101.503 84.2866 99.7852 86.6983 99.7852 89.6715C99.7852 92.4796 101.9 95.0564 103.717 96.8734C105.567 98.8225 106.525 100.243 106.525 102.159C106.525 103.381 105.93 104.141 104.675 104.141C103.452 104.141 102.825 103.348 102.825 101.961V100.078H99.62V102.027C99.62 105.132 101.602 107.081 104.774 107.081C107.648 107.081 109.927 105.165 109.927 101.664ZM125.929 101.664C125.929 98.8886 124.343 96.6752 122.196 94.4617C120.148 92.2814 119.19 91.2242 119.19 89.0769C119.19 87.9536 119.883 87.2929 120.908 87.2929C122.031 87.2929 122.592 88.1188 122.592 89.3412V91.3233H125.764V89.3412C125.764 86.3349 123.848 84.2866 120.908 84.2866C117.505 84.2866 115.787 86.6983 115.787 89.6715C115.787 92.4796 117.901 95.0564 119.718 96.8734C121.568 98.8225 122.526 100.243 122.526 102.159C122.526 103.381 121.932 104.141 120.676 104.141C119.454 104.141 118.826 103.348 118.826 101.961V100.078H115.622V102.027C115.622 105.132 117.604 107.081 120.775 107.081C123.65 107.081 125.929 105.165 125.929 101.664ZM137.842 106.685L134.175 84.6831H130.31L126.643 106.685H129.847L130.508 102.39H133.713L134.274 106.685H137.842ZM133.316 99.4502H130.938L132.226 90.4644L133.316 99.4502ZM148.85 84.6831H145.382L143.102 93.9001L140.757 84.6831H137.189L141.153 97.8314V106.685H144.655V97.8314L148.85 84.6831ZM72.5359 135.664C72.5359 132.889 70.9502 130.675 68.8029 128.462C66.7546 126.281 65.7966 125.224 65.7966 123.077C65.7966 121.954 66.4904 121.293 67.5145 121.293C68.6377 121.293 69.1993 122.119 69.1993 123.341V125.323H72.3708V123.341C72.3708 120.335 70.4547 118.287 67.5145 118.287C64.1118 118.287 62.3939 120.698 62.3939 123.672C62.3939 126.48 64.5082 129.056 66.3252 130.873C68.1752 132.822 69.1332 134.243 69.1332 136.159C69.1332 137.381 68.5386 138.141 67.2832 138.141C66.0609 138.141 65.4332 137.348 65.4332 135.961V134.078H62.2287V136.027C62.2287 139.132 64.2109 141.081 67.3823 141.081C70.2565 141.081 72.5359 139.165 72.5359 135.664ZM84.744 135.862V123.506C84.744 120.467 82.6628 118.287 79.4913 118.287C76.3199 118.287 74.2386 120.467 74.2386 123.506V135.862C74.2386 138.934 76.3199 141.081 79.4913 141.081C82.6628 141.081 84.744 138.934 84.744 135.862ZM81.2092 136.126C81.2092 137.183 80.5815 137.91 79.4913 137.91C78.4011 137.91 77.7734 137.183 77.7734 136.126V123.242C77.7734 122.185 78.4011 121.458 79.4913 121.458C80.5815 121.458 81.2092 122.185 81.2092 123.242V136.126ZM101.39 140.685V118.683H96.7322L94.8492 129.816L94.2215 134.078L93.6269 129.816L91.7108 118.683H86.9866V140.685H90.092V124.332L90.7527 128.957L92.7018 140.685H95.3447L97.393 128.957L98.0867 124.332V140.685H101.39ZM112.615 140.685V137.481H107.329V130.774H110.996V127.867H107.329V121.788H112.615V118.683H103.827V140.685H112.615ZM123.789 121.888V118.683H113.548V121.888H116.951V140.685H120.452V121.888H123.789ZM136.017 140.685V118.683H132.515V128.23H128.815V118.683H125.314V140.685H128.815V131.435H132.515V140.685H136.017ZM141.978 140.685V118.683H138.476V140.685H141.978ZM155.214 140.685V118.683H152.076V132.162L150.953 128.759L147.517 118.683H144.412V140.685H147.583V127.339L148.805 130.708L152.506 140.685H155.214ZM167.946 140.685V129.684H162.826V132.327H164.544V136.258C164.544 137.216 163.949 138.009 162.76 138.009C161.603 138.009 160.976 137.216 160.976 136.258V123.176C160.976 122.251 161.57 121.458 162.727 121.458C163.916 121.458 164.477 122.218 164.477 123.143V126.281H167.781V123.341C167.781 120.533 165.964 118.287 162.727 118.287C159.489 118.287 157.441 120.599 157.441 123.341V136.027C157.441 139 159.258 141.081 162.165 141.081C163.652 141.081 164.94 140.454 165.535 139.198L166.063 140.685H167.946ZM172.637 140.685V136.787H169.895V140.685H172.637Z" fill="#FAFAFA"/>
</g>
<defs>
<clipPath id="clip0">
<rect width="935" height="731.104" fill="white"/>
</clipPath>
</defs>
</svg>
