<svg xmlns="http://www.w3.org/2000/svg" width="935.45" height="686" viewBox="0 0 935.45 686">
  <g id="Group_438" data-name="Group 438" transform="translate(-117.487 -6479.005)">
    <rect id="Rectangle_361" data-name="Rectangle 361" width="935" height="686" transform="translate(117.487 6479.005)" fill="#fafafa"/>
    <g id="Group_428" data-name="Group 428">
      <g id="Group_418" data-name="Group 418">
        <rect id="Rectangle_362" data-name="Rectangle 362" width="488.82" height="364.68" transform="translate(117.487 6640.845)" fill="#e6dada"/>
        <rect id="Rectangle_363" data-name="Rectangle 363" width="11.88" height="364.68" transform="translate(226.147 6640.845)" fill="#fcfcfc"/>
        <rect id="Rectangle_364" data-name="Rectangle 364" width="11.88" height="364.68" transform="translate(417.307 6640.845)" fill="#fcfcfc"/>
        <rect id="Rectangle_365" data-name="Rectangle 365" width="11.88" height="488.82" transform="translate(606.307 6817.245) rotate(90)" fill="#fcfcfc"/>
      </g>
      <g id="Group_419" data-name="Group 419">
        <rect id="Rectangle_366" data-name="Rectangle 366" width="26.4" height="139.08" transform="translate(170.688 6678.165)" fill="#faeeee"/>
        <rect id="Rectangle_367" data-name="Rectangle 367" width="21.46" height="113.056" transform="translate(204.69 6703.816) rotate(1.044)" fill="#faeeee"/>
        <rect id="Rectangle_368" data-name="Rectangle 368" width="23.049" height="121.427" transform="translate(147.955 6693.829) rotate(7.658)" fill="#faeeee"/>
      </g>
      <g id="Group_420" data-name="Group 420">
        <rect id="Rectangle_369" data-name="Rectangle 369" width="15.12" height="133.326" transform="translate(279.792 7003.025) rotate(170.482)" fill="#faeeee"/>
        <rect id="Rectangle_370" data-name="Rectangle 370" width="15.12" height="133.326" transform="translate(309.13 7001.472) rotate(164.453)" fill="#faeeee"/>
      </g>
      <g id="Group_421" data-name="Group 421">
        <rect id="Rectangle_371" data-name="Rectangle 371" width="31.2" height="108.614" transform="matrix(0.97, 0.244, -0.244, 0.97, 575.224, 6704.3)" fill="#faeeee"/>
        <rect id="Rectangle_372" data-name="Rectangle 372" width="31.2" height="108.614" transform="translate(542.972 6704.518) rotate(20.056)" fill="#faeeee"/>
        <rect id="Rectangle_373" data-name="Rectangle 373" width="24.509" height="100.47" transform="matrix(0.788, 0.615, -0.615, 0.788, 511.668, 6722.973)" fill="#faeeee"/>
      </g>
      <g id="Group_422" data-name="Group 422">
        <rect id="Rectangle_374" data-name="Rectangle 374" width="31.2" height="108.614" transform="translate(196.84 6892.798) rotate(20.056)" fill="#faeeee"/>
        <path id="Path_1250" data-name="Path 1250" d="M123.018,7005.525l-5.531-4.319v-28.421l48.049-61.532,19.317,15.084Z" fill="#faeeee"/>
      </g>
      <g id="Group_423" data-name="Group 423">
        <rect id="Rectangle_375" data-name="Rectangle 375" width="24.909" height="153.444" transform="translate(410.203 6817.245) rotate(-180)" fill="#faeeee"/>
        <rect id="Rectangle_376" data-name="Rectangle 376" width="24.909" height="153.444" transform="matrix(-0.99, -0.142, 0.142, -0.99, 363.83, 6817.245)" fill="#faeeee"/>
        <rect id="Rectangle_377" data-name="Rectangle 377" width="21.702" height="133.687" transform="translate(307.737 6817.018) rotate(-158.369)" fill="#faeeee"/>
        <rect id="Rectangle_378" data-name="Rectangle 378" width="21.702" height="133.687" transform="translate(267.654 6817.017) rotate(-151.663)" fill="#faeeee"/>
      </g>
      <g id="Group_424" data-name="Group 424">
        <rect id="Rectangle_379" data-name="Rectangle 379" width="132.234" height="108.72" transform="translate(451.507 6896.805)" fill="#faeeee"/>
        <path id="Path_1251" data-name="Path 1251" d="M605.118,6878.545H472.884l-21.376,18.26H583.742Z" fill="#f0e4e4"/>
        <path id="Path_1252" data-name="Path 1252" d="M605.118,6878.545v110.42l-21.376,16.56V6896.8Z" fill="#cfc5c5"/>
      </g>
      <path id="Path_1253" data-name="Path 1253" d="M375.744,6955.16l7.751-14.418,16.389-11.684c20-1.918,37.534-7.946,46.274-25.1,0,0-25.274-6.984-46.207,23.556l-15.152,10.8,6.164-11.464h.042l0-.074,5.263-9.789c15.264-12.825,26.163-27.634,23.7-46.6,0,0-25.013,8.614-24.8,46.077l-4.216,7.843-.564-25.793c5.838-19.24,7.276-37.256-5.3-51.864,0,0-16.483,20.328,4.066,51.4l.622,28.437-8.824,16.414,2.521-7.571c4.467-20.019,5.342-28.59-8.593-42.35.245.607-10.542,18.541,7.685,41.222l-4.988,14.976-3.118,5.8c-1.072-.147-2.176-.278-3.3-.4l-2.142-7.423c3.558-12.548,4.768-33.554-4.751-43.773,0,0-10.622,24.207,3.54,43.97l2.049,7.1c-2.374-.218-4.828-.361-7.3-.409l-7.426-38.457a45.805,45.805,0,0,0-.025-12.775l2.694-7.942c9.65-7.743,16.591-16.8,15.392-28.639,0,0-15.606,4.884-16.428,27.9l-2.085,6.148a45.266,45.266,0,0,0-4.256-12.5c-.194.177-.371.361-.558.54l-2.367-12.256c15.433-12.887,26.505-27.771,24.024-46.872,0,0-25.86,8.013-25.469,45.809a.642.642,0,0,0,.032.168l2.741,14.194c-.654.7-1.264,1.4-1.823,2.13l-4.068-11.406c-.524-20.1-4.839-37.65-21.374-47.551,0,0-9.235,24.488,20.061,47.495l4.515,12.66c-8.865,12.926-3.953,30.069.973,42.675l2.22,7.665-13.156-26.975c1.693-37.425-22.96-47.021-22.96-47.021-3.211,18.856,7.094,34.084,21.839,47.5l10.615,21.766-19.07-14.767c-19.747-31.836-45.513-25.8-45.513-25.8,8.008,17.382,25.129,24.123,44.89,26.861l20.9,16.184,6.617,13.569c-1.623.151-3.209.364-4.747.636l-1.477-.759c-17.262-27.722-39.735-22.48-39.735-22.48,6.963,15.114,21.8,21.03,38.959,23.451l.327.168a34.538,34.538,0,0,0-6.091,1.88l-2-.413c-20.411-10.766-32.422.365-32.422.365,9.671,6.92,20.965,5.4,32.47.888l.141.029c-.4.21-.791.423-1.162.652,3.74,11.755,2.35,41.876,11.067,44.376s30.542,4.344,34.985.422S390.5,6959.6,390.5,6959.6c-.995-1.129-4.489-2.407-9.314-3.456l2.121-.985c17.239-1.742,32.3-7.066,39.856-21.893,0,0-22.249-6.126-40.592,20.892l-3.4,1.579Q377.53,6955.431,375.744,6955.16Zm-23.287-5.727L348,6934.043a44.744,44.744,0,0,0,6.531-15.166l6.787,35.15c-2.187-.014-4.373.053-6.517.212Z" fill="#fff"/>
      <g id="Group_427" data-name="Group 427" opacity="0.5">
        <path id="Path_1254" data-name="Path 1254" d="M337.761,6958.76c14.594-8.995,49.225-3.142,52.739.844l-18.926,23.8Z" fill="#806d78"/>
        <g id="Group_425" data-name="Group 425">
          <path id="Path_1255" data-name="Path 1255" d="M336.117,6917.493c-15.309-13.651-26.188-29.155-22.9-48.461C313.217,6869.032,338.528,6878.856,336.117,6917.493Z" fill="#61b489"/>
          <path id="Path_1256" data-name="Path 1256" d="M327.362,6924.777c-20.344-2.614-38.08-9.26-46.274-27.048C281.088,6897.729,307.523,6891.535,327.362,6924.777Z" fill="#61b489"/>
          <path id="Path_1257" data-name="Path 1257" d="M348.007,6955.4c-17.792-2.287-33.3-8.1-40.47-23.656C307.537,6931.74,330.657,6926.323,348.007,6955.4Z" fill="#61b489"/>
          <path id="Path_1258" data-name="Path 1258" d="M340.1,6957.559c-11.957,4.919-23.745,6.815-33.785-.368C306.312,6957.191,318.856,6945.547,340.1,6957.559Z" fill="#61b489"/>
          <path id="Path_1259" data-name="Path 1259" d="M347.112,6935.363c-5.58-14.281-11.154-34.387,3.314-47.586C350.426,6887.777,363.973,6911.644,347.112,6935.363Z" fill="#61b489"/>
          <rect id="Rectangle_380" data-name="Rectangle 380" width="1.218" height="57.037" transform="translate(334.821 6916.049) rotate(-25.997)" fill="#61b489"/>
          <rect id="Rectangle_381" data-name="Rectangle 381" width="1.218" height="29.707" transform="translate(323.503 6922.672) rotate(-52.243)" fill="#61b489"/>
          <path id="Path_1260" data-name="Path 1260" d="M351.3,6949.821l1.17-.339-4.582-15.819-.776,1.7Z" fill="#61b489"/>
          <rect id="Rectangle_382" data-name="Rectangle 382" width="1.218" height="11.708" transform="translate(346.154 6955.014) rotate(-62.798)" fill="#61b489"/>
          <path id="Path_1261" data-name="Path 1261" d="M357.781,6962.009l.191-1.2-20.592-4.26-.191,1.2Z" fill="#61b489"/>
        </g>
        <g id="Group_426" data-name="Group 426">
          <path id="Path_1262" data-name="Path 1262" d="M395.168,6917.9c15.836-13.035,27.32-28.1,24.8-47.518C419.966,6870.386,394.285,6879.2,395.168,6917.9Z" fill="#61b489"/>
          <path id="Path_1263" data-name="Path 1263" d="M346.727,6876.707c15.837-13.035,27.32-28.1,24.8-47.518,0,0-25.86,8.013-25.469,45.809C346.059,6875.352,346.719,6876.348,346.727,6876.707Z" fill="#61b489"/>
          <path id="Path_1264" data-name="Path 1264" d="M398.851,6929.156c20.431-1.808,38.416-7.749,47.307-25.2C446.158,6903.958,419.988,6896.724,398.851,6929.156Z" fill="#61b489"/>
          <path id="Path_1265" data-name="Path 1265" d="M381.789,6955.308c17.869-1.582,33.6-6.777,41.374-22.038C423.163,6933.27,400.275,6926.943,381.789,6955.308Z" fill="#61b489"/>
          <path id="Path_1266" data-name="Path 1266" d="M368.627,6948.48c3.85-12.343,5.5-34.51-4.358-45.1C364.269,6903.383,353.22,6928.524,368.627,6948.48Z" fill="#61b489"/>
          <path id="Path_1267" data-name="Path 1267" d="M383.475,6935.326c4.467-20.019,5.342-28.59-8.594-42.35C375.131,6893.593,363.957,6912.113,383.475,6935.326Z" fill="#61b489"/>
          <path id="Path_1268" data-name="Path 1268" d="M390.1,6899.447c6.075-19.591,7.763-37.954-5.011-52.8C385.09,6846.649,368.108,6867.589,390.1,6899.447Z" fill="#61b489"/>
          <rect id="Rectangle_383" data-name="Rectangle 383" width="57.037" height="1.218" transform="translate(368.44 6966.174) rotate(-61.738)" fill="#61b489"/>
          <path id="Path_1269" data-name="Path 1269" d="M365.29,6968.177l-1.188.267L346.056,6875l1.188-.267Z" fill="#61b489"/>
          <rect id="Rectangle_384" data-name="Rectangle 384" width="29.707" height="1.218" transform="matrix(0.814, -0.581, 0.581, 0.814, 382.673, 6939.834)" fill="#61b489"/>
          <rect id="Rectangle_385" data-name="Rectangle 385" width="1.218" height="29.707" transform="matrix(1, -0.022, 0.022, 1, 389.135, 6897.178)" fill="#61b489"/>
          <path id="Path_1270" data-name="Path 1270" d="M342.964,6881.059c-.411-20.507-4.6-38.465-21.4-48.526C321.564,6832.533,312.049,6857.759,342.964,6881.059Z" fill="#61b489"/>
          <rect id="Rectangle_386" data-name="Rectangle 386" width="1.218" height="29.707" transform="translate(341.332 6879.211) rotate(-19.635)" fill="#61b489"/>
          <path id="Path_1271" data-name="Path 1271" d="M378.719,6949.607l-1.156-.385,5.2-15.626.708,1.73Z" fill="#61b489"/>
          <rect id="Rectangle_387" data-name="Rectangle 387" width="11.708" height="1.218" transform="translate(372.527 6958.83) rotate(-24.938)" fill="#61b489"/>
          <path id="Path_1272" data-name="Path 1272" d="M372.652,6959.744l-1.182.3-4.092-14.177,1.182-.3Z" fill="#61b489"/>
          <path id="Path_1273" data-name="Path 1273" d="M356.725,6895.729c10.21-7.932,17.714-17.219,16.47-29.5C373.2,6866.228,356.857,6871.327,356.725,6895.729Z" fill="#61b489"/>
          <path id="Path_1274" data-name="Path 1274" d="M353.595,6907.273l-1.139-.432,4.74-13.974,1.139.432Z" fill="#61b489"/>
        </g>
        <path id="Path_1275" data-name="Path 1275" d="M337.761,6958.76c3.741,11.755,2.351,41.876,11.068,44.376s30.542,4.344,34.985.422S390.5,6959.6,390.5,6959.6,372.126,6967.961,337.761,6958.76Z" fill="#947d8b"/>
      </g>
    </g>
    <g id="Group_429" data-name="Group 429">
      <rect id="Rectangle_388" data-name="Rectangle 388" width="329.528" height="365.534" transform="translate(687.392 6549.318)" fill="#fcfcfc"/>
      <rect id="Rectangle_389" data-name="Rectangle 389" width="329.528" height="14.69" transform="translate(687.392 6549.318)" fill="#f2f2f2"/>
      <rect id="Rectangle_390" data-name="Rectangle 390" width="329.528" height="14.69" transform="translate(687.392 6576.548)" fill="#f2f2f2"/>
      <rect id="Rectangle_391" data-name="Rectangle 391" width="329.528" height="14.69" transform="translate(687.392 6603.778)" fill="#f2f2f2"/>
      <rect id="Rectangle_392" data-name="Rectangle 392" width="329.528" height="14.69" transform="translate(687.392 6631.008)" fill="#f2f2f2"/>
      <rect id="Rectangle_393" data-name="Rectangle 393" width="329.528" height="14.69" transform="translate(687.392 6658.238)" fill="#f2f2f2"/>
      <rect id="Rectangle_394" data-name="Rectangle 394" width="4.836" height="47.884" transform="translate(990.772 6672.928)" fill="#f2f2f2"/>
      <circle id="Ellipse_69" data-name="Ellipse 69" cx="5.038" cy="5.038" r="5.038" transform="translate(988.152 6719.16)" fill="#f2f2f2"/>
    </g>
    <path id="Path_1276" data-name="Path 1276" d="M682.227,6744.571l5.723,55.479,49.207-30s-28.173-26.908-28.692-27.923S682.227,6744.571,682.227,6744.571Z" fill="#6b4a48"/>
    <path id="Path_1277" data-name="Path 1277" d="M693.418,6765.39l8.829,52.195,19.98,21.06,13.667,3.42,12.49-2.061s13.8-10.179,14.343-10.539,9.18-24.3,9.18-24.3l6.167-15.94,1.993-14.676-1.534-10.128Z" fill="#e67b55"/>
    <path id="Path_1278" data-name="Path 1278" d="M796.609,6749.572c-4.061,6.768-16.089,23.839-16.089,23.839l-21.813-11.318s1.692-30.12,2.708-32.15,28.088-14.212,28.088-14.212L799.316,6734Z" fill="#6b4a48"/>
    <path id="Path_1279" data-name="Path 1279" d="M786.118,6655.535c22.674,21.956,28.088,68.995,10.491,94.037L753,6692.739Z" fill="#6b4a48"/>
    <path id="Path_1280" data-name="Path 1280" d="M688.35,6748.448c6.381,20.42,29.991,67,51.048,65.087s44.667-65.087,44.667-65.087,11.8-5.743,9.891-18.505-10.529-2.552-10.529-2.552-5.543-37.041-51.048-38.286c-41.54-1.137-48.5,40.838-48.5,40.838s-6.51-5.664-8.424,1.355S680.535,6754.31,688.35,6748.448Z" fill="#ff895f"/>
    <path id="Path_1281" data-name="Path 1281" d="M690.187,6773.223s-55.8,32.862-60.12,48.782,24.717,200.875,24.717,200.875l168.727-7.03,6.971-184.405-50.235-58.222-19.5,64.7-38.52.72Z" fill="#2c519c"/>
    <path id="Path_1282" data-name="Path 1282" d="M1052.487,6985h-935l.45,180h935Z" fill="#dbd0d0"/>
    <path id="Path_1283" data-name="Path 1283" d="M774.067,7006.045c2.88,1.44,44.64,103.929,44.64,103.929L660.069,7141.4l-58.082-108.72Z" fill="#f8f8f8"/>
    <path id="Path_1284" data-name="Path 1284" d="M707.731,7084c-6.384,10.367-34.7,32.927-52.253,25.976-15.234-6.035-35.481-32.841-35.481-32.841Z" fill="#e6e6e6" style="mix-blend-mode: multiply;isolation: isolate"/>
    <g id="Group_430" data-name="Group 430">
      <path id="Path_1285" data-name="Path 1285" d="M634.218,7053.565c9.329-1.8,32.009,2.16,32.009,2.16s11.52,4.482,10.44,6.741-30.453.933-30.453.933Z" fill="#ff895f"/>
      <path id="Path_1286" data-name="Path 1286" d="M684.293,7105.627l-40.681-79.56,6.232-3.187,40.681,79.56-.237,7.534Z" fill="#b095a5"/>
      <path id="Path_1287" data-name="Path 1287" d="M697.187,7072.285a74.242,74.242,0,0,1-22.649-2.4c-5.28-1.44-36.48-13.44-40.32-16.32S621.427,6985,621.427,6985l2.6-24.08-40.782-13.469s-1.877,23.076-1.641,40.829c.071,5.366,30.531,85.92,40.611,90.72s34.866,19.867,41.489,20.64c3.362.392,40.368-11.17,44.024-15.647C709.2,7082.2,699.859,7072.125,697.187,7072.285Z" fill="#ff895f"/>
      <path id="Path_1288" data-name="Path 1288" d="M656.5,6877.885c6.663-26.668,33.689-104.662,33.689-104.662-70.2,30.02-109.772,116.81-109.772,183.8l54.886,6.178S645.391,6922.333,656.5,6877.885Z" fill="#2c519c"/>
      <path id="Path_1289" data-name="Path 1289" d="M580.415,6957.027l6.063.683c3.024-93.156,79.052-144.636,106.94-165.865,3.875-11.415-3.231-18.622-3.231-18.622C619.987,6803.243,580.415,6890.033,580.415,6957.027Z" fill="#e6e6e6" style="mix-blend-mode: multiply;isolation: isolate"/>
    </g>
    <g id="Group_431" data-name="Group 431">
      <path id="Path_1290" data-name="Path 1290" d="M926.4,7000.164c-1.786-10.716-15.011-35.13-30.51-70.23l-42.431,29.055,25.554,37.456c-19.726,13.092-69.186,63.981-73.027,67.341s-25.74,9.12-32.64,11.219c-5.529,1.682-15.245,22.68-16.32,24.65-3.073,5.632-5.239,19.865.72,20.63s59.3-35.139,65.063-38.019C915.442,7035.95,927.36,7005.924,926.4,7000.164Z" fill="#ff895f"/>
      <path id="Path_1291" data-name="Path 1291" d="M780.247,6773.223s18.389,91.3,28.687,120.5c10.493,29.76,43.222,72,43.222,72l49.12-39.478C890.236,6872.967,791.941,6779.343,780.247,6773.223Z" fill="#2c519c"/>
    </g>
    <g id="Group_432" data-name="Group 432">
      <path id="Path_1292" data-name="Path 1292" d="M693.418,6765.39c.872,15.7,24.71,59.718,36.92,68l-11.774,20.931s-39.682-37.066-29.216-86.777Z" fill="#fff"/>
      <path id="Path_1293" data-name="Path 1293" d="M756.628,6854.325l-10.57-18.37-1.29-2.23c.28-.1.55-.21.829-.33,14.61-6.2,25.7-33.61,30.441-52.62,1.79-7.18,2.679-13.17,2.5-16.35l4.329,4.54C793.568,6824.9,756.628,6854.325,756.628,6854.325Z" fill="#fff"/>
      <rect id="Rectangle_395" data-name="Rectangle 395" width="27.291" height="151.611" transform="translate(723.906 6833.394)" fill="#fff"/>
    </g>
    <path id="Path_1294" data-name="Path 1294" d="M641.93,6936.426l7.05,47.884,175.7.695,2.127-56.264c-2.184-4.19-9.369-18.3-13.935-27.276C840.215,6975.325,679.747,7015.85,641.93,6936.426Z" fill="#e6e6e6" style="mix-blend-mode: multiply;isolation: isolate"/>
    <path id="Path_1295" data-name="Path 1295" d="M819.887,6809.375c-3.7,20.99-32.62,44.95-68.69,55.55l-5.139-28.97-.461-2.56c14.61-6.2,25.7-33.61,30.441-52.62l6.829-11.81Z" fill="#e6e6e6" style="mix-blend-mode: multiply;isolation: isolate"/>
    <path id="Path_1296" data-name="Path 1296" d="M786.118,6655.535c-30.118-25.042-134.348-15.269-105.812,72.732l3.577,1.676,79.64-35.532Z" fill="#6b4a48"/>
    <path id="Path_1297" data-name="Path 1297" d="M802.483,6715.731c3.827,16.131,15.559,82.459,6.083,101.861s-38.459,25.5-38.459,25.5c-2.707-28.426,3.936-73.046,3.936-73.046l10.022-21.6,10.1,1.124Z" fill="#6b4a48"/>
    <path id="Path_1298" data-name="Path 1298" d="M681.55,6722.668c1.354,13.706,14.213,21.9,14.213,21.9,20.153-35.608,62.944-21.057,77.5-47.791C749.57,6662.939,681.55,6722.668,681.55,6722.668Z" fill="#6b4a48"/>
    <path id="Path_1299" data-name="Path 1299" d="M169.331,7079.2l152,65.81,73.316-51.122-12.616-18.919Z" fill="#e6e6e6" style="mix-blend-mode: multiply;isolation: isolate"/>
    <g id="Group_436" data-name="Group 436">
      <g id="Group_433" data-name="Group 433">
        <path id="Path_1300" data-name="Path 1300" d="M311.382,7114.942v12.464l62.474-35.377v-17.066Z" fill="#e6e6e6"/>
        <path id="Path_1301" data-name="Path 1301" d="M169.331,7065.938l142.051,49v12.464L169.331,7079.2Z" fill="#fff"/>
        <path id="Path_1302" data-name="Path 1302" d="M169.331,7065.938l78.418-36.516,126.107,45.541-62.474,39.979Z" fill="#61b489"/>
      </g>
      <g id="Group_434" data-name="Group 434">
        <path id="Path_1303" data-name="Path 1303" d="M305.484,7090.891v12.464l62.474-35.377v-17.066Z" fill="#ccc"/>
        <path id="Path_1304" data-name="Path 1304" d="M163.433,7041.887l142.051,49v12.464l-142.051-48.211Z" fill="#f2f2f2"/>
        <path id="Path_1305" data-name="Path 1305" d="M163.433,7041.887l78.418-36.516,126.107,45.541-62.474,39.979Z" fill="#67789c"/>
      </g>
      <g id="Group_435" data-name="Group 435">
        <path id="Path_1306" data-name="Path 1306" d="M336.462,7094.749v12.464l62.474-35.377v-17.066Z" fill="#f2f2f2"/>
        <path id="Path_1307" data-name="Path 1307" d="M194.411,7045.746l142.051,49v12.464L194.411,7059Z" fill="#fff"/>
        <path id="Path_1308" data-name="Path 1308" d="M194.411,7045.746l78.418-36.516,126.107,45.541-62.474,39.979Z" fill="#a88e9e"/>
      </g>
    </g>
    <path id="Path_1309" data-name="Path 1309" d="M573.511,7105.542H405.852l64.122-87.688H575.208Z" fill="#f8f8f8"/>
    <g id="Group_437" data-name="Group 437">
      <path id="Path_1310" data-name="Path 1310" d="M855.274,7120.051h-6.983l4.425-5.531,121.757-56.3,2.558,5.531Z" fill="#b095a5"/>
      <path id="Path_1311" data-name="Path 1311" d="M963.93,7063.1l2.373,5.616,10.728-4.96-2.558-5.531Z" fill="#6f5e68"/>
    </g>
    <path id="Path_1312" data-name="Path 1312" d="M643.612,7026.067l-2.628-4.589,6.844-3.193,2.017,4.595Z" fill="#6f5e68"/>
  </g>
</svg>
