<svg width="181" height="212" viewBox="0 0 181 212" fill="none" xmlns="http://www.w3.org/2000/svg">
<rect x="-463" y="-1333" width="2848" height="2336" />
<g clip-path="url(#clip0)">
<path d="M73.42 100.06L69.29 143.15C69.29 143.15 92.64 187.87 94.1 186.15C95.56 184.43 111.62 143.02 111.62 143.02L104.82 100.02L73.42 100.06Z" fill="#4989B2"/>
<path d="M104.82 100.07L108.97 123.62L86.38 166.16L69.28 143.15L73.42 100.07H104.82Z" fill="#4380A6"/>
<path d="M119.27 56.85C113.79 38.6 100.65 28.75 90.07 28.75C79.49 28.75 66.3501 38.64 60.8701 56.85C55.3901 75.06 63.2 121.09 90.07 121.09C116.94 121.09 124.77 75.14 119.27 56.85Z" fill="#4989B2"/>
<path d="M59.34 66.52C54.99 63.42 48.06 63.79 48.24 73.82C48.42 83.85 55.02 97.5 61.48 89.31" fill="#4989B2"/>
<path d="M118.66 89.31C125.12 97.5 131.77 83.85 131.9 73.85C132.03 63.85 125.15 63.45 120.8 66.55" fill="#4989B2"/>
<path d="M92.12 22H88.02C59.23 22 57.85 51.16 55.9 65C57.1274 65.3147 58.2912 65.8391 59.34 66.55C69.15 27.32 78.07 39.32 90.07 39.32C102.07 39.32 110.98 27.32 120.8 66.55C121.8 65.816 122.94 65.2953 124.15 65.02C122.2 51.21 120.91 22.02 92.15 22.02" fill="#2F283B"/>
<path d="M50.08 164.85C49.905 160.615 48.2294 156.58 45.3528 153.467C42.4763 150.354 38.5863 148.365 34.3782 147.857C30.1701 147.348 25.9184 148.353 22.383 150.691C18.8476 153.029 16.259 156.549 15.08 160.62C9.77004 174.03 -0.809959 210.85 -7.05996 254.97C-7.05996 255.13 -7.05996 255.3 -7.12996 255.46C-7.26294 256.454 -7.32975 257.457 -7.32996 258.46C-7.31914 263.626 -5.45884 268.617 -2.0859 272.53C1.28704 276.443 5.94964 279.019 11.0576 279.792C16.1657 280.564 21.3814 279.482 25.7604 276.741C30.1395 274 33.3923 269.782 34.93 264.85C35.1943 264.046 35.3982 263.224 35.54 262.39C43.41 230.64 50.13 194.94 50.13 165.63C50.1462 165.36 50.1462 165.09 50.13 164.82" fill="#2D5988"/>
<path d="M50.13 165.64C50.13 169.176 49.0814 172.633 47.1167 175.574C45.152 178.514 42.3595 180.806 39.0924 182.159C35.8252 183.512 32.2302 183.866 28.7618 183.176C25.2934 182.487 22.1075 180.784 19.6069 178.283C17.1064 175.783 15.4035 172.597 14.7136 169.128C14.0237 165.66 14.3777 162.065 15.731 158.798C17.0843 155.53 19.3761 152.738 22.3164 150.773C25.2568 148.809 28.7137 147.76 32.25 147.76C36.9913 147.763 41.5376 149.647 44.8901 153C48.2427 156.352 50.1274 160.899 50.13 165.64" fill="#2D5988"/>
<path d="M130.85 164.85C131.025 160.615 132.701 156.58 135.577 153.467C138.454 150.354 142.344 148.365 146.552 147.857C150.76 147.348 155.012 148.353 158.547 150.691C162.083 153.029 164.671 156.549 165.85 160.62C171.17 174.05 181.76 210.83 188.01 254.99C188.01 255.15 188.01 255.32 188.08 255.48C188.213 256.474 188.28 257.477 188.28 258.48C188.28 263.656 186.423 268.66 183.047 272.582C179.67 276.505 174.999 279.087 169.881 279.858C164.763 280.629 159.538 279.538 155.156 276.784C150.774 274.03 147.525 269.796 146 264.85V264.85C145.736 264.046 145.532 263.224 145.39 262.39C137.52 230.65 130.77 194.95 130.77 165.64C130.77 165.369 130.787 165.099 130.82 164.83" fill="#2D5988"/>
<path d="M130.77 165.64C130.77 169.176 131.819 172.633 133.783 175.574C135.748 178.514 138.54 180.806 141.808 182.159C145.075 183.512 148.67 183.866 152.138 183.176C155.607 182.487 158.793 180.784 161.293 178.283C163.794 175.783 165.497 172.597 166.186 169.128C166.876 165.66 166.522 162.065 165.169 158.798C163.816 155.53 161.524 152.738 158.584 150.773C155.643 148.809 152.186 147.76 148.65 147.76C143.909 147.763 139.362 149.647 136.01 153C132.657 156.352 130.773 160.899 130.77 165.64Z" fill="#2D5988"/>
<path d="M164.39 160.37C163.26 145.95 119.26 127.37 109.55 123.62C109.55 123.62 93.0601 146.77 90.4701 146.77C87.8801 146.77 70.5801 123.62 70.5801 123.62C60.8801 127.4 16.8801 145.95 15.7501 160.37C14.6201 174.79 35.9401 272.19 34.3701 279.85C32.1601 290.65 23.0601 313.18 30.2201 331.55C31.4701 334.74 145.03 342.9 150.71 331.55C158.51 315.97 150.51 293.82 148.3 284.38C145.36 271.82 165.52 174.78 164.39 160.38" fill="#29527D"/>
</g>
<defs>
<clipPath id="clip0">
<rect x="-12" y="22" width="204.93" height="637.21" fill="white"/>
</clipPath>
</defs>
</svg>
