<svg width="196" height="212" viewBox="0 0 196 212" fill="none" xmlns="http://www.w3.org/2000/svg">
<path d="M137.72 67.86C137.3 27.86 111.89 23.5 96.4899 28.86C81.0899 23.52 55.6799 27.86 55.2599 67.86C54.7899 112.06 50.1299 119.39 50.5899 120.55C54.3699 130.26 80.9699 131.3 81.5099 124.62C82.0499 117.94 71.6099 90.46 71.6099 90.46C60.1399 84.19 60.3899 64.59 71.8099 69.46H121.17C132.59 64.59 134.92 83.01 123.45 89.28C123.45 89.28 109.28 117.89 109.83 124.57C110.38 131.25 138.61 130.26 142.39 120.57C142.85 119.41 138.19 112.08 137.72 67.88" fill="#32213B"/>
<path d="M80.26 100.77L66.95 191.91L121.02 139.36L113.1 84.66L80.26 100.77Z" fill="#4380A6"/>
<path d="M123.96 66.83C123.96 66.83 127.13 38.14 96.5299 44.98C63.8599 38.31 69.1 66.83 69.1 66.83C55.97 59.48 61.75 90.59 69.57 89.28C69.57 89.28 73.99 121.45 96.57 119.5C119.11 121.5 123.57 89.28 123.57 89.28C131.39 90.59 137.17 59.48 124.04 66.83" fill="#4989B2"/>
<path d="M73.09 122.94C73.09 122.94 93.86 149.76 97.32 149.76C100.78 149.76 117.66 125.87 117.66 125.87L119.97 120.14L168.13 168.01L138.63 324.31L99.33 332.82L47.8 327.31L53.32 155.06L73.56 120.16L73.09 122.94Z" fill="#A6CBE3"/>
<path d="M76.3999 120.06C73.9799 124.78 80.27 442.54 73.1899 442.54C66.1099 442.54 12.19 435.39 11.41 421.23C10.63 407.07 10.83 156.14 20.26 145.91C29.69 135.68 76.3999 120.06 76.3999 120.06Z" fill="#2D5988"/>
<path d="M54.16 157.31L38.81 173.27" stroke="#2D5C8C" stroke-width="2" stroke-linecap="round" stroke-linejoin="round"/>
<path d="M54.77 184.47L39.42 200.43" stroke="#2D5C8C" stroke-width="2" stroke-linecap="round" stroke-linejoin="round"/>
<path d="M78.0599 115.65C78.0599 115.65 43.3 124.81 53.52 179.08L64.13 181.83L43.9799 186.13C43.9799 186.13 61.24 260.98 76.68 308.07L78.0599 115.65Z" fill="#29527D"/>
<path d="M29.9299 138.95C29.5399 139 29.1599 139.07 28.7899 139.14C10.5999 140.96 -5.42005 193 2.15995 273.77L2.27994 275C2.99425 279.941 5.6112 284.408 9.57251 287.447C13.5338 290.486 18.5259 291.857 23.4838 291.268C28.4417 290.678 32.9728 288.174 36.1107 284.291C39.2486 280.407 40.7447 275.451 40.2799 270.48C40.2894 270.33 40.2894 270.18 40.2799 270.03C40.2799 270.03 44.6399 206.03 45.9199 154.47C46.0546 153.391 46.0546 152.299 45.9199 151.22C45.4318 147.493 43.4839 144.112 40.5043 141.821C37.5248 139.53 33.7573 138.515 30.0299 139" fill="#2D5988"/>
<path d="M45.82 151.18C46.1819 153.961 45.7113 156.786 44.4675 159.3C43.2238 161.813 41.2628 163.901 38.8324 165.3C36.4021 166.699 33.6116 167.346 30.8136 167.159C28.0157 166.972 25.3359 165.96 23.1132 164.25C20.8905 162.54 19.2246 160.21 18.3261 157.554C17.4277 154.897 17.337 152.034 18.0655 149.326C18.794 146.618 20.3091 144.187 22.4191 142.34C24.5292 140.493 27.1395 139.314 29.92 138.95C31.7671 138.708 33.6437 138.833 35.4426 139.317C37.2415 139.801 38.9274 140.635 40.4039 141.771C41.8805 142.906 43.1188 144.322 44.0481 145.936C44.9774 147.551 45.5795 149.333 45.82 151.18Z" fill="#2D5988"/>
<path d="M117.57 120.14C119.99 124.86 112.79 442.54 119.87 442.54C126.95 442.54 180.87 435.39 181.65 421.23C182.43 407.07 182.23 156.14 172.8 145.91C163.37 135.68 117.57 120.14 117.57 120.14Z" fill="#2D5988"/>
<path d="M158.98 157.31L143.63 173.27" stroke="#2D5C8C" stroke-width="2" stroke-linecap="round" stroke-linejoin="round"/>
<path d="M159.59 184.47L144.24 200.43" stroke="#2D5C8C" stroke-width="2" stroke-linecap="round" stroke-linejoin="round"/>
<path d="M117.59 115.65C117.59 115.65 149.76 124.81 139.54 179.08L128.93 181.83L149.08 186.13C149.08 186.13 131.82 260.98 116.38 308.07L117.59 115.65Z" fill="#29527D"/>
<path d="M162.72 138.9C163.12 138.9 163.49 138.99 163.87 139.06C163.87 139.06 163.87 139.06 163.87 139.01C182.11 140.24 199.81 191.73 194.87 272.71C194.87 273.12 194.87 273.53 194.8 273.94C194.365 278.998 191.939 283.675 188.055 286.944C184.171 290.213 179.148 291.805 174.09 291.37C169.032 290.935 164.355 288.509 161.086 284.625C157.817 280.741 156.225 275.718 156.66 270.66C156.65 270.51 156.65 270.36 156.66 270.21C156.66 270.21 150.22 206.35 147.28 154.89C147.13 153.816 147.109 152.728 147.22 151.65C147.399 149.794 147.942 147.992 148.818 146.347C149.695 144.702 150.887 143.245 152.326 142.061C153.766 140.877 155.425 139.988 157.208 139.446C158.992 138.903 160.865 138.718 162.72 138.9Z" fill="#2D5988"/>
<path d="M175.41 154.4C175.135 157.192 174.037 159.84 172.256 162.008C170.475 164.177 168.091 165.768 165.406 166.581C162.72 167.393 159.854 167.391 157.17 166.574C154.486 165.757 152.104 164.162 150.327 161.991C148.549 159.82 147.456 157.171 147.185 154.378C146.914 151.585 147.477 148.775 148.804 146.303C150.131 143.831 152.162 141.807 154.639 140.49C157.116 139.172 159.928 138.619 162.72 138.9C164.574 139.082 166.374 139.626 168.017 140.504C169.66 141.381 171.114 142.573 172.296 144.013C173.478 145.452 174.365 147.11 174.906 148.893C175.447 150.675 175.632 152.546 175.45 154.4" fill="#2D5988"/>
</svg>
