<svg width="187" height="212" viewBox="0 0 187 212" fill="none" xmlns="http://www.w3.org/2000/svg">
<rect x="-699" y="-1323" width="2848" height="2336" />
<g clip-path="url(#clip0)">
<path d="M116 42.49C162.32 72.49 139.94 100.82 160.05 119.85C207.51 164.76 173.7 201.97 171.26 209.9C168.82 217.83 33.26 233.7 25.26 227.8C-31.8 185.96 33.15 139.57 28 128.57C-0.999985 67.05 61.74 7.25999 116 42.49Z" fill="#2F283B"/>
<path d="M107.75 149.86L90.19 214.2L73.26 152.16L72.63 149.86L78.12 119.75L79 114.93H101.38L103.24 125.15L106.28 141.79L107.75 149.86Z" fill="#4380A6"/>
<path d="M107.75 149.86C106.749 153.608 104.591 156.945 101.584 159.395C98.5765 161.846 94.8729 163.286 91 163.51C90.7436 163.525 90.4865 163.525 90.23 163.51C89.9736 163.525 89.7165 163.525 89.46 163.51C85.5801 163.294 81.8676 161.858 78.8524 159.407C75.8372 156.955 73.6734 153.614 72.67 149.86C57.56 156.13 19.96 175.25 19.97 180.11C19.97 190.7 44.35 266.11 47.33 289.11C49 302 66.91 302.82 91.62 302.82C116.33 302.82 130.7 302 132.37 289.11C135.37 266.11 159.82 190.66 160.5 180.11C160.95 173.11 122.9 156.11 107.79 149.86" fill="#A6CBE3"/>
<path d="M26.87 174.73C24.5668 174.2 22.1732 174.2 19.87 174.73C18.9584 174.921 18.07 175.209 17.22 175.59C14.0094 176.928 11.3379 179.3 9.63003 182.33C9.39003 182.8 9.13003 183.33 8.86003 183.86C6.07003 189.36 -10.78 225.06 -26.79 259.66L-27.68 261.57C-27.6839 261.593 -27.6839 261.617 -27.68 261.64C-28.0143 262.496 -28.285 263.375 -28.49 264.27C-29.5262 268.796 -28.8214 273.547 -26.5156 277.578C-24.2098 281.608 -20.4719 284.624 -16.0447 286.025C-11.6176 287.426 -6.82539 287.109 -2.62062 285.139C1.58415 283.169 4.89363 279.688 6.65003 275.39C6.69881 275.309 6.73584 275.221 6.76003 275.13L37.76 196.71V196.66L38.29 195.32C38.41 195 38.52 194.68 38.61 194.32C38.7 193.96 38.73 193.87 38.78 193.64C39.7138 189.556 38.9896 185.268 36.7662 181.718C34.5428 178.167 31.0018 175.643 26.92 174.7" fill="#2D5988"/>
<path d="M16.47 175.89C15.6278 176.286 14.8272 176.765 14.08 177.32C11.2553 179.353 9.18398 182.265 8.19002 185.6C8.06002 186.11 7.93002 186.67 7.78002 187.27C7.22318 191.279 8.2252 195.349 10.5796 198.641C12.9341 201.934 16.4616 204.198 20.4354 204.967C24.4093 205.736 28.5268 204.952 31.9397 202.776C35.3525 200.6 37.8008 197.197 38.78 193.27V193.27L39 191.84C39 191.5 39.07 191.17 39.08 190.84L41 163.78C33 167.43 23.1 172.05 16.43 175.89" fill="#1B5880"/>
<path d="M38.7301 193.68C38.0292 196.728 36.4404 199.499 34.1644 201.643C31.8885 203.788 29.0277 205.209 25.9439 205.728C22.86 206.246 19.6917 205.839 16.8395 204.557C13.9874 203.274 11.5795 201.175 9.92052 198.524C8.26152 195.874 7.42587 192.79 7.51926 189.665C7.61266 186.539 8.6309 183.511 10.4452 180.964C12.2595 178.417 14.7884 176.465 17.712 175.356C20.6357 174.246 23.8227 174.028 26.8701 174.73C30.9554 175.671 34.4998 178.196 36.7239 181.749C38.948 185.303 39.6696 189.594 38.7301 193.68Z" fill="#2D5988"/>
<path d="M68.8 153.21C68.8 153.21 56 388.75 54.29 410.4C53.44 421.18 -6.28998 403.83 -6.28998 403.83C-6.28998 403.83 2.88002 339.83 14.87 306.75C22.38 243.12 21.22 173.57 25.47 171.14C39.4987 164.207 53.9741 158.217 68.8 153.21" fill="#2D5988"/>
<path d="M59 331.49C59 331.49 27.67 214.96 27.28 163.78C27.25 158.96 69 151.42 69 151.42L59 331.49Z" fill="#29527D"/>
<path d="M73.65 159.75C73.4672 159.929 73.3 160.123 73.15 160.33V160.33C73.0023 160.502 72.8686 160.686 72.75 160.88C71.8172 162.338 71.4167 164.074 71.6163 165.793C71.8159 167.513 72.6034 169.11 73.8455 170.316C75.0876 171.522 76.7081 172.261 78.4327 172.41C80.1574 172.558 81.8803 172.106 83.31 171.13V171.13C83.7303 170.834 84.122 170.499 84.48 170.13V170.13C90.48 165.13 102.09 153.66 101.61 148.31C101.11 142.77 101.31 128.78 98.49 130.21C95.67 131.64 89.02 152.04 87.03 151.05C85.04 150.06 86.63 145.38 84.32 144.84C82.01 144.3 74.48 158.16 73.62 159.74" fill="#4989B2"/>
<path d="M63.7 200.96C63.7 200.96 79.15 176.46 84.16 170.5C84.5313 170.159 84.8664 169.78 85.16 169.37C85.493 168.934 85.7749 168.461 86 167.96C86.7551 166.256 86.8508 164.333 86.2686 162.563C85.6864 160.793 84.4678 159.302 82.849 158.38C81.2302 157.457 79.3264 157.168 77.5068 157.569C75.6871 157.97 74.0811 159.032 73 160.55C72.848 160.755 72.7142 160.972 72.6 161.2V161.2C68.35 166.85 45.6 188.66 45.6 188.66L63.7 200.96Z" fill="#4989B2"/>
<path d="M72.74 160.9C73.536 159.643 74.6869 158.65 76.0472 158.048C77.4076 157.445 78.9161 157.259 80.3819 157.514C81.8477 157.769 83.205 158.453 84.2819 159.48C85.3589 160.506 86.1071 161.829 86.4319 163.281C86.7568 164.733 86.6436 166.249 86.1067 167.637C85.5699 169.024 84.6335 170.221 83.4161 171.077C82.1986 171.932 80.7548 172.407 79.2674 172.441C77.7799 172.476 76.3157 172.068 75.06 171.27C73.3785 170.201 72.1897 168.509 71.7547 166.565C71.3198 164.621 71.6741 162.583 72.74 160.9" fill="#4989B2"/>
<path d="M22.5101 247.75C26.2127 249.407 30.3576 249.801 34.3061 248.87C38.2545 247.94 41.7873 245.736 44.3601 242.6L45.6001 240.9C45.6047 240.88 45.6047 240.86 45.6001 240.84C65.7801 213.01 84.8101 186.37 87.5101 181.38C89.8201 177.11 57.0501 154.47 57.0501 154.47L14.6101 220.73C14.5446 220.797 14.4906 220.875 14.4501 220.96C13.9584 221.708 13.5334 222.498 13.1801 223.32C12.1857 225.536 11.6382 227.927 11.5691 230.355C11.4999 232.783 11.9104 235.201 12.7771 237.47C13.6437 239.74 14.9495 241.816 16.6197 243.58C18.2898 245.344 20.2915 246.761 22.5101 247.75" fill="#2D5988"/>
<path d="M157.87 174.33C160.242 174.325 162.584 174.858 164.72 175.89C165.562 176.286 166.363 176.765 167.11 177.32C169.935 179.353 172.006 182.265 173 185.6C173.13 186.11 173.26 186.67 173.41 187.27C174.85 193.27 183.26 231.82 191.1 269.14L191.54 271.19C191.545 271.216 191.545 271.244 191.54 271.27C191.676 272.177 191.746 273.093 191.75 274.01C191.761 278.665 190.015 283.153 186.862 286.578C183.709 290.002 179.38 292.111 174.74 292.484C170.099 292.856 165.489 291.465 161.83 288.587C158.171 285.709 155.732 281.557 155 276.96C154.985 276.867 154.985 276.773 155 276.68L142.41 193.31L142.19 191.88C142.19 191.54 142.12 191.2 142.11 190.88C142.1 190.56 142.11 190.41 142.11 190.18C142.113 185.989 143.78 181.97 146.744 179.007C149.709 176.044 153.729 174.38 157.92 174.38" fill="#2D5988"/>
<path d="M164.72 175.89C165.562 176.286 166.363 176.765 167.11 177.32C169.935 179.353 172.006 182.265 173 185.6C173.13 186.11 173.26 186.67 173.41 187.27C173.967 191.279 172.965 195.349 170.61 198.641C168.256 201.934 164.728 204.198 160.755 204.967C156.781 205.736 152.663 204.952 149.25 202.776C145.838 200.6 143.389 197.197 142.41 193.27L142.19 191.84C142.19 191.5 142.12 191.17 142.11 190.84L140.18 163.79C148.18 167.44 158.08 172.06 164.75 175.9" fill="#1B5880"/>
<path d="M142.06 190.13C142.058 193.257 142.984 196.315 144.72 198.916C146.456 201.518 148.924 203.545 151.813 204.744C154.702 205.942 157.881 206.256 160.948 205.647C164.016 205.039 166.834 203.534 169.046 201.323C171.258 199.112 172.765 196.295 173.376 193.228C173.986 190.161 173.674 186.982 172.478 184.092C171.281 181.203 169.255 178.733 166.655 176.995C164.055 175.257 160.997 174.33 157.87 174.33C153.679 174.33 149.659 175.994 146.694 178.957C143.73 181.92 142.063 185.939 142.06 190.13" fill="#2D5988"/>
<path d="M112.39 153.21C112.39 153.21 125.19 388.75 126.9 410.4C127.75 421.18 187.49 403.83 187.49 403.83C187.49 403.83 178.31 339.83 166.32 306.75C158.81 243.12 159.97 173.57 155.72 171.14C141.691 164.207 127.216 158.217 112.39 153.21" fill="#2D5988"/>
<path d="M122.23 331.49C122.23 331.49 153.52 214.96 153.91 163.78C153.91 158.99 112.26 151.78 112.26 151.78L122.23 331.49Z" fill="#29527D"/>
<path d="M91.06 137.08C110.06 136.5 119.88 99.92 112.81 83.81C102.68 61.22 64.71 71.5 63 86.55C61.29 101.6 70.07 137.72 91.1 137.08" fill="#4989B2"/>
<path d="M62.76 92.45C65.02 75.95 78.86 73.88 87.16 73.45C95.65 72.99 108.6 72.93 114.5 89.64C118.37 80.51 112.33 60.86 87.19 62.24C62.05 63.62 56.3 81.7 62.76 92.45Z" fill="#2D5988"/>
</g>
<defs>
<clipPath id="clip0">
<rect x="-29" y="32" width="234.54" height="614.21" fill="white"/>
</clipPath>
</defs>
</svg>
