<svg width="134" height="212" viewBox="0 0 134 212" fill="none" xmlns="http://www.w3.org/2000/svg">
<g clip-path="url(#clip0)">
<path d="M6.07653 209.427V208.318C5.86285 203.241 6.73092 182.287 9.08139 156.785C9.08139 156.335 9.16152 155.876 9.21494 155.416C9.70365 153.364 11.1299 151.503 13.2498 150.15C15.3697 148.798 18.0516 148.038 20.8371 148.001C23.6225 147.965 26.3384 148.654 28.5204 149.95C30.7025 151.245 32.2151 153.069 32.7998 155.106C33.0667 156.169 33.0667 157.261 32.7998 158.324C32.7998 158.474 32.733 158.614 32.6929 158.754C27.351 181.157 23.3445 200.933 23.4513 209.227C23.5341 209.557 23.5789 209.892 23.5849 210.226C23.6446 211.878 22.8736 213.487 21.4244 214.733C19.9752 215.98 17.9534 216.775 15.759 216.959C13.5646 217.143 11.3575 216.705 9.57436 215.73C7.79125 214.756 6.56204 213.316 6.12995 211.695C5.95668 210.948 5.95668 210.184 6.12995 209.437" fill="#4989B2"/>
<path d="M10.73 149.57C10.7342 149.523 10.7342 149.477 10.73 149.43C10.88 148.95 11.05 148.51 11.21 148.05C13.53 141.49 16.21 136.24 19.13 132.82C22.82 128.56 34.47 142.03 32.8 153.77C32.7303 154.448 32.5964 155.118 32.4 155.77C32.4 155.77 32.4 155.77 32.4 155.84C31.5013 158.635 29.5501 160.97 26.9595 162.352C24.369 163.733 21.3426 164.052 18.521 163.241C15.6994 162.43 13.3042 160.553 11.8425 158.007C10.3809 155.461 9.96752 152.446 10.69 149.6" fill="#4989B2"/>
<path d="M10.55 154.59C10.9645 156.784 12.0203 158.806 13.5839 160.4C15.1474 161.994 17.1485 163.089 19.3342 163.545C21.5198 164.002 23.7918 163.801 25.8629 162.966C27.934 162.132 29.7111 160.702 30.9696 158.858C32.2281 157.013 32.9115 154.837 32.9332 152.604C32.955 150.371 32.3142 148.182 31.0919 146.314C29.8696 144.445 28.1206 142.981 26.0662 142.106C24.0118 141.232 21.7441 140.986 19.55 141.4C16.6086 141.958 14.0088 143.66 12.3213 146.133C10.6339 148.606 9.99686 151.648 10.55 154.59Z" fill="#4989B2"/>
<path d="M19.62 137.4C17.42 140.01 25.17 163.99 22.77 162.4C20.37 160.81 -5.69997 149.53 1.31003 119.78C3.69003 109.68 16.36 102.86 11.13 82.19C2.89003 49.64 20.87 50.34 35.94 29.32C49.6 10.32 104.94 31.32 104.71 57.38C104.47 82.08 120.23 92.32 123.38 102.72C126 111.36 119.27 127.57 123.38 137.77C128.99 151.65 90.66 155.77 81.21 149.77L19.62 137.4Z" fill="#32213B"/>
<path d="M139.76 240.39C139.65 239.95 139.53 239.5 139.41 239.06C131.03 207.24 119.24 168.7 106.78 146.61C106.761 146.565 106.737 146.521 106.71 146.48C106.48 146.04 106.23 145.63 105.98 145.21C104.466 142.968 102.197 141.344 99.586 140.634C96.9752 139.923 94.1961 140.175 91.7549 141.341C89.3137 142.508 87.3727 144.513 86.2852 146.99C85.1978 149.468 85.0362 152.253 85.83 154.84C86.0261 155.477 86.2771 156.096 86.58 156.69C86.58 156.69 86.58 156.69 86.58 156.76C90.45 165.47 108.63 208.76 122.58 245.19C122.623 245.331 122.676 245.468 122.74 245.6C123.59 247.454 125.043 248.964 126.863 249.883C128.683 250.803 130.761 251.077 132.758 250.661C134.754 250.245 136.549 249.163 137.851 247.594C139.152 246.024 139.882 244.059 139.92 242.02C139.923 241.466 139.869 240.913 139.76 240.37" fill="#4989B2"/>
<path d="M106.78 146.61C106.761 146.565 106.737 146.521 106.71 146.48C106.48 146.04 106.23 145.63 105.98 145.21C102.47 139.21 98.91 134.52 95.36 131.72C90.94 128.22 82.01 143.62 85.83 154.84C86.0261 155.477 86.2771 156.096 86.58 156.69C86.58 156.69 86.58 156.69 86.58 156.76C87.926 159.439 90.2809 161.473 93.1268 162.415C95.9727 163.358 99.0763 163.131 101.755 161.785C104.434 160.439 106.468 158.084 107.41 155.238C108.353 152.392 108.126 149.289 106.78 146.61Z" fill="#4989B2"/>
<path d="M107.9 151.51C107.9 153.743 107.238 155.926 105.997 157.782C104.757 159.639 102.993 161.086 100.931 161.941C98.8675 162.795 96.5975 163.019 94.4074 162.583C92.2174 162.147 90.2057 161.072 88.6268 159.493C87.0478 157.914 85.9726 155.903 85.5369 153.713C85.1013 151.523 85.3249 149.252 86.1794 147.19C87.0339 145.127 88.481 143.363 90.3376 142.123C92.1943 140.882 94.3771 140.22 96.61 140.22C99.6043 140.22 102.476 141.409 104.593 143.527C106.711 145.644 107.9 148.516 107.9 151.51Z" fill="#4989B2"/>
<path d="M60.86 124.2C38.68 123.91 19.68 135.32 15.01 141.34C25.63 184.04 14.57 267.12 60.86 267.12C107.15 267.12 96.09 184.04 106.68 141.34C102.02 135.34 83.01 123.88 60.83 124.2" fill="#2D5988"/>
<path d="M82.94 217.66L83.78 218.38C87.63 221.69 104.36 234.38 125.33 249.01L126.46 249.79C128.288 250.795 130.408 251.133 132.459 250.747C134.509 250.362 136.361 249.276 137.699 247.676C139.037 246.076 139.778 244.06 139.794 241.974C139.811 239.888 139.102 237.861 137.79 236.24C137.092 235.424 136.248 234.745 135.3 234.24C135.174 234.165 135.044 234.099 134.91 234.04C114.91 223.04 97.65 213.04 91.25 207.71C91.0278 207.456 90.7871 207.219 90.53 207C89.2757 205.905 87.6533 205.326 85.9891 205.378C84.3249 205.43 82.7423 206.111 81.5592 207.282C80.3762 208.454 79.6805 210.03 79.612 211.694C79.5435 213.357 80.1073 214.985 81.19 216.25C81.6787 216.831 82.2681 217.319 82.93 217.69" fill="#4989B2"/>
<path d="M81.19 216.21C81.6773 216.788 82.263 217.276 82.92 217.65C84.2679 218.428 85.8472 218.704 87.3792 218.431C88.9112 218.157 90.2973 217.351 91.2926 216.155C92.2879 214.959 92.8285 213.449 92.8189 211.893C92.8093 210.337 92.25 208.834 91.24 207.65C91.0177 207.396 90.7771 207.159 90.52 206.94C89.93 205.62 86.09 197.25 83.52 194.17C82.82 193.36 82.22 192.92 81.78 193.06C79.53 193.79 81.48 198.34 79.57 199.48C77.66 200.62 69.43 180.79 66.51 179.6C63.59 178.41 64.88 192.34 64.82 197.9C64.77 202.74 74.82 210.9 81.22 216.19" fill="#4989B2"/>
<path d="M81.2 216.22C80.3537 215.226 79.8211 214.003 79.6698 212.706C79.5185 211.41 79.7551 210.097 80.3499 208.935C80.9446 207.773 81.8707 206.813 83.011 206.177C84.1513 205.541 85.4545 205.258 86.7558 205.363C88.0572 205.468 89.2982 205.956 90.3218 206.767C91.3455 207.577 92.1058 208.673 92.5066 209.915C92.9074 211.158 92.9307 212.491 92.5735 213.747C92.2163 215.003 91.4948 216.124 90.5 216.97C89.8406 217.532 89.0766 217.959 88.252 218.226C87.4274 218.492 86.5583 218.594 85.6944 218.524C84.8306 218.455 83.9889 218.215 83.2177 217.82C82.4465 217.424 81.7609 216.881 81.2 216.22Z" fill="#4989B2"/>
<path d="M81.86 120.65C72.52 126.54 47.71 126.23 39.86 120.65C31.17 128.4 17.36 138.2 15.01 141.34H106.68C104.28 138.13 90.38 128.86 81.84 120.65" fill="#2D5988"/>
<path d="M22.77 162.42C25.5 163.3 15.48 143.31 26.37 131.69C26.37 131.69 2.76002 143.19 6.00002 148.47C12.37 158.86 16.44 160.38 22.77 162.42Z" fill="#32213B"/>
<path d="M48.97 124.19C43.23 135.62 35.45 155.05 34.4 156.88C33.35 158.71 55.59 164.2 56.63 161.88C57.67 159.56 68.92 128.16 68.92 128.16L48.97 124.19Z" fill="#23466B"/>
<path d="M56.29 126.91C60.47 135.02 77.11 172.01 79.01 173.84C80.91 175.67 96.87 162.84 95.56 160.76C94.25 158.68 76.24 124.22 76.24 124.22L56.29 126.91Z" fill="#29527D"/>
<path d="M81.86 120.65C76.55 115.34 72.52 109.65 72.52 104.04C69.52 105.09 64.75 107.04 60.86 107.04C56.97 107.12 52.14 105.13 49.19 104.04C49.19 109.6 45.19 115.34 39.86 120.65C38.78 121.74 50.45 127.65 60.86 127.7C71.27 127.75 82.94 121.7 81.86 120.65Z" fill="#29527D"/>
<path d="M81.93 50.46C81.13 47.32 70.06 42.68 60.86 42.68C51.66 42.68 39.08 48.05 38.28 51.19C34.37 66.6 35.41 94.19 44.08 100.26C52.75 106.33 54.45 110.07 60.86 110.07C67.27 110.07 68.97 106.34 77.64 100.26C86.31 94.18 85.85 65.87 81.93 50.46Z" fill="#4989B2"/>
<path d="M66.91 39.59C66.91 39.59 65.05 63.91 36.68 70.82C8.30997 77.73 50.68 35.4 50.68 35.4L66.91 39.59Z" fill="#32213B"/>
<path d="M62.32 36.17C62.32 36.17 66.44 55.75 91.32 68.01C116.2 80.27 90.68 42.16 90.68 42.16L62.32 36.17Z" fill="#32213B"/>
</g>
<defs>
<clipPath id="clip0">
<rect width="134" height="212" fill="white"/>
</clipPath>
</defs>
</svg>
