<svg width="158" height="212" viewBox="0 0 158 212" fill="none" xmlns="http://www.w3.org/2000/svg">
<rect x="-1007" y="-1348" width="2848" height="2336" />
<g clip-path="url(#clip0)">
<path d="M106.35 129.91C96.23 126.3 63.5 126.29 53.35 129.91C24.67 140.16 12.21 141.07 24.68 178.03C26.33 182.93 32.68 187.79 34.26 193.39C44.75 229.96 50.26 277.48 70.81 278.56C80.69 279.08 78.99 279.08 88.88 278.56C106.06 277.65 116.49 225.56 125.43 193.39C128.81 181.2 131.59 188.18 135.01 178.03C147.48 141.03 135.01 140.16 106.34 129.91" fill="#4989B2"/>
<path d="M110.37 153.07C110.738 149.959 112.071 147.041 114.182 144.725C116.293 142.41 119.076 140.814 122.14 140.161C125.204 139.508 128.396 139.831 131.267 141.084C134.139 142.338 136.546 144.459 138.15 147.15C138.15 147.15 138.2 147.24 138.22 147.29C138.63 148 138.981 148.743 139.27 149.51C151.75 176.84 159.51 227.06 156.69 257.64C156.69 258.11 156.6 258.57 156.55 259.02V259.18C156.533 259.375 156.507 259.568 156.47 259.76C155.47 265.76 134.91 264.84 133.99 260.05C133.957 259.919 133.934 259.785 133.92 259.65C133.91 259.6 133.91 259.549 133.92 259.5C133.91 259.407 133.91 259.313 133.92 259.22C132.56 249.71 111.64 167.67 110.51 157.05C110.51 156.96 110.51 156.88 110.51 156.8C110.33 155.564 110.309 154.311 110.45 153.07" fill="#4989B2"/>
<path d="M110.37 153.07C110.034 156.019 110.581 159.002 111.941 161.641C113.301 164.279 115.413 166.455 118.01 167.893C120.608 169.33 123.573 169.964 126.531 169.715C129.489 169.467 132.307 168.346 134.628 166.494C136.948 164.643 138.667 162.145 139.567 159.316C140.468 156.488 140.508 153.455 139.684 150.604C138.86 147.752 137.208 145.209 134.937 143.296C132.667 141.384 129.88 140.188 126.93 139.86C122.983 139.421 119.024 140.566 115.92 143.042C112.815 145.518 110.82 149.125 110.37 153.07Z" fill="#4989B2"/>
<path d="M73.51 26.51C74.45 15.05 96.37 15.61 103.3 19.57C119.94 29.05 121.74 92.45 134.5 73.57C137.18 68.57 141.7 71.83 141.97 75.48C145.74 126.42 87.5 115.1 83.97 91.85C80.03 66.34 73.51 26.51 73.51 26.51Z" fill="#2F283B"/>
<path d="M103.03 129C86.54 123.47 92.49 104 89.79 97.48H69.95C67.26 103.99 73.2 123.48 56.72 129L79.24 166.64L103.03 129Z" fill="#4380A6"/>
<path d="M78.78 112.45C97.78 112.92 109.6 76.94 103.42 60.45C97.24 43.96 56.03 45.57 53.49 60.46C50.95 75.35 57.75 111.94 78.78 112.46" fill="#4989B2"/>
<path d="M52.97 66.34C56.13 49.99 70.71 60.13 79.02 60.13C87.52 60.13 99.82 49.33 104.79 66.34C106.79 62.74 104.2 32 79.02 32C53.84 32 48.18 55.57 52.97 66.34Z" fill="#2F283B"/>
<path d="M71.6399 32.76C68.3699 23.76 85.2799 22.07 84.2199 32.5L71.6399 32.76Z" fill="#2D5988"/>
<path d="M49.39 153.47C49.1074 150.348 47.8536 147.392 45.8048 145.019C43.7559 142.646 41.015 140.975 37.9672 140.24C34.9194 139.505 31.718 139.743 28.8128 140.922C25.9075 142.1 23.4446 144.16 21.77 146.81L21.7 146.96C21.2669 147.656 20.8954 148.389 20.59 149.15C7.38 176.15 -1.71999 226.15 0.280006 256.77C0.280006 257.24 0.350006 257.7 0.390006 258.15V258.31C0.390006 258.5 0.390004 258.71 0.450004 258.9C0.814456 261.557 2.10263 264.002 4.0887 265.804C6.07477 267.607 8.632 268.653 11.3121 268.759C13.9922 268.865 16.6242 268.025 18.7466 266.385C20.8691 264.745 22.3465 262.41 22.92 259.79C22.961 259.66 22.9878 259.526 23 259.39C23.0062 259.34 23.0062 259.29 23 259.24C23.0224 259.148 23.0391 259.054 23.05 258.96C24.66 249.49 47.76 168.04 49.18 157.46C49.18 157.36 49.18 157.29 49.18 157.2C49.3877 155.972 49.4448 154.722 49.35 153.48" fill="#4989B2"/>
<path d="M49.39 153.47C49.6467 156.427 49.0202 159.394 47.5897 161.995C46.1593 164.597 43.9892 166.715 41.3543 168.082C38.7194 169.449 35.7381 170.004 32.7878 169.675C29.8375 169.347 27.0509 168.151 24.7809 166.238C22.5108 164.325 20.8593 161.782 20.0354 158.93C19.2116 156.078 19.2524 153.046 20.1528 150.218C21.0532 147.389 22.7726 144.891 25.0934 143.04C27.4141 141.189 30.2319 140.069 33.19 139.82C37.1471 139.487 41.0747 140.738 44.1115 143.296C47.1483 145.855 49.0465 149.514 49.39 153.47Z" fill="#4989B2"/>
<path d="M122.37 134.4L100.47 127.96C95.58 134.4 88.01 137.81 79.86 138.74C71.71 137.81 64.13 134.4 59.25 127.96L37.35 134.4C41.27 156.06 42.62 181.28 34.27 193.4C34.27 193.4 36.47 249.98 41.27 262.15C42.15 264.39 61.05 267.88 79.89 267.8C98.72 267.88 117.63 264.39 118.5 262.15C123.27 249.98 125.5 193.4 125.5 193.4C117.15 181.29 118.5 156.07 122.43 134.4" fill="#29527D"/>
</g>
<defs>
<clipPath id="clip0">
<rect y="17" width="158" height="195" fill="white"/>
</clipPath>
</defs>
</svg>
