<svg width="209" height="212" viewBox="0 0 209 212" fill="none" xmlns="http://www.w3.org/2000/svg">
<g clip-path="url(#clip0)">
<path d="M77.62 53.79C75.56 44.79 67.14 26.79 75.09 21.63C83.04 16.47 85.39 -3.37 94.62 0.489995C107.1 5.68999 117.11 0.909994 127.39 18.55C128.55 20.55 141.23 19.83 141.48 34.71C141.73 49.59 133.29 66.79 127.39 65.51C121.49 64.23 77.62 53.79 77.62 53.79" fill="#32213B"/>
<path d="M120.13 90.4L104.77 79.62L89.41 90.4C89.41 91.83 82.74 132.04 82.74 132.04C82.74 132.04 93.59 132.15 104.74 131.96C115.92 132.15 126.74 132.04 126.74 132.04C126.74 132.04 120.07 91.83 120.07 90.4" fill="#4380A6"/>
<path d="M124.89 65.51L104.77 79.62L84.66 65.51C84.66 65.51 80.66 127.25 80.66 129.88C80.66 131.24 92.92 131.77 104.8 131.96C116.69 131.77 128.94 131.24 128.94 129.88C128.94 127.25 124.94 65.51 124.94 65.51" fill="#4380A6"/>
<path d="M129.42 50.88C132.68 47.29 136.02 48.57 136.27 53.7C136.52 58.83 133.61 73.45 129.42 68.32C125.23 63.19 129.42 50.88 129.42 50.88Z" fill="#4989B2"/>
<path d="M128.83 41.38C128.83 38.05 119.34 30.38 115.24 26.5C113.73 25.09 109.61 24.75 104.77 25.07C99.93 24.75 95.82 25.07 94.31 26.5C90.2 30.35 80.74 38.05 80.71 41.38C80.62 50.87 79.43 79.1 80.71 81.67C81.99 84.24 97.64 100.67 99.95 100.9C100.55 100.97 102.38 101.12 104.77 101.27C107.16 101.12 109 100.97 109.6 100.9C111.9 100.65 127.55 84.23 128.83 81.67C130.11 79.11 128.93 50.87 128.83 41.38" fill="#4989B2"/>
<path d="M80.12 50.88C76.86 47.29 73.53 48.57 73.27 53.7C73.01 58.83 75.94 73.45 80.12 68.32C84.3 63.19 80.12 50.88 80.12 50.88Z" fill="#4989B2"/>
<path d="M185.59 133.34C182.53 128.23 140.66 118.21 127.39 109.02C122.33 113.573 116.552 117.26 110.29 119.93C108.17 120.8 101.11 119.93 99.29 119.93C89.2 119.87 82.11 108.93 82.11 108.93C68.84 118.12 26.46 128.75 23.39 133.85C20.32 138.95 50.29 313.38 52.75 319.5C53.94 322.5 83.17 325.29 104.75 325.98C126.36 325.29 155.59 322.52 156.75 319.5C159.17 313.38 188.6 138.44 185.54 133.34" fill="#2D5988"/>
<path d="M82.12 108.88L99.3 119.88C92.98 121.6 91.3 133.66 93.43 138.26C93.43 138.26 68.54 120.97 67.96 118.48L82.12 108.88Z" fill="#326296"/>
<path d="M127.39 109.02L110.29 119.93C116.6 121.65 118.93 133.14 116.83 137.74C116.83 137.74 141.83 121.67 142.4 119.18L127.39 109.02Z" fill="#326296"/>
<path d="M110.52 119.93H99.03V325.83H110.52V119.93Z" fill="#326296"/>
<path d="M107.45 153.88C107.45 154.41 107.293 154.928 106.998 155.369C106.704 155.81 106.285 156.153 105.796 156.356C105.306 156.559 104.767 156.612 104.247 156.508C103.727 156.405 103.25 156.15 102.875 155.775C102.5 155.4 102.245 154.923 102.141 154.403C102.038 153.883 102.091 153.344 102.294 152.854C102.497 152.365 102.84 151.946 103.281 151.652C103.722 151.357 104.24 151.2 104.77 151.2C105.481 151.2 106.162 151.482 106.665 151.985C107.168 152.488 107.45 153.169 107.45 153.88Z" fill="#417FC2"/>
<path d="M107.45 200.41C107.45 200.94 107.293 201.458 106.998 201.899C106.704 202.34 106.285 202.683 105.796 202.886C105.306 203.089 104.767 203.142 104.247 203.039C103.727 202.935 103.25 202.68 102.875 202.305C102.5 201.93 102.245 201.453 102.141 200.933C102.038 200.413 102.091 199.874 102.294 199.384C102.497 198.895 102.84 198.476 103.281 198.182C103.722 197.887 104.24 197.73 104.77 197.73C105.122 197.73 105.47 197.799 105.796 197.934C106.121 198.069 106.416 198.266 106.665 198.515C106.914 198.764 107.111 199.059 107.246 199.384C107.381 199.71 107.45 200.058 107.45 200.41Z" fill="#417FC2"/>
<path d="M35.94 128.13C32.8293 128.519 29.8302 129.536 27.1244 131.119C24.4187 132.702 22.0629 134.819 20.2 137.34L20.01 137.65C19.2466 138.667 18.5772 139.752 18.01 140.89C-3.49001 178.39 -2.25001 258.73 0.489994 276.88V277C0.506807 277.181 0.533512 277.362 0.569992 277.54C0.612018 277.711 0.645396 277.885 0.669994 278.06C0.759994 278.51 0.839993 278.9 0.929993 279.23C0.974075 279.416 1.02748 279.599 1.08999 279.78C1.21999 280.21 1.36999 280.68 1.52999 281.2C1.52999 281.2 1.52999 281.25 1.52999 281.28C3.05489 285.434 6.02114 288.902 9.88847 291.052C13.7558 293.202 18.2669 293.892 22.6 292.995C26.9331 292.099 30.8 289.675 33.4963 286.167C36.1926 282.658 37.5389 278.298 37.29 273.88V273.88C37.04 271.88 62.29 168.79 61.73 156.11V156.05C62.2533 153.524 62.3614 150.93 62.05 148.37C61.2715 142.233 58.0883 136.656 53.1999 132.864C48.3116 129.073 42.1179 127.377 35.98 128.15" fill="#2D5988"/>
<path d="M62.01 148.34C62.5884 152.915 61.7971 157.56 59.7363 161.685C57.6754 165.811 54.4375 169.233 50.4319 171.519C46.4264 173.805 41.833 174.851 37.2326 174.527C32.6321 174.202 28.2313 172.521 24.5864 169.695C20.9415 166.87 18.2163 163.027 16.7552 158.652C15.2942 154.278 15.163 149.569 16.3782 145.12C17.5935 140.671 20.1005 136.682 23.5824 133.658C27.0644 130.634 31.3648 128.71 35.94 128.13C42.0768 127.354 48.2705 129.048 53.1593 132.837C58.048 136.627 61.2316 142.203 62.01 148.34Z" fill="#2D5988"/>
<path d="M173.91 128.17C177.016 128.601 180.001 129.658 182.686 131.277C185.371 132.897 187.7 135.044 189.53 137.59V137.59C189.59 137.69 189.65 137.8 189.72 137.9C190.461 138.929 191.107 140.024 191.65 141.17C212.65 178.97 210.35 259.29 207.37 277.41V277.53C207.37 277.72 207.32 277.9 207.28 278.08C207.238 278.248 207.205 278.418 207.18 278.59C207.08 279.04 206.99 279.43 206.9 279.76C206.85 279.94 206.8 280.13 206.73 280.31C206.6 280.73 206.44 281.21 206.27 281.73C206.27 281.73 206.27 281.73 206.27 281.8C204.653 285.887 201.631 289.263 197.749 291.322C193.866 293.381 189.376 293.988 185.086 293.033C180.796 292.079 176.986 289.626 174.342 286.116C171.698 282.605 170.393 278.267 170.66 273.88V273.88C170.94 271.88 147.07 168.47 147.78 155.8V155.74C147.055 152.093 147.215 148.325 148.247 144.753C149.278 141.18 151.151 137.907 153.708 135.208C156.265 132.509 159.433 130.462 162.944 129.239C166.456 128.016 170.209 127.653 173.89 128.18" fill="#2D5988"/>
<path d="M147.58 148.04C146.94 152.608 147.669 157.262 149.675 161.416C151.681 165.569 154.873 169.034 158.848 171.373C162.823 173.712 167.403 174.82 172.007 174.556C176.612 174.293 181.035 172.67 184.717 169.892C188.4 167.115 191.176 163.308 192.694 158.953C194.213 154.598 194.406 149.89 193.249 145.426C192.092 140.961 189.638 136.939 186.195 133.87C182.753 130.8 178.478 128.82 173.91 128.18C170.877 127.755 167.79 127.932 164.826 128.7C161.861 129.468 159.077 130.813 156.632 132.657C154.187 134.501 152.129 136.809 150.576 139.448C149.023 142.088 148.005 145.007 147.58 148.04" fill="#2D5988"/>
</g>
<defs>
<clipPath id="clip0">
<rect x="-1" width="210.3" height="709.09" fill="white"/>
</clipPath>
</defs>
</svg>
