<svg xmlns="http://www.w3.org/2000/svg" width="76.17" height="76.169" viewBox="0 0 76.17 76.169">
  <path id="Path_1845" data-name="Path 1845" d="M576.213,2287.3a20.508,20.508,0,1,0,20.505,20.508A20.5,20.5,0,0,0,576.213,2287.3Zm11.715,33.571a17.468,17.468,0,0,1-23.437,0V2318.4a3.751,3.751,0,0,1,1.971-3.534l2.2-.966,6.635,5.306a1.464,1.464,0,0,0,1.828,0l6.631-5.306,2.163.948a3.754,3.754,0,0,1,2.01,3.552Zm-.872-8.721-2.934-1.29a1.45,1.45,0,0,0-1.5.2l-6.41,5.126-6.41-5.126a1.452,1.452,0,0,0-1.5-.2l-2.974,1.3a6.44,6.44,0,0,0-3.709,5.423,17.578,17.578,0,1,1,29.187,0A6.448,6.448,0,0,0,587.056,2312.153Zm30.171,42.531a5.86,5.86,0,0,0,4.141-10l-20.722-20.722a29.313,29.313,0,1,0-8.289,8.288l20.723,20.723A5.861,5.861,0,0,0,617.227,2354.684Zm-41.017-20.508a26.365,26.365,0,1,1,26.366-26.367A26.391,26.391,0,0,1,576.21,2334.176Zm43.084,16.719a2.925,2.925,0,0,1-4.141,0l-20.4-20.4a29.483,29.483,0,0,0,4.142-4.143l20.4,20.406a2.923,2.923,0,0,1,0,4.141Zm-43.083-57.732a8.789,8.789,0,1,0,8.789,8.789A8.792,8.792,0,0,0,576.211,2293.163Zm0,14.645a5.858,5.858,0,1,1,5.856-5.856A5.864,5.864,0,0,1,576.211,2307.808Z" transform="translate(-546.915 -2278.515)" fill="#404040"/>
</svg>
