<svg xmlns="http://www.w3.org/2000/svg" width="109.43" height="72.286" viewBox="0 0 109.43 72.286">
  <g id="Group_663" data-name="Group 663" transform="translate(-260.72 -2280.582)">
    <g id="Group_656" data-name="Group 656">
      <path id="Path_1816" data-name="Path 1816" d="M302.822,2349.531" fill="none" stroke="#000" stroke-miterlimit="10" stroke-width="2"/>
      <path id="Path_1817" data-name="Path 1817" d="M302.821,2349.53" fill="none" stroke="#000" stroke-miterlimit="10" stroke-width="2"/>
    </g>
    <g id="Group_657" data-name="Group 657">
      <path id="Path_1818" data-name="Path 1818" d="M323.965,2349.531" fill="none" stroke="#000" stroke-miterlimit="10" stroke-width="2"/>
      <path id="Path_1819" data-name="Path 1819" d="M323.965,2349.53" fill="none" stroke="#000" stroke-miterlimit="10" stroke-width="2"/>
    </g>
    <g id="Group_658" data-name="Group 658">
      <path id="Path_1820" data-name="Path 1820" d="M283.359,2348.015a17.333,17.333,0,1,1,17.334-17.334A17.354,17.354,0,0,1,283.359,2348.015Zm0-31.822a14.488,14.488,0,1,0,14.489,14.488A14.5,14.5,0,0,0,283.359,2316.193Z" fill="#404040"/>
      <path id="Path_1821" data-name="Path 1821" d="M283.359,2347.776a17.095,17.095,0,1,1,17.1-17.095A17.115,17.115,0,0,1,283.359,2347.776Zm0-31.822a14.727,14.727,0,1,0,14.727,14.727A14.744,14.744,0,0,0,283.359,2315.954Z" fill="#404040"/>
    </g>
    <g id="Group_659" data-name="Group 659">
      <path id="Path_1822" data-name="Path 1822" d="M347.513,2348.015a17.333,17.333,0,1,1,17.333-17.334A17.354,17.354,0,0,1,347.513,2348.015Zm0-31.822A14.488,14.488,0,1,0,362,2330.681,14.5,14.5,0,0,0,347.513,2316.193Z" fill="#404040"/>
      <path id="Path_1823" data-name="Path 1823" d="M347.513,2347.776a17.095,17.095,0,1,1,17.1-17.095A17.115,17.115,0,0,1,347.513,2347.776Zm0-31.822a14.727,14.727,0,1,0,14.727,14.727A14.743,14.743,0,0,0,347.513,2315.954Z" fill="#404040"/>
    </g>
    <path id="Path_1824" data-name="Path 1824" d="M347.586,2352.868a22.777,22.777,0,0,1-14.407-5.09,22.543,22.543,0,0,1-7.327-11.082,12.02,12.02,0,0,1-20.834,0,22.543,22.543,0,0,1-7.327,11.08,22.782,22.782,0,0,1-14.408,5.09,22.308,22.308,0,0,1-8.819-1.79,22.956,22.956,0,0,1-13.617-18.424,22.713,22.713,0,0,1,.412-7.319,25.525,25.525,0,0,1,2.786-6.942c2.16-4.045,8.928-16.306,9.815-17.908a37.3,37.3,0,0,1,3.9-5.032,18.485,18.485,0,0,1,12.387-4.806,17.9,17.9,0,0,1,3.276.3,8.849,8.849,0,0,1,8.465-6.51,8.763,8.763,0,0,1,8.715,9.79c-.006.051-.72,5.792-.72,5.792a9.328,9.328,0,0,1,11.106,0l-.718-5.783a8.759,8.759,0,0,1,7.685-9.737,8.843,8.843,0,0,1,1.023-.06,8.735,8.735,0,0,1,8.471,6.508,17.884,17.884,0,0,1,3.275-.3,18.356,18.356,0,0,1,12.287,4.708,36.334,36.334,0,0,1,4,5.13c.934,1.687,7.628,13.812,9.827,17.931a25.34,25.34,0,0,1,2.775,6.921,22.646,22.646,0,0,1,.41,7.317,22.953,22.953,0,0,1-13.617,18.424A22.279,22.279,0,0,1,347.586,2352.868Zm-67.89-55.317a29.7,29.7,0,0,0-3.344,4.312c-1.434,2.59-7.765,14.071-9.808,17.9a22.817,22.817,0,0,0-2.506,6.195,19.8,19.8,0,0,0,11.546,22.511,19.481,19.481,0,0,0,7.708,1.564,19.765,19.765,0,0,0,19.8-18.133l.139-1.408h.027c.5-4.179,1.754-14.32,2.815-22.872l0-.059a9.427,9.427,0,0,1,.3-2.306c.778-6.283,1.394-11.236,1.412-11.364a5.924,5.924,0,0,0-5.2-6.56,6.1,6.1,0,0,0-.685-.039,5.967,5.967,0,0,0-5.728,4.4,18.759,18.759,0,0,1,7.4,4.829,1.423,1.423,0,0,1-2.073,1.95,15.493,15.493,0,0,0-21.733-1Q279.737,2297.506,279.7,2297.551Zm45.106,10.095c1.764,14.233,2.737,22.158,2.974,24.225l.084.725a19.743,19.743,0,0,0,19.722,17.431,19.488,19.488,0,0,0,7.706-1.563,19.8,19.8,0,0,0,11.547-22.509,22.682,22.682,0,0,0-2.494-6.172c-2.073-3.883-8.372-15.3-9.82-17.919a33.32,33.32,0,0,0-3.51-4.49,15.408,15.408,0,0,0-10.287-3.88,15.677,15.677,0,0,0-11.352,4.972,1.408,1.408,0,0,1-1.036.448,1.423,1.423,0,0,1-1.037-2.4,18.759,18.759,0,0,1,7.4-4.829,5.972,5.972,0,0,0-5.729-4.4,6.117,6.117,0,0,0-.685.039,5.921,5.921,0,0,0-5.192,6.572c.015.123.632,5.074,1.414,11.379a9.247,9.247,0,0,1,.294,2.279Zm-9.366,13.838a9.2,9.2,0,1,0,9.2,9.2A9.206,9.206,0,0,0,315.436,2321.484Zm0-20.449a6.546,6.546,0,0,0-6.273,4.758c-.631,5.1-1.376,11.111-2,16.158a11.985,11.985,0,0,1,16.539,0c-.623-5.046-1.367-11.058-2-16.194A6.54,6.54,0,0,0,315.436,2301.035Z" fill="#404040"/>
    <path id="Path_1825" data-name="Path 1825" d="M369.38,2325.388a25.154,25.154,0,0,0-2.753-6.859c-2.2-4.118-8.99-16.419-9.825-17.929a36.186,36.186,0,0,0-3.95-5.068,18.114,18.114,0,0,0-12.128-4.647,17.63,17.63,0,0,0-3.451.342,8.53,8.53,0,0,0-16.767,2.985c.011.091.328,2.631.789,6.357a9.091,9.091,0,0,0-11.721,0c.464-3.73.781-6.272.792-6.365a8.53,8.53,0,0,0-16.768-2.977,17.63,17.63,0,0,0-3.451-.342,18.16,18.16,0,0,0-12.212,4.729,36.617,36.617,0,0,0-3.866,4.986c-1.12,2.023-7.686,13.922-9.816,17.91a25.264,25.264,0,0,0-2.761,6.877,22.441,22.441,0,0,0-.408,7.242,22.707,22.707,0,0,0,13.474,18.23,22.2,22.2,0,0,0,8.726,1.77,22.24,22.24,0,0,0,21.664-16.556,11.784,11.784,0,0,0,20.974,0,22.44,22.44,0,0,0,30.39,14.787,22.713,22.713,0,0,0,13.474-18.23A22.462,22.462,0,0,0,369.38,2325.388Zm-53.944-24.59a6.768,6.768,0,0,1,6.5,4.927c.667,5.374,1.45,11.7,2.089,16.885a11.752,11.752,0,0,0-17.181,0c.637-5.181,1.422-11.51,2.089-16.883A6.766,6.766,0,0,1,315.436,2300.8Zm-11.989,29.927-.117,1.193A20.036,20.036,0,1,1,263.8,2325.9a23.024,23.024,0,0,1,2.529-6.257c2.134-3.993,8.691-15.877,9.81-17.9a35.616,35.616,0,0,1,3.461-4.454,15.755,15.755,0,0,1,10.544-4.038,15.916,15.916,0,0,1,11.526,5.047,1.185,1.185,0,0,0,1.725-1.624,18.492,18.492,0,0,0-7.51-4.839,6.162,6.162,0,0,1,10.842-2.451,6.115,6.115,0,0,1,1.285,4.529c-.017.127-.633,5.079-1.416,11.392a9.089,9.089,0,0,0-.292,2.246h.012c-1.081,8.715-2.366,19.114-2.851,23.169Zm11.989,9.39a9.434,9.434,0,1,1,9.435-9.434A9.446,9.446,0,0,1,315.436,2340.115Zm52-7.733a20.031,20.031,0,0,1-39.809.241l-.084-.725c-.3-2.636-1.774-14.55-2.989-24.342h.014a9.125,9.125,0,0,0-.292-2.25c-.782-6.3-1.4-11.255-1.415-11.38a6.158,6.158,0,0,1,5.4-6.836,6.182,6.182,0,0,1,6.725,4.75,18.486,18.486,0,0,0-7.51,4.839,1.185,1.185,0,0,0,1.725,1.624,15.918,15.918,0,0,1,11.526-5.047,15.722,15.722,0,0,1,10.463,3.957,33.629,33.629,0,0,1,3.542,4.536c.834,1.507,7.617,13.792,9.819,17.917a22.909,22.909,0,0,1,2.52,6.238A20.1,20.1,0,0,1,367.432,2332.382Z" fill="#404040"/>
    <g id="Group_660" data-name="Group 660">
      <path id="Path_1826" data-name="Path 1826" d="M323.382,2349.531" fill="none" stroke="#000" stroke-miterlimit="10" stroke-width="2"/>
      <path id="Path_1827" data-name="Path 1827" d="M323.382,2349.53" fill="none" stroke="#000" stroke-miterlimit="10" stroke-width="2"/>
    </g>
    <g id="Group_661" data-name="Group 661">
      <path id="Path_1828" data-name="Path 1828" d="M302.24,2349.531" fill="none" stroke="#000" stroke-miterlimit="10" stroke-width="2"/>
      <path id="Path_1829" data-name="Path 1829" d="M302.24,2349.53" fill="none" stroke="#000" stroke-miterlimit="10" stroke-width="2"/>
    </g>
    <g id="Group_662" data-name="Group 662">
      <path id="Path_1830" data-name="Path 1830" d="M310.983,2280.582" fill="none" stroke="#000" stroke-miterlimit="10" stroke-width="2"/>
      <path id="Path_1831" data-name="Path 1831" d="M310.983,2280.582" fill="none" stroke="#000" stroke-miterlimit="10" stroke-width="2"/>
    </g>
  </g>
</svg>
