<svg xmlns="http://www.w3.org/2000/svg" width="87.892" height="76.17" viewBox="0 0 87.892 76.17">
  <path id="Path_1844" data-name="Path 1844" d="M899.224,2332.19l.007,0-14.066-36.572a4.375,4.375,0,0,0,2.441-3.919,1.462,1.462,0,0,0-2.925,0,1.467,1.467,0,0,1-2.933,0,1.462,1.462,0,0,0-1.462-1.463H861.034a5.834,5.834,0,0,0-4.188-4.189v-6.065a1.464,1.464,0,1,0-2.927,0v6.065a5.841,5.841,0,0,0-4.19,4.19H830.481a1.461,1.461,0,0,0-1.468,1.463,1.465,1.465,0,0,1-2.929,0,1.464,1.464,0,0,0-2.927,0,4.38,4.38,0,0,0,2.443,3.92l-14.066,36.571.008,0a1.47,1.47,0,0,0-.1.52c.011,3.138,2.094,5.736,5,7.474a23.6,23.6,0,0,0,22.222,0c2.907-1.738,4.99-4.336,5.005-7.474a1.439,1.439,0,0,0-.106-.522l.008,0h0l-.009-.023-.008-.021-14.042-36.514a4.4,4.4,0,0,0,2.188-2.469H849.73a5.839,5.839,0,0,0,4.189,4.187v28.042h-1.466a4.386,4.386,0,0,0-1.535,8.5,16.9,16.9,0,0,1-6.346,12.011H842.2a7.32,7.32,0,0,0-7.323,7.322,1.458,1.458,0,0,0,1.463,1.464h38.089a1.461,1.461,0,0,0,1.462-1.464,7.321,7.321,0,0,0-7.325-7.322h-2.374a16.9,16.9,0,0,1-6.345-12.011,4.386,4.386,0,0,0-1.534-8.5h-1.466v-28.042a5.829,5.829,0,0,0,4.188-4.187h18.038a4.393,4.393,0,0,0,2.189,2.469L867.2,2332.187l.007,0a1.463,1.463,0,0,0-.106.524c.013,3.136,2.1,5.734,5,7.469a23.567,23.567,0,0,0,22.223,0c2.908-1.735,4.987-4.333,5-7.469A1.458,1.458,0,0,0,899.224,2332.19Zm-71.677-33.483,12.519,32.543h-25.03Zm9.608,38.964a20.68,20.68,0,0,1-19.211,0,7.523,7.523,0,0,1-3.3-3.493h25.81A7.521,7.521,0,0,1,837.155,2337.671Zm35.554,14.087H838.056a4.409,4.409,0,0,1,4.143-2.933h26.366A4.413,4.413,0,0,1,872.709,2351.758Zm-23.917-5.859a19.454,19.454,0,0,0,5.077-11.72H856.9a19.447,19.447,0,0,0,5.076,11.72Zm10.985-16.115a1.472,1.472,0,0,1-1.463,1.465h-5.863a1.465,1.465,0,0,1,0-2.931h5.859A1.468,1.468,0,0,1,859.777,2329.784Zm-4.395-35.159a2.929,2.929,0,1,1,2.93-2.929A2.93,2.93,0,0,1,855.382,2294.625Zm40.348,36.624H870.7l12.514-32.543Zm-2.912,6.424a20.683,20.683,0,0,1-19.208,0,7.558,7.558,0,0,1-3.3-3.5h25.812A7.543,7.543,0,0,1,892.818,2337.673Z" transform="translate(-811.438 -2278.515)" fill="#404040"/>
</svg>
