<!-- Generator: Adobe Illustrator 22.0.1, SVG Export Plug-In  -->
<svg version="1.1"
	 xmlns="http://www.w3.org/2000/svg" xmlns:xlink="http://www.w3.org/1999/xlink" xmlns:a="http://ns.adobe.com/AdobeSVGViewerExtensions/3.0/"
	 x="0px" y="0px" width="149.3px" height="26.1px" viewBox="0 0 149.3 26.1" style="enable-background:new 0 0 149.3 26.1;"
	 xml:space="preserve">
<style type="text/css">
	.st0{fill:#FFFFFF;}
</style>
<defs>
</defs>
<g>
	<path class="st0" d="M6.2,18.4L0,14.8l0-7.1l6.2-3.6l6.2,3.6l0,7.1L6.2,18.4z M0.8,14.4l5.4,3.1l5.4-3.1l0-6.3L6.2,5L0.8,8.1
		L0.8,14.4z"/>
	<path class="st0" d="M10.6,14.3l-6.2-3.6l0-7.1L10.6,0l6.2,3.6l0,7.1L10.6,14.3z M5.2,10.2l5.4,3.1l5.4-3.1L16,4l-5.4-3.1L5.2,4
		L5.2,10.2z"/>
	<path class="st0" d="M16.4,16l-6.2-3.6l0-7.1l6.2-3.6l6.2,3.6l0,7.1L16.4,16z M11,12l5.4,3.1l5.4-3.1l0-6.3l-5.4-3.1L11,5.8L11,12z
		"/>
	<path class="st0" d="M17.8,21.9l-6.2-3.6v-7.1l6.2-3.6l6.2,3.6v7.1L17.8,21.9z M12.4,18l5.4,3.1l5.4-3.1v-6.3l-5.4-3.1l-5.4,3.1V18
		z"/>
	<path class="st0" d="M13.3,26.1l-6.2-3.6l0-7.1l6.2-3.6l6.2,3.6l0,7.1L13.3,26.1z M7.9,22l5.4,3.1l5.4-3.1l0-6.3l-5.4-3.1l-5.4,3.1
		L7.9,22z"/>
	<path class="st0" d="M7.5,24.3l-6.2-3.6l0-7.1L7.6,10l6.2,3.6l0,7.1L7.5,24.3z M2.1,20.3l5.4,3.1l5.4-3.1l0-6.3l-5.4-3.1L2.1,14
		L2.1,20.3z"/>
</g>
<g>
	<g>
		<path class="st0" d="M39.3,21.5l-3.2-5.7h-2.5v5.7h-3.4V5.4h7.6c3.4,0,5.4,2.2,5.4,5.2c0,2.9-1.8,4.4-3.5,4.8l3.6,6.1H39.3z
			 M39.6,10.6c0-1.4-1-2.2-2.4-2.2h-3.6v4.4h3.6C38.5,12.8,39.6,11.9,39.6,10.6z"/>
		<path class="st0" d="M44.1,15.7c0-3.4,2.5-6.1,6.1-6.1c3.5,0,5.9,2.6,5.9,6.4v0.7h-8.7c0.2,1.5,1.4,2.7,3.4,2.7
			c1,0,2.4-0.4,3.1-1.2l1.4,2c-1.2,1.1-3,1.6-4.8,1.6C46.8,21.8,44.1,19.4,44.1,15.7z M50.2,12c-1.9,0-2.7,1.4-2.9,2.6h5.8
			C53,13.5,52.2,12,50.2,12z"/>
		<path class="st0" d="M59,21.5v-9H57V9.8H59V9.2c0-2.5,1.6-4.1,3.9-4.1c0.9,0,1.7,0.2,2.2,0.5l-0.6,2.2c-0.2-0.2-0.6-0.3-1-0.3
			c-0.9,0-1.5,0.6-1.5,1.6v0.6h2.4v2.7h-2.4v9H59z M66.2,21.5V5.4h3.1v16.1H66.2z"/>
		<path class="st0" d="M71.6,15.7c0-3.4,2.5-6.1,6.1-6.1c3.5,0,5.9,2.6,5.9,6.4v0.7h-8.7c0.2,1.5,1.4,2.7,3.4,2.7
			c1,0,2.4-0.4,3.1-1.2l1.4,2c-1.2,1.1-3,1.6-4.8,1.6C74.3,21.8,71.6,19.4,71.6,15.7z M77.6,12c-1.9,0-2.7,1.4-2.9,2.6h5.8
			C80.4,13.5,79.6,12,77.6,12z"/>
		<path class="st0" d="M85,15.7c0-3.6,2.6-6.1,6.2-6.1c2.4,0,3.8,1,4.6,2.1l-2,1.9c-0.6-0.8-1.4-1.3-2.5-1.3c-1.9,0-3.2,1.4-3.2,3.4
			s1.3,3.4,3.2,3.4c1.1,0,1.9-0.5,2.5-1.3l2,1.9c-0.8,1.1-2.2,2.1-4.6,2.1C87.5,21.8,85,19.3,85,15.7z"/>
		<path class="st0" d="M98.4,18.6v-6.1h-1.9V9.8h1.9V6.6h3.1v3.2h2.4v2.7h-2.4v5.3c0,0.7,0.4,1.3,1.1,1.3c0.5,0,0.9-0.2,1.1-0.3
			l0.7,2.3c-0.5,0.4-1.3,0.8-2.6,0.8C99.5,21.8,98.4,20.7,98.4,18.6z"/>
		<path class="st0" d="M105.6,6.7c0-1,0.8-1.8,1.8-1.8c1,0,1.8,0.8,1.8,1.8c0,1-0.8,1.8-1.8,1.8C106.5,8.6,105.6,7.7,105.6,6.7z
			 M106,21.5V9.8h3.1v11.7H106z"/>
		<path class="st0" d="M111.3,15.7c0-3.3,2.3-6.1,6.2-6.1c3.9,0,6.2,2.8,6.2,6.1c0,3.3-2.3,6.1-6.2,6.1
			C113.7,21.8,111.3,19,111.3,15.7z M120.5,15.7c0-1.8-1.1-3.4-3-3.4c-1.9,0-3,1.6-3,3.4c0,1.8,1.1,3.4,3,3.4
			C119.4,19.1,120.5,17.5,120.5,15.7z"/>
		<path class="st0" d="M133.9,21.5v-7.1c0-1.6-0.8-2.2-2.2-2.2c-1.2,0-2.2,0.7-2.7,1.4v7.9H126V9.8h3.1v1.5c0.8-0.9,2.2-1.8,4.1-1.8
			c2.6,0,3.8,1.5,3.8,3.7v8.3H133.9z"/>
		<path class="st0" d="M139,20l1.3-2.2c0.8,0.8,2.6,1.6,4,1.6c1.3,0,2-0.5,2-1.3c0-1.9-6.9-0.4-6.9-5c0-2,1.7-3.7,4.8-3.7
			c2,0,3.6,0.7,4.7,1.6l-1.2,2.1c-0.7-0.8-2-1.4-3.5-1.4c-1.1,0-1.8,0.5-1.8,1.2c0,1.7,6.9,0.3,6.9,5c0,2.1-1.8,3.8-5.1,3.8
			C142.2,21.8,140.2,21.1,139,20z"/>
	</g>
</g>
</svg>
