<!-- Generator: Adobe Illustrator 22.0.1, SVG Export Plug-In  -->
<svg version="1.1"
	 xmlns="http://www.w3.org/2000/svg" xmlns:xlink="http://www.w3.org/1999/xlink" xmlns:a="http://ns.adobe.com/AdobeSVGViewerExtensions/3.0/"
	 x="0px" y="0px" width="173.4px" height="175.6px" viewBox="0 0 173.4 175.6" style="enable-background:new 0 0 173.4 175.6;"
	 xml:space="preserve">
<style type="text/css">
	.st0{fill:#FFFFFF;}
	.st1{clip-path:url(#SVGID_2_);}
	.st2{clip-path:url(#SVGID_4_);}
</style>
<defs>
</defs>
<g>
	<g>
		<g>
			<path class="st0" d="M51.8,75.2l-1.3-2.3c-2.2-3.7-2.6-7.4-1.2-10.2c1.3-2.6,4.1-4.4,7.7-4.8l0.1,0c10.3-0.2,19.3,5.1,28,10.2
				l1.3,0.7l-1.1,1.9l-1.3-0.7C75.7,65,67,59.9,57.3,60c-2.9,0.4-5,1.7-6,3.6c-1.1,2.2-0.7,5.1,1.1,8.2l1.3,2.3L51.8,75.2z"/>
		</g>
		<g>
			<defs>
				<path id="SVGID_1_" d="M114.6,58.9c-17.7-0.3-31.7,16.1-47,18.8c-5.2,0.9-10.5,0-14.7-3.1l4.1,7.2c4.3,7.4,11.3,19.6,15.6,27.1
					l5.5,9.5c4.3,7.4,11.3,7.4,15.6,0l5.5-9.5c4.3-7.4,11.3-19.6,15.6-27.1l5.5-9.5C124.3,65.5,121.7,59.8,114.6,58.9z"/>
			</defs>
			<clipPath id="SVGID_2_">
				<use xlink:href="#SVGID_1_"  style="overflow:visible;"/>
			</clipPath>
			<g class="st1">
				<path class="st0" d="M96.8,158c-3.4,0-6.5-2.2-8.8-6.1l-25.3-43.8l1.5-1.5c4.9,2.7,9.6,3.7,14,3c6.5-1.1,12.7-4.8,19.3-8.7
					c8.7-5.1,17.7-10.3,28-10.2l0.1,0c3.7,0.5,6.4,2.2,7.7,4.8c1.4,2.9,1,6.5-1.2,10.2l-26.6,46.1C103.3,155.8,100.2,158,96.8,158z
					 M66.5,110.1l23.5,40.7c1.9,3.2,4.3,5,6.9,5c2.6,0,5-1.8,6.9-5l26.6-46.1c1.8-3.1,2.2-6,1.1-8.2c-1-1.9-3.1-3.2-6-3.6
					c-9.7-0.2-18.4,4.9-26.8,9.9c-6.8,4-13.1,7.7-20,8.9C74.7,112.4,70.6,111.8,66.5,110.1z"/>
				<path class="st0" d="M91.7,143.1c-3.4,0-6.5-2.2-8.8-6.1L57.6,93.2l1.5-1.5c4.9,2.7,9.6,3.7,14,3c6.5-1.1,12.7-4.8,19.3-8.7
					c8.7-5.1,17.6-10.4,28-10.2l0.1,0c3.7,0.5,6.4,2.2,7.7,4.8c1.4,2.9,1,6.5-1.2,10.2L100.5,137C98.2,141,95.1,143.1,91.7,143.1z
					 M61.4,95.2l23.5,40.7c1.9,3.2,4.3,5,6.9,5c2.6,0,5-1.8,6.9-5l26.6-46.1c1.8-3.1,2.2-6,1.1-8.2c-1-1.9-3.1-3.2-6-3.6
					c-9.6-0.1-18.4,4.9-26.8,9.9c-6.8,4-13.1,7.7-20,8.9C69.6,97.5,65.5,97,61.4,95.2z"/>
			</g>
		</g>
		<path class="st0" d="M85.9,125.1L85.9,125.1c-3.4,0-6.5-2.2-8.8-6.1L51.8,75.2l1.6-1.4c3.8,2.8,8.7,3.8,13.9,2.9
			c6.5-1.1,12.7-4.8,19.3-8.7c8.7-5.1,17.7-10.4,28-10.2l0.1,0c3.7,0.5,6.4,2.2,7.7,4.8c1.4,2.9,1,6.5-1.2,10.2L94.7,119
			C92.4,123,89.3,125.1,85.9,125.1z M55.8,77.6L79,117.9c1.9,3.2,4.3,5,6.9,5c2.6,0,5-1.8,6.9-5l26.6-46.1c1.8-3.1,2.2-6,1.1-8.2
			c-1-1.9-3.1-3.2-6-3.6c-9.6-0.1-18.4,4.9-26.8,9.9c-6.8,4-13.1,7.7-20,8.9C63.5,79.6,59.3,79.1,55.8,77.6z"/>
	</g>
	<g>
		<rect x="86" class="st0" width="1.2" height="27.1"/>
		
			<rect x="81.3" y="9.7" transform="matrix(0.9976 -6.975174e-02 6.975174e-02 0.9976 -1.0892 5.7552)" class="st0" width="1.2" height="17.5"/>
		<rect x="76.4" y="7" transform="matrix(0.9903 -0.1392 0.1392 0.9903 -1.6655 10.8795)" class="st0" width="1.2" height="20.8"/>
		
			<rect x="72.5" y="16.4" transform="matrix(0.9782 -0.2079 0.2079 0.9782 -3.0682 15.6907)" class="st0" width="1.2" height="12.1"/>
		<rect x="66.4" y="5.3" transform="matrix(0.9613 -0.2756 0.2756 0.9613 -2.245 19.1536)" class="st0" width="1.2" height="24.5"/>
		<rect x="63" y="13.9" transform="matrix(0.9397 -0.342 0.342 0.9397 -3.8677 23.0943)" class="st0" width="1.2" height="17.2"/>
		<rect x="59.1" y="17.8" transform="matrix(0.9135 -0.4068 0.4068 0.9135 -5.1302 26.4531)" class="st0" width="1.2" height="15"/>
		<rect x="53" y="12" transform="matrix(0.8829 -0.4695 0.4695 0.8829 -4.8319 27.9101)" class="st0" width="1.2" height="23.3"/>
		<rect x="46.2" y="6" transform="matrix(0.848 -0.5299 0.5299 0.848 -4.6126 28.1756)" class="st0" width="1.2" height="32.3"/>
		<rect x="44.9" y="18" transform="matrix(0.809 -0.5878 0.5878 0.809 -8.468 32.3069)" class="st0" width="1.2" height="22.4"/>
		
			<rect x="42.8" y="25.9" transform="matrix(0.7661 -0.6428 0.6428 0.7661 -11.9015 35.9439)" class="st0" width="1.2" height="16.9"/>
		
			<rect x="38.1" y="26" transform="matrix(0.7193 -0.6947 0.6947 0.7193 -14.2783 37.0716)" class="st0" width="1.2" height="20.4"/>
		
			<rect x="32.7" y="24.8" transform="matrix(0.6691 -0.7431 0.7431 0.6691 -17.063 37.2782)" class="st0" width="1.2" height="25.9"/>
		
			<rect x="35.4" y="40.8" transform="matrix(0.6156 -0.788 0.788 0.6156 -22.6001 46.1817)" class="st0" width="1.2" height="10.9"/>
		<rect x="29.1" y="37.4" transform="matrix(0.5592 -0.829 0.829 0.5592 -26.1839 45.497)" class="st0" width="1.2" height="19.9"/>
		<rect x="20.5" y="31" transform="matrix(0.5 -0.866 0.866 0.5 -30.9641 42.2495)" class="st0" width="1.2" height="33.8"/>
		
			<rect x="21.6" y="41.4" transform="matrix(0.4384 -0.8988 0.8988 0.4384 -36.3745 50.4518)" class="st0" width="1.2" height="25.9"/>
		
			<rect x="21.8" y="49.3" transform="matrix(0.3746 -0.9272 0.9272 0.3746 -41.4447 58.1752)" class="st0" width="1.2" height="21.1"/>
		<rect x="25.9" y="61.7" transform="matrix(0.3091 -0.951 0.951 0.3091 -44.6714 70.9348)" class="st0" width="1.2" height="9"/>
		
			<rect x="18.1" y="57.5" transform="matrix(0.2419 -0.9703 0.9703 0.2419 -52.5963 70.3032)" class="st0" width="1.2" height="22.6"/>
		<rect x="14" y="58.6" transform="matrix(0.1736 -0.9848 0.9848 0.1736 -59.889 74.7062)" class="st0" width="1.2" height="28.9"/>
		
			<rect x="20" y="71.1" transform="matrix(0.1045 -0.9945 0.9945 0.1045 -59.9391 91.0298)" class="st0" width="1.2" height="15.4"/>
		
			<rect x="15.3" y="71.3" transform="matrix(3.490528e-02 -0.9994 0.9994 3.490528e-02 -67.8369 96.2876)" class="st0" width="1.2" height="24"/>
		
			<rect x="10.6" y="87.5" transform="matrix(0.9994 -3.516885e-02 3.516885e-02 0.9994 -3.0859 0.7315)" class="st0" width="17.4" height="1.2"/>
		<rect x="7.7" y="92.3" transform="matrix(0.9945 -0.1045 0.1045 0.9945 -9.6171 2.3884)" class="st0" width="20.6" height="1.2"/>
		
			<rect x="-0.1" y="97.8" transform="matrix(0.9848 -0.1739 0.1739 0.9848 -16.9003 4.0119)" class="st0" width="29.1" height="1.2"/>
		
			<rect x="10.8" y="101.6" transform="matrix(0.9703 -0.2421 0.2421 0.9703 -24.1442 7.9709)" class="st0" width="19.1" height="1.2"/>
		
			<rect x="20.4" y="104.9" transform="matrix(0.9512 -0.3086 0.3086 0.9512 -31.3064 13.0812)" class="st0" width="10.6" height="1.2"/>
		
			<rect x="16.4" y="110.2" transform="matrix(0.9271 -0.3748 0.3748 0.9271 -39.7208 17.2886)" class="st0" width="16.3" height="1.2"/>
		
			<rect x="10.6" y="116.2" transform="matrix(0.8987 -0.4386 0.4386 0.8987 -48.9191 21.8555)" class="st0" width="24.4" height="1.2"/>
		
			<rect x="24.7" y="117.4" transform="matrix(0.8658 -0.5003 0.5003 0.8658 -54.954 31.154)" class="st0" width="11.9" height="1.2"/>
		
			<rect x="20.2" y="123.4" transform="matrix(0.8286 -0.5599 0.5599 0.8286 -64.2804 37.9851)" class="st0" width="19.4" height="1.2"/>
		
			<rect x="17.2" y="129.2" transform="matrix(0.7879 -0.6158 0.6158 0.7879 -73.5417 46.1073)" class="st0" width="25.8" height="1.2"/>
		
			<rect x="15.1" y="135.1" transform="matrix(0.7428 -0.6695 0.6695 0.7428 -82.8366 55.7176)" class="st0" width="31.9" height="1.2"/>
		
			<rect x="31.8" y="133.3" transform="matrix(0.6948 -0.7192 0.7192 0.6948 -84.0822 69.6706)" class="st0" width="16.6" height="1.2"/>
		<rect x="28.3" y="139.7" transform="matrix(0.6429 -0.766 0.766 0.6429 -92.8572 81.355)" class="st0" width="25" height="1.2"/>
		
			<rect x="28.4" y="144.6" transform="matrix(0.5881 -0.8088 0.8088 0.5881 -99.6333 94.8785)" class="st0" width="29.8" height="1.2"/>
		
			<rect x="29.1" y="149.5" transform="matrix(0.5296 -0.8482 0.8482 0.5296 -105.5616 109.9103)" class="st0" width="34.5" height="1.2"/>
		
			<rect x="39.8" y="148.5" transform="matrix(0.469 -0.8832 0.8832 0.469 -103.6137 125.8785)" class="st0" width="26.2" height="1.2"/>
		
			<rect x="50.2" y="146.9" transform="matrix(0.4065 -0.9137 0.9137 0.4065 -99.6685 141.5027)" class="st0" width="17.8" height="1.2"/>
		
			<rect x="52.8" y="149.9" transform="matrix(0.3419 -0.9397 0.9397 0.3419 -99.942 158.2343)" class="st0" width="20.4" height="1.2"/>
		
			<rect x="61.3" y="148.4" transform="matrix(0.2755 -0.9613 0.9613 0.2755 -93.6146 173.713)" class="st0" width="14.2" height="1.2"/>
		<rect x="70" y="146.1" transform="matrix(0.207 -0.9783 0.9783 0.207 -85.1263 188.3363)" class="st0" width="7.3" height="1.2"/>
		
			<rect x="69" y="151.4" transform="matrix(0.1387 -0.9903 0.9903 0.1387 -84.0114 207.4414)" class="st0" width="16.5" height="1.2"/>
		
			<rect x="70.2" y="155.1" transform="matrix(7.031015e-02 -0.9975 0.9975 7.031015e-02 -79.4079 226.2465)" class="st0" width="23" height="1.2"/>
		<rect x="86" y="144.4" class="st0" width="1.2" height="31.1"/>
		
			<rect x="90.6" y="144.2" transform="matrix(0.9976 -6.971094e-02 6.971094e-02 0.9976 -10.3904 6.7292)" class="st0" width="1.2" height="16"/>
		
			<rect x="95.1" y="143.8" transform="matrix(0.9903 -0.1392 0.1392 0.9903 -20.0418 14.7859)" class="st0" width="1.2" height="13.8"/>
		
			<rect x="100.1" y="142.9" transform="matrix(0.9782 -0.2079 0.2079 0.9782 -29.4502 24.2618)" class="st0" width="1.2" height="18.6"/>
		
			<rect x="103.1" y="142" transform="matrix(0.9613 -0.2756 0.2756 0.9613 -36.0737 34.2137)" class="st0" width="1.2" height="6.9"/>
		
			<rect x="110" y="140.2" transform="matrix(0.9397 -0.342 0.342 0.9397 -45.2755 47.0058)" class="st0" width="1.2" height="23.4"/>
		
			<rect x="113.3" y="138.6" transform="matrix(0.9135 -0.4067 0.4067 0.9135 -50.027 59.0723)" class="st0" width="1.2" height="17.2"/>
		<rect x="115.9" y="137" transform="matrix(0.883 -0.4694 0.4694 0.883 -53.0075 71.2844)" class="st0" width="1.2" height="10"/>
		
			<rect x="122.7" y="133.9" transform="matrix(0.848 -0.5299 0.5299 0.848 -57.8357 87.2901)" class="st0" width="1.2" height="21.2"/>
		
			<rect x="128.6" y="130.6" transform="matrix(0.809 -0.5878 0.5878 0.809 -60.1955 103.5042)" class="st0" width="1.2" height="27.6"/>
		
			<rect x="134.9" y="126.6" transform="matrix(0.7661 -0.6428 0.6428 0.7661 -60.8879 120.7896)" class="st0" width="1.2" height="34.9"/>
		
			<rect x="135" y="124.6" transform="matrix(0.7193 -0.6947 0.6947 0.7193 -56.7912 132.5575)" class="st0" width="1.2" height="24"/>
		<polygon class="st0" points="144,138.3 129.8,125.4 130.6,124.5 144.8,137.4 		"/>
		<rect x="138" y="119" transform="matrix(0.6156 -0.788 0.788 0.6156 -46.3149 157.7593)" class="st0" width="1.2" height="14.6"/>
		
			<rect x="146" y="112.5" transform="matrix(0.5592 -0.829 0.829 0.5592 -40.0248 177.1737)" class="st0" width="1.2" height="27.5"/>
		<rect x="152.4" y="106.1" transform="matrix(0.5 -0.866 0.866 0.5 -30.9634 194.495)" class="st0" width="1.2" height="36"/>
		
			<rect x="150.2" y="104.2" transform="matrix(0.4384 -0.8988 0.8988 0.4384 -20.5189 201.3218)" class="st0" width="1.2" height="25.7"/>
		
			<rect x="148.3" y="102.4" transform="matrix(0.3746 -0.9272 0.9272 0.3746 -9.7191 207.43)" class="st0" width="1.2" height="17.1"/>
		<rect x="146.8" y="100.2" transform="matrix(0.309 -0.951 0.951 0.309 1.5147 213.0912)" class="st0" width="1.2" height="10.6"/>
		
			<rect x="152.4" y="92.5" transform="matrix(0.2419 -0.9703 0.9703 0.2419 16.7107 225.9695)" class="st0" width="1.2" height="19.5"/>
		
			<rect x="158.2" y="83.8" transform="matrix(0.1736 -0.9848 0.9848 0.1736 34.2692 237.7925)" class="st0" width="1.2" height="29.4"/>
		
			<rect x="155" y="82.3" transform="matrix(0.1045 -0.9945 0.9945 0.1045 46.8356 237.9901)" class="st0" width="1.2" height="21.4"/>
		
			<rect x="154.1" y="78.6" transform="matrix(3.490269e-02 -0.9994 0.9994 3.490269e-02 61.2762 239.6832)" class="st0" width="1.2" height="19.1"/>
		
			<rect x="145.2" y="82.9" transform="matrix(0.9994 -3.516885e-02 3.516885e-02 0.9994 -2.8431 5.3528)" class="st0" width="11.1" height="1.2"/>
		
			<rect x="144.9" y="77.7" transform="matrix(0.9944 -0.1055 0.1055 0.9944 -7.3886 16.9946)" class="st0" width="24.2" height="1.2"/>
		
			<rect x="144.2" y="73.4" transform="matrix(0.9848 -0.1739 0.1739 0.9848 -10.5413 27.7319)" class="st0" width="17.5" height="1.2"/>
		
			<rect x="143.3" y="69.6" transform="matrix(0.9703 -0.2421 0.2421 0.9703 -12.5776 38.0958)" class="st0" width="10.8" height="1.2"/>
		<rect x="142" y="65" transform="matrix(0.9512 -0.3086 0.3086 0.9512 -12.9771 49.074)" class="st0" width="13.2" height="1.2"/>
		
			<rect x="140.6" y="61.4" transform="matrix(0.927 -0.3751 0.3751 0.927 -12.6747 58.9884)" class="st0" width="9.1" height="1.2"/>
		
			<rect x="138.6" y="56.4" transform="matrix(0.8991 -0.4378 0.4378 0.8991 -10.2788 69.4367)" class="st0" width="13.7" height="1.2"/>
		
			<rect x="136.2" y="51.3" transform="matrix(0.8661 -0.4999 0.4999 0.8661 -6.5403 79.4875)" class="st0" width="17.8" height="1.2"/>
		
			<rect x="132.9" y="44.9" transform="matrix(0.8293 -0.5588 0.5588 0.8293 -0.4447 89.4841)" class="st0" width="26.7" height="1.2"/>
		
			<rect x="130.6" y="42.7" transform="matrix(0.7882 -0.6154 0.6154 0.7882 3.2015 95.8709)" class="st0" width="20.6" height="1.2"/>
		
			<rect x="128.1" y="40.6" transform="matrix(0.7428 -0.6696 0.6696 0.7428 7.4115 101.6796)" class="st0" width="15.8" height="1.2"/>
		
			<rect x="125.5" y="38.7" transform="matrix(0.6948 -0.7192 0.7192 0.6948 11.8318 106.502)" class="st0" width="11.7" height="1.2"/>
		
			<rect x="121.3" y="33.8" transform="matrix(0.6429 -0.766 0.766 0.6429 19.9607 111.5909)" class="st0" width="16.7" height="1.2"/>
		
			<rect x="116.1" y="28" transform="matrix(0.5881 -0.8088 0.8088 0.5881 29.6493 115.3772)" class="st0" width="23.9" height="1.2"/>
		
			<rect x="110.4" y="22.3" transform="matrix(0.5304 -0.8478 0.8478 0.5304 39.6793 117.4312)" class="st0" width="30.8" height="1.2"/>
		
			<rect x="109.6" y="25.8" transform="matrix(0.4697 -0.8828 0.8828 0.4697 39.3422 118.2727)" class="st0" width="17.1" height="1.2"/>
		
			<rect x="104.7" y="22.7" transform="matrix(0.407 -0.9134 0.9134 0.407 46.5618 118.2818)" class="st0" width="19.4" height="1.2"/>
		
			<rect x="102.5" y="24" transform="matrix(0.3419 -0.9397 0.9397 0.3419 48.4334 118.4669)" class="st0" width="12.7" height="1.2"/>
		
			<rect x="99.3" y="24.1" transform="matrix(0.2755 -0.9613 0.9613 0.2755 51.6331 117.9446)" class="st0" width="9.6" height="1.2"/>
		
			<rect x="94.2" y="22.1" transform="matrix(0.2079 -0.9781 0.9781 0.2079 56.9369 115.7817)" class="st0" width="11.5" height="1.2"/>
		
			<rect x="85.6" y="16.5" transform="matrix(0.1396 -0.9902 0.9902 0.1396 65.8587 109.9752)" class="st0" width="21.3" height="1.2"/>
		
			<rect x="85.2" y="20.7" transform="matrix(6.930459e-02 -0.9976 0.9976 6.930459e-02 63.4737 110.7102)" class="st0" width="11.8" height="1.2"/>
	</g>
</g>
</svg>
