<!-- Generator: Adobe Illustrator 22.0.1, SVG Export Plug-In  -->
<svg version="1.1"
	 xmlns="http://www.w3.org/2000/svg" xmlns:xlink="http://www.w3.org/1999/xlink" xmlns:a="http://ns.adobe.com/AdobeSVGViewerExtensions/3.0/"
	 x="0px" y="0px" width="260px" height="71px" viewBox="0 0 721.5 196" style="enable-background:new 0 0 721.5 196;"
	 xml:space="preserve">
<style type="text/css">
	.st0{fill:#1A1A1A;}
	.st1{clip-path:url(#SVGID_2_);fill:#DB611D;}
	.st2{clip-path:url(#SVGID_4_);fill:#DB611D;}
</style>
<defs>
</defs>
<g>
	<g>
		<path class="st0" d="M251.5,65.2c-1-4.3-3.1-7.8-4-9.1c-1.7-1.9-2.4-2.7-7.9-2.7h-5.9V97c0,7.8,0.9,8.3,9.2,9v3.4h-30.7v-3.4
			c7.9-0.6,8.7-1.2,8.7-9V53.5h-5.6c-5.2,0-6.7,0.8-8.4,3.1c-1.3,1.8-2.6,5.1-3.8,8.8h-3.5c0.6-6.8,1.3-14,1.5-18.4h2.8
			c1.4,2.1,2.5,2.3,5.3,2.3h37c2.5,0,3.8-0.6,5.4-2.3h2.7c0.1,3.9,0.5,12,0.9,18.1L251.5,65.2z"/>
		<path class="st0" d="M327.5,52.6c-7.2,0.7-7.9,1.3-7.9,9v35.5c0,7.7,0.7,8.2,7.9,8.9v3.4c-8.4,0-20.2,0-28.6,0v-3.4
			c7.3-0.9,7.9-1.2,7.9-8.9V79.7h-25v17.4c0,7.7,0.8,8.1,7.8,8.9v3.4c-8.3,0-20.2,0-28.5,0v-3.4c6.9-0.7,7.9-1.2,7.9-8.9V61.6
			c0-7.7-0.8-8.4-7.9-9v-3.4h28.5v3.4c-7,0.6-7.8,1.3-7.8,9v13.2h25V61.6c0-7.7-0.9-8.2-7.9-9v-3.4c8.4,0,20.2,0,28.6,0V52.6z"/>
		<path class="st0" d="M397.8,52.6c-5.9,0.6-7.5,2.3-7.9,5.6c-0.3,2.8-0.5,5.9-0.5,12.4v12.1c0,8-1.3,16-6.6,21.6
			c-4.3,4.4-10.8,6.4-17.4,6.4c-6.1,0-12.2-1.3-16.6-4.8c-5.4-4.1-8-9.7-8-20.1V62.4c0-8.5-0.8-9.2-7.9-9.8v-3.4h28.6v3.4
			c-6.9,0.6-7.8,1.3-7.8,9.8v24.6c0,10.4,5.1,17.2,15,17.2c11,0,15.8-8.1,15.8-22V70.7c0-6.4-0.3-9.7-0.5-12.5
			c-0.4-4.3-3-5.2-9.4-5.6v-3.4h23V52.6z"/>
		<path class="st0" d="M460.2,109.9c-0.6,0-1.7,0-2.8-0.1c-11.8-0.6-15.2-3.1-18-6.9c-3.7-5.1-6.4-10.7-9.5-16.3
			c-1.4-2.5-2.7-3.1-5.6-3.1l-1.9-0.1V97c0,7.5,0.9,8.1,7.9,9v3.4h-28.3v-3.4c7-0.7,7.9-1.5,7.9-9V61.5c0-7.3-0.9-8.3-7.9-8.9v-3.4
			h26.8c8.2,0,13,0.9,16.8,3.5c3.7,2.5,6.2,6.6,6.2,12.3c0,8.2-5.5,12.6-11.6,15c1.4,2.8,5,8.8,7.8,13.1c3.2,5.1,5.3,7.6,7,9.6
			c2.1,2.4,3.1,3.1,5.8,4.1L460.2,109.9z M424.9,79.7c4,0,7-0.6,9.1-2.4c3.1-2.6,4.4-6.1,4.4-10.8c0-9.8-5.6-13.3-10.8-13.3
			c-2.5,0-3.7,0.4-4.3,0.9c-0.6,0.6-0.8,1.7-0.8,3.5v22.1H424.9z"/>
		<path class="st0" d="M496.9,64.5c-1.9-5.9-4.4-12.7-13-12.7c-5.4,0-8.9,3.8-8.9,9c0,5.1,3.4,8.1,11.6,12.2
			c9.9,4.9,16.2,9.7,16.2,18.9c0,10.9-9.1,18.9-22.3,18.9c-5.9,0-11.2-1.6-15.6-2.9c-0.6-2.1-2.1-11.8-2.8-16.1l3.6-0.8
			c1.9,5.8,7,15.9,16.1,15.9c5.6,0,9.1-3.5,9.1-9.4c0-5.4-3.3-8.5-11.1-12.7c-9.6-5.2-15.9-9.8-15.9-19.4c0-10.1,7.6-17.4,21.5-17.4
			c6.4,0,11.2,1.4,13.2,1.7c0.4,3.4,1,8.2,1.8,14.1L496.9,64.5z"/>
		<path class="st0" d="M560.9,65.2c-1-4.3-3.1-7.8-4-9.1c-1.7-1.9-2.4-2.7-7.9-2.7h-5.9V97c0,7.8,0.9,8.3,9.2,9v3.4h-30.7v-3.4
			c7.9-0.6,8.7-1.2,8.7-9V53.5h-5.6c-5.2,0-6.7,0.8-8.4,3.1c-1.3,1.8-2.6,5.1-3.8,8.8h-3.5c0.6-6.8,1.3-14,1.5-18.4h2.8
			c1.4,2.1,2.5,2.3,5.3,2.3h37c2.5,0,3.8-0.6,5.4-2.3h2.7c0.1,3.9,0.5,12,0.9,18.1L560.9,65.2z"/>
		<path class="st0" d="M603,47.9c17.1,0,31.1,12.5,31.1,30.7c0,19.7-14.1,32.1-31.6,32.1c-18.5,0-31.9-13.5-31.9-31.4
			C570.6,63.5,581.9,47.9,603,47.9z M601.6,52c-9.4,0-16.4,9.3-16.4,25.6c0,15.6,6.2,29.1,18.7,29.1c8.8,0,15.6-8.5,15.6-25.5
			C619.6,62.9,612.4,52,601.6,52z"/>
		<path class="st0" d="M706.2,52.6c-5.6,0.7-7.4,1.9-7.7,6.1c-0.3,3.6-0.6,6.8-0.6,14.8v36.8h-5.2l-38.6-46.3V85
			c0,8.1,0.2,11.7,0.5,14.3c0.4,4.1,2.3,6.2,9.2,6.6v3.4h-23v-3.4c5.3-0.5,7.6-1.9,8.1-6.2c0.4-3.3,0.6-6.7,0.6-14.7V63.1
			c0-3.1-0.2-5.1-1.9-7.5c-1.7-2.3-3.9-2.6-7.8-3v-3.4h18.1l35.3,41V73.5c0-8.1-0.1-11.1-0.4-14.5c-0.3-4-1.8-5.9-9.4-6.4v-3.4h22.9
			V52.6z"/>
	</g>
</g>
<g>
	<g>
		<path class="st0" d="M245.5,130.5c-4.2,0.3-5.7,1.3-5.9,4.4c-0.1,1.5-0.2,4.3-0.2,10.4v7.2c0,6.8-0.8,12-4.7,16
			c-3.1,3.3-7.6,4.3-12.2,4.3c-3.9,0-8-0.8-10.9-3.1c-4-3.1-5.9-7.6-5.9-15.4v-17c0-6-0.5-6.4-5.9-6.8v-1.9h17.5v1.9
			c-5.3,0.3-5.9,0.9-5.9,6.8V154c0,9.7,4.6,15,12.6,15c9.4,0,12.4-5.9,12.4-16.9v-6.8c0-6.1-0.2-8.6-0.3-10.4
			c-0.2-3-1.7-4.1-6.6-4.4v-1.9h16V130.5z"/>
		<path class="st0" d="M308.5,130.5c-4.3,0.5-5.7,1.1-5.9,4.2c-0.1,2.1-0.2,4.9-0.2,11.1v26.7h-2.5l-28.5-34.8v16.6
			c0,6,0.2,9,0.3,10.9c0.1,3.4,1.8,4.4,6.6,4.8v1.9h-16.2V170c4.1-0.3,5.7-1.3,6-4.6c0.2-2.1,0.3-5.1,0.3-11.2v-17
			c0-1.9-0.1-2.9-1.3-4.4c-1.3-1.7-2.7-2.1-5.9-2.4v-1.9h10l28.2,33.4v-16.3c0-6.2-0.1-9-0.3-11c-0.2-3-1.7-3.9-7-4.3v-1.9h16.4
			V130.5z"/>
		<path class="st0" d="M326.5,171.9V170c5.5-0.6,6-0.9,6-6.5v-26.4c0-5.7-0.5-6-6-6.6v-1.9h17.8v1.9c-5.5,0.6-6.1,0.9-6.1,6.6v26.4
			c0,5.7,0.5,5.9,6.1,6.5v1.9H326.5z"/>
		<path class="st0" d="M404.2,130.5c-4.5,0.6-5.6,1.2-8,7.2c-1.8,4.4-11,26.7-14.2,34.9h-2.2c-3.9-10.7-9.6-26.3-13.4-36.1
			c-1.9-4.9-3-5.6-7-6v-1.9h16.9v1.9c-4.9,0.5-5.2,1.3-4.3,3.8c1.7,4.9,6.5,18.1,10.7,29.1c3.5-8.6,7.9-19.4,11-27.8
			c1.5-3.9,0.7-4.5-4.8-5.1v-1.9h15.3V130.5z"/>
		<path class="st0" d="M452.7,161.3c-0.4,1.7-2.2,8.6-2.9,10.6h-32.3V170c6.2-0.5,6.6-1.1,6.6-6.5v-26.3c0-5.9-0.7-6.3-5.7-6.7v-1.9
			h20.3c6.3,0,8.8-0.1,9.6-0.1c0.1,1.7,0.3,6.6,0.6,10.2l-2,0.3c-0.6-2.3-1.3-3.7-2-5.1c-1.1-2.2-2.6-2.7-6.6-2.7h-6.3
			c-2.1,0-2.2,0.2-2.2,2.1v14.7h7.4c5,0,5.3-1,6.1-5.5h2.1v13.7h-2.1c-0.9-4.8-1.4-5.5-6.2-5.5h-7.3v13.2c0,4.7,1.5,5.1,4.8,5.1h6.2
			c4.1,0,4.7-0.6,6.2-2.3c1.3-1.4,2.7-4.1,3.6-6.1L452.7,161.3z"/>
		<path class="st0" d="M510,172.4c-0.9,0-1.6-0.1-2.5-0.1c-4.9-0.3-7.4-1.6-10.4-5.7c-2.5-3.4-4.9-7.6-7-11
			c-1.3-2.1-2.2-2.5-5.6-2.5h-2.3v10.4c0,5.7,0.7,6,6.1,6.5v1.9h-17.8V170c5.5-0.6,6-0.9,6-6.5v-26.5c0-5.7-0.7-5.9-6-6.5v-1.9h17
			c4.9,0,8.1,0.6,10.6,2.3c2.7,1.7,4.5,4.7,4.5,8.8c0,5.7-3.7,9.3-8.6,11.4c1.2,2.1,4.1,6.5,6.1,9.5c2.5,3.5,3.7,5.2,5.3,6.8
			c1.8,1.9,3.3,2.7,4.9,3.1L510,172.4z M485.5,150.8c3.5,0,5.7-0.5,7.3-1.9c2.6-1.9,3.7-4.6,3.7-8.2c0-7.1-4.7-9.7-9.8-9.7
			c-1.9,0-3.1,0.3-3.5,0.7c-0.6,0.5-0.8,1.1-0.8,2.9v16.3H485.5z"/>
		<path class="st0" d="M547.8,138.8c-1.1-4.4-3.3-8.8-9.1-8.8c-5.2,0-7.2,3.7-7.2,7.2c0,4.8,3.2,7.1,8.4,9.8
			c5.3,2.7,11.4,5.7,11.4,13.2c0,7-6,12.6-14.6,12.6c-3.7,0-7.4-1.1-10.2-2.1c-0.5-1.7-1.3-7.1-1.8-10.2l2.1-0.5
			c1.1,4.1,4.1,10.4,10.9,10.4c5.1,0,8-3.1,8-7.9c0-5-3.5-7.2-8.6-10c-4.3-2.3-11-5.6-11-13.2c0-6.4,4.7-11.6,13.5-11.6
			c3.9,0,7.7,1,9.1,1.1c0.3,2.4,0.5,5.3,1.1,9.6L547.8,138.8z"/>
		<path class="st0" d="M570.7,171.9V170c5.5-0.6,6-0.9,6-6.5v-26.4c0-5.7-0.5-6-6-6.6v-1.9h17.8v1.9c-5.5,0.6-6.1,0.9-6.1,6.6v26.4
			c0,5.7,0.5,5.9,6.1,6.5v1.9H570.7z"/>
		<path class="st0" d="M642.8,139.1c-0.6-2.1-1.4-4.3-2.1-5.5c-1.1-1.8-1.7-2.3-5.4-2.3h-6.6v32.4c0,5.2,0.5,5.9,6.8,6.3v1.9h-19.4
			V170c6.2-0.4,6.7-1.1,6.7-6.3v-32.4h-6.1c-3.7,0-4.7,0.4-5.9,2.4c-0.8,1.3-1.3,2.9-2.2,5.4h-2c0.4-4.1,0.8-8.2,1-12h1.5
			c1,1.6,1.7,1.5,3.6,1.5h26.3c1.9,0,2.4-0.3,3.4-1.5h1.6c0,3.1,0.3,7.9,0.6,11.8L642.8,139.1z"/>
		<path class="st0" d="M699,130.5c-4.7,0.5-5.5,1.3-8.1,5.5c-3,4.9-5.5,9.4-8.7,15.4c-0.8,1.5-1,2.3-1,3.9v8.2
			c0,5.5,0.6,5.9,6.8,6.5v1.9h-19.1V170c6.1-0.8,6.5-0.9,6.5-6.5v-8.6c0-1.3-0.3-1.9-1.3-3.9c-2.3-4.3-4.6-8.5-8.2-14.8
			c-2.6-4.5-3.3-5.3-7.8-5.8v-1.9h16.4v1.9c-4.8,0.7-4.5,1.5-3.3,3.8c2.8,5.1,5.9,11.1,8.7,16.1c2.4-4.5,6.2-11.7,8-15.4
			c1.5-3.3,1.3-4-3.9-4.5v-1.9h15V130.5z"/>
	</g>
</g>
<path class="st0" d="M154,44c-20.9,0-39-11.9-48-29.3C97,32.1,78.9,44,58,44c-8.7,0-16.8-2-24.1-5.7C42.3,149.9,106,191,106,191
	s63.8-40.3,72.1-152.7C170.8,41.9,162.7,44,154,44z"/>
<g>
	<defs>
		<path id="SVGID_1_" d="M154,44c-20.9,0-39-11.9-48-29.3C97,32.1,78.9,44,58,44c-8.7,0-16.8-2-24.1-5.7C42.3,149.9,106,191,106,191
			s63.8-40.3,72.1-152.7C170.8,41.9,162.7,44,154,44z"/>
	</defs>
	<clipPath id="SVGID_2_">
		<use xlink:href="#SVGID_1_"  style="overflow:visible;"/>
	</clipPath>
	<rect class="st1" width="186" height="109"/>
</g>
</svg>
