<svg xmlns="http://www.w3.org/2000/svg" viewBox="0 0 193.4 193.4"><defs><style>.cls-1{fill:#f0f0f0;}.cls-2{fill:#00b174;}</style></defs><title>Ресурс 2</title><g id="Слой_2" data-name="Слой 2"><g id="Слой_1-2" data-name="Слой 1"><path class="cls-1" d="M14.3,66.7A87.9,87.9,0,0,1,93.6,9.1V.2A96.82,96.82,0,0,0,5.8,64Z"/><path class="cls-2" d="M99.8,9a87.79,87.79,0,0,1,79.3,57.6l8.5-2.8A96.82,96.82,0,0,0,99.8,0Z"/><path class="cls-1" d="M37.4,173l5.2-7.2A87.75,87.75,0,0,1,8.9,96.7a86.63,86.63,0,0,1,3.4-24.1L3.8,69.8A95.56,95.56,0,0,0,0,96.7,96.63,96.63,0,0,0,37.4,173Z"/><path class="cls-1" d="M181.1,72.6a87.56,87.56,0,0,1-30.3,93.2L156,173A96.66,96.66,0,0,0,189.6,69.8Z"/><path class="cls-1" d="M145.7,169.5a87.53,87.53,0,0,1-98,0l-5.2,7.2a96.3,96.3,0,0,0,108.4,0Z"/></g></g></svg>