<svg xmlns="http://www.w3.org/2000/svg" viewBox="0 0 216.8 216.8"><defs><style>.cls-1{fill:#00b174;}.cls-2{fill:#f0f0f0;}</style></defs><title>Ресурс 3</title><g id="Слой_2" data-name="Слой 2"><g id="Слой_1-2" data-name="Слой 1"><path class="cls-1" d="M111.9,10a98.6,98.6,0,0,1,94.9,94.9h10A108.54,108.54,0,0,0,111.9,0V10Z"/><path class="cls-2" d="M10,104.9A98.6,98.6,0,0,1,104.9,10V0A108.54,108.54,0,0,0,0,104.9Z"/><path class="cls-2" d="M104.9,206.8A98.6,98.6,0,0,1,10,111.9H0A108.54,108.54,0,0,0,104.9,216.8Z"/><path class="cls-2" d="M206.8,111.9a98.6,98.6,0,0,1-94.9,94.9v10A108.54,108.54,0,0,0,216.8,111.9Z"/></g></g></svg>