<svg xmlns="http://www.w3.org/2000/svg" viewBox="0 0 193.1 193.2"><defs><style>.cls-1{fill:#00b174;}.cls-2{fill:#f0f0f0;}</style></defs><title>Ресурс 4</title><g id="Слой_2" data-name="Слой 2"><g id="Слой_1-2" data-name="Слой 1"><path class="cls-1" d="M99.7,0V8.9a86.74,86.74,0,0,1,34.9,8.6l4.1-7.9A97.47,97.47,0,0,0,99.7,0Z"/><path class="cls-2" d="M177.9,44.4l-7.3,5.1a87.16,87.16,0,0,1,12.7,33.6l8.9-1.1A97.4,97.4,0,0,0,177.9,44.4Z"/><path class="cls-2" d="M114.5,182.5a88.37,88.37,0,0,1-17.9,1.8,82.05,82.05,0,0,1-18-1.9l-2.1,8.7a97.24,97.24,0,0,0,40.2,0Z"/><path class="cls-2" d="M8.9,96.6q0-3.75.3-7.5L.4,88C.2,90.8,0,93.7,0,96.6a95.16,95.16,0,0,0,5.2,31.3l8.3-3.2A86.68,86.68,0,0,1,8.9,96.6Z"/><path class="cls-2" d="M184.3,96.6a84.71,84.71,0,0,1-4.7,28.2l8.3,3.2a95.75,95.75,0,0,0,5.2-31.4,79.35,79.35,0,0,0-.4-8.5l-8.8,1.1A60.08,60.08,0,0,1,184.3,96.6Z"/><path class="cls-2" d="M177.5,130.7a87.74,87.74,0,0,1-20.4,29.5l5.9,6.7a97.45,97.45,0,0,0,22.9-33Z"/><path class="cls-2" d="M15.7,130.6l-8.3,3.2a97.62,97.62,0,0,0,22.8,33l5.9-6.7A86.76,86.76,0,0,1,15.7,130.6Z"/><path class="cls-2" d="M140.1,20.5A90.18,90.18,0,0,1,167,44.3l7.3-5.1a98.39,98.39,0,0,0-30-26.7Z"/><path class="cls-2" d="M26.2,44.3A87.67,87.67,0,0,1,53.1,20.5L49,12.6A98.43,98.43,0,0,0,18.9,39.2Z"/><path class="cls-2" d="M158.3,171l-5.9-6.7A86.67,86.67,0,0,1,120.6,181l2.1,8.7A97.33,97.33,0,0,0,158.3,171Z"/><path class="cls-2" d="M1.1,81.9,10,83A87.32,87.32,0,0,1,22.8,49.4l-7.3-5.1A95,95,0,0,0,1.1,81.9Z"/><path class="cls-2" d="M58.6,17.5A86.74,86.74,0,0,1,93.5,8.9V0a96.64,96.64,0,0,0-39,9.6Z"/><path class="cls-2" d="M72.6,181a88.2,88.2,0,0,1-31.8-16.7L34.9,171a96.9,96.9,0,0,0,35.5,18.7Z"/></g></g></svg>