<svg xmlns="http://www.w3.org/2000/svg" viewBox="0 0 368.9 356.98"><defs><style>.cls-1{fill:#00b174;}.cls-1,.cls-2{stroke:#fafafa;stroke-miterlimit:10;stroke-width:5px;}.cls-2{fill:#e8e8e8;}.cls-3{fill:#fff;}</style></defs><title>Ресурс 13</title><g id="Слой_2" data-name="Слой 2"><g id="Слой_1-2" data-name="Слой 1"><path class="cls-1" d="M184.4,178.54,79.6,193.44a57.19,57.19,0,0,0-29.5,11,58.27,58.27,0,1,0,88.1,69.5Z"/><path class="cls-1" d="M184.4,178.54l-93.5-49.6a56.81,56.81,0,0,0-30.3-8.4,58.2,58.2,0,1,0,30.5,107.9Z"/><path class="cls-1" d="M184.4,178.54l-46.5-95.1A58.25,58.25,0,1,0,79.5,164Z"/><path class="cls-1" d="M202.7,74.24a58.2,58.2,0,1,0-94.5,30.9l76.2,73.4Z"/><path class="cls-1" d="M240.4,5.34a58.17,58.17,0,0,0-74.5,68.9l18.5,104.3,76.1-73.6a58.28,58.28,0,0,0-20.1-99.6Z"/><path class="cls-1" d="M330.1,69.44a58.16,58.16,0,0,0-81.7-10.3,57,57,0,0,0-18.7,25.3L186.3,181l104.4-17.9a57.83,57.83,0,0,0,29.1-11.8A58.59,58.59,0,0,0,330.1,69.44Z"/><path class="cls-1" d="M366.4,178.24a58.29,58.29,0,0,0-88.6-49.6l-93.4,49.9,93.5,49.6a56.81,56.81,0,0,0,30.3,8.4A58.21,58.21,0,0,0,366.4,178.24Z"/><path class="cls-1" d="M318.8,203.94A57.94,57.94,0,0,0,289.3,193l-104.9-14.5,46.5,95.1a58.25,58.25,0,1,0,87.9-69.7Z"/><path class="cls-2" d="M278.2,278.14a58.16,58.16,0,0,0-17.5-26.2l-76.3-73.4-18.3,104.3a58.25,58.25,0,1,0,112.1-4.7Z"/><path class="cls-2" d="M203,282.74l-18.6-104.2-76.1,73.6a58.22,58.22,0,1,0,93.4,62A57.09,57.09,0,0,0,203,282.74Z"/><path class="cls-1" d="M37.3,285.74a58.28,58.28,0,0,0,100.9-11.9l46.2-95.3"/><circle class="cls-3" cx="184.4" cy="178.54" r="111.1"/></g></g></svg>