<svg xmlns="http://www.w3.org/2000/svg" width="935.026" height="6" viewBox="0 0 935.026 6">
  <path id="Path_1815" data-name="Path 1815" d="M117.487,1944.968c8.061,0,8.061,6,16.121,6s8.059-6,16.119-6,8.06,6,16.119,6,8.061-6,16.121-6,8.06,6,16.119,6,8.06-6,16.12-6,8.06,6,16.12,6,8.06-6,16.12-6,8.06,6,16.121,6,8.06-6,16.119-6,8.061,6,16.121,6,8.058-6,16.117-6,8.057,6,16.114,6,8.058-6,16.116-6,8.061,6,16.121,6,8.059-6,16.117-6,8.058,6,16.116,6,8.059-6,16.119-6,8.059,6,16.119,6,8.058-6,16.116-6,8.06,6,16.119,6,8.06-6,16.12-6,8.058,6,16.117,6,8.06-6,16.12-6,8.06,6,16.119,6,8.06-6,16.119-6,8.061,6,16.121,6,8.06-6,16.119-6,8.061,6,16.123,6,8.059-6,16.119-6,8.061,6,16.122,6,8.06-6,16.12-6,8.061,6,16.121,6,8.061-6,16.122-6,8.06,6,16.12,6,8.061-6,16.122-6,8.062,6,16.124,6,8.061-6,16.122-6,8.06,6,16.121,6,8.061-6,16.122-6,8.061,6,16.122,6,8.062-6,16.123-6,8.062,6,16.124,6,8.062-6,16.123-6,8.062,6,16.123,6,8.06-6,16.12-6,8.061,6,16.121,6,8.061-6,16.122-6,8.063,6,16.125,6,8.062-6,16.123-6,8.062,6,16.124,6,8.062-6,16.124-6,8.063,6,16.126,6,8.061-6,16.122-6,8.064,6,16.127,6,8.064-6,16.129-6,8.065,6,16.13,6,8.065-6,16.131-6" transform="translate(-117.487 -1944.968)" fill="#fff"/>
</svg>
